<?xml version="1.0" encoding="iso-8859-1"?>
<!-- Generator: Adobe Illustrator 19.0.0, SVG Export Plug-In . SVG Version: 6.00 Build 0)  -->
<svg version="1.1" id="Layer_1" xmlns="http://www.w3.org/2000/svg" xmlns:xlink="http://www.w3.org/1999/xlink" x="0px" y="0px"
	 viewBox="0 0 504 504" style="enable-background:new 0 0 504 504;" xml:space="preserve">
<path style="fill:#CCCCCC;" d="M18.8,416h2c-10,0-17.2-7.2-17.2-17.2v2C4,410,10,416,18.8,416z"/>
<path style="fill:#F4EFEF;" d="M482.8,88h-462c-7.6,0-13.2,7.2-13.2,15.2v296c0,7.6,5.2,13.2,13.2,13.2h464
	c7.6,0,15.2-5.2,15.2-13.2v-294C500,96,492,88,482.8,88z M146.4,360c-52,0-94.4-42.4-94.4-94.8s41.2-93.6,93.2-93.6
	c1.2,0,2.4,0.8,2.4,2V264H238c1.2,0,2,1.2,2,2.4C240.4,318.4,199.2,360,146.4,360z M262.4,244h-93.2H168v-1.2v-93.6
	c0-1.2,0.4-2,1.6-2c53.6,0,95.2,41.6,95.2,94.8C264.4,243.6,263.6,244,262.4,244z M434,356c-1.2,0.4-2,0-3.2,0h-74h-2h-18h-2h-4
	c-1.2,0-2,0.4-3.2,0c-8.4-1.6-14.8-9.2-14.8-18c0-10,8-18.4,18-18.4h6h20h74c10,0,18,8.4,18,18.4C448.8,347.2,442.4,354.8,434,356z
	 M434,300c-1.2,0.4-2,0-3.2,0h-22h-2h-18h-2h-56c-1.2,0-2,0.4-3.2,0c-8.4-1.6-14.8-9.2-14.8-18c0-10,8-18.4,18-18.4h58h20h22
	c10,0,18,8.4,18,18.4C448.8,291.2,442.4,298.8,434,300z M434,244c-1.2,0.4-2,0-3.2,0h-50h-2h-18h-2h-28c-1.2,0-2,0.4-3.2,0
	c-8.4-1.6-14.8-9.2-14.8-18c0-10,8-18.4,18-18.4h30h20h50c10,0,18,8.4,18,18.4C448.8,235.2,442.4,242.8,434,244z M434,184
	c-1.2,0.4-2,0-3.2,0h-6h-2h-18h-2h-72c-1.2,0-2,0.4-3.2,0c-8.4-1.6-14.8-9.2-14.8-18c0-10,8-18.4,18-18.4h74h20h6
	c10,0,18,8.4,18,18.4C448.8,175.2,442.4,182.8,434,184z"/>
<path style="fill:#CCCCCC;" d="M144.8,269.2c-1.2,0-2-0.8-2-2v2H144.8z"/>
<path style="fill:#61C2AB;" d="M56.8,265.2c0,50,40.4,90.4,90,90.4c50,0,88.8-39.2,90-87.2h-91.6H144v-1.2v-91.6
	C96,176.4,56.8,215.6,56.8,265.2z"/>
<path style="fill:#E36D60;" d="M172,151.6V240h88.4C259.2,192,220,152.8,172,151.6z"/>
<g>
	<path style="fill:#CCCCCC;" d="M166.8,243.2v2h2C168,245.2,166.8,244,166.8,243.2z"/>
	<path style="fill:#CCCCCC;" d="M434,184.8c-1.2,0-2,0.4-3.2,0.4C432,185.2,433.2,184.8,434,184.8z"/>
</g>
<g>
	<path style="fill:#FFC52F;" d="M430.8,180c7.6,0,14-6.4,14-14s-6.4-14-14-14H428v28H430.8z"/>
	<path style="fill:#FFC52F;" d="M331.2,152c-7.6,0-14,6.4-14,14s6.4,14,14,14H404v-28H331.2z"/>
</g>
<path style="fill:#CCCCCC;" d="M331.2,185.2c-1.2,0-2,0-3.2-0.4C328.8,184.8,330,185.2,331.2,185.2z"/>
<g>
	<path style="fill:#FFC52F;" d="M430.8,352c7.6,0,14-6.4,14-14s-6.4-14-14-14H360v28H430.8z"/>
	<path style="fill:#FFC52F;" d="M331.2,324c-7.6,0-14,6.4-14,14s6.4,14,14,14h4.8v-28H331.2z"/>
</g>
<g>
	<path style="fill:#CCCCCC;" d="M331.2,357.2c-1.2,0-2,0-3.2-0.4C328.8,356.8,330,357.2,331.2,357.2z"/>
	<path style="fill:#CCCCCC;" d="M434,356.8c-1.2,0-2,0.4-3.2,0.4C432,357.2,433.2,356.8,434,356.8z"/>
	<path style="fill:#CCCCCC;" d="M331.2,301.2c-1.2,0-2,0-3.2-0.4C328.8,300.8,330,301.2,331.2,301.2z"/>
	<path style="fill:#CCCCCC;" d="M434,300.8c-1.2,0-2,0.4-3.2,0.4C432,301.2,433.2,300.8,434,300.8z"/>
</g>
<g>
	<path style="fill:#FFC52F;" d="M331.2,268c-7.6,0-14,6.4-14,14s6.4,14,14,14H388v-28H331.2z"/>
	<path style="fill:#FFC52F;" d="M430.8,296c7.6,0,14-6.4,14-14s-6.4-14-14-14H412v28H430.8z"/>
	<path style="fill:#FFC52F;" d="M331.2,212c-7.6,0-14,6.4-14,14s6.4,14,14,14H360v-28H331.2z"/>
</g>
<g>
	<path style="fill:#CCCCCC;" d="M434,244.8c-1.2,0-2,0.4-3.2,0.4C432,245.2,433.2,244.8,434,244.8z"/>
	<path style="fill:#CCCCCC;" d="M331.2,245.2c-1.2,0-2,0-3.2-0.4C328.8,244.8,330,245.2,331.2,245.2z"/>
</g>
<path style="fill:#FFC52F;" d="M430.8,240c7.6,0,14-6.4,14-14s-6.4-14-14-14H384v28H430.8z"/>
<rect x="392" y="268" style="fill:#E9B526;" width="16" height="28"/>
<path style="fill:#CCCCCC;" d="M386.8,299.2v2h2C388,301.2,386.8,300,386.8,299.2z"/>
<rect x="408" y="152" style="fill:#E9B526;" width="16" height="28"/>
<path style="fill:#CCCCCC;" d="M402.8,183.2v2h2C404,185.2,402.8,184,402.8,183.2z"/>
<rect x="340" y="324" style="fill:#E9B526;" width="16" height="28"/>
<path style="fill:#CCCCCC;" d="M334.8,355.2v2h2C336,357.2,334.8,356,334.8,355.2z"/>
<rect x="364" y="212" style="fill:#E9B526;" width="16" height="28"/>
<path style="fill:#CCCCCC;" d="M358.8,243.2v2h2C360,245.2,358.8,244,358.8,243.2z"/>
<path d="M484,420H20c-11.2,0-20-8.8-20-20V104c0-11.2,8.8-20,20-20h464c11.2,0,20,8.8,20,20v296C504,411.2,495.2,420,484,420z
	 M20,92c-6.8,0-12,5.2-12,12v296c0,6.8,5.2,12,12,12h464c6.8,0,12-5.2,12-12V104c0-6.8-5.2-12-12-12H20z"/>
<path d="M146,362.4c-52.4,0-96.4-44.4-96.4-97.2c0-53.6,41.6-95.6,94.4-95.6c2.4,0,4,1.6,4,4V264h90.4c2.4,0,4,1.6,4,4
	C242.4,320.8,200,362.4,146,362.4z M140,177.6c-46.4,2-82.4,40-82.4,87.6c0,48.4,40.4,89.2,88.4,89.2c48.4,0,86.4-36,88.4-82.4H144
	c-2.4,0-4-1.6-4-4V177.6z"/>
<path d="M262.4,248H168c-2.4,0-4-1.6-4-4v-94.4c0-2.4,1.6-4,4-4c54.4,0,98.4,44,98.4,98.4C266.4,246.4,264.4,248,262.4,248z
	 M172,240h86.4c-2-46.8-39.6-84.4-86.4-86.4V240z"/>
<path d="M430.8,188h-100c-11.2,0-20-8.8-20-20s8.8-20,20-20h100c11.2,0,20,8.8,20,20S442,188,430.8,188z M331.2,156
	c-6.8,0-12,5.2-12,12s5.6,12,12,12h100c6.8,0,12-5.2,12-12s-5.6-12-12-12H331.2z"/>
<path d="M430.8,360h-100c-11.2,0-20-8.8-20-20s8.8-20,20-20h100c11.2,0,20,8.8,20,20S442,360,430.8,360z M331.2,328
	c-6.8,0-12,5.2-12,12s5.6,12,12,12h100c6.8,0,12-5.2,12-12s-5.6-12-12-12H331.2z"/>
<path d="M430.8,304h-100c-11.2,0-20-8.8-20-20s8.8-20,20-20h100c11.2,0,20,8.8,20,20S442,304,430.8,304z M331.2,272
	c-6.8,0-12,5.2-12,12s5.6,12,12,12h100c6.8,0,12-5.2,12-12s-5.6-12-12-12H331.2z"/>
<path d="M430.8,248h-100c-11.2,0-20-8.8-20-20s8.8-20,20-20h100c11.2,0,20,8.8,20,20S442,248,430.8,248z M331.2,216
	c-6.8,0-12,5.2-12,12s5.6,12,12,12h100c6.8,0,12-5.2,12-12s-5.6-12-12-12H331.2z"/>
<path d="M408,304h-20c-2.4,0-4-1.6-4-4v-32c0-2.4,1.6-4,4-4h20c2.4,0,4,1.6,4,4v32C412,302.4,410.4,304,408,304z M392,296h12v-24
	h-12V296z"/>
<path d="M424,188h-20c-2.4,0-4-1.6-4-4v-32c0-2.4,1.6-4,4-4h20c2.4,0,4,1.6,4,4v32C428,186.4,426.4,188,424,188z M408,180h12v-24
	h-12V180z"/>
<path d="M356,360h-20c-2.4,0-4-1.6-4-4v-32c0-2.4,1.6-4,4-4h20c2.4,0,4,1.6,4,4v32C360,358.4,358.4,360,356,360z M340,352h12v-24
	h-12V352z"/>
<path d="M380,248h-20c-2.4,0-4-1.6-4-4v-32c0-2.4,1.6-4,4-4h20c2.4,0,4,1.6,4,4v32C384,246.4,382.4,248,380,248z M364,240h12v-24
	h-12V240z"/>
<g>
</g>
<g>
</g>
<g>
</g>
<g>
</g>
<g>
</g>
<g>
</g>
<g>
</g>
<g>
</g>
<g>
</g>
<g>
</g>
<g>
</g>
<g>
</g>
<g>
</g>
<g>
</g>
<g>
</g>
</svg>
