<?xml version="1.0" encoding="utf-8"?>
<!-- Generator: Adobe Illustrator 26.1.0, SVG Export Plug-In . SVG Version: 6.00 Build 0)  -->
<svg version="1.1" id="Layer_1" xmlns:serif="http://www.serif.com/"
	 xmlns="http://www.w3.org/2000/svg" xmlns:xlink="http://www.w3.org/1999/xlink" x="0px" y="0px" viewBox="0 0 1615.8 1080"
	 style="enable-background:new 0 0 1615.8 1080;" xml:space="preserve">
<style type="text/css">
	.st0{fill-rule:evenodd;clip-rule:evenodd;fill:#FFFFFF;}
	.st1{fill:#DADADA;}
	.st2{fill:#0B0B0B;}
	.st3{fill:#1E1E1E;}
	.st4{fill:#6E6E6E;}
	.st5{fill:#FFFFFF;}
	.st6{fill:#D18DF0;}
	.st7{fill:#4DB3A0;}
	.st8{fill:#E5AD00;}
	.st9{fill:#F3C384;}
	.st10{fill:#BCE766;}
	.st11{fill:#76A5F9;}
	.st12{fill:#9EBFCA;}
	.st13{fill:#D90068;}
	.st14{fill:#00CEFF;}
</style>
<rect y="1.5" class="st0" width="1617.5" height="1078.3"/>
<path class="st1" d="M0,68.9V18.4C0,9.1,7.6,1.5,16.8,1.5h1583.8c9.3,0,16.8,7.6,16.8,16.8v50.5"/>
<circle class="st0" cx="42.8" cy="35.2" r="14.3"/>
<circle class="st0" cx="82.7" cy="35.2" r="14.3"/>
<circle class="st0" cx="122.8" cy="35.2" r="14.3"/>
<rect y="1073.1" class="st1" width="1617.5" height="6.7"/>
<path class="st1" d="M6.7,1079.9V68.9h1604v1010.9h6.7V62.2H0v1017.7H6.7z"/>
<rect x="1.7" y="68.9" class="st2" width="1614.1" height="1007.6"/>
<rect x="1.7" y="68.9" class="st3" width="251.9" height="1004.2"/>
<path class="st4" d="M89.6,171v-0.8c0-3.5,3.9-14.2,15.5-14.2c10.4,0,15.8,9.3,15.8,14.2v0.2c0,4.5-0.7,11.1-10.8,17.4
	c-6.2,3.7-10.4,6.6-13.1,9.4c-1.2,1.2-2,2.5-2.5,4v2.7H123v4H89.1v-0.5c0-6.2,1.7-9.8,4.7-13c3-3.4,8.3-6.7,14.3-10.6
	c8.1-5.2,8.3-9.3,8.3-12.3V171c0-3.7-3.9-10.8-11.1-10.8c-8.4,0-11.1,8.1-11.1,10.8H89.6z M167.3,163.6c3,4.7,4.4,11.1,4.4,18.4
	c0,7.4-1.5,13.8-4.4,18.7c-2.9,4.7-6.9,7.6-12.1,7.6c-5.4,0-9.4-2.9-12.3-7.6c-3-4.9-4.4-11.3-4.4-18.7c0-7.2,1.5-13.6,4.4-18.4
	c2.9-4.7,6.9-7.6,12.3-7.6C160.4,156,164.4,158.9,167.3,163.6z M146.1,166.7c-2,3.9-3.2,9.3-3.2,15.5c0,6.2,1.2,11.8,3.2,15.7
	c2.2,4,5.2,6.6,9.1,6.6c3.9,0,6.7-2.5,8.9-6.6c2-3.9,3.2-9.4,3.2-15.7c0-6.1-1.2-11.6-3.2-15.5c-2.2-4-5.1-6.4-8.9-6.4
	C151.3,160.1,148.3,162.6,146.1,166.7z M89.6,296.4v-0.7c0-3.5,3.9-14.2,15.5-14.2c10.4,0,15.8,9.3,15.8,14.2v0.2
	c0,4.5-0.7,11.1-10.8,17.4c-6.2,3.7-10.4,6.6-13.1,9.4c-1.2,1.2-2,2.5-2.5,4v2.7H123v4H89.1V333c0-6.2,1.7-9.8,4.7-13
	c3-3.4,8.3-6.7,14.3-10.6c8.1-5.2,8.3-9.3,8.3-12.3v-0.7c0-3.7-3.9-10.8-11.1-10.8c-8.4,0-11.1,8.1-11.1,10.8H89.6z M162.9,282.1
	v51.2h-4.4V290H158c-3.9,2.9-8.1,3.2-12.6,3.2v-4c6.1,0,13.1-1.5,13.1-7.1H162.9z M89.6,422.1v-0.8c0-3.5,3.9-14.2,15.5-14.2
	c10.4,0,15.8,9.3,15.8,14.2v0.2c0,4.5-0.7,11.1-10.8,17.4c-6.2,3.7-10.4,6.6-13.1,9.4c-1.2,1.2-2,2.5-2.5,4v2.7H123v4H89.1v-0.5
	c0-6.2,1.7-9.8,4.7-13c3-3.4,8.3-6.7,14.3-10.6c8.1-5.2,8.3-9.3,8.3-12.3v-0.5c0-3.7-3.9-10.8-11.1-10.8c-8.4,0-11.1,8.1-11.1,10.8
	H89.6z M137.1,422.1v-0.8c0-3.5,3.9-14.2,15.5-14.2c10.4,0,15.8,9.3,15.8,14.2v0.2c0,4.5-0.7,11.1-10.8,17.4
	c-6.2,3.7-10.4,6.6-13.1,9.4c-1.2,1.2-2,2.5-2.5,4v2.7h28.5v4h-33.9v-0.5c0-6.2,1.7-9.8,4.7-13c3-3.4,8.3-6.7,14.3-10.6
	c8.1-5.2,8.3-9.3,8.3-12.3v-0.5c0-3.7-3.9-10.8-11.1-10.8c-8.4,0-11.1,8.1-11.1,10.8H137.1z M89.6,547.4v-0.7
	c0-3.5,3.9-14.2,15.5-14.2c10.4,0,15.8,9.3,15.8,14.2v0.2c0,4.5-0.7,11.1-10.8,17.4c-6.2,3.7-10.4,6.6-13.1,9.4
	c-1.2,1.2-2,2.5-2.5,4v2.7H123v4H89.1V584c0-6.2,1.7-9.8,4.7-13c3-3.4,8.3-6.7,14.3-10.6c8.1-5.2,8.3-9.3,8.3-12.3v-0.7
	c0-3.7-3.9-10.8-11.1-10.8c-8.4,0-11.1,8.1-11.1,10.8H89.6z M138.3,571.7h4.5c0.8,5.2,5.7,9.1,11.6,9.1c6.6,0,11.8-4.9,11.8-11
	c0-5.9-5.1-11-11.3-11H150v-4h4.5c5.7,0,10.4-4,10.4-9.1c0-5.1-4.7-9.3-10.4-9.3s-10.3,4-10.4,9.1l-4.4-1.3
	c0.8-6.7,7.2-11.8,14.8-11.8c8.3,0,15,5.9,15,13.1c0,4.4-3.5,8.4-7.4,10.8v0.7c4.9,2.7,8.9,7.4,8.9,12.8c0,8.3-7.4,15-16.3,15
	C146.1,584.8,139.2,579.3,138.3,571.7z M89.6,673.1v-0.8c0-3.5,3.9-14.2,15.5-14.2c10.4,0,15.8,9.3,15.8,14.2v0.2
	c0,4.5-0.7,11.1-10.8,17.4c-6.2,3.7-10.4,6.6-13.1,9.4c-1.2,1.2-2,2.5-2.5,4v2.7H123v4H89.1v-0.5c0-6.2,1.7-9.8,4.7-13
	c3-3.4,8.3-6.7,14.3-10.6c8.1-5.2,8.3-9.3,8.3-12.3v-0.5c0-3.7-3.9-10.8-11.1-10.8c-8.4,0-11.1,8.1-11.1,10.8H89.6z M135.3,692.5
	l24.6-33.9h5.6v32.9h9.3v4h-9.3v14.3h-4.4v-14.3h-25.8V692.5z M140.7,691.5h20.4v-27.3h-0.2C153.2,675.2,148.4,680.7,140.7,691.5z
	 M89.6,798.5v-0.7c0-3.5,3.9-14.2,15.5-14.2c10.4,0,15.8,9.3,15.8,14.2v0.2c0,4.5-0.7,11.1-10.8,17.4c-6.2,3.7-10.4,6.6-13.1,9.4
	c-1.2,1.2-2,2.5-2.5,4v2.7H123v4H89.1v-0.5c0-6.2,1.7-9.8,4.7-13c3-3.4,8.3-6.7,14.3-10.6c8.1-5.2,8.3-9.3,8.3-12.3v-0.7
	c0-3.7-3.9-10.8-11.1-10.8c-8.4,0-11.1,8.1-11.1,10.8H89.6z M144.9,820.7c0,0,0.8,11.1,11.5,11.1c10.8,0,11.6-11.1,11.6-14.5
	c0-4.2-1.9-12.8-9.9-12.8c-6.1,0-10.1,6.4-10.3,7.2l-5.2-0.7l2.5-27.1h25.3v4h-21.2c-0.7,5.6-1.3,11.6-1.9,17.4h0.2
	c2.2-2.5,5.9-5.4,10.6-5.4c11.8,0,14.3,11.3,14.3,17c0,4.4-1.3,18.9-16.2,18.9c-13.1,0-15.7-12.3-16-14.7L144.9,820.7z M89.6,924.2
	v-0.8c0-3.5,3.9-14.2,15.5-14.2c10.4,0,15.8,9.3,15.8,14.2v0.2c0,4.5-0.7,11.1-10.8,17.4c-6.2,3.7-10.4,6.6-13.1,9.4
	c-1.2,1.2-2,2.5-2.5,4v2.7H123v4H89.1v-0.5c0-6.2,1.7-9.8,4.7-13c3-3.4,8.3-6.7,14.3-10.6c8.1-5.2,8.3-9.3,8.3-12.3v-0.5
	c0-3.7-3.9-10.8-11.1-10.8c-8.4,0-11.1,8.1-11.1,10.8H89.6z M167.8,922c-1.9-5.1-5.2-8.6-11.6-8.6c-8.4,0-13.5,9.6-13.5,22.7h0.3
	c2.5-5.2,7.2-9.3,12.6-9.3c9.4,0,16.7,7.9,16.7,17.7c0,9.4-7.2,17.2-16.3,17.2c-7.4,0-12.8-4.4-15.7-11.8c-1.5-4-2.2-8.8-2.2-14.3
	c0-14.3,6.7-26.3,17.9-26.3c8.4,0,13.1,4.5,15.7,11.5L167.8,922z M144.2,944.2c0,7.4,5.2,13.1,11.8,13.1s11.8-5.9,11.8-13.1
	c0-7.4-5.2-13.3-11.8-13.3S144.2,936.8,144.2,944.2z M105.3,1038.9c7.4,0,11.1,6.9,11.1,10.8v0.5c0,2.9-0.2,6.9-8.3,12.3
	c-6.1,3.9-11.1,7.4-14.3,10.6c-1,1-1.9,2.2-2.5,3.4h5.2c0.2-0.2,0.3-0.3,0.3-0.5c2.7-2.9,6.9-5.7,13.1-9.4
	c10.1-6.1,10.8-12.8,10.8-17.4v-0.2c0-4.9-5.4-14.2-15.8-14.2c-11.6,0-15.5,10.6-15.5,14.2v0.7H94
	C94.2,1046.8,97,1038.9,105.3,1038.9z M140.7,1035.2v4h24.1v1.2c-4.9,5.7-13.1,17.7-15.3,35.9h4.5c3.2-24.8,17.5-36.9,17.5-36.9
	v-4.2H140.7z"/>
<g>
	<path class="st5" d="M328.3,161.7h25.3v6.5l-16.7,19h16.7v6.2h-26v-6.5l16.7-19h-16V161.7z"/>
	<path class="st5" d="M360.7,177.6c0-5.1,1.3-9.2,4-12.2c2.7-3,6.2-4.5,10.7-4.5c4.5,0,8.1,1.5,10.7,4.5c2.7,3,4,7,4,12.2
		c0,5.1-1.3,9.2-4,12.2c-2.7,3-6.2,4.5-10.7,4.5c-4.5,0-8-1.5-10.7-4.5C362,186.8,360.7,182.7,360.7,177.6z M375.4,167.7
		c-2,0-3.5,0.9-4.7,2.6c-1.1,1.7-1.7,4.2-1.7,7.3s0.6,5.5,1.7,7.3c1.1,1.7,2.7,2.6,4.7,2.6c2,0,3.6-0.9,4.7-2.6
		c1.1-1.7,1.7-4.2,1.7-7.3s-0.6-5.5-1.7-7.3C378.9,168.5,377.4,167.7,375.4,167.7z"/>
	<path class="st5" d="M423.2,172.8v20.6h-8.2v-19.3c0-2.3-0.3-4-1-4.9s-1.7-1.5-3.2-1.5c-1.5,0-2.7,0.7-3.5,2
		c-0.9,1.3-1.3,3.2-1.3,5.6v18.2h-8.2v-31.7h8.2v4.8c0.6-1.8,1.6-3.1,3-4.1s3.1-1.4,5.1-1.4c3,0,5.3,1,6.8,3
		C422.4,165.9,423.2,168.9,423.2,172.8z"/>
	<path class="st5" d="M459,191.9c-1.9,0.8-3.9,1.4-5.9,1.8s-4.1,0.6-6.3,0.6c-5.3,0-9.4-1.4-12.2-4.3c-2.8-2.8-4.2-6.9-4.2-12.3
		c0-5.2,1.3-9.3,4-12.3s6.4-4.5,11-4.5c4.7,0,8.3,1.4,10.9,4.2c2.6,2.8,3.9,6.7,3.9,11.8v3.4h-21.5c0,2.5,0.8,4.4,2.2,5.6
		c1.5,1.2,3.6,1.8,6.5,1.8c1.9,0,3.8-0.3,5.6-0.8c1.9-0.5,3.8-1.4,5.8-2.6V191.9z M451.9,174c0-2.2-0.6-3.8-1.7-5
		c-1.1-1.1-2.7-1.7-4.8-1.7c-1.9,0-3.4,0.6-4.6,1.7s-1.8,2.8-2,4.9L451.9,174z"/>
	<path class="st6" d="M500.1,165.5H530v6.7h-29.9V165.5z M500.1,178.3H530v6.7h-29.9V178.3z"/>
	<path class="st5" d="M598.5,191c0,5.1-1.1,8.7-3.4,11c-2.3,2.3-6,3.4-11.2,3.4c-1.7,0-3.5-0.1-5.2-0.4s-3.4-0.6-5.2-1.2v-7.6
		c1.6,0.9,3.2,1.5,4.8,1.9c1.6,0.4,3.3,0.6,5,0.6c2.3,0,4.1-0.6,5.2-1.7s1.7-2.8,1.7-5.2v-3.4c-0.8,1.5-1.9,2.6-3.2,3.4
		s-3,1.1-4.9,1.1c-3.6,0-6.5-1.4-8.6-4.2s-3.2-6.7-3.2-11.5c0-5,1.1-9,3.2-12s5-4.4,8.6-4.4c1.8,0,3.4,0.4,4.8,1.3s2.5,2,3.3,3.6v-4
		h8.3V191z M590.2,177c0-2.8-0.5-5.1-1.6-6.8c-1.1-1.7-2.5-2.6-4.2-2.6c-1.7,0-3.1,0.8-4.2,2.5c-1.1,1.7-1.6,4-1.6,6.8
		c0,2.9,0.5,5.2,1.6,6.9c1.1,1.7,2.5,2.5,4.2,2.5c1.8,0,3.2-0.9,4.2-2.6C589.6,182.2,590.2,179.9,590.2,177z"/>
	<path class="st5" d="M633.6,191.9c-1.9,0.8-3.9,1.4-5.9,1.8s-4.1,0.6-6.3,0.6c-5.3,0-9.4-1.4-12.2-4.3c-2.8-2.8-4.2-6.9-4.2-12.3
		c0-5.2,1.3-9.3,4-12.3s6.4-4.5,11-4.5c4.7,0,8.3,1.4,10.9,4.2c2.6,2.8,3.9,6.7,3.9,11.8v3.4h-21.5c0,2.5,0.8,4.4,2.2,5.6
		c1.5,1.2,3.6,1.8,6.5,1.8c1.9,0,3.8-0.3,5.6-0.8c1.9-0.5,3.8-1.4,5.8-2.6V191.9z M626.5,174c0-2.2-0.6-3.8-1.7-5
		c-1.1-1.1-2.7-1.7-4.8-1.7c-1.9,0-3.4,0.6-4.6,1.7s-1.8,2.8-2,4.9L626.5,174z"/>
	<path class="st5" d="M640,177.6c0-5.1,1.3-9.2,4-12.2c2.7-3,6.2-4.5,10.7-4.5c4.5,0,8.1,1.5,10.7,4.5c2.7,3,4,7,4,12.2
		c0,5.1-1.3,9.2-4,12.2c-2.7,3-6.2,4.5-10.7,4.5c-4.5,0-8-1.5-10.7-4.5C641.4,186.8,640,182.7,640,177.6z M654.7,167.7
		c-2,0-3.5,0.9-4.7,2.6c-1.1,1.7-1.7,4.2-1.7,7.3s0.6,5.5,1.7,7.3c1.1,1.7,2.7,2.6,4.7,2.6c2,0,3.6-0.9,4.7-2.6
		c1.1-1.7,1.7-4.2,1.7-7.3s-0.6-5.5-1.7-7.3C658.3,168.5,656.7,167.7,654.7,167.7z"/>
	<path class="st5" d="M684.7,188.9v16.5h-8.3v-43.8h8.3v4.8c0.9-1.8,2-3.2,3.4-4.1c1.4-0.9,3.1-1.4,5-1.4c3.6,0,6.4,1.5,8.4,4.4
		c2,2.9,3,7,3,12.3c0,5.4-1,9.5-3,12.3c-2,2.9-4.9,4.3-8.7,4.3c-1.7,0-3.2-0.4-4.6-1.3C686.9,192,685.7,190.7,684.7,188.9z
		 M696.3,177.5c0-3.1-0.5-5.5-1.5-7.2c-1-1.7-2.4-2.6-4.2-2.6s-3.2,0.9-4.2,2.6c-1,1.7-1.6,4.1-1.6,7.2s0.5,5.5,1.6,7.2
		c1,1.7,2.5,2.6,4.2,2.6s3.2-0.9,4.2-2.6C695.8,183,696.3,180.6,696.3,177.5z"/>
	<path class="st5" d="M738.5,175.3v18.1h-8.2v-3.5c-1,1.4-2.3,2.5-3.9,3.2s-3.3,1.1-5.2,1.1c-3.6,0-6.4-1-8.4-2.9c-2-1.9-3-4.6-3-8
		c0-3.7,1.2-6.4,3.6-8.2c2.4-1.8,6.1-2.6,11.1-2.6h5.7v-1.4c0-1.3-0.5-2.4-1.5-3c-1-0.7-2.4-1-4.3-1c-2,0-3.9,0.3-5.8,0.8
		c-1.9,0.5-3.8,1.3-5.8,2.4v-7.1c1.8-0.8,3.7-1.3,5.6-1.7c1.9-0.4,3.9-0.5,6-0.5c5.2,0,8.8,1,10.9,3.1
		C737.4,166.2,738.5,169.9,738.5,175.3z M726.9,178.5c-3.1,0-5.3,0.4-6.5,1.2s-1.8,2.2-1.8,4.1c0,1.4,0.4,2.6,1.3,3.4s2,1.3,3.5,1.3
		c2.2,0,3.9-0.8,5.1-2.5c1.2-1.7,1.8-4,1.8-6.9v-0.6H726.9z"/>
	<path class="st5" d="M772.4,172.8v20.6h-8.2v-19.3c0-2.3-0.3-4-1-4.9s-1.7-1.5-3.2-1.5c-1.5,0-2.7,0.7-3.5,2
		c-0.9,1.3-1.3,3.2-1.3,5.6v18.2h-8.2v-31.7h8.2v4.8c0.6-1.8,1.6-3.1,3-4.1s3.1-1.4,5.1-1.4c3,0,5.3,1,6.8,3
		C771.6,165.9,772.4,168.9,772.4,172.8z"/>
	<path class="st5" d="M799.3,166.2v-16.9h8.3v44.1h-8.3v-4.7c-0.9,1.8-2,3.2-3.4,4.1c-1.4,0.9-3.1,1.4-5,1.4c-3.6,0-6.4-1.5-8.4-4.4
		c-2-2.9-3-7-3-12.3c0-5.4,1-9.5,3-12.3c2-2.9,4.9-4.3,8.7-4.3c1.7,0,3.2,0.4,4.6,1.3C797.1,163.1,798.3,164.4,799.3,166.2z
		 M787.8,177.6c0,3.1,0.5,5.5,1.5,7.2c1,1.7,2.4,2.6,4.2,2.6s3.2-0.9,4.2-2.6c1-1.7,1.6-4.1,1.6-7.2s-0.5-5.5-1.6-7.2
		c-1-1.7-2.5-2.6-4.2-2.6s-3.2,0.9-4.2,2.6C788.3,172.2,787.8,174.6,787.8,177.6z"/>
	<path class="st5" d="M843.2,175.3v18.1H835v-3.5c-1,1.4-2.3,2.5-3.9,3.2s-3.3,1.1-5.2,1.1c-3.6,0-6.4-1-8.4-2.9c-2-1.9-3-4.6-3-8
		c0-3.7,1.2-6.4,3.6-8.2c2.4-1.8,6.1-2.6,11.1-2.6h5.7v-1.4c0-1.3-0.5-2.4-1.5-3c-1-0.7-2.4-1-4.3-1c-2,0-3.9,0.3-5.8,0.8
		c-1.9,0.5-3.8,1.3-5.8,2.4v-7.1c1.8-0.8,3.7-1.3,5.6-1.7c1.9-0.4,3.9-0.5,6-0.5c5.2,0,8.8,1,10.9,3.1
		C842.2,166.2,843.2,169.9,843.2,175.3z M831.7,178.5c-3.1,0-5.3,0.4-6.5,1.2s-1.8,2.2-1.8,4.1c0,1.4,0.4,2.6,1.3,3.4s2,1.3,3.5,1.3
		c2.2,0,3.9-0.8,5.1-2.5c1.2-1.7,1.8-4,1.8-6.9v-0.6H831.7z"/>
	<path class="st5" d="M874.9,162.7v7.2c-1.5-1-3.1-1.7-4.8-2.2c-1.7-0.5-3.3-0.8-5-0.8c-1.9,0-3.2,0.3-4.2,0.8s-1.4,1.3-1.4,2.4
		c0,1.5,2,2.7,6.1,3.7l0.3,0.1l2.4,0.6c3,0.7,5.2,1.9,6.6,3.5c1.4,1.6,2.1,3.8,2.1,6.5c0,3.3-1.1,5.7-3.2,7.3
		c-2.1,1.6-5.4,2.4-9.7,2.4c-1.9,0-3.9-0.2-5.9-0.5s-4-0.8-6.1-1.5V185c1.8,1,3.7,1.8,5.6,2.4c1.9,0.5,3.7,0.8,5.5,0.8
		c1.9,0,3.4-0.3,4.4-0.8s1.5-1.4,1.5-2.5c0-1.1-0.4-1.9-1.1-2.4s-2.4-1.2-5.1-1.8l-2.3-0.5c-3.2-0.7-5.5-1.8-6.9-3.4
		s-2.2-3.6-2.2-6.1c0-3.1,1.1-5.4,3.3-7.1s5.3-2.5,9.3-2.5c1.8,0,3.6,0.1,5.4,0.4C871.4,161.7,873.2,162.1,874.9,162.7z"/>
	<path class="st5" d="M894.4,183h9.5v10.4h-9.5V183z"/>
	<path class="st7" d="M949.2,170.4c-0.9-0.8-2-1.5-3.2-1.9c-1.2-0.4-2.6-0.6-4-0.6c-1.8,0-3.3,0.3-4.6,0.9c-1.3,0.6-2.3,1.5-3,2.7
		c-0.5,0.7-0.8,1.6-0.9,2.6c-0.2,1-0.3,2.6-0.3,4.6v14.6h-8.3v-31.7h8.3v4.9c0.8-1.8,2.1-3.2,3.7-4.2s3.6-1.5,5.9-1.5
		c1.1,0,2.2,0.1,3.3,0.4c1.1,0.3,2.1,0.7,3.1,1.2V170.4z"/>
	<path class="st7" d="M982.8,191.9c-1.9,0.8-3.9,1.4-5.9,1.8s-4.1,0.6-6.3,0.6c-5.3,0-9.4-1.4-12.2-4.3c-2.8-2.8-4.2-6.9-4.2-12.3
		c0-5.2,1.3-9.3,4-12.3s6.4-4.5,11-4.5c4.7,0,8.3,1.4,10.9,4.2c2.6,2.8,3.9,6.7,3.9,11.8v3.4h-21.5c0,2.5,0.8,4.4,2.2,5.6
		c1.5,1.2,3.6,1.8,6.5,1.8c1.9,0,3.8-0.3,5.6-0.8c1.9-0.5,3.8-1.4,5.8-2.6V191.9z M975.7,174c0-2.2-0.6-3.8-1.7-5
		c-1.1-1.1-2.7-1.7-4.8-1.7c-1.9,0-3.4,0.6-4.6,1.7s-1.8,2.8-2,4.9L975.7,174z"/>
	<path class="st7" d="M1017.8,175.3v18.1h-8.2v-3.5c-1,1.4-2.3,2.5-3.9,3.2s-3.3,1.1-5.2,1.1c-3.6,0-6.4-1-8.4-2.9c-2-1.9-3-4.6-3-8
		c0-3.7,1.2-6.4,3.6-8.2c2.4-1.8,6.1-2.6,11.1-2.6h5.7v-1.4c0-1.3-0.5-2.4-1.5-3c-1-0.7-2.4-1-4.3-1c-2,0-3.9,0.3-5.8,0.8
		c-1.9,0.5-3.8,1.3-5.8,2.4v-7.1c1.8-0.8,3.7-1.3,5.6-1.7c1.9-0.4,3.9-0.5,6-0.5c5.2,0,8.8,1,10.9,3.1
		C1016.8,166.2,1017.8,169.9,1017.8,175.3z M1006.3,178.5c-3.1,0-5.3,0.4-6.5,1.2s-1.8,2.2-1.8,4.1c0,1.4,0.4,2.6,1.3,3.4
		s2,1.3,3.5,1.3c2.2,0,3.9-0.8,5.1-2.5c1.2-1.7,1.8-4,1.8-6.9v-0.6H1006.3z"/>
	<path class="st7" d="M1043.8,166.2v-16.9h8.3v44.1h-8.3v-4.7c-0.9,1.8-2,3.2-3.4,4.1c-1.4,0.9-3.1,1.4-5,1.4
		c-3.6,0-6.4-1.5-8.4-4.4c-2-2.9-3-7-3-12.3c0-5.4,1-9.5,3-12.3c2-2.9,4.9-4.3,8.7-4.3c1.7,0,3.2,0.4,4.6,1.3
		C1041.6,163.1,1042.8,164.4,1043.8,166.2z M1032.2,177.6c0,3.1,0.5,5.5,1.5,7.2c1,1.7,2.4,2.6,4.2,2.6s3.2-0.9,4.2-2.6
		c1-1.7,1.6-4.1,1.6-7.2s-0.5-5.5-1.6-7.2c-1-1.7-2.5-2.6-4.2-2.6s-3.2,0.9-4.2,2.6C1032.7,172.2,1032.2,174.6,1032.2,177.6z"/>
	<path class="st7" d="M1091.2,201.7v5.4h-34.9v-5.4H1091.2z"/>
	<path class="st7" d="M1112.1,158.9v2.8h9.7v6.4h-9.7v25.3h-8.3v-25.3h-7.7v-6.4h7.7v-2.2c0-3.8,0.8-6.5,2.4-7.9s4.5-2.2,8.8-2.2
		h6.8v6.4h-6.5c-1.2,0-2.1,0.2-2.5,0.7C1112.4,156.9,1112.2,157.7,1112.1,158.9z"/>
	<path class="st7" d="M1132.4,161.7h16.4V187h10.3v6.4h-28.9V187h10.3v-19h-8.1V161.7z M1140.5,146.3h8.3v9.7h-8.3V146.3z"/>
	<path class="st7" d="M1172,180.2v-24.5h-8.4v-6.4h16.7v30.8c0,2.5,0.4,4.3,1.2,5.3c0.8,1,2.1,1.6,3.9,1.6h6.6v6.4h-9
		c-3.9,0-6.8-1-8.5-3.1S1172,184.9,1172,180.2z"/>
	<path class="st7" d="M1227.2,191.9c-1.9,0.8-3.9,1.4-5.9,1.8s-4.1,0.6-6.3,0.6c-5.3,0-9.4-1.4-12.2-4.3c-2.8-2.8-4.2-6.9-4.2-12.3
		c0-5.2,1.3-9.3,4-12.3s6.4-4.5,11-4.5c4.7,0,8.3,1.4,10.9,4.2c2.6,2.8,3.9,6.7,3.9,11.8v3.4H1207c0,2.5,0.8,4.4,2.2,5.6
		c1.5,1.2,3.6,1.8,6.5,1.8c1.9,0,3.8-0.3,5.6-0.8c1.9-0.5,3.8-1.4,5.8-2.6V191.9z M1220.2,174c0-2.2-0.6-3.8-1.7-5
		c-1.1-1.1-2.7-1.7-4.8-1.7c-1.9,0-3.4,0.6-4.6,1.7s-1.8,2.8-2,4.9L1220.2,174z"/>
	<path class="st8" d="M1257.1,149.3c-2.5,4.5-4.3,8.9-5.6,13.1c-1.2,4.2-1.8,8.5-1.8,12.7c0,4.2,0.6,8.4,1.8,12.7s3.1,8.7,5.6,13.2
		h-6.5c-3-4.4-5.2-8.7-6.7-12.9s-2.2-8.6-2.2-13c0-4.4,0.7-8.7,2.2-13c1.5-4.3,3.7-8.6,6.7-12.9H1257.1z"/>
	<path class="st5" d="M1279,167.8h-8.9v-7.7l5.6-10.8h6.1l-2.8,10.8V167.8z M1293.7,167.8h-8.9v-7.7l5.6-10.8h6l-2.7,10.8V167.8z"/>
	<path class="st9" d="M389.3,242.4V263h-8.2v-19.3c0-2.3-0.3-3.9-1-4.9c-0.7-1-1.7-1.5-3.2-1.5c-1.5,0-2.7,0.7-3.5,2
		s-1.3,3.2-1.3,5.5V263h-8.2v-44.1h8.2v17.1c0.6-1.8,1.6-3.1,3-4.1s3.1-1.4,5.1-1.4c3,0,5.3,1,6.8,3
		C388.6,235.5,389.3,238.5,389.3,242.4z"/>
	<path class="st9" d="M413.5,222.3v9h10.8v6.4h-10.8v15c0,1.4,0.3,2.4,1,3c0.7,0.6,1.8,0.9,3.4,0.9h6.4v6.4h-7c-4.8,0-8-0.8-9.7-2.3
		c-1.7-1.5-2.5-4.3-2.5-8.5v-14.6h-8.1v-6.4h8.1v-9H413.5z"/>
	<path class="st9" d="M448.4,222.3v9h10.8v6.4h-10.8v15c0,1.4,0.3,2.4,1,3c0.7,0.6,1.8,0.9,3.4,0.9h6.4v6.4h-7c-4.8,0-8-0.8-9.7-2.3
		c-1.7-1.5-2.5-4.3-2.5-8.5v-14.6H432v-6.4h8.1v-9H448.4z"/>
	<path class="st9" d="M476.3,258.5v16.5H468v-43.8h8.3v4.8c0.9-1.8,2-3.2,3.4-4.1c1.4-0.9,3.1-1.4,5-1.4c3.6,0,6.4,1.5,8.4,4.4
		c2,2.9,3,7,3,12.3c0,5.4-1,9.5-3,12.3c-2,2.9-4.9,4.3-8.7,4.3c-1.7,0-3.2-0.4-4.6-1.3C478.5,261.6,477.3,260.3,476.3,258.5z
		 M487.8,247.1c0-3.1-0.5-5.5-1.5-7.2c-1-1.7-2.4-2.6-4.2-2.6s-3.2,0.9-4.2,2.6c-1,1.7-1.6,4.1-1.6,7.2s0.5,5.5,1.6,7.2
		c1,1.7,2.5,2.6,4.2,2.6s3.2-0.9,4.2-2.6C487.3,252.6,487.8,250.2,487.8,247.1z"/>
	<path class="st9" d="M526.7,232.3v7.2c-1.5-1-3.1-1.7-4.8-2.2c-1.7-0.5-3.3-0.8-5-0.8c-1.9,0-3.2,0.3-4.2,0.8s-1.4,1.3-1.4,2.4
		c0,1.5,2,2.7,6.1,3.7l0.3,0.1l2.4,0.6c3,0.7,5.2,1.9,6.6,3.5c1.4,1.6,2.1,3.8,2.1,6.5c0,3.3-1.1,5.7-3.2,7.3
		c-2.1,1.6-5.4,2.4-9.7,2.4c-1.9,0-3.9-0.2-5.9-0.5s-4-0.8-6.1-1.5v-7.2c1.8,1,3.7,1.8,5.6,2.4c1.9,0.5,3.7,0.8,5.5,0.8
		c1.9,0,3.4-0.3,4.4-0.8s1.5-1.4,1.5-2.5c0-1.1-0.4-1.9-1.1-2.4s-2.4-1.2-5.1-1.8l-2.3-0.5c-3.2-0.7-5.5-1.8-6.9-3.4
		s-2.2-3.6-2.2-6.1c0-3.1,1.1-5.4,3.3-7.1s5.3-2.5,9.3-2.5c1.8,0,3.6,0.1,5.4,0.4C523.3,231.3,525.1,231.7,526.7,232.3z"/>
	<path class="st9" d="M546.3,232.9h9.5v10.3h-9.5V232.9z M546.3,252.6h9.5V263h-9.5V252.6z"/>
	<path class="st9" d="M594,220.7h6.3L578,268.4h-6.3L594,220.7z"/>
	<path class="st9" d="M628.9,220.7h6.3l-22.3,47.7h-6.3L628.9,220.7z"/>
	<path class="st9" d="M649.3,249.8v-24.5h-8.4v-6.4h16.7v30.8c0,2.5,0.4,4.3,1.2,5.3c0.8,1,2.1,1.6,3.9,1.6h6.6v6.4h-8.9
		c-3.9,0-6.8-1-8.5-3.1S649.3,254.5,649.3,249.8z"/>
	<path class="st9" d="M704.7,244.9V263h-8.2v-3.5c-1,1.4-2.3,2.5-3.9,3.2s-3.3,1.1-5.2,1.1c-3.6,0-6.4-1-8.4-2.9c-2-1.9-3-4.6-3-8
		c0-3.7,1.2-6.4,3.6-8.2c2.4-1.8,6.1-2.6,11.1-2.6h5.7v-1.4c0-1.3-0.5-2.4-1.5-3c-1-0.7-2.4-1-4.3-1c-2,0-3.9,0.3-5.8,0.8
		c-1.9,0.5-3.8,1.3-5.8,2.4v-7.1c1.8-0.8,3.7-1.3,5.6-1.7c1.9-0.4,3.9-0.5,6-0.5c5.2,0,8.8,1,10.9,3.1
		C703.6,235.8,704.7,239.5,704.7,244.9z M693.1,248.1c-3.1,0-5.3,0.4-6.5,1.2s-1.8,2.2-1.8,4.1c0,1.4,0.4,2.6,1.3,3.4s2,1.3,3.5,1.3
		c2.2,0,3.9-0.8,5.1-2.5c1.2-1.7,1.8-4,1.8-6.9v-0.6H693.1z"/>
	<path class="st9" d="M738.5,242.4V263h-8.2v-19.3c0-2.3-0.3-4-1-4.9s-1.7-1.5-3.2-1.5c-1.5,0-2.7,0.7-3.5,2
		c-0.9,1.3-1.3,3.2-1.3,5.6V263h-8.2v-31.7h8.2v4.8c0.6-1.8,1.6-3.1,3-4.1s3.1-1.4,5.1-1.4c3,0,5.3,1,6.8,3
		C737.8,235.5,738.5,238.5,738.5,242.4z"/>
	<path class="st9" d="M765.5,235.8v-16.9h8.3V263h-8.3v-4.7c-0.9,1.8-2,3.2-3.4,4.1c-1.4,0.9-3.1,1.4-5,1.4c-3.6,0-6.4-1.5-8.4-4.4
		c-2-2.9-3-7-3-12.3c0-5.4,1-9.5,3-12.3c2-2.9,4.9-4.3,8.7-4.3c1.7,0,3.2,0.4,4.6,1.3C763.3,232.7,764.5,234,765.5,235.8z
		 M754,247.2c0,3.1,0.5,5.5,1.5,7.2c1,1.7,2.4,2.6,4.2,2.6s3.2-0.9,4.2-2.6c1-1.7,1.6-4.1,1.6-7.2s-0.5-5.5-1.6-7.2
		c-1-1.7-2.5-2.6-4.2-2.6s-3.2,0.9-4.2,2.6C754.5,241.8,754,244.2,754,247.2z"/>
	<path class="st9" d="M786.6,242.2h17.9v8.2h-17.9V242.2z"/>
	<path class="st9" d="M825.5,258.5v16.5h-8.3v-43.8h8.3v4.8c0.9-1.8,2-3.2,3.4-4.1c1.4-0.9,3.1-1.4,5-1.4c3.6,0,6.4,1.5,8.4,4.4
		c2,2.9,3,7,3,12.3c0,5.4-1,9.5-3,12.3c-2,2.9-4.9,4.3-8.7,4.3c-1.7,0-3.2-0.4-4.6-1.3C827.7,261.6,826.5,260.3,825.5,258.5z
		 M837,247.1c0-3.1-0.5-5.5-1.5-7.2c-1-1.7-2.4-2.6-4.2-2.6s-3.2,0.9-4.2,2.6c-1,1.7-1.6,4.1-1.6,7.2s0.5,5.5,1.6,7.2
		c1,1.7,2.5,2.6,4.2,2.6s3.2-0.9,4.2-2.6C836.5,252.6,837,250.2,837,247.1z"/>
	<path class="st9" d="M880.5,240c-0.9-0.8-2-1.5-3.2-1.9c-1.2-0.4-2.6-0.6-4-0.6c-1.8,0-3.3,0.3-4.6,0.9c-1.3,0.6-2.3,1.5-3,2.7
		c-0.5,0.7-0.8,1.6-0.9,2.6c-0.2,1-0.3,2.6-0.3,4.6V263h-8.3v-31.7h8.3v4.9c0.8-1.8,2.1-3.2,3.7-4.2s3.6-1.5,5.9-1.5
		c1.1,0,2.2,0.1,3.3,0.4c1.1,0.3,2.1,0.7,3.1,1.2V240z"/>
	<path class="st9" d="M885.6,247.2c0-5.1,1.3-9.2,4-12.2c2.7-3,6.2-4.5,10.7-4.5c4.5,0,8.1,1.5,10.7,4.5c2.7,3,4,7,4,12.2
		c0,5.1-1.3,9.2-4,12.2c-2.7,3-6.2,4.5-10.7,4.5c-4.5,0-8-1.5-10.7-4.5C886.9,256.4,885.6,252.3,885.6,247.2z M900.2,237.3
		c-2,0-3.5,0.9-4.7,2.6c-1.1,1.7-1.7,4.2-1.7,7.3s0.6,5.5,1.7,7.3c1.1,1.7,2.7,2.6,4.7,2.6c2,0,3.6-0.9,4.7-2.6
		c1.1-1.7,1.7-4.2,1.7-7.3s-0.6-5.5-1.7-7.3C903.8,238.1,902.2,237.3,900.2,237.3z"/>
	<path class="st9" d="M930.2,258.5v16.5H922v-43.8h8.3v4.8c0.9-1.8,2-3.2,3.4-4.1c1.4-0.9,3.1-1.4,5-1.4c3.6,0,6.4,1.5,8.4,4.4
		c2,2.9,3,7,3,12.3c0,5.4-1,9.5-3,12.3c-2,2.9-4.9,4.3-8.7,4.3c-1.7,0-3.2-0.4-4.6-1.3C932.4,261.6,931.2,260.3,930.2,258.5z
		 M941.8,247.1c0-3.1-0.5-5.5-1.5-7.2c-1-1.7-2.4-2.6-4.2-2.6s-3.2,0.9-4.2,2.6c-1,1.7-1.6,4.1-1.6,7.2s0.5,5.5,1.6,7.2
		c1,1.7,2.5,2.6,4.2,2.6s3.2-0.9,4.2-2.6C941.3,252.6,941.8,250.2,941.8,247.1z"/>
	<path class="st9" d="M983.8,261.5c-1.9,0.8-3.9,1.4-5.9,1.8s-4.1,0.6-6.3,0.6c-5.3,0-9.4-1.4-12.2-4.3c-2.8-2.8-4.2-6.9-4.2-12.3
		c0-5.2,1.3-9.3,4-12.3s6.4-4.5,11-4.5c4.7,0,8.3,1.4,10.9,4.2c2.6,2.8,3.9,6.7,3.9,11.8v3.4h-21.5c0,2.5,0.8,4.4,2.2,5.6
		c1.5,1.2,3.6,1.8,6.5,1.8c1.9,0,3.8-0.3,5.6-0.8c1.9-0.5,3.8-1.4,5.8-2.6V261.5z M976.8,243.6c0-2.2-0.6-3.8-1.7-5
		c-1.1-1.1-2.7-1.7-4.8-1.7c-1.9,0-3.4,0.6-4.6,1.7s-1.8,2.8-2,4.9L976.8,243.6z"/>
	<path class="st9" d="M1020.1,240c-0.9-0.8-2-1.5-3.2-1.9c-1.2-0.4-2.6-0.6-4-0.6c-1.8,0-3.3,0.3-4.6,0.9c-1.3,0.6-2.3,1.5-3,2.7
		c-0.5,0.7-0.8,1.6-0.9,2.6c-0.2,1-0.3,2.6-0.3,4.6V263h-8.3v-31.7h8.3v4.9c0.8-1.8,2.1-3.2,3.7-4.2s3.6-1.5,5.9-1.5
		c1.1,0,2.2,0.1,3.3,0.4c1.1,0.3,2.1,0.7,3.1,1.2V240z"/>
	<path class="st9" d="M1042,222.3v9h10.8v6.4H1042v15c0,1.4,0.3,2.4,1,3c0.7,0.6,1.8,0.9,3.4,0.9h6.4v6.4h-7c-4.8,0-8-0.8-9.7-2.3
		c-1.7-1.5-2.5-4.3-2.5-8.5v-14.6h-8.1v-6.4h8.1v-9H1042z"/>
	<path class="st9" d="M1077.5,266.4c-1.1,3-2.4,5.2-4,6.5c-1.6,1.4-3.5,2.1-5.7,2.1h-6.9v-6.3h3.4c1.7,0,2.9-0.3,3.7-0.9
		c0.8-0.6,1.6-1.9,2.4-4l0.6-1.7l-12.1-30.8h8.7l7.2,20.6l6.9-20.6h8.7L1077.5,266.4z"/>
	<path class="st9" d="M1100.8,242.2h17.9v8.2h-17.9V242.2z"/>
	<path class="st9" d="M1139.7,258.5v16.5h-8.3v-43.8h8.3v4.8c0.9-1.8,2-3.2,3.4-4.1c1.4-0.9,3.1-1.4,5-1.4c3.6,0,6.4,1.5,8.4,4.4
		c2,2.9,3,7,3,12.3c0,5.4-1,9.5-3,12.3c-2,2.9-4.9,4.3-8.7,4.3c-1.7,0-3.2-0.4-4.6-1.3C1141.9,261.6,1140.8,260.3,1139.7,258.5z
		 M1151.3,247.1c0-3.1-0.5-5.5-1.5-7.2c-1-1.7-2.4-2.6-4.2-2.6s-3.2,0.9-4.2,2.6c-1,1.7-1.6,4.1-1.6,7.2s0.5,5.5,1.6,7.2
		c1,1.7,2.5,2.6,4.2,2.6s3.2-0.9,4.2-2.6C1150.8,252.6,1151.3,250.2,1151.3,247.1z"/>
	<path class="st9" d="M1173.1,249.8v-24.5h-8.4v-6.4h16.7v30.8c0,2.5,0.4,4.3,1.2,5.3c0.8,1,2.1,1.6,3.9,1.6h6.6v6.4h-8.9
		c-3.9,0-6.8-1-8.5-3.1S1173.1,254.5,1173.1,249.8z"/>
	<path class="st9" d="M1228.4,244.9V263h-8.2v-3.5c-1,1.4-2.3,2.5-3.9,3.2s-3.3,1.1-5.2,1.1c-3.6,0-6.4-1-8.4-2.9c-2-1.9-3-4.6-3-8
		c0-3.7,1.2-6.4,3.6-8.2c2.4-1.8,6.1-2.6,11.1-2.6h5.7v-1.4c0-1.3-0.5-2.4-1.5-3c-1-0.7-2.4-1-4.3-1c-2,0-3.9,0.3-5.8,0.8
		c-1.9,0.5-3.8,1.3-5.8,2.4v-7.1c1.8-0.8,3.7-1.3,5.6-1.7c1.9-0.4,3.9-0.5,6-0.5c5.2,0,8.8,1,10.9,3.1
		C1227.4,235.8,1228.4,239.5,1228.4,244.9z M1216.9,248.1c-3.1,0-5.3,0.4-6.5,1.2s-1.8,2.2-1.8,4.1c0,1.4,0.4,2.6,1.3,3.4
		s2,1.3,3.5,1.3c2.2,0,3.9-0.8,5.1-2.5c1.2-1.7,1.8-4,1.8-6.9v-0.6H1216.9z"/>
	<path class="st9" d="M1251.5,222.3v9h10.8v6.4h-10.8v15c0,1.4,0.3,2.4,1,3c0.7,0.6,1.8,0.9,3.4,0.9h6.4v6.4h-7
		c-4.8,0-8-0.8-9.7-2.3c-1.7-1.5-2.5-4.3-2.5-8.5v-14.6h-8.1v-6.4h8.1v-9H1251.5z"/>
	<path class="st9" d="M1287.8,228.5v2.8h9.7v6.4h-9.7V263h-8.3v-25.3h-7.7v-6.4h7.7v-2.2c0-3.8,0.8-6.5,2.4-7.9s4.5-2.2,8.8-2.2h6.8
		v6.4h-6.5c-1.2,0-2.1,0.2-2.5,0.7C1288.1,226.5,1287.9,227.3,1287.8,228.5z"/>
	<path class="st9" d="M1304.6,247.2c0-5.1,1.3-9.2,4-12.2c2.7-3,6.2-4.5,10.7-4.5c4.5,0,8.1,1.5,10.7,4.5c2.7,3,4,7,4,12.2
		c0,5.1-1.3,9.2-4,12.2c-2.7,3-6.2,4.5-10.7,4.5c-4.5,0-8-1.5-10.7-4.5C1305.9,256.4,1304.6,252.3,1304.6,247.2z M1319.3,237.3
		c-2,0-3.5,0.9-4.7,2.6c-1.1,1.7-1.7,4.2-1.7,7.3s0.6,5.5,1.7,7.3c1.1,1.7,2.7,2.6,4.7,2.6c2,0,3.6-0.9,4.7-2.6
		c1.1-1.7,1.7-4.2,1.7-7.3s-0.6-5.5-1.7-7.3C1322.8,238.1,1321.3,237.3,1319.3,237.3z"/>
	<path class="st9" d="M1369.3,240c-0.9-0.8-2-1.5-3.2-1.9c-1.2-0.4-2.6-0.6-4-0.6c-1.8,0-3.3,0.3-4.6,0.9c-1.3,0.6-2.3,1.5-3,2.7
		c-0.5,0.7-0.8,1.6-0.9,2.6c-0.2,1-0.3,2.6-0.3,4.6V263h-8.3v-31.7h8.3v4.9c0.8-1.8,2.1-3.2,3.7-4.2s3.6-1.5,5.9-1.5
		c1.1,0,2.2,0.1,3.3,0.4c1.1,0.3,2.1,0.7,3.1,1.2V240z"/>
	<path class="st9" d="M1391.2,234.5c0.6-1.3,1.4-2.3,2.4-3c1-0.6,2.1-1,3.5-1c2.7,0,4.6,0.9,5.7,2.8c1,1.9,1.6,5.8,1.6,11.8V263
		h-6.8v-20.4c0-2.4-0.2-3.9-0.5-4.7s-1-1.2-2-1.2s-1.6,0.4-2,1.2c-0.4,0.8-0.6,2.4-0.6,4.7V263h-6.7v-20.4c0-2.3-0.2-3.9-0.6-4.7
		c-0.4-0.8-1-1.2-2-1.2s-1.6,0.4-2,1.2s-0.5,2.4-0.5,4.7V263h-6.8v-31.7h6v3.3c0.5-1.2,1.2-2.2,2.3-3c1-0.7,2.2-1.1,3.5-1.1
		s2.5,0.4,3.5,1.1S1391,233.4,1391.2,234.5z"/>
	<path class="st9" d="M1419.3,252.6h9.5V263h-9.5V252.6z"/>
	<path class="st9" d="M389.3,312v20.6h-8.2v-19.3c0-2.3-0.3-3.9-1-4.9c-0.7-1-1.7-1.5-3.2-1.5c-1.5,0-2.7,0.7-3.5,2
		s-1.3,3.2-1.3,5.5v18.2h-8.2v-44.1h8.2v17.1c0.6-1.8,1.6-3.1,3-4.1s3.1-1.4,5.1-1.4c3,0,5.3,1,6.8,3
		C388.6,305.1,389.3,308.1,389.3,312z"/>
	<path class="st9" d="M425.1,331.1c-1.9,0.8-3.9,1.4-5.9,1.8s-4.1,0.6-6.3,0.6c-5.3,0-9.4-1.4-12.2-4.3c-2.8-2.8-4.2-6.9-4.2-12.3
		c0-5.2,1.3-9.3,4-12.3s6.4-4.5,11-4.5c4.7,0,8.3,1.4,10.9,4.2c2.6,2.8,3.9,6.7,3.9,11.8v3.4H405c0,2.5,0.8,4.4,2.2,5.6
		c1.5,1.2,3.6,1.8,6.5,1.8c1.9,0,3.8-0.3,5.6-0.8c1.9-0.5,3.8-1.4,5.8-2.6V331.1z M418.1,313.2c0-2.2-0.6-3.8-1.7-5
		c-1.1-1.1-2.7-1.7-4.8-1.7c-1.9,0-3.4,0.6-4.6,1.7s-1.8,2.8-2,4.9L418.1,313.2z"/>
	<path class="st9" d="M461.4,309.6c-0.9-0.8-2-1.5-3.2-1.9c-1.2-0.4-2.6-0.6-4-0.6c-1.8,0-3.3,0.3-4.6,0.9c-1.3,0.6-2.3,1.5-3,2.7
		c-0.5,0.7-0.8,1.6-0.9,2.6c-0.2,1-0.3,2.6-0.3,4.6v14.6h-8.3v-31.7h8.3v4.9c0.8-1.8,2.1-3.2,3.7-4.2s3.6-1.5,5.9-1.5
		c1.1,0,2.2,0.1,3.3,0.4c1.1,0.3,2.1,0.7,3.1,1.2V309.6z"/>
	<path class="st9" d="M466.5,316.8c0-5.1,1.3-9.2,4-12.2c2.7-3,6.2-4.5,10.7-4.5c4.5,0,8.1,1.5,10.7,4.5c2.7,3,4,7,4,12.2
		c0,5.1-1.3,9.2-4,12.2c-2.7,3-6.2,4.5-10.7,4.5c-4.5,0-8-1.5-10.7-4.5C467.9,326,466.5,321.9,466.5,316.8z M481.2,306.9
		c-2,0-3.5,0.9-4.7,2.6c-1.1,1.7-1.7,4.2-1.7,7.3s0.6,5.5,1.7,7.3c1.1,1.7,2.7,2.6,4.7,2.6c2,0,3.6-0.9,4.7-2.6
		c1.1-1.7,1.7-4.2,1.7-7.3s-0.6-5.5-1.7-7.3C484.8,307.7,483.2,306.9,481.2,306.9z"/>
	<path class="st9" d="M503.6,288.5h8.3v23.1l10-10.8h10.1l-12,11.8l12.7,19.9h-9.2l-8.7-14.8l-2.8,2.7v12.1h-8.3V288.5z"/>
	<path class="st9" d="M538.1,321.5v-20.6h8.3v19.4c0,2.3,0.3,3.9,1,4.9c0.6,1,1.7,1.5,3.2,1.5s2.7-0.7,3.5-2
		c0.8-1.3,1.3-3.2,1.3-5.6v-18.2h8.3v31.7h-8.3v-4.7c-0.6,1.8-1.6,3.1-3,4.1c-1.4,1-3.1,1.4-5.1,1.4c-3,0-5.3-1-6.8-3
		C538.9,328.4,538.1,325.5,538.1,321.5z"/>
	<path class="st9" d="M599.9,314.5v18.1h-8.2v-3.5c-1,1.4-2.3,2.5-3.9,3.2s-3.3,1.1-5.2,1.1c-3.6,0-6.4-1-8.4-2.9c-2-1.9-3-4.6-3-8
		c0-3.7,1.2-6.4,3.6-8.2c2.4-1.8,6.1-2.6,11.1-2.6h5.7v-1.4c0-1.3-0.5-2.4-1.5-3c-1-0.7-2.4-1-4.3-1c-2,0-3.9,0.3-5.8,0.8
		c-1.9,0.5-3.8,1.3-5.8,2.4v-7.1c1.8-0.8,3.7-1.3,5.6-1.7c1.9-0.4,3.9-0.5,6-0.5c5.2,0,8.8,1,10.9,3.1
		C598.9,305.4,599.9,309.1,599.9,314.5z M588.3,317.7c-3.1,0-5.3,0.4-6.5,1.2s-1.8,2.2-1.8,4.1c0,1.4,0.4,2.6,1.3,3.4s2,1.3,3.5,1.3
		c2.2,0,3.9-0.8,5.1-2.5c1.2-1.7,1.8-4,1.8-6.9v-0.6H588.3z"/>
	<path class="st9" d="M616,328.1v16.5h-8.3v-43.8h8.3v4.8c0.9-1.8,2-3.2,3.4-4.1c1.4-0.9,3.1-1.4,5-1.4c3.6,0,6.4,1.5,8.4,4.4
		c2,2.9,3,7,3,12.3c0,5.4-1,9.5-3,12.3c-2,2.9-4.9,4.3-8.7,4.3c-1.7,0-3.2-0.4-4.6-1.3C618.2,331.2,617,329.9,616,328.1z
		 M627.5,316.7c0-3.1-0.5-5.5-1.5-7.2c-1-1.7-2.4-2.6-4.2-2.6s-3.2,0.9-4.2,2.6c-1,1.7-1.6,4.1-1.6,7.2s0.5,5.5,1.6,7.2
		c1,1.7,2.5,2.6,4.2,2.6s3.2-0.9,4.2-2.6C627,322.2,627.5,319.8,627.5,316.7z"/>
	<path class="st9" d="M650.9,328.1v16.5h-8.3v-43.8h8.3v4.8c0.9-1.8,2-3.2,3.4-4.1c1.4-0.9,3.1-1.4,5-1.4c3.6,0,6.4,1.5,8.4,4.4
		c2,2.9,3,7,3,12.3c0,5.4-1,9.5-3,12.3c-2,2.9-4.9,4.3-8.7,4.3c-1.7,0-3.2-0.4-4.6-1.3C653.1,331.2,651.9,329.9,650.9,328.1z
		 M662.4,316.7c0-3.1-0.5-5.5-1.5-7.2c-1-1.7-2.4-2.6-4.2-2.6s-3.2,0.9-4.2,2.6c-1,1.7-1.6,4.1-1.6,7.2s0.5,5.5,1.6,7.2
		c1,1.7,2.5,2.6,4.2,2.6s3.2-0.9,4.2-2.6C661.9,322.2,662.4,319.8,662.4,316.7z"/>
	<path class="st9" d="M686,322.2h9.5v10.4H686V322.2z"/>
	<path class="st9" d="M738.2,331c-1.4,0.8-2.9,1.4-4.5,1.8s-3.3,0.6-5.2,0.6c-4.9,0-8.7-1.5-11.5-4.4s-4.1-7-4.1-12.2
		c0-5.2,1.4-9.3,4.2-12.3c2.8-3,6.6-4.4,11.5-4.4c1.7,0,3.3,0.2,4.9,0.6c1.6,0.4,3.1,1,4.7,1.8v7.6c-1.2-1-2.5-1.8-4-2.4
		c-1.4-0.6-2.9-0.8-4.5-0.8c-2.7,0-4.8,0.9-6.2,2.6c-1.5,1.7-2.2,4.2-2.2,7.3s0.7,5.6,2.2,7.3s3.5,2.5,6.2,2.5
		c1.6,0,3.1-0.3,4.5-0.8s2.7-1.4,4-2.4V331z"/>
	<path class="st9" d="M745.9,316.8c0-5.1,1.3-9.2,4-12.2c2.7-3,6.2-4.5,10.7-4.5c4.5,0,8.1,1.5,10.7,4.5c2.7,3,4,7,4,12.2
		c0,5.1-1.3,9.2-4,12.2c-2.7,3-6.2,4.5-10.7,4.5c-4.5,0-8-1.5-10.7-4.5C747.2,326,745.9,321.9,745.9,316.8z M760.6,306.9
		c-2,0-3.5,0.9-4.7,2.6c-1.1,1.7-1.7,4.2-1.7,7.3s0.6,5.5,1.7,7.3c1.1,1.7,2.7,2.6,4.7,2.6c2,0,3.6-0.9,4.7-2.6
		c1.1-1.7,1.7-4.2,1.7-7.3s-0.6-5.5-1.7-7.3C764.1,307.7,762.6,306.9,760.6,306.9z"/>
	<path class="st9" d="M797.6,304.1c0.6-1.3,1.4-2.3,2.4-3c1-0.6,2.1-1,3.5-1c2.7,0,4.6,0.9,5.7,2.8c1,1.9,1.6,5.8,1.6,11.8v17.9
		h-6.8v-20.4c0-2.4-0.2-3.9-0.5-4.7s-1-1.2-2-1.2s-1.6,0.4-2,1.2c-0.4,0.8-0.6,2.4-0.6,4.7v20.4h-6.7v-20.4c0-2.3-0.2-3.9-0.6-4.7
		c-0.4-0.8-1-1.2-2-1.2s-1.6,0.4-2,1.2s-0.5,2.4-0.5,4.7v20.4h-6.8v-31.7h6v3.3c0.5-1.2,1.2-2.2,2.3-3c1-0.7,2.2-1.1,3.5-1.1
		s2.5,0.4,3.5,1.1S797.3,303,797.6,304.1z"/>
	<path class="st9" d="M838.4,290.3h6.3L822.4,338h-6.3L838.4,290.3z"/>
	<path class="st9" d="M879.1,331.1c-1.9,0.8-3.9,1.4-5.9,1.8s-4.1,0.6-6.3,0.6c-5.3,0-9.4-1.4-12.2-4.3c-2.8-2.8-4.2-6.9-4.2-12.3
		c0-5.2,1.3-9.3,4-12.3s6.4-4.5,11-4.5c4.7,0,8.3,1.4,10.9,4.2c2.6,2.8,3.9,6.7,3.9,11.8v3.4h-21.5c0,2.5,0.8,4.4,2.2,5.6
		c1.5,1.2,3.6,1.8,6.5,1.8c1.9,0,3.8-0.3,5.6-0.8c1.9-0.5,3.8-1.4,5.8-2.6V331.1z M872.1,313.2c0-2.2-0.6-3.8-1.7-5
		c-1.1-1.1-2.7-1.7-4.8-1.7c-1.9,0-3.4,0.6-4.6,1.7s-1.8,2.8-2,4.9L872.1,313.2z"/>
	<path class="st9" d="M913.1,312v20.6h-8.2v-19.3c0-2.3-0.3-4-1-4.9s-1.7-1.5-3.2-1.5c-1.5,0-2.7,0.7-3.5,2
		c-0.9,1.3-1.3,3.2-1.3,5.6v18.2h-8.2v-31.7h8.2v4.8c0.6-1.8,1.6-3.1,3-4.1s3.1-1.4,5.1-1.4c3,0,5.3,1,6.8,3
		C912.4,305.1,913.1,308.1,913.1,312z"/>
	<path class="st9" d="M937.2,291.9v9h10.8v6.4h-10.8v15c0,1.4,0.3,2.4,1,3c0.7,0.6,1.8,0.9,3.4,0.9h6.4v6.4h-7c-4.8,0-8-0.8-9.7-2.3
		c-1.7-1.5-2.5-4.3-2.5-8.5v-14.6h-8.1v-6.4h8.1v-9H937.2z"/>
	<path class="st9" d="M958.9,300.9h16.4v25.3h10.3v6.4h-28.9v-6.4H967v-19h-8.1V300.9z M967,285.5h8.3v9.7H967V285.5z"/>
	<path class="st9" d="M1007.1,291.9v9h10.8v6.4h-10.8v15c0,1.4,0.3,2.4,1,3c0.7,0.6,1.8,0.9,3.4,0.9h6.4v6.4h-7
		c-4.8,0-8-0.8-9.7-2.3c-1.7-1.5-2.5-4.3-2.5-8.5v-14.6h-8.1v-6.4h8.1v-9H1007.1z"/>
	<path class="st9" d="M1042.6,336c-1.1,3-2.4,5.2-4,6.5c-1.6,1.4-3.5,2.1-5.7,2.1h-6.9v-6.3h3.4c1.7,0,2.9-0.3,3.7-0.9
		c0.8-0.6,1.6-1.9,2.4-4l0.6-1.7l-12.1-30.8h8.7l7.2,20.6l6.9-20.6h8.7L1042.6,336z"/>
	<path class="st9" d="M1082.8,290.3h6.3l-22.3,47.7h-6.3L1082.8,290.3z"/>
	<path class="st9" d="M1097.6,325.2h9.3v-27.4l-8.7,2.2v-7.5l8.8-2.1h8.1v34.9h9.3v7.4h-26.8V325.2z"/>
	<path class="st9" d="M1139.5,325.2h17.8v7.4h-26.8v-7.1l4.5-4.8c5.4-5.7,8.6-9.2,9.8-10.6c1.4-1.6,2.4-3.1,3.1-4.3
		c0.6-1.3,0.9-2.5,0.9-3.7c0-1.9-0.6-3.3-1.7-4.4c-1.1-1-2.8-1.5-4.9-1.5c-1.5,0-3.2,0.3-5,0.9c-1.9,0.6-3.8,1.5-5.8,2.6v-7.8
		c2-0.7,4-1.3,5.9-1.7c1.9-0.4,3.8-0.6,5.6-0.6c4.5,0,8,1,10.5,3.1c2.6,2.1,3.8,4.9,3.8,8.5c0,1.7-0.3,3.2-0.8,4.7
		c-0.6,1.5-1.5,3.1-2.9,4.8c-1,1.3-3.7,4.2-8.2,8.7C1142.9,321.9,1140.9,323.8,1139.5,325.2z"/>
	<path class="st9" d="M1165.6,311.5c0-7.3,1.2-12.8,3.5-16.5s5.8-5.5,10.5-5.5c4.7,0,8.2,1.8,10.5,5.5c2.3,3.6,3.5,9.1,3.5,16.5
		c0,7.3-1.2,12.8-3.5,16.5c-2.3,3.6-5.8,5.5-10.5,5.5c-4.7,0-8.2-1.8-10.5-5.5S1165.6,318.8,1165.6,311.5z M1179.6,296.6
		c-1.9,0-3.3,1.2-4.2,3.5c-0.9,2.4-1.3,6.1-1.3,11.3c0,5.2,0.4,8.9,1.3,11.3c0.9,2.4,2.3,3.5,4.2,3.5c1.9,0,3.4-1.2,4.2-3.5
		c0.9-2.4,1.3-6.1,1.3-11.3c0-5.2-0.4-9-1.3-11.3C1182.9,297.8,1181.5,296.6,1179.6,296.6z M1176.1,311.5c0-1,0.3-1.8,1-2.5
		s1.5-1,2.5-1c1,0,1.8,0.3,2.5,1s1,1.5,1,2.5c0,1-0.3,1.8-1,2.5s-1.5,1-2.5,1c-1,0-1.8-0.3-2.5-1
		C1176.4,313.4,1176.1,312.5,1176.1,311.5z"/>
	<path class="st9" d="M1209.3,325.2h17.8v7.4h-26.8v-7.1l4.5-4.8c5.4-5.7,8.6-9.2,9.8-10.6c1.4-1.6,2.4-3.1,3.1-4.3
		c0.6-1.3,0.9-2.5,0.9-3.7c0-1.9-0.6-3.3-1.7-4.4c-1.1-1-2.8-1.5-4.9-1.5c-1.5,0-3.2,0.3-5,0.9c-1.9,0.6-3.8,1.5-5.8,2.6v-7.8
		c2-0.7,4-1.3,5.9-1.7c1.9-0.4,3.8-0.6,5.6-0.6c4.5,0,8,1,10.5,3.1c2.6,2.1,3.8,4.9,3.8,8.5c0,1.7-0.3,3.2-0.8,4.7
		c-0.6,1.5-1.5,3.1-2.9,4.8c-1,1.3-3.7,4.2-8.2,8.7C1212.7,321.9,1210.8,323.8,1209.3,325.2z"/>
	<path class="st9" d="M1244.7,322.2h9.5v10.4h-9.5V322.2z"/>
	<path class="st9" d="M1297.9,330.2c0,5.1-1.1,8.7-3.4,11c-2.3,2.3-6,3.4-11.2,3.4c-1.7,0-3.5-0.1-5.2-0.4s-3.4-0.6-5.2-1.2v-7.6
		c1.6,0.9,3.2,1.5,4.8,1.9c1.6,0.4,3.3,0.6,5,0.6c2.3,0,4.1-0.6,5.2-1.7s1.7-2.8,1.7-5.2v-3.4c-0.8,1.5-1.9,2.6-3.2,3.4
		s-3,1.1-4.9,1.1c-3.6,0-6.5-1.4-8.6-4.2s-3.2-6.7-3.2-11.5c0-5,1.1-9,3.2-12s5-4.4,8.6-4.4c1.8,0,3.4,0.4,4.8,1.3s2.5,2,3.3,3.6v-4
		h8.3V330.2z M1289.6,316.2c0-2.8-0.5-5.1-1.6-6.8c-1.1-1.7-2.5-2.6-4.2-2.6c-1.7,0-3.1,0.8-4.2,2.5c-1.1,1.7-1.6,4-1.6,6.8
		c0,2.9,0.5,5.2,1.6,6.9c1.1,1.7,2.5,2.5,4.2,2.5c1.8,0,3.2-0.9,4.2-2.6C1289.1,321.4,1289.6,319.1,1289.6,316.2z"/>
	<path class="st9" d="M1333,331.1c-1.9,0.8-3.9,1.4-5.9,1.8s-4.1,0.6-6.3,0.6c-5.3,0-9.4-1.4-12.2-4.3c-2.8-2.8-4.2-6.9-4.2-12.3
		c0-5.2,1.3-9.3,4-12.3s6.4-4.5,11-4.5c4.7,0,8.3,1.4,10.9,4.2c2.6,2.8,3.9,6.7,3.9,11.8v3.4h-21.5c0,2.5,0.8,4.4,2.2,5.6
		c1.5,1.2,3.6,1.8,6.5,1.8c1.9,0,3.8-0.3,5.6-0.8c1.9-0.5,3.8-1.4,5.8-2.6V331.1z M1326,313.2c0-2.2-0.6-3.8-1.7-5
		c-1.1-1.1-2.7-1.7-4.8-1.7c-1.9,0-3.4,0.6-4.6,1.7s-1.8,2.8-2,4.9L1326,313.2z"/>
	<path class="st9" d="M1339.5,316.8c0-5.1,1.3-9.2,4-12.2c2.7-3,6.2-4.5,10.7-4.5c4.5,0,8.1,1.5,10.7,4.5c2.7,3,4,7,4,12.2
		c0,5.1-1.3,9.2-4,12.2c-2.7,3-6.2,4.5-10.7,4.5c-4.5,0-8-1.5-10.7-4.5C1340.8,326,1339.5,321.9,1339.5,316.8z M1354.2,306.9
		c-2,0-3.5,0.9-4.7,2.6c-1.1,1.7-1.7,4.2-1.7,7.3s0.6,5.5,1.7,7.3c1.1,1.7,2.7,2.6,4.7,2.6c2,0,3.6-0.9,4.7-2.6
		c1.1-1.7,1.7-4.2,1.7-7.3s-0.6-5.5-1.7-7.3C1357.7,307.7,1356.2,306.9,1354.2,306.9z"/>
	<path class="st9" d="M1395.7,331.4c0,4.8-0.9,8.2-2.6,10.2c-1.7,2-4.5,3-8.5,3h-8.9v-6.4h6.6c1.9,0,3.2-0.5,3.9-1.6
		c0.8-1,1.2-2.8,1.2-5.3v-24.1h-8.4v-6.4h16.7V331.4z M1395.7,295.1h-8.3v-9.7h8.3V295.1z"/>
	<path class="st9" d="M1434.6,301.9v7.2c-1.5-1-3.1-1.7-4.8-2.2c-1.7-0.5-3.3-0.8-5-0.8c-1.9,0-3.2,0.3-4.2,0.8s-1.4,1.3-1.4,2.4
		c0,1.5,2,2.7,6.1,3.7l0.3,0.1l2.4,0.6c3,0.7,5.2,1.9,6.6,3.5c1.4,1.6,2.1,3.8,2.1,6.5c0,3.3-1.1,5.7-3.2,7.3
		c-2.1,1.6-5.4,2.4-9.7,2.4c-1.9,0-3.9-0.2-5.9-0.5s-4-0.8-6.1-1.5v-7.2c1.8,1,3.7,1.8,5.6,2.4c1.9,0.5,3.7,0.8,5.5,0.8
		c1.9,0,3.4-0.3,4.4-0.8s1.5-1.4,1.5-2.5c0-1.1-0.4-1.9-1.1-2.4c-0.7-0.6-2.4-1.2-5.1-1.8l-2.3-0.5c-3.2-0.7-5.5-1.8-6.9-3.4
		s-2.2-3.6-2.2-6.1c0-3.1,1.1-5.4,3.3-7.1s5.3-2.5,9.3-2.5c1.8,0,3.6,0.1,5.4,0.4C1431.2,300.9,1433,301.3,1434.6,301.9z"/>
	<path class="st9" d="M1444.3,316.8c0-5.1,1.3-9.2,4-12.2c2.7-3,6.2-4.5,10.7-4.5c4.5,0,8.1,1.5,10.7,4.5c2.7,3,4,7,4,12.2
		c0,5.1-1.3,9.2-4,12.2c-2.7,3-6.2,4.5-10.7,4.5c-4.5,0-8-1.5-10.7-4.5C1445.6,326,1444.3,321.9,1444.3,316.8z M1458.9,306.9
		c-2,0-3.5,0.9-4.7,2.6c-1.1,1.7-1.7,4.2-1.7,7.3s0.6,5.5,1.7,7.3c1.1,1.7,2.7,2.6,4.7,2.6c2,0,3.6-0.9,4.7-2.6
		c1.1-1.7,1.7-4.2,1.7-7.3s-0.6-5.5-1.7-7.3C1462.5,307.7,1460.9,306.9,1458.9,306.9z"/>
	<path class="st9" d="M1506.7,312v20.6h-8.2v-19.3c0-2.3-0.3-4-1-4.9c-0.7-1-1.7-1.5-3.2-1.5c-1.5,0-2.7,0.7-3.5,2
		c-0.9,1.3-1.3,3.2-1.3,5.6v18.2h-8.2v-31.7h8.2v4.8c0.6-1.8,1.6-3.1,3-4.1s3.1-1.4,5.1-1.4c3,0,5.3,1,6.8,3
		C1506,305.1,1506.7,308.1,1506.7,312z"/>
	<path class="st5" d="M1518.4,288.5h8.9v7.6l-5.6,10.8h-6.1l2.8-10.8V288.5z M1533.1,288.5h8.9v7.6l-5.6,10.8h-6.1l2.8-10.8V288.5z"
		/>
	<path class="st8" d="M1555,288.5h6.5c3,4.3,5.2,8.6,6.7,12.9c1.5,4.3,2.2,8.6,2.2,13c0,4.4-0.7,8.7-2.2,13s-3.7,8.6-6.7,12.9h-6.5
		c2.5-4.5,4.3-8.9,5.6-13.2s1.8-8.5,1.8-12.7c0-4.2-0.6-8.5-1.8-12.7C1559.3,297.4,1557.5,293.1,1555,288.5z"/>
	<path class="st10" d="M335.5,467.3v16.5h-8.3v-43.8h8.3v4.8c0.9-1.8,2-3.2,3.4-4.1c1.4-0.9,3.1-1.4,5-1.4c3.6,0,6.4,1.5,8.4,4.4
		c2,2.9,3,7,3,12.3c0,5.4-1,9.5-3,12.3c-2,2.9-4.9,4.3-8.7,4.3c-1.7,0-3.2-0.4-4.6-1.3C337.7,470.4,336.5,469.1,335.5,467.3z
		 M347.1,455.9c0-3.1-0.5-5.5-1.5-7.2c-1-1.7-2.4-2.6-4.2-2.6s-3.2,0.9-4.2,2.6c-1,1.7-1.6,4.1-1.6,7.2s0.5,5.5,1.6,7.2
		c1,1.7,2.5,2.6,4.2,2.6s3.2-0.9,4.2-2.6C346.6,461.4,347.1,459,347.1,455.9z"/>
	<path class="st10" d="M390.5,448.8c-0.9-0.8-2-1.5-3.2-1.9c-1.2-0.4-2.6-0.6-4-0.6c-1.8,0-3.3,0.3-4.6,0.9c-1.3,0.6-2.3,1.5-3,2.7
		c-0.5,0.7-0.8,1.6-0.9,2.6c-0.2,1-0.3,2.6-0.3,4.6v14.6h-8.3v-31.7h8.3v4.9c0.8-1.8,2.1-3.2,3.7-4.2s3.6-1.5,5.9-1.5
		c1.1,0,2.2,0.1,3.3,0.4c1.1,0.3,2.1,0.7,3.1,1.2V448.8z"/>
	<path class="st10" d="M399.1,440.1h16.4v25.3h10.3v6.4h-28.9v-6.4h10.3v-19h-8.1V440.1z M407.2,424.7h8.3v9.7h-8.3V424.7z"/>
	<path class="st10" d="M458.1,451.2v20.6h-8.2v-19.3c0-2.3-0.3-4-1-4.9s-1.7-1.5-3.2-1.5c-1.5,0-2.7,0.7-3.5,2
		c-0.9,1.3-1.3,3.2-1.3,5.6v18.2h-8.2v-31.7h8.2v4.8c0.6-1.8,1.6-3.1,3-4.1s3.1-1.4,5.1-1.4c3,0,5.3,1,6.8,3
		C457.3,444.3,458.1,447.3,458.1,451.2z"/>
	<path class="st10" d="M482.2,431.1v9h10.8v6.4h-10.8v15c0,1.4,0.3,2.4,1,3c0.7,0.6,1.8,0.9,3.4,0.9h6.4v6.4h-7
		c-4.8,0-8-0.8-9.7-2.3c-1.7-1.5-2.5-4.3-2.5-8.5v-14.6h-8.1v-6.4h8.1v-9H482.2z"/>
	<path class="st8" d="M523.8,427.7c-2.5,4.5-4.3,8.9-5.6,13.1c-1.2,4.2-1.8,8.5-1.8,12.7c0,4.2,0.6,8.4,1.8,12.7s3.1,8.7,5.6,13.2
		h-6.5c-3-4.4-5.2-8.7-6.7-12.9s-2.2-8.6-2.2-13c0-4.4,0.7-8.7,2.2-13c1.5-4.3,3.7-8.6,6.7-12.9H523.8z"/>
	<path class="st11" d="M537.8,440.1h25.3v6.5l-16.7,19h16.7v6.2h-26v-6.5l16.7-19h-16V440.1z"/>
	<path class="st11" d="M570.2,456c0-5.1,1.3-9.2,4-12.2c2.7-3,6.2-4.5,10.7-4.5c4.5,0,8.1,1.5,10.7,4.5c2.7,3,4,7,4,12.2
		c0,5.1-1.3,9.2-4,12.2c-2.7,3-6.2,4.5-10.7,4.5c-4.5,0-8-1.5-10.7-4.5C571.5,465.2,570.2,461.1,570.2,456z M584.9,446.1
		c-2,0-3.5,0.9-4.7,2.6c-1.1,1.7-1.7,4.2-1.7,7.3s0.6,5.5,1.7,7.3c1.1,1.7,2.7,2.6,4.7,2.6c2,0,3.6-0.9,4.7-2.6
		c1.1-1.7,1.7-4.2,1.7-7.3s-0.6-5.5-1.7-7.3C588.4,446.9,586.9,446.1,584.9,446.1z"/>
	<path class="st11" d="M632.7,451.2v20.6h-8.2v-19.3c0-2.3-0.3-4-1-4.9s-1.7-1.5-3.2-1.5c-1.5,0-2.7,0.7-3.5,2
		c-0.9,1.3-1.3,3.2-1.3,5.6v18.2h-8.2v-31.7h8.2v4.8c0.6-1.8,1.6-3.1,3-4.1s3.1-1.4,5.1-1.4c3,0,5.3,1,6.8,3
		C631.9,444.3,632.7,447.3,632.7,451.2z"/>
	<path class="st11" d="M668.5,470.3c-1.9,0.8-3.9,1.4-5.9,1.8s-4.1,0.6-6.3,0.6c-5.3,0-9.4-1.4-12.2-4.3c-2.8-2.8-4.2-6.9-4.2-12.3
		c0-5.2,1.3-9.3,4-12.3s6.4-4.5,11-4.5c4.7,0,8.3,1.4,10.9,4.2c2.6,2.8,3.9,6.7,3.9,11.8v3.4h-21.5c0,2.5,0.8,4.4,2.2,5.6
		c1.5,1.2,3.6,1.8,6.5,1.8c1.9,0,3.8-0.3,5.6-0.8c1.9-0.5,3.8-1.4,5.8-2.6V470.3z M661.5,452.4c0-2.2-0.6-3.8-1.7-5
		c-1.1-1.1-2.7-1.7-4.8-1.7c-1.9,0-3.4,0.6-4.6,1.7s-1.8,2.8-2,4.9L661.5,452.4z"/>
	<path class="st11" d="M684.9,461.4h9.5v10.4h-9.5V461.4z"/>
	<path class="st12" d="M737.4,451.2v20.6h-8.2v-19.3c0-2.3-0.3-3.9-1-4.9c-0.7-1-1.7-1.5-3.2-1.5c-1.5,0-2.7,0.7-3.5,2
		s-1.3,3.2-1.3,5.5v18.2H712v-44.1h8.2v17.1c0.6-1.8,1.6-3.1,3-4.1s3.1-1.4,5.1-1.4c3,0,5.3,1,6.8,3
		C736.7,444.3,737.4,447.3,737.4,451.2z"/>
	<path class="st12" d="M773.2,470.3c-1.9,0.8-3.9,1.4-5.9,1.8s-4.1,0.6-6.3,0.6c-5.3,0-9.4-1.4-12.2-4.3c-2.8-2.8-4.2-6.9-4.2-12.3
		c0-5.2,1.3-9.3,4-12.3s6.4-4.5,11-4.5c4.7,0,8.3,1.4,10.9,4.2c2.6,2.8,3.9,6.7,3.9,11.8v3.4h-21.5c0,2.5,0.8,4.4,2.2,5.6
		c1.5,1.2,3.6,1.8,6.5,1.8c1.9,0,3.8-0.3,5.6-0.8c1.9-0.5,3.8-1.4,5.8-2.6V470.3z M766.2,452.4c0-2.2-0.6-3.8-1.7-5
		c-1.1-1.1-2.7-1.7-4.8-1.7c-1.9,0-3.4,0.6-4.6,1.7s-1.8,2.8-2,4.9L766.2,452.4z"/>
	<path class="st12" d="M808.3,453.7v18.1h-8.2v-3.5c-1,1.4-2.3,2.5-3.9,3.2s-3.3,1.1-5.2,1.1c-3.6,0-6.4-1-8.4-2.9c-2-1.9-3-4.6-3-8
		c0-3.7,1.2-6.4,3.6-8.2c2.4-1.8,6.1-2.6,11.1-2.6h5.7v-1.4c0-1.3-0.5-2.4-1.5-3c-1-0.7-2.4-1-4.3-1c-2,0-3.9,0.3-5.8,0.8
		c-1.9,0.5-3.8,1.3-5.8,2.4v-7.1c1.8-0.8,3.7-1.3,5.6-1.7c1.9-0.4,3.9-0.5,6-0.5c5.2,0,8.8,1,10.9,3.1
		C807.3,444.6,808.3,448.3,808.3,453.7z M796.8,456.9c-3.1,0-5.3,0.4-6.5,1.2s-1.8,2.2-1.8,4.1c0,1.4,0.4,2.6,1.3,3.4s2,1.3,3.5,1.3
		c2.2,0,3.9-0.8,5.1-2.5c1.2-1.7,1.8-4,1.8-6.9v-0.6H796.8z"/>
	<path class="st12" d="M834.3,444.6v-16.9h8.3v44.1h-8.3v-4.7c-0.9,1.8-2,3.2-3.4,4.1c-1.4,0.9-3.1,1.4-5,1.4
		c-3.6,0-6.4-1.5-8.4-4.4c-2-2.9-3-7-3-12.3c0-5.4,1-9.5,3-12.3c2-2.9,4.9-4.3,8.7-4.3c1.7,0,3.2,0.4,4.6,1.3
		C832.1,441.5,833.2,442.8,834.3,444.6z M822.7,456c0,3.1,0.5,5.5,1.5,7.2c1,1.7,2.4,2.6,4.2,2.6s3.2-0.9,4.2-2.6
		c1-1.7,1.6-4.1,1.6-7.2s-0.5-5.5-1.6-7.2c-1-1.7-2.5-2.6-4.2-2.6s-3.2,0.9-4.2,2.6C823.2,450.6,822.7,453,822.7,456z"/>
	<path class="st13" d="M873,427.7c-2.5,4.5-4.3,8.9-5.6,13.1c-1.2,4.2-1.8,8.5-1.8,12.7c0,4.2,0.6,8.4,1.8,12.7s3.1,8.7,5.6,13.2
		h-6.5c-3-4.4-5.2-8.7-6.7-12.9s-2.2-8.6-2.2-13c0-4.4,0.7-8.7,2.2-13c1.5-4.3,3.7-8.6,6.7-12.9H873z"/>
	<path class="st13" d="M890.5,427.7h6.5c3,4.3,5.2,8.6,6.7,12.9c1.5,4.3,2.2,8.6,2.2,13c0,4.4-0.7,8.7-2.2,13s-3.7,8.6-6.7,12.9
		h-6.5c2.5-4.5,4.3-8.9,5.6-13.2s1.8-8.5,1.8-12.7c0-4.2-0.6-8.5-1.8-12.7C894.8,436.6,892.9,432.3,890.5,427.7z"/>
	<path class="st14" d="M928.6,427.7H943v5.4h-6.9v41h6.9v5.4h-14.4V427.7z"/>
	<path class="st5" d="M964.7,446.2h-8.9v-7.7l5.6-10.8h6.1l-2.8,10.8V446.2z M979.4,446.2h-8.9v-7.7l5.6-10.8h6l-2.7,10.8V446.2z"/>
	<path class="st9" d="M1016.8,451.2v20.6h-8.2v-19.3c0-2.3-0.3-4-1-4.9s-1.7-1.5-3.2-1.5c-1.5,0-2.7,0.7-3.5,2
		c-0.9,1.3-1.3,3.2-1.3,5.6v18.2h-8.2v-31.7h8.2v4.8c0.6-1.8,1.6-3.1,3-4.1s3.1-1.4,5.1-1.4c3,0,5.3,1,6.8,3
		C1016,444.3,1016.8,447.3,1016.8,451.2z"/>
	<path class="st9" d="M1052.8,453.7v18.1h-8.2v-3.5c-1,1.4-2.3,2.5-3.9,3.2s-3.3,1.1-5.2,1.1c-3.6,0-6.4-1-8.4-2.9c-2-1.9-3-4.6-3-8
		c0-3.7,1.2-6.4,3.6-8.2c2.4-1.8,6.1-2.6,11.1-2.6h5.7v-1.4c0-1.3-0.5-2.4-1.5-3c-1-0.7-2.4-1-4.3-1c-2,0-3.9,0.3-5.8,0.8
		c-1.9,0.5-3.8,1.3-5.8,2.4v-7.1c1.8-0.8,3.7-1.3,5.6-1.7c1.9-0.4,3.9-0.5,6-0.5c5.2,0,8.8,1,10.9,3.1
		C1051.7,444.6,1052.8,448.3,1052.8,453.7z M1041.2,456.9c-3.1,0-5.3,0.4-6.5,1.2s-1.8,2.2-1.8,4.1c0,1.4,0.4,2.6,1.3,3.4
		s2,1.3,3.5,1.3c2.2,0,3.9-0.8,5.1-2.5c1.2-1.7,1.8-4,1.8-6.9v-0.6H1041.2z"/>
	<path class="st9" d="M1075.8,443.3c0.6-1.3,1.4-2.3,2.4-3c1-0.6,2.1-1,3.5-1c2.7,0,4.6,0.9,5.7,2.8c1,1.9,1.6,5.8,1.6,11.8v17.9
		h-6.8v-20.4c0-2.4-0.2-3.9-0.5-4.7s-1-1.2-2-1.2s-1.6,0.4-2,1.2c-0.4,0.8-0.6,2.4-0.6,4.7v20.4h-6.7v-20.4c0-2.3-0.2-3.9-0.6-4.7
		c-0.4-0.8-1-1.2-2-1.2s-1.6,0.4-2,1.2s-0.5,2.4-0.5,4.7v20.4h-6.8v-31.7h6v3.3c0.5-1.2,1.2-2.2,2.3-3c1-0.7,2.2-1.1,3.5-1.1
		s2.5,0.4,3.5,1.1S1075.6,442.2,1075.8,443.3z"/>
	<path class="st9" d="M1122.4,470.3c-1.9,0.8-3.9,1.4-5.9,1.8s-4.1,0.6-6.3,0.6c-5.3,0-9.4-1.4-12.2-4.3c-2.8-2.8-4.2-6.9-4.2-12.3
		c0-5.2,1.3-9.3,4-12.3s6.4-4.5,11-4.5c4.7,0,8.3,1.4,10.9,4.2c2.6,2.8,3.9,6.7,3.9,11.8v3.4h-21.5c0,2.5,0.8,4.4,2.2,5.6
		c1.5,1.2,3.6,1.8,6.5,1.8c1.9,0,3.8-0.3,5.6-0.8c1.9-0.5,3.8-1.4,5.8-2.6V470.3z M1115.4,452.4c0-2.2-0.6-3.8-1.7-5
		c-1.1-1.1-2.7-1.7-4.8-1.7c-1.9,0-3.4,0.6-4.6,1.7s-1.8,2.8-2,4.9L1115.4,452.4z"/>
	<path class="st5" d="M1133.2,427.7h8.9v7.6l-5.6,10.8h-6.1l2.8-10.8V427.7z M1147.9,427.7h8.9v7.6l-5.6,10.8h-6.1l2.8-10.8V427.7z"
		/>
	<path class="st14" d="M1184,427.7v51.7h-14.4v-5.4h6.9v-41h-6.9v-5.4H1184z"/>
	<path class="st8" d="M1204.7,427.7h6.5c3,4.3,5.2,8.6,6.7,12.9c1.5,4.3,2.2,8.6,2.2,13c0,4.4-0.7,8.7-2.2,13s-3.7,8.6-6.7,12.9
		h-6.5c2.5-4.5,4.3-8.9,5.6-13.2s1.8-8.5,1.8-12.7c0-4.2-0.6-8.5-1.8-12.7C1209.1,436.6,1207.2,432.3,1204.7,427.7z"/>
</g>
</svg>
