<?xml version="1.0" encoding="utf-8"?>
<!-- Generator: Adobe Illustrator 26.1.0, SVG Export Plug-In . SVG Version: 6.00 Build 0)  -->
<svg version="1.1" id="Layer_1" xmlns:serif="http://www.serif.com/"
	 xmlns="http://www.w3.org/2000/svg" xmlns:xlink="http://www.w3.org/1999/xlink" x="0px" y="0px" viewBox="0 0 595.3 396.9"
	 style="enable-background:new 0 0 595.3 396.9;" xml:space="preserve">
<style type="text/css">
	.st0{fill-rule:evenodd;clip-rule:evenodd;fill:#FFFFFF;}
	.st1{fill-rule:evenodd;clip-rule:evenodd;fill:#F1F1F1;}
	.st2{fill:#DADADA;}
	.st3{fill:#0B0B0B;}
	.st4{fill-rule:evenodd;clip-rule:evenodd;fill:#B0B0B0;}
	.st5{fill:none;}
	.st6{clip-path:url(#SVGID_00000170237034065552890660000005446157138478247554_);}
	.st7{fill:#B4B4B4;}
	.st8{fill:none;stroke:#DADADA;stroke-width:4;stroke-miterlimit:10;}
	.st9{fill:#4B4B4B;}
	.st10{fill:#C8C8C8;}
	.st11{fill:#8C8C8C;}
	.st12{fill:#5B5B5B;}
	.st13{fill-rule:evenodd;clip-rule:evenodd;fill:#BDBDBD;}
	.st14{enable-background:new    ;}
	.st15{fill:#FFFFFF;}
	.st16{fill:#AA1111;}
	.st17{fill-rule:evenodd;clip-rule:evenodd;fill:#AA1111;}
</style>
<rect x="0.8" y="0" class="st0" width="595.3" height="396.9"/>
<g transform="matrix(0.968314,0,0,1,30.4183,-1505.84)">
	<rect x="-29.3" y="1570.9" class="st1" width="613.5" height="65.1"/>
</g>
<path class="st2" d="M0.8,24.8V6.2C0.8,2.8,3.6,0,7,0h582.9c3.4,0,6.2,2.8,6.2,6.2v18.6"/>
<circle class="st0" cx="16.6" cy="12.4" r="5.3"/>
<circle class="st0" cx="31.2" cy="12.4" r="5.3"/>
<circle class="st0" cx="46" cy="12.4" r="5.3"/>
<rect x="1.4" y="24.8" class="st3" width="594" height="40.3"/>
<rect x="0.8" y="394.3" class="st2" width="595.3" height="2.5"/>
<path class="st2" d="M3.3,396.8v-372h590.3v372h2.5V22.3H0.8v374.5H3.3z"/>
<g transform="matrix(0.975935,0,0,0.836916,-209.125,112.263)">
	<g transform="matrix(0.568808,0,0,1,-493.398,0)">
		<rect x="1300.4" y="120.5" class="st4" width="339.6" height="10"/>
	</g>
	<g transform="matrix(0.660339,0,0,1,-615.372,77.0624)">
		<rect x="1304.8" y="91.2" class="st4" width="339.6" height="10"/>
	</g>
	<g transform="matrix(0.732408,0,0,1,-711.41,37.3125)">
		<rect x="1307.6" y="106.3" class="st4" width="339.6" height="10"/>
	</g>
</g>
<g transform="matrix(0.735134,0,0,0.836916,-145.411,344.065)">
	<g transform="matrix(0.862494,0,0,1,-884.762,0)">
		<rect x="1305.5" y="-32.8" class="st4" width="339.6" height="10"/>
	</g>
	<g transform="matrix(0.693061,0,0,1,-658.977,37.3125)">
		<rect x="1298.8" y="-46.9" class="st4" width="339.6" height="10"/>
	</g>
	<g transform="matrix(1.07019,0,0,1,-1161.54,75.1222)">
		<rect x="1310.7" y="-61.3" class="st4" width="339.6" height="10"/>
	</g>
</g>
<g transform="matrix(0.910425,0,0,0.910425,25.6328,-1292.31)">
	<rect x="357.2" y="1598.6" class="st5" width="225.2" height="135.1"/>
	<g>
		<g>
			<defs>
				<rect id="SVGID_1_" x="376.5" y="1610.2" width="186.6" height="112"/>
			</defs>
			<clipPath id="SVGID_00000093857239696653640840000008282579379297913748_">
				<use xlink:href="#SVGID_1_"  style="overflow:visible;"/>
			</clipPath>
			<g style="clip-path:url(#SVGID_00000093857239696653640840000008282579379297913748_);">
				<g transform="matrix(1,0,0,1,614.941,1581.21)">
					<g transform="matrix(0.615272,0,0,0.621662,-56.9515,-52.577)">
						<rect x="-288.9" y="151.4" class="st7" width="3.6" height="3.5"/>
					</g>
					<g transform="matrix(0.615272,0,0,0.621662,-56.9515,-52.577)">
						<rect x="-326.4" y="112.6" class="st7" width="37.5" height="213.8"/>
					</g>
					<g transform="matrix(0.615272,0,0,0.621662,-56.9515,-52.577)">
						<rect x="-324.7" y="112.6" class="st7" width="557" height="40.6"/>
					</g>
					<g transform="matrix(0.615272,0,0,0.621662,-56.9515,-52.577)">
						<path class="st8" d="M-324.7,193.9h557 M-46.2,110.8v217.3 M98.4,110.8v217.3 M-324.7,234.5h557 M232.3,315.8h-557
							 M-324.7,275.1h557"/>
					</g>
					<g transform="matrix(0.615272,0,0,0.621662,-56.9515,-52.577)">
						<path class="st9" d="M-264.1,137.3h-5.6l-0.9,3.5h-1.9l4.4-14.1h2.5l4.4,14.1h-2L-264.1,137.3z M-269.1,135.5h4.3l-2.1-7.1
							h-0.2L-269.1,135.5z M-26.4,126.7c2.2,0,3.9,1.4,3.9,3.5c0,1.4-1,2.7-2.2,3.2c1.5,0.2,3,1.4,3,3.4c0,2.8-2.2,4-4.9,4H-32
							v-14.1C-32,126.7-26.4,126.7-26.4,126.7z M-25.1,130.9c0-1.2-0.7-2.3-2.7-2.5h-2.3v5.3h2.3C-25.9,133.3-25.1,132.2-25.1,130.9
							z M-26.2,133.8H-30v5.3h3.8c1.7,0,3.2-0.8,3.2-2.7C-23.1,134.4-24.5,133.8-26.2,133.8z M116.9,127.1c2.6,0,4.3,1.4,5.2,3.6
							l-1.6,0.6c-0.4-1.2-1.6-2.7-3.5-2.7c-2.9,0-4.2,2.7-4.2,5.5v0.2c0,2.9,1.4,5.5,4.2,5.5c1.9,0,3.2-1.4,3.5-2.7l1.6,0.6
							c-0.8,2.2-2.6,3.6-5.2,3.6c-3.7,0-6.1-3.2-6.1-7.1C110.8,130.3,113.1,127.1,116.9,127.1z"/>
					</g>
					<g>
						<g transform="matrix(0.615272,0,0,0.621662,-56.9515,-52.577)">
							<path class="st9" d="M-306.8,167.8v-0.5h1.8v14.1h-1.8v-10.6h-1.8V169h-0.9C-307.6,169.9-306.8,167.8-306.8,167.8z
								 M-312.2,222.1v-1.7c1.7-0.9,4.6-3.3,5.7-4.3s2.1-2.2,2.1-3.8c0-1.7-1.1-2.7-2.7-2.7c-1.7,0-2.6,1.2-2.7,2.9l-1.8-0.1
								c0.1-2.7,1.9-4.3,4.5-4.3c2.7,0,4.5,1.6,4.5,4.3c0,2-1.1,3.3-4.2,6l-2.5,2h6v1.8L-312.2,222.1L-312.2,222.1z M-310.4,258.9
								c0.5,1.3,1.4,2.2,3.2,2.2c2,0,3-1.2,3-2.6c0-1.6-1.2-2.4-3.2-2.8h-1.2v-1.8h0.9c1.8,0.7,3.3,0,3.3-1.8c0-1.6-1.2-2.4-2.7-2.4
								c-1.6,0-2.5,0.9-3,2.1l-1.6-0.6c0.7-2,2.6-3,4.7-3c2.4,0,4.5,1.6,4.5,3.7c0,1.5-0.9,2.8-2.6,3.2c2,0.4,2.9,1.7,2.9,3.3
								c0,2.7-2.2,4-4.8,4c-2.2,0-4.1-1.1-4.9-3.2L-310.4,258.9z M-305,303.5v-3.6h-7.1v-1.8l6.4-8.8h2.5v8.8h1.8v1.8h-1.8v3.5
								L-305,303.5L-305,303.5z M-305,298.1v-7.4l-5.3,7.4H-305z"/>
						</g>
						<g transform="matrix(0.615272,0,0,0.621662,-56.9515,-52.577)">
							<ellipse class="st0" cx="-311.9" cy="100.6" rx="3" ry="3"/>
						</g>
						<g transform="matrix(0.615272,0,0,0.621662,-56.9515,-52.577)">
							<ellipse class="st0" cx="-297.2" cy="100.6" rx="3" ry="3"/>
						</g>
						<g transform="matrix(0.615272,0,0,0.621662,-56.9515,-52.577)">
							<ellipse class="st0" cx="-282.5" cy="100.6" rx="3" ry="3"/>
						</g>
						<g transform="matrix(0.615272,0,0,0.621662,-56.9515,-52.577)">
							<ellipse class="st0" cx="-311.9" cy="100.6" rx="3" ry="3"/>
						</g>
						<g transform="matrix(0.615272,0,0,0.621662,-56.9515,-52.577)">
							<ellipse class="st0" cx="-297.2" cy="100.6" rx="3" ry="3"/>
						</g>
						<g transform="matrix(0.615272,0,0,0.621662,-56.9515,-52.577)">
							<ellipse class="st0" cx="-282.5" cy="100.6" rx="3" ry="3"/>
						</g>
						<g transform="matrix(0.615272,0,0,0.621662,-56.9515,-52.577)">
							<path class="st10" d="M-47,112.6h-238.4v42.1l1.8-2.5v-37.9h234.1L-47,112.6z"/>
						</g>
						<g transform="matrix(0.615272,0,0,0.621662,-56.9515,-52.577)">
							<path class="st11" d="M-49.7,115.5v37.7h-233.8l-2.5,1.8h238.1v-42L-49.7,115.5z"/>
						</g>
						<g transform="matrix(0.615272,0,0,0.621662,-56.9515,-52.577)">
							<path class="st10" d="M-286,155h-40.4v38.9l1.8-2.5v-34.6h36.2L-286,155z"/>
						</g>
						<g transform="matrix(0.615272,0,0,0.621662,-56.9515,-52.577)">
							<path class="st11" d="M-288.9,157.2v34.9h-36.2l-2.5,1.8h40.5v-39.2L-288.9,157.2z M-322.9,155v-40.6h37.5v-1.8h-39.3V155
								H-322.9z"/>
						</g>
						<g transform="matrix(0.615272,0,0,0.621662,-56.9515,-52.577)">
							<path class="st10" d="M-286,193.9h-40.4v40.5l1.8-2.5v-36.2h36.2L-286,193.9z"/>
						</g>
						<g transform="matrix(0.615272,0,0,0.621662,-56.9515,-52.577)">
							<path class="st11" d="M-288.9,196.4v36.4h-36.2l-2.5,1.8h40.5V194L-288.9,196.4z"/>
						</g>
						<g transform="matrix(0.615272,0,0,0.621662,-56.9515,-52.577)">
							<path class="st10" d="M-286,234.5h-40.4v40.2l1.8-2.5v-36h36.2L-286,234.5z"/>
						</g>
						<g transform="matrix(0.615272,0,0,0.621662,-56.9515,-52.577)">
							<path class="st11" d="M-288.9,236.8v36.6h-36.2l-2.5,1.8h40.5v-40.8L-288.9,236.8z"/>
						</g>
						<g transform="matrix(0.615272,0,0,0.621662,-56.9515,-52.577)">
							<path class="st10" d="M-286,275.1h-40.4v40l1.8-2.5v-35.8h36.2L-286,275.1z"/>
						</g>
						<g transform="matrix(0.615272,0,0,0.621662,-56.9515,-52.577)">
							<path class="st11" d="M-288.9,277.2v35h-36.2l-2.5,1.8h40.5v-39.3L-288.9,277.2z"/>
						</g>
						<g transform="matrix(0.615272,0,0,0.621662,-56.9515,-52.577)">
							<path class="st10" d="M-286,315.8h-40.4v12.4h1.8v-10.6h36.2L-286,315.8z"/>
						</g>
						<g transform="matrix(0.615272,0,0,0.621662,-56.9515,-52.577)">
							<path class="st11" d="M-288.9,317.6v10.5h1.8v-13L-288.9,317.6z"/>
						</g>
						<g transform="matrix(0.615272,0,0,0.621662,-56.9515,-52.577)">
							<path class="st10" d="M97.6,112.6H-46.2v42.1l1.8-2.5v-37.9H95.1L97.6,112.6z"/>
						</g>
						<g transform="matrix(0.615272,0,0,0.621662,-56.9515,-52.577)">
							<path class="st11" d="M94.9,115.5v37.7H-44.5L-47,155H96.7v-42L94.9,115.5z"/>
						</g>
						<g transform="matrix(0.615272,0,0,0.621662,-56.9515,-52.577)">
							<path class="st10" d="M234.7,112.6H98.4v42.1l1.8-2.5v-37.9h132L234.7,112.6z"/>
						</g>
						<g transform="matrix(0.615272,0,0,0.621662,-56.9515,-52.577)">
							<path class="st11" d="M234.1,153.2h-134l-2.5,1.8h136.5V153.2z"/>
						</g>
						<g transform="matrix(0.615272,0,0,0.621662,-56.9515,-52.577)">
							<path class="st2" d="M-328.2,110.8v219.1h562.3V110.8H-328.2z M-324.7,326.4V112.6h557v213.8H-324.7z"/>
						</g>
						<g transform="matrix(1.20705,0,0,1.20705,-50.0135,-50.649)">
							<g transform="matrix(14.7915,0,0,14.7915,71.9774,202.962)">
								<path class="st12" d="M-14.4-7.8V-8h0.3l0,0h-0.2L-14.4-7.8c0.1-0.1,0.1-0.1,0.1-0.1l0,0l0,0l0,0c0,0,0,0,0.1,0l0,0l0,0
									c0,0,0,0,0,0.1c0,0,0,0,0,0.1c0,0,0,0,0,0.1c0,0,0,0-0.1,0c0,0,0,0-0.1,0c0,0,0,0-0.1,0l0,0l0,0
									C-14.4-7.7-14.4-7.7-14.4-7.8L-14.4-7.8c0.1,0.1,0.1,0.1,0.1,0.1s0,0,0.1,0l0,0l0,0l0,0l0,0l0,0l0,0l0,0l0,0l0,0l0,0
									C-14.3-7.8-14.3-7.8-14.4-7.8C-14.3-7.8-14.3-7.8-14.4-7.8L-14.4-7.8z"/>
							</g>
							<g transform="matrix(14.7915,0,0,14.7915,80.9982,202.962)">
								<path class="st12" d="M-14.6-7.8C-14.6-7.8-14.6-7.7-14.6-7.8C-14.6-7.7-14.6-7.7-14.6-7.8C-14.6-7.7-14.5-7.7-14.6-7.8
									C-14.5-7.7-14.5-7.7-14.6-7.8c0.1,0.1,0.1,0.1,0.1,0.1l0,0l0,0l0,0l0,0C-14.5-7.8-14.5-7.8-14.6-7.8L-14.6-7.8l0.1-0.1l0,0
									c0,0,0,0,0.1,0l0,0l0,0l0,0l0,0l0,0l0,0l0,0l0,0l0,0h-0.1l0,0l0,0l0,0c0,0,0,0,0.1,0c0,0,0,0,0.1,0l0,0l0,0c0,0,0,0,0,0.1
									l0,0l0,0l0,0l0,0l0,0l0,0l0,0l0,0c0,0,0,0,0,0.1l0,0c0,0,0,0-0.1,0c0,0,0,0-0.1,0C-14.5-7.7-14.5-7.7-14.6-7.8
									c0,0.1,0,0.1-0.1,0.1C-14.6-7.7-14.6-7.7-14.6-7.8C-14.7-7.7-14.7-7.7-14.6-7.8L-14.6-7.8z"/>
							</g>
							<g transform="matrix(14.7915,0,0,14.7915,90.1562,202.962)">
								<path class="st12" d="M-14.9-7.7L-14.9-7.7L-14.9-7.7L-14.9-7.7L-14.9-7.7C-14.8-7.7-14.8-7.7-14.9-7.7
									C-14.8-7.7-14.8-7.7-14.9-7.7c0.1,0,0.1,0,0.1,0l0,0l0,0C-14.8-7.7-14.8-7.6-14.9-7.7C-14.8-7.6-14.8-7.6-14.9-7.7
									C-14.8-7.6-14.8-7.6-14.9-7.7C-14.9-7.6-14.9-7.6-14.9-7.7C-14.9-7.6-14.9-7.6-14.9-7.7C-14.9-7.6-14.9-7.7-14.9-7.7
									L-14.9-7.7z"/>
							</g>
							<g transform="matrix(14.7915,0,0,14.7915,94.2079,202.962)">
								<path class="st12" d="M-14.8-7.6L-14.8-7.6L-15-7.7v-0.1l0.2-0.2h0.1v0.2h0.1v0.1h-0.1L-14.8-7.6L-14.8-7.6z M-14.8-7.8V-8
									l-0.1,0.2H-14.8z"/>
							</g>
							<g transform="matrix(14.7915,0,0,14.7915,103.763,202.962)">
								<path class="st12" d="M-15.3-7.8C-15.3-7.9-15.3-7.9-15.3-7.8C-15.3-7.9-15.3-7.9-15.3-7.8L-15.3-7.8L-15.3-7.8L-15.3-7.8
									c0-0.1,0-0.1,0.1-0.1c0,0,0,0,0.1,0s0,0,0,0l0,0l0,0h-0.1l0,0l0,0l0,0l0,0l0,0C-15.2-7.9-15.2-7.9-15.3-7.8
									c0.1,0,0.1,0,0.1-0.1l0,0l0,0l0,0c0,0,0,0,0.1,0l0,0l0,0c0,0,0,0,0,0.1c0,0,0,0,0,0.1l0,0c0,0,0,0-0.1,0
									C-15.2-7.7-15.2-7.7-15.3-7.8l-0.1,0.1c0,0,0,0-0.1,0C-15.2-7.7-15.2-7.7-15.3-7.8L-15.3-7.8L-15.3-7.8z M-15.2-7.8
									L-15.2-7.8C-15.2-7.7-15.1-7.7-15.2-7.8C-15.1-7.7-15.1-7.7-15.2-7.8C-15.1-7.7-15.1-7.7-15.2-7.8c0.1,0.1,0.1,0.1,0.1,0.1
									l0,0l0,0l0,0l0,0l0,0l0,0C-15.1-7.8-15.1-7.8-15.2-7.8C-15.1-7.8-15.1-7.8-15.2-7.8C-15.1-7.8-15.1-7.8-15.2-7.8
									C-15.1-7.8-15.2-7.8-15.2-7.8L-15.2-7.8z"/>
							</g>
							<g transform="matrix(14.7915,0,0,14.7915,113.022,202.962)">
								<path class="st12" d="M-15.3-8.1v0.4h-0.1V-8h-0.1l0,0l0,0l0,0l0,0l0,0C-15.4-8-15.4-8-15.3-8.1L-15.3-8.1L-15.3-8.1z"/>
							</g>
							<g transform="matrix(14.7915,0,0,14.7915,118.482,202.962)">
								<path class="st12" d="M-15.5-8L-15.5-8L-15.5-8L-15.5-8C-15.6-7.9-15.6-7.9-15.5-8l-0.2,0.1c0,0,0,0,0-0.1l0,0
									C-15.6-8-15.6-8.1-15.5-8C-15.5-8.1-15.5-8.1-15.5-8C-15.5-8.1-15.4-8.1-15.5-8c0.1-0.1,0.1-0.1,0.1,0l0,0c0,0,0,0,0,0.1
									c0,0,0,0,0,0.1c0,0,0,0,0,0.1c0,0,0,0-0.1,0c0,0,0,0-0.1,0l0,0h0.2v0.1h-0.3v-0.1c0,0,0,0,0.1,0l0,0l0,0l0,0l0,0
									C-15.4-7.9-15.4-7.9-15.5-8C-15.4-7.9-15.4-7.9-15.5-8C-15.4-8-15.4-8-15.5-8C-15.4-8-15.4-8-15.5-8L-15.5-8z"/>
							</g>
							<g transform="matrix(14.7915,0,0,14.7915,127.583,202.962)">
								<path class="st12" d="M-15.7-8L-15.7-8C-15.8-8-15.8-8-15.7-8C-15.8-8-15.8-8-15.7-8C-15.8-7.9-15.8-7.9-15.7-8l-0.2,0.1
									c0,0,0,0,0-0.1l0,0C-15.8-8-15.8-8.1-15.7-8C-15.8-8.1-15.7-8.1-15.7-8C-15.7-8.1-15.7-8.1-15.7-8c0.1-0.1,0.1-0.1,0.1,0
									l0,0c0,0,0,0,0,0.1c0,0,0,0,0,0.1c0,0,0,0,0,0.1c0,0,0,0-0.1,0c0,0,0,0-0.1,0l0,0h0.2v0.1h-0.3v-0.1h0.1l0,0l0,0l0,0l0,0
									C-15.6-7.9-15.6-7.9-15.7-8C-15.6-7.9-15.6-7.9-15.7-8L-15.7-8L-15.7-8L-15.7-8z"/>
							</g>
							<g transform="matrix(14.7915,0,0,14.7915,136.683,202.962)">
								<path class="st12" d="M-16-7.8L-16-7.8L-16-7.8C-16-7.7-16-7.7-16-7.8L-16-7.8L-16-7.8L-16-7.8L-16-7.8
									C-16-7.7-16-7.7-16-7.8L-16-7.8C-16-7.8-16-7.8-16-7.8L-16-7.8L-16-7.8L-16-7.8L-16-7.8L-16-7.8C-16-7.9-16-7.9-16-7.8
									C-16-7.9-16-7.9-16-7.8L-16-7.8z M-15.8-7.8L-15.8-7.8C-15.8-7.7-15.8-7.7-15.8-7.8L-15.8-7.8L-15.8-7.8L-15.8-7.8
									c0,0.1,0,0.1-0.1,0.1c-0.1,0,0,0-0.1,0l0,0l0,0l0,0c0,0,0,0,0-0.1c0,0,0,0,0-0.1c0,0,0,0,0-0.1c0,0,0,0,0-0.1c0-0.1,0,0,0,0
									l0,0l0,0c0,0,0,0,0.1,0c0,0,0,0,0.1,0l0,0l0,0l0,0C-15.8-8.1-15.8-7.9-15.8-7.8C-15.8-7.9-15.8-7.9-15.8-7.8z"/>
							</g>
						</g>
						<g transform="matrix(1.20705,0,0,1.20705,186.508,-50.649)">
							<g transform="matrix(14.7915,0,0,14.7915,71.9774,202.962)">
								<rect x="-19.5" y="-7.9" class="st12" width="0.1" height="0.1"/>
							</g>
							<g transform="matrix(14.7915,0,0,14.7915,75.6753,202.962)">
								<path class="st12" d="M-19.4-8L-19.4-8C-19.5-8-19.5-8-19.4-8C-19.5-8-19.5-8-19.4-8C-19.5-7.9-19.5-7.9-19.4-8l-0.2,0.1
									c0,0,0,0,0-0.1l0,0C-19.5-8-19.5-8.1-19.4-8C-19.5-8.1-19.4-8.1-19.4-8C-19.4-8.1-19.4-8.1-19.4-8c0.1-0.1,0.1-0.1,0.1,0
									l0,0c0,0,0,0,0,0.1c0,0,0,0,0,0.1c0,0,0,0,0,0.1c0,0,0,0-0.1,0c0,0,0,0-0.1,0l0,0h0.2v0.1h-0.3v-0.1l0,0l0,0l0,0l0,0l0,0
									C-19.3-7.9-19.3-7.9-19.4-8C-19.3-7.9-19.3-7.9-19.4-8L-19.4-8L-19.4-8L-19.4-8z"/>
							</g>
							<g transform="matrix(14.7915,0,0,14.7915,84.7755,202.962)">
								<path class="st12" d="M-19.8-7.7L-19.8-7.7L-19.8-7.7L-19.8-7.7L-19.8-7.7C-19.7-7.7-19.7-7.7-19.8-7.7
									C-19.7-7.7-19.7-7.7-19.8-7.7c0.1,0,0.1,0,0.1,0l0,0l0,0C-19.7-7.7-19.7-7.6-19.8-7.7C-19.7-7.6-19.7-7.6-19.8-7.7
									C-19.7-7.6-19.7-7.6-19.8-7.7C-19.8-7.6-19.8-7.6-19.8-7.7C-19.8-7.6-19.8-7.6-19.8-7.7C-19.8-7.6-19.8-7.7-19.8-7.7
									L-19.8-7.7z"/>
							</g>
							<g transform="matrix(14.7915,0,0,14.7915,88.8273,202.962)">
								<path class="st12" d="M-19.8-8L-19.8-8L-19.8-8L-19.8-8C-19.8-7.9-19.8-7.9-19.8-8L-20-7.9c0,0,0,0,0-0.1l0,0
									C-19.9-8-19.8-8.1-19.8-8C-19.8-8.1-19.8-8.1-19.8-8C-19.7-8.1-19.7-8.1-19.8-8c0.1-0.1,0.1-0.1,0.1,0l0,0c0,0,0,0,0,0.1
									c0,0,0,0,0,0.1c0,0,0,0,0,0.1c0,0,0,0-0.1,0c0,0,0,0-0.1,0l0,0h0.1v0.1h-0.3v-0.1h0.1l0,0l0,0l0,0l0,0
									C-19.7-7.9-19.7-7.9-19.8-8C-19.7-7.9-19.7-7.9-19.8-8C-19.7-8-19.7-8-19.8-8C-19.7-8-19.7-8-19.8-8C-19.7-8-19.7-8-19.8-8z
									"/>
							</g>
							<g transform="matrix(14.7915,0,0,14.7915,97.9275,202.962)">
								<path class="st12" d="M-20.2-7.8C-20.2-7.9-20.2-7.9-20.2-7.8C-20.2-7.9-20.2-7.9-20.2-7.8L-20.2-7.8L-20.2-7.8L-20.2-7.8
									c0-0.1,0-0.1,0.1-0.1c0,0,0,0,0.1,0l0,0l0,0l0,0h-0.1l0,0l0,0l0,0l0,0l0,0C-20.1-7.9-20.1-7.9-20.2-7.8c0.1,0,0.1,0,0.1-0.1
									l0,0l0,0l0,0c0,0,0,0,0.1,0l0,0l0,0c0,0,0,0,0,0.1c0,0,0,0,0,0.1l0,0c0,0,0,0-0.1,0C-20.1-7.7-20.1-7.7-20.2-7.8l-0.1,0.1
									c0,0,0,0-0.1,0C-20.1-7.7-20.2-7.7-20.2-7.8L-20.2-7.8L-20.2-7.8z M-20-7.8L-20-7.8C-20-7.7-20-7.7-20-7.8
									C-20-7.7-20-7.7-20-7.8C-20-7.7-20-7.7-20-7.8c0.1,0.1,0.1,0.1,0.1,0.1l0,0l0,0l0,0l0,0l0,0l0,0C-19.9-7.8-20-7.8-20-7.8
									L-20-7.8L-20-7.8L-20-7.8L-20-7.8z"/>
							</g>
							<g transform="matrix(14.7915,0,0,14.7915,107.187,202.962)">
								<path class="st12" d="M-20.1-7.9C-20.1-7.8-20.1-7.8-20.1-7.9C-20.1-7.8-20.1-7.8-20.1-7.9c0,0.1,0,0.1,0,0.2l0,0
									c0,0,0,0-0.1,0c0,0,0,0-0.1,0c0,0,0,0-0.1,0l0,0l0,0l0,0h0.1l0,0l0,0l0,0l0,0C-20.2-7.7-20.2-7.8-20.1-7.9
									C-20.2-7.8-20.2-7.8-20.1-7.9c-0.1,0-0.1,0-0.1,0.1l0,0l0,0l0,0c0,0,0,0-0.1,0l0,0l0,0c0,0,0,0,0-0.1c0,0,0,0,0-0.1l0,0
									c0,0,0,0,0.1,0C-20.2-8-20.2-8-20.1-7.9L-20-8c0,0,0,0,0.1,0C-20.1-8-20.1-8-20.1-7.9L-20.1-7.9L-20.1-7.9z M-20.1-7.9
									L-20.1-7.9C-20.1-8-20.2-8-20.1-7.9C-20.2-8-20.2-8-20.1-7.9C-20.2-8-20.2-8-20.1-7.9C-20.2-8-20.2-8-20.2-8l0,0l0,0l0,0
									l0,0l0,0l0,0C-20.2-7.9-20.2-7.8-20.1-7.9C-20.2-7.8-20.2-7.9-20.1-7.9C-20.2-7.9-20.2-7.9-20.1-7.9
									C-20.2-7.9-20.1-7.9-20.1-7.9L-20.1-7.9z"/>
							</g>
							<g transform="matrix(14.7915,0,0,14.7915,116.431,202.962)">
								<path class="st12" d="M-20.6-7.8V-8h0.3l0,0h-0.2L-20.6-7.8c0.1-0.1,0.1-0.1,0.1-0.1l0,0l0,0l0,0c0,0,0,0,0.1,0l0,0l0,0
									c0,0,0,0,0,0.1c0,0,0,0,0,0.1c0,0,0,0,0,0.1c0,0,0,0-0.1,0c0,0,0,0-0.1,0c0,0,0,0-0.1,0l0,0l0,0
									C-20.6-7.7-20.6-7.7-20.6-7.8L-20.6-7.8c0.1,0.1,0.1,0.1,0.1,0.1s0,0,0.1,0l0,0l0,0l0,0l0,0l0,0l0,0l0,0l0,0l0,0l0,0
									C-20.5-7.8-20.5-7.8-20.6-7.8C-20.5-7.8-20.5-7.8-20.6-7.8L-20.6-7.8z"/>
							</g>
							<g transform="matrix(14.7915,0,0,14.7915,125.452,202.962)">
								<path class="st12" d="M-20.6-7.6L-20.6-7.6l-0.2-0.1v-0.1l0.2-0.2h0.1v0.2h0.1v0.1h-0.1L-20.6-7.6L-20.6-7.6z M-20.6-7.8V-8
									l-0.1,0.2H-20.6z"/>
							</g>
							<g transform="matrix(14.7915,0,0,14.7915,135.007,202.962)">
								<path class="st12" d="M-21-7.8L-21-7.8L-21-7.8c0,0.1,0,0.1,0.1,0.1l0,0l0,0l0,0l0,0c0,0,0,0,0-0.1l0,0c0,0,0,0,0-0.1l0,0
									l0,0l0,0l0,0l0,0C-21-7.9-21-7.9-21-7.8C-21-7.9-21-7.9-21-7.8L-21-7.8z M-20.7-7.8L-20.7-7.8C-20.7-7.7-20.7-7.7-20.7-7.8
									L-20.7-7.8L-20.7-7.8L-20.7-7.8c0,0.1,0,0.1-0.1,0.1c0,0,0,0-0.1,0l0,0l0,0l0,0c0,0,0,0,0-0.1c0,0,0,0,0-0.1c0,0,0,0,0-0.1
									c0,0,0,0,0-0.1c0-0.1,0,0,0,0l0,0l0,0c0,0,0,0,0.1,0c0,0,0,0,0.1,0l0,0l0,0l0,0C-20.7-8.1-20.8-7.9-20.7-7.8
									C-20.7-7.9-20.7-7.9-20.7-7.8z"/>
							</g>
						</g>
						<g transform="matrix(1.20705,0,0,1.20705,186.508,-11.5879)">
							<g transform="matrix(14.7915,0,0,14.7915,71.9774,202.962)">
								<rect x="-19.5" y="-8.7" class="st12" width="0.1" height="0.1"/>
							</g>
							<g transform="matrix(14.7915,0,0,14.7915,75.6753,202.962)">
								<path class="st12" d="M-19.5-8.7C-19.5-8.7-19.5-8.6-19.5-8.7C-19.5-8.6-19.5-8.6-19.5-8.7c0,0.1,0,0.1,0,0.1l0,0l0,0l0,0
									l0,0C-19.5-8.6-19.5-8.6-19.5-8.7L-19.5-8.7c0,0,0,0,0-0.1l0,0l0,0l0,0l0,0l0,0C-19.5-8.8-19.5-8.8-19.5-8.7L-19.5-8.7
									L-19.5-8.7z M-19.2-8.7C-19.2-8.7-19.2-8.6-19.2-8.7c0,0.1,0,0.1,0,0.1l0,0l0,0l0,0c0,0,0,0-0.1,0c0,0,0,0-0.1,0l0,0l0,0
									l0,0c0,0,0,0,0-0.1c0,0,0,0,0-0.1c0,0,0,0,0-0.1c0,0,0,0,0-0.1l0,0l0,0l0,0c0,0,0,0,0.1,0c0,0,0,0,0.1,0l0,0l0,0l0,0
									C-19.2-8.8-19.2-8.7-19.2-8.7L-19.2-8.7z"/>
							</g>
							<g transform="matrix(14.7915,0,0,14.7915,85.2016,202.962)">
								<path class="st12" d="M-19.8-8.5L-19.8-8.5L-19.8-8.5C-19.8-8.6-19.8-8.6-19.8-8.5C-19.8-8.6-19.8-8.6-19.8-8.5
									C-19.7-8.6-19.7-8.6-19.8-8.5C-19.7-8.6-19.7-8.6-19.8-8.5c0.1,0,0.1,0,0.1,0l0,0l0,0C-19.7-8.5-19.7-8.5-19.8-8.5
									C-19.7-8.5-19.7-8.5-19.8-8.5C-19.7-8.5-19.7-8.5-19.8-8.5L-19.8-8.5L-19.8-8.5L-19.8-8.5L-19.8-8.5z"/>
							</g>
							<g transform="matrix(14.7915,0,0,14.7915,88.8273,202.962)">
								<path class="st12" d="M-19.7-8.9v0.4h-0.1v-0.3h-0.1v-0.1l0,0l0,0l0,0C-19.8-8.8-19.8-8.9-19.7-8.9
									C-19.8-8.9-19.8-8.9-19.7-8.9L-19.7-8.9L-19.7-8.9z"/>
							</g>
							<g transform="matrix(14.7915,0,0,14.7915,94.2874,202.962)">
								<path class="st12" d="M-19.9-8.8L-19.9-8.8L-19.9-8.8C-20-8.8-20-8.8-19.9-8.8C-20-8.8-20-8.8-19.9-8.8l-0.2,0.1
									c0,0,0,0,0-0.1l0,0C-20-8.9-20-8.9-19.9-8.8C-19.9-8.9-19.9-8.9-19.9-8.8C-19.9-8.9-19.8-8.9-19.9-8.8
									c0.1-0.1,0.1-0.1,0.1,0l0,0c0,0,0,0,0,0.1c0,0,0,0,0,0.1c0,0,0,0,0,0.1c0,0,0,0-0.1,0c0,0,0,0-0.1,0l0,0h0.2v0.1H-20v-0.1
									c0,0,0,0,0.1,0l0,0l0,0l0,0l0,0C-19.8-8.7-19.8-8.7-19.9-8.8C-19.8-8.8-19.8-8.8-19.9-8.8C-19.8-8.8-19.8-8.8-19.9-8.8
									C-19.8-8.8-19.9-8.8-19.9-8.8L-19.9-8.8z"/>
							</g>
							<g transform="matrix(14.7915,0,0,14.7915,103.388,202.962)">
								<path class="st12" d="M-19.9-8.7C-19.9-8.7-19.9-8.6-19.9-8.7c0,0.1,0,0.1,0,0.1s0,0,0,0.1l0,0c0,0,0,0-0.1,0c0,0,0,0-0.1,0
									c0,0,0,0-0.1,0l0,0l0,0l0,0h0.1l0,0l0,0l0,0l0,0C-20-8.6-20-8.6-19.9-8.7C-20-8.6-20-8.6-19.9-8.7c-0.1,0-0.1,0-0.1,0.1l0,0
									l0,0l0,0c0,0,0,0-0.1,0l0,0l0,0c0,0,0,0,0-0.1c0,0,0,0,0-0.1l0,0c0,0,0,0,0.1,0c0,0,0,0,0.1,0h0.1c0,0,0,0,0.1,0
									C-20-8.8-19.9-8.8-19.9-8.7C-19.9-8.8-19.9-8.7-19.9-8.7L-19.9-8.7z M-20-8.8L-20-8.8C-20.1-8.8-20.1-8.8-20-8.8
									C-20.1-8.8-20.1-8.8-20-8.8C-20.1-8.8-20.1-8.8-20-8.8c-0.1-0.1-0.1-0.1-0.1-0.1l0,0l0,0l0,0l0,0l0,0l0,0
									C-20.1-8.7-20.1-8.7-20-8.8C-20.1-8.7-20.1-8.7-20-8.8C-20.1-8.7-20.1-8.7-20-8.8C-20.1-8.7-20.1-8.7-20-8.8
									C-20-8.7-20-8.7-20-8.8z"/>
							</g>
							<g transform="matrix(14.7915,0,0,14.7915,112.632,202.962)">
								<path class="st12" d="M-20.4-8.9C-20.3-8.9-20.3-8.9-20.4-8.9C-20.3-8.9-20.3-8.9-20.4-8.9c0.1,0,0.1,0,0.1,0l0,0l0,0l0,0
									l0,0l0,0l0,0l0,0l0,0l0,0l0,0l0,0c0,0,0,0,0,0.1l0,0c0,0,0,0-0.1,0c0,0,0,0-0.1,0c0,0,0,0-0.1,0c0,0,0,0-0.1,0l0,0
									c0,0,0,0,0-0.1l0,0l0,0l0,0l0,0l0,0l0,0l0,0l0,0c0,0,0,0,0-0.1l0,0C-20.4-8.9-20.4-8.9-20.4-8.9L-20.4-8.9z M-20.4-8.7
									C-20.3-8.7-20.3-8.7-20.4-8.7C-20.3-8.7-20.3-8.7-20.4-8.7C-20.3-8.7-20.3-8.7-20.4-8.7C-20.3-8.8-20.3-8.8-20.4-8.7
									C-20.3-8.8-20.3-8.8-20.4-8.7C-20.3-8.8-20.3-8.8-20.4-8.7c0-0.1,0-0.1,0-0.1l0,0l0,0C-20.4-8.8-20.4-8.8-20.4-8.7
									C-20.4-8.8-20.4-8.8-20.4-8.7C-20.4-8.8-20.4-8.8-20.4-8.7C-20.4-8.8-20.4-8.8-20.4-8.7L-20.4-8.7L-20.4-8.7L-20.4-8.7z
									 M-20.4-8.5C-20.3-8.5-20.3-8.5-20.4-8.5C-20.3-8.5-20.3-8.5-20.4-8.5C-20.3-8.6-20.3-8.6-20.4-8.5
									C-20.3-8.6-20.3-8.6-20.4-8.5C-20.3-8.6-20.3-8.6-20.4-8.5c0.1-0.1,0.1-0.1,0.1-0.1l0,0l0,0l0,0l0,0
									C-20.4-8.6-20.4-8.6-20.4-8.5C-20.4-8.6-20.4-8.6-20.4-8.5C-20.4-8.6-20.4-8.6-20.4-8.5C-20.4-8.6-20.4-8.6-20.4-8.5
									L-20.4-8.5L-20.4-8.5z"/>
							</g>
							<g transform="matrix(14.7915,0,0,14.7915,121.978,202.962)">
								<path class="st12" d="M-20.6-8.9v0.4h-0.1v-0.3h-0.1v-0.1l0,0C-20.8-8.8-20.7-8.8-20.6-8.9C-20.7-8.8-20.7-8.8-20.6-8.9
									C-20.7-8.8-20.7-8.9-20.6-8.9C-20.7-8.9-20.7-8.9-20.6-8.9L-20.6-8.9L-20.6-8.9z"/>
							</g>
						</g>
						<g transform="matrix(1.20705,0,0,1.20705,186.508,30.8557)">
							<g transform="matrix(14.7915,0,0,14.7915,71.9774,202.962)">
								<rect x="-19.5" y="-9.6" class="st12" width="0.1" height="0.1"/>
							</g>
							<g transform="matrix(14.7915,0,0,14.7915,75.6753,202.962)">
								<path class="st12" d="M-19.4-9.7L-19.4-9.7C-19.5-9.7-19.5-9.7-19.4-9.7C-19.5-9.7-19.5-9.7-19.4-9.7
									C-19.5-9.7-19.5-9.7-19.4-9.7l-0.2,0.1c0,0,0,0,0-0.1l0,0C-19.5-9.8-19.5-9.8-19.4-9.7C-19.5-9.8-19.4-9.8-19.4-9.7
									C-19.4-9.8-19.4-9.8-19.4-9.7c0.1-0.1,0.1-0.1,0.1,0l0,0c0,0,0,0,0,0.1c0,0,0,0,0,0.1c0,0,0,0,0,0.1c0,0,0,0-0.1,0
									c0,0,0,0-0.1,0l0,0h0.2v0.1h-0.3v-0.1l0,0l0,0l0,0l0,0l0,0C-19.6-9.4-19.3-9.6-19.4-9.7C-19.3-9.7-19.3-9.7-19.4-9.7
									L-19.4-9.7L-19.4-9.7L-19.4-9.7z"/>
							</g>
							<g transform="matrix(14.7915,0,0,14.7915,84.7755,202.962)">
								<path class="st12" d="M-19.8-9.4L-19.8-9.4L-19.8-9.4C-19.8-9.5-19.8-9.5-19.8-9.4C-19.8-9.5-19.8-9.5-19.8-9.4
									C-19.7-9.5-19.7-9.5-19.8-9.4C-19.7-9.5-19.7-9.5-19.8-9.4c0.1,0,0.1,0,0.1,0l0,0l0,0C-19.7-9.4-19.7-9.4-19.8-9.4
									C-19.7-9.4-19.7-9.4-19.8-9.4C-19.7-9.4-19.7-9.4-19.8-9.4L-19.8-9.4L-19.8-9.4L-19.8-9.4L-19.8-9.4z"/>
							</g>
							<g transform="matrix(14.7915,0,0,14.7915,88.8273,202.962)">
								<path class="st12" d="M-19.8-9.7L-19.8-9.7L-19.8-9.7L-19.8-9.7L-19.8-9.7L-20-9.6c0,0,0,0,0-0.1l0,0
									C-19.9-9.8-19.8-9.8-19.8-9.7C-19.8-9.8-19.8-9.8-19.8-9.7C-19.7-9.8-19.7-9.8-19.8-9.7c0.1-0.1,0.1-0.1,0.1,0l0,0
									c0,0,0,0,0,0.1c0,0,0,0,0,0.1c0,0,0,0,0,0.1c0,0,0,0-0.1,0c0,0,0,0-0.1,0l0,0h0.1v0.1h-0.3v-0.1h0.1l0,0l0,0l0,0l0,0
									C-20-9.4-19.7-9.6-19.8-9.7C-19.7-9.7-19.7-9.7-19.8-9.7C-19.7-9.7-19.7-9.7-19.8-9.7C-19.7-9.7-19.7-9.7-19.8-9.7
									C-19.7-9.7-19.7-9.7-19.8-9.7z"/>
							</g>
							<g transform="matrix(14.7915,0,0,14.7915,97.9275,202.962)">
								<path class="st12" d="M-20.2-9.6L-20.2-9.6c0-0.1,0-0.1,0-0.1l0,0l0,0l0,0c0,0,0,0,0.1,0c0,0,0,0,0.1,0l0,0l0,0l0,0h-0.1
									l0,0l0,0l0,0l0,0l0,0C-20.1-9.6-20.1-9.6-20.2-9.6c0.1,0,0.1,0,0.1-0.1l0,0l0,0l0,0c0,0,0,0,0.1,0l0,0l0,0c0,0,0,0,0,0.1
									c0,0,0,0,0,0.1l0,0c0,0,0,0-0.1,0c0,0,0,0-0.1,0h-0.1c0,0,0,0-0.1,0C-20.1-9.4-20.2-9.5-20.2-9.6
									C-20.2-9.5-20.2-9.5-20.2-9.6L-20.2-9.6z M-20-9.5L-20-9.5L-20-9.5C-20-9.4-20-9.4-20-9.5C-20-9.4-20-9.4-20-9.5
									c0.1,0.1,0.1,0.1,0.1,0.1l0,0l0,0l0,0l0,0l0,0l0,0C-19.9-9.6-20-9.6-20-9.5C-20-9.6-20-9.6-20-9.5C-20-9.6-20-9.6-20-9.5
									L-20-9.5L-20-9.5z"/>
							</g>
							<g transform="matrix(14.7915,0,0,14.7915,107.187,202.962)">
								<path class="st12" d="M-20.2-9.7h-0.2v-0.1L-20.2-9.7L-20.2-9.7l-0.1,0.4h-0.1L-20.2-9.7z"/>
							</g>
							<g transform="matrix(14.7915,0,0,14.7915,115.203,202.962)">
								<path class="st12" d="M-20.4-9.7h-0.2v-0.1L-20.4-9.7L-20.4-9.7l-0.1,0.4h-0.1L-20.4-9.7z"/>
							</g>
							<g transform="matrix(14.7915,0,0,14.7915,123.22,202.962)">
								<path class="st12" d="M-20.6-9.7h-0.2v-0.1L-20.6-9.7L-20.6-9.7l-0.1,0.4h-0.1L-20.6-9.7z"/>
							</g>
							<g transform="matrix(14.7915,0,0,14.7915,131.237,202.962)">
								<path class="st12" d="M-20.9-9.5L-20.9-9.5L-20.9-9.5C-20.9-9.4-20.9-9.4-20.9-9.5C-20.9-9.4-20.8-9.4-20.9-9.5
									c0.1,0.1,0.1,0.1,0.1,0.1l0,0l0,0l0,0l0,0C-20.8-9.5-20.8-9.5-20.9-9.5L-20.9-9.5v-0.1l0,0c0,0,0,0,0.1,0l0,0l0,0l0,0l0,0
									l0,0l0,0l0,0l0,0l0,0h-0.1l0,0l0,0l0,0c0,0,0,0,0.1,0c0,0,0,0,0.1,0s0,0,0,0l0,0c0,0,0,0,0,0.1l0,0l0,0l0,0l0,0l0,0l0,0l0,0
									l0,0c0,0,0,0,0,0.1l0,0c0,0,0,0-0.1,0c0,0,0,0-0.1,0c0,0,0,0-0.1,0c0,0,0,0-0.1,0C-21-9.4-21-9.4-20.9-9.5
									C-21-9.4-21-9.5-20.9-9.5L-20.9-9.5z"/>
							</g>
						</g>
						<g transform="matrix(1.20705,0,0,1.20705,186.508,72.175)">
							<g transform="matrix(14.7915,0,0,14.7915,71.9774,202.962)">
								<rect x="-19.5" y="-10.4" class="st12" width="0.1" height="0.1"/>
							</g>
							<g transform="matrix(14.7915,0,0,14.7915,75.6753,202.962)">
								<path class="st12" d="M-19.4-10.6L-19.4-10.6C-19.5-10.6-19.5-10.6-19.4-10.6C-19.5-10.6-19.5-10.6-19.4-10.6
									C-19.5-10.5-19.5-10.5-19.4-10.6l-0.2,0.1c0,0,0,0,0-0.1l0,0C-19.5-10.7-19.5-10.7-19.4-10.6
									C-19.5-10.7-19.4-10.7-19.4-10.6C-19.4-10.7-19.4-10.7-19.4-10.6c0.1-0.1,0.1-0.1,0.1,0l0,0c0,0,0,0,0,0.1c0,0,0,0,0,0.1
									c0,0,0,0,0,0.1c0,0,0,0-0.1,0c0,0,0,0-0.1,0l0,0h0.2v0.1h-0.3v-0.1l0,0l0,0l0,0l0,0l0,0C-19.3-10.5-19.3-10.5-19.4-10.6
									C-19.3-10.5-19.3-10.6-19.4-10.6L-19.4-10.6L-19.4-10.6L-19.4-10.6z"/>
							</g>
							<g transform="matrix(14.7915,0,0,14.7915,84.7755,202.962)">
								<path class="st12" d="M-19.8-10.3L-19.8-10.3L-19.8-10.3L-19.8-10.3L-19.8-10.3C-19.7-10.3-19.7-10.3-19.8-10.3
									C-19.7-10.3-19.7-10.3-19.8-10.3c0.1,0,0.1,0,0.1,0l0,0l0,0C-19.7-10.3-19.7-10.3-19.8-10.3C-19.7-10.2-19.7-10.2-19.8-10.3
									C-19.7-10.2-19.7-10.2-19.8-10.3C-19.8-10.2-19.8-10.2-19.8-10.3C-19.8-10.2-19.8-10.2-19.8-10.3L-19.8-10.3L-19.8-10.3z"/>
							</g>
							<g transform="matrix(14.7915,0,0,14.7915,88.8273,202.962)">
								<path class="st12" d="M-19.8-10.6L-19.8-10.6L-19.8-10.6L-19.8-10.6C-19.8-10.5-19.8-10.5-19.8-10.6l-0.2,0.1c0,0,0,0,0-0.1
									l0,0C-19.9-10.7-19.8-10.7-19.8-10.6C-19.8-10.7-19.8-10.7-19.8-10.6C-19.7-10.7-19.7-10.7-19.8-10.6c0.1-0.1,0.1-0.1,0.1,0
									l0,0c0,0,0,0,0,0.1c0,0,0,0,0,0.1c0,0,0,0,0,0.1c0,0,0,0-0.1,0c0,0,0,0-0.1,0l0,0h0.1v0.1h-0.3v-0.1h0.1l0,0l0,0l0,0l0,0
									C-19.7-10.5-19.7-10.5-19.8-10.6C-19.7-10.5-19.7-10.6-19.8-10.6C-19.7-10.6-19.7-10.6-19.8-10.6
									C-19.7-10.6-19.7-10.6-19.8-10.6C-19.7-10.6-19.7-10.6-19.8-10.6z"/>
							</g>
							<g transform="matrix(14.7915,0,0,14.7915,97.9275,202.962)">
								<path class="st12" d="M-20-10.6L-20-10.6L-20-10.6L-20-10.6C-20.1-10.5-20.1-10.5-20-10.6l-0.2,0.1c0,0,0,0,0-0.1l0,0
									C-20.1-10.7-20.1-10.7-20-10.6C-20-10.7-20-10.7-20-10.6C-20-10.7-19.9-10.7-20-10.6c0.1-0.1,0.1-0.1,0.1,0l0,0
									c0,0,0,0,0,0.1c0,0,0,0,0,0.1c0,0,0,0,0,0.1c0,0,0,0-0.1,0c0,0,0,0-0.1,0l0,0h0.2v0.1h-0.3v-0.1l0,0l0,0l0,0l0,0l0,0
									C-19.9-10.5-19.9-10.5-20-10.6C-19.9-10.5-19.9-10.6-20-10.6C-19.9-10.6-19.9-10.6-20-10.6C-19.9-10.6-19.9-10.6-20-10.6
									L-20-10.6z"/>
							</g>
							<g transform="matrix(14.7915,0,0,14.7915,107.028,202.962)">
								<path class="st12" d="M-20.4-10.5L-20.4-10.5c0-0.1,0-0.1,0-0.1l0,0l0,0l0,0c0,0,0,0,0.1,0c0,0,0,0,0.1,0l0,0l0,0l0,0h-0.1
									l0,0l0,0l0,0l0,0l0,0C-20.3-10.6-20.3-10.5-20.4-10.5c0.1,0,0.1,0,0.1-0.1l0,0l0,0l0,0c0,0,0,0,0.1,0l0,0l0,0c0,0,0,0,0,0.1
									c0,0,0,0,0,0.1l0,0c0,0,0,0-0.1,0c0,0,0,0-0.1,0h-0.1c0,0,0,0-0.1,0C-20.3-10.3-20.3-10.3-20.4-10.5
									C-20.4-10.4-20.4-10.4-20.4-10.5L-20.4-10.5z M-20.3-10.4L-20.3-10.4C-20.3-10.3-20.3-10.3-20.3-10.4
									C-20.3-10.3-20.2-10.3-20.3-10.4C-20.2-10.3-20.2-10.3-20.3-10.4c0.1,0.1,0.1,0.1,0.1,0.1l0,0l0,0l0,0l0,0l0,0l0,0
									C-20.2-10.5-20.2-10.5-20.3-10.4C-20.2-10.5-20.2-10.5-20.3-10.4C-20.2-10.4-20.3-10.4-20.3-10.4L-20.3-10.4L-20.3-10.4z"/>
							</g>
							<g transform="matrix(14.7915,0,0,14.7915,116.287,202.962)">
								<path class="st12" d="M-20.2-10.5C-20.2-10.4-20.2-10.4-20.2-10.5c0,0.1,0,0.1,0,0.1s0,0,0,0.1l0,0c0,0,0,0-0.1,0
									c0,0,0,0-0.1,0c0,0,0,0-0.1,0l0,0l0,0l0,0h0.1l0,0l0,0l0,0l0,0C-20.4-10.4-20.3-10.4-20.2-10.5
									C-20.3-10.4-20.3-10.4-20.2-10.5c-0.1,0-0.1,0-0.1,0.1l0,0l0,0l0,0c0,0,0,0-0.1,0l0,0l0,0c0,0,0,0,0-0.1c0,0,0,0,0-0.1l0,0
									c0,0,0,0,0.1,0c0,0,0,0,0.1,0h0.1c0,0,0,0,0.1,0C-20.3-10.6-20.3-10.6-20.2-10.5L-20.2-10.5L-20.2-10.5z M-20.4-10.5
									C-20.4-10.5-20.4-10.6-20.4-10.5C-20.4-10.6-20.4-10.6-20.4-10.5C-20.4-10.6-20.4-10.6-20.4-10.5
									C-20.4-10.6-20.4-10.6-20.4-10.5c-0.1-0.1-0.1-0.1-0.1-0.1l0,0l0,0l0,0l0,0l0,0l0,0C-20.5-10.5-20.5-10.5-20.4-10.5
									L-20.4-10.5L-20.4-10.5L-20.4-10.5L-20.4-10.5z"/>
							</g>
							<g transform="matrix(14.7915,0,0,14.7915,125.531,202.962)">
								<path class="st12" d="M-20.7-10.5C-20.8-10.4-20.8-10.4-20.7-10.5C-20.8-10.4-20.7-10.4-20.7-10.5c0,0.1,0,0.1,0,0.1l0,0
									l0,0l0,0l0,0C-20.7-10.4-20.7-10.4-20.7-10.5L-20.7-10.5c0,0,0,0,0-0.1l0,0l0,0l0,0l0,0l0,0C-20.7-10.5-20.8-10.5-20.7-10.5
									C-20.8-10.5-20.8-10.5-20.7-10.5L-20.7-10.5z M-20.5-10.5C-20.5-10.4-20.5-10.4-20.5-10.5c0,0.1,0,0.1,0,0.1l0,0l0,0l0,0
									c0,0,0,0-0.1,0c0,0,0,0-0.1,0l0,0l0,0l0,0c0,0,0,0,0-0.1c0,0,0,0,0-0.1s0,0,0-0.1c0,0,0,0,0-0.1l0,0l0,0l0,0c0,0,0,0,0.1,0
									c0,0,0,0,0.1,0l0,0l0,0l0,0C-20.5-10.5-20.5-10.5-20.5-10.5L-20.5-10.5z"/>
							</g>
							<g transform="matrix(14.7915,0,0,14.7915,135.058,202.962)">
								<path class="st12" d="M-20.8-10.5C-20.8-10.4-20.8-10.4-20.8-10.5c0,0.1,0,0.1,0,0.1s0,0,0,0.1l0,0c0,0,0,0-0.1,0
									c0,0,0,0-0.1,0c0,0,0,0-0.1,0l0,0l0,0l0,0h0.1l0,0l0,0l0,0l0,0C-20.9-10.4-20.9-10.4-20.8-10.5
									C-20.9-10.4-20.9-10.4-20.8-10.5c-0.1,0-0.1,0-0.1,0.1l0,0l0,0l0,0c0,0,0,0-0.1,0l0,0l0,0c0,0,0,0,0-0.1c0,0,0,0,0-0.1l0,0
									c0,0,0,0,0.1,0c0,0,0,0,0.1,0h0.1c0,0,0,0,0.1,0C-20.8-10.6-20.8-10.6-20.8-10.5L-20.8-10.5L-20.8-10.5z M-20.9-10.5
									C-20.9-10.5-20.9-10.6-20.9-10.5C-20.9-10.6-20.9-10.6-20.9-10.5C-20.9-10.6-20.9-10.6-20.9-10.5
									C-20.9-10.6-20.9-10.6-20.9-10.5c-0.1-0.1-0.1-0.1-0.1-0.1l0,0l0,0l0,0l0,0l0,0l0,0C-21-10.5-20.9-10.5-20.9-10.5
									L-20.9-10.5L-20.9-10.5L-20.9-10.5L-20.9-10.5z"/>
							</g>
						</g>
						<g transform="matrix(1.20705,0,0,1.20705,-50.4764,-9.24095)">
							<g transform="matrix(14.7915,0,0,14.7915,71.9774,202.962)">
								<path class="st12" d="M-14.4-8.7v-0.2h0.3v0.1h-0.2L-14.4-8.7c0.1-0.1,0.1-0.1,0.1-0.1l0,0l0,0l0,0c0,0,0,0,0.1,0l0,0l0,0
									c0,0,0,0,0,0.1c0,0,0,0,0,0.1c0,0,0,0,0,0.1c0,0,0,0-0.1,0c0,0,0,0-0.1,0c0,0,0,0-0.1,0l0,0l0,0
									C-14.4-8.6-14.4-8.6-14.4-8.7L-14.4-8.7c0.1,0.1,0.1,0.1,0.1,0.1s0,0,0.1,0l0,0l0,0l0,0l0,0l0,0l0,0l0,0l0,0l0,0l0,0
									C-14.3-8.7-14.3-8.7-14.4-8.7C-14.3-8.7-14.3-8.7-14.4-8.7L-14.4-8.7z"/>
							</g>
							<g transform="matrix(14.7915,0,0,14.7915,80.9982,202.962)">
								<path class="st12" d="M-14.5-9v0.4h-0.1v-0.3h-0.1V-9l0,0l0,0l0,0l0,0C-14.6-8.9-14.6-8.9-14.5-9L-14.5-9L-14.5-9z"/>
							</g>
							<g transform="matrix(14.7915,0,0,14.7915,86.4583,202.962)">
								<path class="st12" d="M-14.8-8.6L-14.8-8.6L-14.8-8.6L-14.8-8.6L-14.8-8.6C-14.7-8.6-14.7-8.6-14.8-8.6
									C-14.7-8.6-14.7-8.6-14.8-8.6c0.1,0,0.1,0,0.1,0l0,0l0,0C-14.7-8.5-14.7-8.5-14.8-8.6C-14.7-8.5-14.7-8.5-14.8-8.6
									C-14.7-8.5-14.7-8.5-14.8-8.6C-14.8-8.5-14.8-8.5-14.8-8.6C-14.8-8.5-14.8-8.5-14.8-8.6C-14.8-8.5-14.8-8.5-14.8-8.6
									C-14.8-8.5-14.8-8.6-14.8-8.6z"/>
							</g>
							<g transform="matrix(14.7915,0,0,14.7915,90.5101,202.962)">
								<path class="st12" d="M-14.7-8.5v-0.1h-0.2v-0.1l0.2-0.2h0.1v0.3h0.1v0.1l-0.1-0.1L-14.7-8.5L-14.7-8.5z M-14.7-8.7v-0.2
									l-0.1,0.2H-14.7z"/>
							</g>
							<g transform="matrix(14.7915,0,0,14.7915,100.065,202.962)">
								<path class="st12" d="M-14.8-8.7L-14.8-8.7c0,0.1,0,0.1,0,0.1s0,0,0,0.1l0,0c0,0,0,0-0.1,0c0,0,0,0-0.1,0c0,0,0,0-0.1,0l0,0
									l0,0l0,0h0.1l0,0l0,0l0,0l0,0C-14.9-8.6-14.9-8.6-14.8-8.7C-14.9-8.7-14.9-8.7-14.8-8.7c-0.1,0-0.1,0-0.1,0.1l0,0l0,0l0,0
									c0,0,0,0-0.1,0l0,0l0,0c0,0,0,0,0-0.1c0,0,0,0,0-0.1l0,0c0,0,0,0,0.1,0c0,0,0,0,0.1,0h0.1c0,0,0,0,0.1,0
									C-14.8-8.9-14.8-8.9-14.8-8.7C-14.8-8.8-14.8-8.8-14.8-8.7L-14.8-8.7z M-14.9-8.8L-14.9-8.8L-14.9-8.8
									C-14.9-8.9-14.9-8.9-14.9-8.8C-15-8.9-15-8.9-14.9-8.8C-15-8.9-15-8.9-15-8.9l0,0l0,0l0,0l0,0l0,0l0,0
									C-15-8.7-15-8.7-14.9-8.8C-15-8.7-15-8.7-14.9-8.8C-14.9-8.7-14.9-8.7-14.9-8.8L-14.9-8.8L-14.9-8.8z"/>
							</g>
							<g transform="matrix(14.7915,0,0,14.7915,109.31,202.962)">
								<path class="st12" d="M-15.4-8.7v-0.2h0.2v0.1L-15.4-8.7L-15.4-8.7c0.1-0.1,0.1-0.1,0.1-0.1l0,0l0,0l0,0c0,0,0,0,0.1,0l0,0
									l0,0c0,0,0,0,0,0.1c0,0,0,0,0,0.1c0,0,0,0,0,0.1c0,0,0,0-0.1,0c0,0,0,0-0.1,0c0,0,0,0-0.1,0l0,0l0,0
									C-15.4-8.6-15.4-8.6-15.4-8.7L-15.4-8.7c0.1,0.1,0.1,0.1,0.1,0.1s0,0,0.1,0l0,0l0,0l0,0l0,0l0,0l0,0l0,0l0,0l0,0l0,0
									C-15.3-8.7-15.3-8.7-15.4-8.7C-15.3-8.7-15.3-8.7-15.4-8.7L-15.4-8.7z"/>
							</g>
							<g transform="matrix(14.7915,0,0,14.7915,118.331,202.962)">
								<path class="st12" d="M-15.5-9C-15.4-9-15.4-8.9-15.5-9C-15.4-8.9-15.4-8.9-15.5-9c0.1,0,0.1,0,0.1,0l0,0l0,0l0,0l0,0l0,0
									l0,0l0,0l0,0l0,0l0,0l0,0c0,0,0,0,0,0.1l0,0c0,0,0,0-0.1,0c0,0,0,0-0.1,0s0,0-0.1,0c0,0,0,0-0.1,0l0,0c0,0,0,0,0-0.1l0,0
									l0,0l0,0l0,0l0,0l0,0l0,0l0,0c0,0,0,0,0-0.1l0,0C-15.5-8.9-15.5-8.9-15.5-9C-15.5-8.9-15.5-9-15.5-9z M-15.5-8.8
									C-15.4-8.8-15.4-8.8-15.5-8.8C-15.4-8.8-15.4-8.8-15.5-8.8C-15.4-8.8-15.4-8.8-15.5-8.8C-15.4-8.8-15.4-8.8-15.5-8.8
									C-15.4-8.8-15.4-8.8-15.5-8.8C-15.4-8.9-15.4-8.9-15.5-8.8c0-0.1,0-0.1,0-0.1l0,0l0,0C-15.5-8.9-15.5-8.9-15.5-8.8
									C-15.5-8.9-15.5-8.9-15.5-8.8L-15.5-8.8L-15.5-8.8L-15.5-8.8L-15.5-8.8L-15.5-8.8z M-15.5-8.6C-15.4-8.6-15.4-8.6-15.5-8.6
									C-15.4-8.6-15.4-8.6-15.5-8.6C-15.4-8.6-15.4-8.6-15.5-8.6C-15.4-8.6-15.4-8.6-15.5-8.6C-15.4-8.6-15.4-8.7-15.5-8.6
									c0.1-0.1,0.1-0.1,0.1-0.1l0,0l0,0l0,0l0,0C-15.5-8.7-15.5-8.7-15.5-8.6C-15.5-8.7-15.5-8.6-15.5-8.6L-15.5-8.6L-15.5-8.6
									L-15.5-8.6L-15.5-8.6z"/>
							</g>
							<g transform="matrix(14.7915,0,0,14.7915,127.677,202.962)">
								<path class="st12" d="M-15.9-8.7C-15.9-8.7-15.9-8.8-15.9-8.7c0-0.1,0-0.1,0-0.1l0,0l0,0l0,0c0,0,0,0,0.1,0c0,0,0,0,0.1,0
									l0,0l0,0l0,0h-0.1l0,0l0,0l0,0l0,0l0,0C-15.8-8.8-15.8-8.8-15.9-8.7c0.1,0,0.1,0,0.1-0.1l0,0l0,0l0,0c0,0,0,0,0.1,0l0,0l0,0
									c0,0,0,0,0,0.1c0,0,0,0,0,0.1l0,0c0,0,0,0-0.1,0c0,0,0,0-0.1,0H-16c0,0,0,0-0.1,0C-15.8-8.6-15.8-8.6-15.9-8.7L-15.9-8.7
									L-15.9-8.7z M-15.8-8.7C-15.8-8.6-15.8-8.6-15.8-8.7C-15.8-8.6-15.8-8.6-15.8-8.7C-15.7-8.6-15.7-8.6-15.8-8.7
									C-15.7-8.6-15.7-8.6-15.8-8.7c0.1,0.1,0.1,0.1,0.1,0.1l0,0l0,0l0,0l0,0l0,0l0,0C-15.7-8.7-15.7-8.7-15.8-8.7
									C-15.7-8.7-15.7-8.7-15.8-8.7C-15.7-8.7-15.7-8.7-15.8-8.7L-15.8-8.7L-15.8-8.7z"/>
							</g>
							<g transform="matrix(14.7915,0,0,14.7915,136.936,202.962)">
								<path class="st12" d="M-15.9-8.9h-0.2V-9L-15.9-8.9L-15.9-8.9L-16-8.5h-0.1L-15.9-8.9z"/>
							</g>
						</g>
						<g transform="matrix(1.20705,0,0,1.20705,-50.0135,32.1671)">
							<g transform="matrix(14.7915,0,0,14.7915,71.9774,202.962)">
								<path class="st12" d="M-14.4-9.6v-0.2h0.3v0.1h-0.2L-14.4-9.6c0.1-0.1,0.1-0.1,0.1-0.1l0,0l0,0l0,0c0,0,0,0,0.1,0l0,0l0,0
									c0,0,0,0,0,0.1c0,0,0,0,0,0.1c0,0,0,0,0,0.1c0,0,0,0-0.1,0c0,0,0,0-0.1,0c0,0,0,0-0.1,0l0,0l0,0
									C-14.4-9.5-14.4-9.5-14.4-9.6L-14.4-9.6c0.1,0.1,0.1,0.1,0.1,0.1s0,0,0.1,0l0,0l0,0l0,0l0,0l0,0l0,0l0,0l0,0l0,0l0,0
									C-14.3-9.6-14.3-9.6-14.4-9.6C-14.3-9.6-14.3-9.6-14.4-9.6L-14.4-9.6z"/>
							</g>
							<g transform="matrix(14.7915,0,0,14.7915,80.9982,202.962)">
								<path class="st12" d="M-14.6-9.5L-14.6-9.5L-14.6-9.5C-14.6-9.5-14.5-9.5-14.6-9.5C-14.5-9.5-14.5-9.5-14.6-9.5
									c0.1,0.1,0.1,0.1,0.1,0.1l0,0l0,0l0,0l0,0C-14.5-9.6-14.5-9.6-14.6-9.5L-14.6-9.5L-14.6-9.5L-14.6-9.5
									c0.1-0.1,0.1-0.1,0.1-0.1l0,0l0,0l0,0l0,0l0,0l0,0l0,0l0,0l0,0h-0.1l0,0l0,0l0,0c0,0,0,0,0.1,0c0,0,0,0,0.1,0s0,0,0,0l0,0
									c0,0,0,0,0,0.1l0,0l0,0l0,0l0,0l0,0l0,0l0,0l0,0c0,0,0,0,0,0.1l0,0c0,0,0,0-0.1,0c0,0,0,0-0.1,0c0,0,0,0-0.1,0
									c0,0,0,0-0.1,0C-14.6-9.4-14.6-9.4-14.6-9.5C-14.7-9.5-14.7-9.5-14.6-9.5L-14.6-9.5z"/>
							</g>
							<g transform="matrix(14.7915,0,0,14.7915,90.1562,202.962)">
								<path class="st12" d="M-14.9-9.4C-14.9-9.4-14.9-9.5-14.9-9.4C-14.9-9.5-14.9-9.5-14.9-9.4C-14.9-9.5-14.9-9.5-14.9-9.4
									C-14.9-9.5-14.9-9.5-14.9-9.4C-14.8-9.5-14.8-9.5-14.9-9.4C-14.8-9.5-14.8-9.5-14.9-9.4c0.1,0,0.1,0,0.1,0l0,0l0,0
									C-14.8-9.4-14.8-9.4-14.9-9.4C-14.8-9.4-14.8-9.4-14.9-9.4C-14.8-9.4-14.8-9.4-14.9-9.4L-14.9-9.4L-14.9-9.4L-14.9-9.4
									L-14.9-9.4z"/>
							</g>
							<g transform="matrix(14.7915,0,0,14.7915,94.2079,202.962)">
								<path class="st12" d="M-15-9.6v-0.2h0.3v0.1h-0.2L-15-9.6c0.1-0.1,0.1-0.1,0.1-0.1l0,0l0,0l0,0c0,0,0,0,0.1,0l0,0l0,0
									c0,0,0,0,0,0.1c0,0,0,0,0,0.1c0,0,0,0,0,0.1c0,0,0,0-0.1,0c0,0,0,0-0.1,0c0,0,0,0-0.1,0l0,0l0,0C-15-9.5-15-9.5-15-9.6
									L-15-9.6c0.1,0.1,0.1,0.1,0.1,0.1s0,0,0.1,0l0,0l0,0l0,0l0,0l0,0l0,0l0,0l0,0l0,0l0,0C-14.9-9.6-14.9-9.6-15-9.6
									C-14.9-9.6-14.9-9.6-15-9.6L-15-9.6z"/>
							</g>
							<g transform="matrix(14.7915,0,0,14.7915,103.229,202.962)">
								<path class="st12" d="M-15.2-9.5L-15.2-9.5C-15.1-9.5-15.1-9.5-15.2-9.5C-15.1-9.5-15.1-9.5-15.2-9.5
									C-15.1-9.5-15.1-9.5-15.2-9.5c0.1,0.1,0.1,0.1,0.1,0.1l0,0l0,0l0,0l0,0C-15-9.6-15.1-9.6-15.2-9.5L-15.2-9.5L-15.2-9.5
									L-15.2-9.5c0.1-0.1,0.1-0.1,0.1-0.1l0,0l0,0l0,0l0,0l0,0l0,0l0,0l0,0l0,0h-0.1l0,0l0,0l0,0c0,0,0,0,0.1,0c0,0,0,0,0.1,0l0,0
									l0,0c0,0,0,0,0,0.1l0,0l0,0l0,0l0,0l0,0l0,0l0,0l0,0c0,0,0,0,0,0.1l0,0c0,0,0,0-0.1,0c0,0,0,0-0.1,0c0,0,0,0-0.1,0
									c0,0,0,0-0.1,0C-15.2-9.4-15.2-9.4-15.2-9.5L-15.2-9.5L-15.2-9.5z"/>
							</g>
							<g transform="matrix(14.7915,0,0,14.7915,112.387,202.962)">
								<path class="st12" d="M-15.3-9.8L-15.3-9.8C-15.3-9.8-15.2-9.8-15.3-9.8c0.1,0,0.1,0,0.1,0l0,0l0,0l0,0l0,0l0,0l0,0l0,0l0,0
									l0,0l0,0l0,0c0,0,0,0,0,0.1l0,0c0,0,0,0-0.1,0c0,0,0,0-0.1,0s0,0-0.1,0c0,0,0,0-0.1,0l0,0c0,0,0,0,0-0.1l0,0l0,0l0,0l0,0
									l0,0l0,0l0,0l0,0c0,0,0,0,0-0.1l0,0C-15.4-9.8-15.4-9.8-15.3-9.8C-15.4-9.8-15.3-9.8-15.3-9.8z M-15.3-9.7L-15.3-9.7
									L-15.3-9.7L-15.3-9.7C-15.2-9.7-15.2-9.7-15.3-9.7C-15.2-9.7-15.2-9.7-15.3-9.7L-15.3-9.7c0-0.1,0-0.1,0-0.1l0,0l0,0
									C-15.3-9.8-15.4-9.7-15.3-9.7C-15.4-9.7-15.4-9.7-15.3-9.7C-15.4-9.7-15.4-9.7-15.3-9.7C-15.4-9.7-15.4-9.7-15.3-9.7
									C-15.4-9.7-15.4-9.7-15.3-9.7C-15.4-9.7-15.3-9.7-15.3-9.7L-15.3-9.7z M-15.3-9.5L-15.3-9.5L-15.3-9.5
									C-15.2-9.5-15.2-9.5-15.3-9.5C-15.2-9.5-15.2-9.5-15.3-9.5C-15.2-9.5-15.2-9.5-15.3-9.5c0.1-0.1,0.1-0.1,0.1-0.1l0,0l0,0
									l0,0l0,0C-15.4-9.6-15.4-9.6-15.3-9.5C-15.4-9.5-15.4-9.5-15.3-9.5C-15.4-9.5-15.4-9.5-15.3-9.5
									C-15.4-9.5-15.4-9.5-15.3-9.5C-15.4-9.5-15.4-9.5-15.3-9.5L-15.3-9.5z"/>
							</g>
							<g transform="matrix(14.7915,0,0,14.7915,121.733,202.962)">
								<path class="st12" d="M-15.7-9.6v-0.2h0.3v0.1h-0.2L-15.7-9.6c0.1-0.1,0.1-0.1,0.1-0.1l0,0l0,0l0,0c0,0,0,0,0.1,0l0,0l0,0
									c0,0,0,0,0,0.1c0,0,0,0,0,0.1c0,0,0,0,0,0.1c0,0,0,0-0.1,0c0,0,0,0-0.1,0c0,0,0,0-0.1,0l0,0l0,0
									C-15.7-9.5-15.7-9.5-15.7-9.6L-15.7-9.6c0.1,0.1,0.1,0.1,0.1,0.1s0,0,0.1,0l0,0l0,0l0,0l0,0l0,0l0,0l0,0l0,0l0,0l0,0
									C-15.6-9.6-15.6-9.6-15.7-9.6C-15.6-9.6-15.6-9.6-15.7-9.6L-15.7-9.6z"/>
							</g>
							<g transform="matrix(14.7915,0,0,14.7915,130.753,202.962)">
								<path class="st12" d="M-15.8-9.8C-15.8-9.8-15.8-9.7-15.8-9.8C-15.8-9.7-15.8-9.7-15.8-9.8C-15.9-9.7-15.9-9.7-15.8-9.8
									C-15.9-9.7-15.9-9.7-15.8-9.8L-16-9.7c0,0,0,0,0-0.1l0,0C-15.9-9.8-15.9-9.8-15.8-9.8L-15.8-9.8
									C-15.8-9.8-15.7-9.8-15.8-9.8c0.1-0.1,0.1-0.1,0.1,0l0,0c0,0,0,0,0,0.1c0,0,0,0,0,0.1c0,0,0,0,0,0.1c0,0,0,0-0.1,0
									c0,0,0,0-0.1,0l0,0h0.2v0.1H-16l0,0l0,0l0,0l0,0l0,0l0,0C-15.7-9.7-15.7-9.7-15.8-9.8C-15.7-9.7-15.7-9.7-15.8-9.8
									C-15.7-9.7-15.7-9.7-15.8-9.8C-15.7-9.7-15.8-9.7-15.8-9.8C-15.8-9.7-15.8-9.8-15.8-9.8z"/>
							</g>
							<g transform="matrix(14.7915,0,0,14.7915,139.854,202.962)">
								<path class="st12" d="M-16-9.8v0.4h-0.1v-0.3h-0.1v-0.1l0,0l0,0C-16.1-9.8-16.1-9.8-16-9.8C-16.1-9.8-16.1-9.8-16-9.8
									C-16.1-9.8-16.1-9.8-16-9.8L-16-9.8L-16-9.8z"/>
							</g>
						</g>
						<g transform="matrix(1.20705,0,0,1.20705,-50.0135,72.2202)">
							<g transform="matrix(14.7915,0,0,14.7915,71.9774,202.962)">
								<path class="st12" d="M-14.4-10.4v-0.2h0.3v0.1h-0.2L-14.4-10.4c0.1-0.1,0.1-0.1,0.1-0.1l0,0l0,0l0,0c0,0,0,0,0.1,0l0,0l0,0
									c0,0,0,0,0,0.1c0,0,0,0,0,0.1c0,0,0,0,0,0.1c0,0,0,0-0.1,0c0,0,0,0-0.1,0c0,0,0,0-0.1,0l0,0l0,0
									C-14.4-10.3-14.4-10.3-14.4-10.4L-14.4-10.4c0.1,0.1,0.1,0.1,0.1,0.1s0,0,0.1,0l0,0l0,0l0,0l0,0l0,0l0,0l0,0l0,0l0,0l0,0
									C-14.3-10.5-14.3-10.5-14.4-10.4C-14.3-10.4-14.3-10.4-14.4-10.4L-14.4-10.4z"/>
							</g>
							<g transform="matrix(14.7915,0,0,14.7915,80.9982,202.962)">
								<path class="st12" d="M-14.6-10.4L-14.6-10.4C-14.6-10.3-14.6-10.3-14.6-10.4C-14.6-10.3-14.5-10.3-14.6-10.4
									C-14.5-10.3-14.5-10.3-14.6-10.4c0.1,0.1,0.1,0.1,0.1,0.1l0,0l0,0l0,0l0,0C-14.5-10.4-14.5-10.4-14.6-10.4L-14.6-10.4
									l0.1-0.1l0,0c0,0,0,0,0.1,0l0,0l0,0l0,0l0,0l0,0l0,0l0,0l0,0l0,0h-0.1l0,0l0,0l0,0c0,0,0,0,0.1,0c0,0,0,0,0.1,0l0,0l0,0
									c0,0,0,0,0,0.1l0,0l0,0l0,0l0,0l0,0l0,0l0,0l0,0c0,0,0,0,0,0.1l0,0c0,0,0,0-0.1,0c0,0,0,0-0.1,0c0,0,0,0-0.1,0
									c0,0,0,0-0.1,0C-14.6-10.3-14.6-10.3-14.6-10.4C-14.7-10.3-14.7-10.3-14.6-10.4L-14.6-10.4z"/>
							</g>
							<g transform="matrix(14.7915,0,0,14.7915,90.1562,202.962)">
								<path class="st12" d="M-14.9-10.3L-14.9-10.3L-14.9-10.3L-14.9-10.3L-14.9-10.3C-14.8-10.3-14.8-10.3-14.9-10.3
									C-14.8-10.3-14.8-10.3-14.9-10.3c0.1,0,0.1,0,0.1,0l0,0l0,0C-14.8-10.3-14.8-10.3-14.9-10.3C-14.8-10.2-14.8-10.2-14.9-10.3
									C-14.8-10.2-14.8-10.2-14.9-10.3C-14.9-10.2-14.9-10.2-14.9-10.3C-14.9-10.2-14.9-10.2-14.9-10.3L-14.9-10.3L-14.9-10.3z"/>
							</g>
							<g transform="matrix(14.7915,0,0,14.7915,94.2079,202.962)">
								<path class="st12" d="M-14.8-10.3v-0.1H-15v-0.1l0.2-0.2h0.1v0.2h0.1v0.1h-0.1L-14.8-10.3L-14.8-10.3z M-14.8-10.4v-0.2
									l-0.1,0.2H-14.8z"/>
							</g>
							<g transform="matrix(14.7915,0,0,14.7915,103.763,202.962)">
								<path class="st12" d="M-15.1-10.7L-15.1-10.7C-15-10.7-15-10.7-15.1-10.7c0.1,0,0.1,0,0.1,0l0,0l0,0l0,0l0,0l0,0l0,0l0,0
									l0,0l0,0l0,0l0,0c0,0,0,0,0,0.1l0,0c0,0,0,0-0.1,0c0,0,0,0-0.1,0s0,0-0.1,0c0,0,0,0-0.1,0l0,0c0,0,0,0,0-0.1l0,0l0,0l0,0
									l0,0l0,0l0,0l0,0l0,0c0,0,0,0,0-0.1l0,0C-15.2-10.7-15.2-10.7-15.1-10.7L-15.1-10.7z M-15.1-10.5L-15.1-10.5
									C-15.1-10.5-15-10.5-15.1-10.5C-15-10.5-15-10.5-15.1-10.5C-15-10.5-15-10.5-15.1-10.5C-15-10.6-15-10.6-15.1-10.5
									C-15-10.6-15-10.6-15.1-10.5c0-0.1,0-0.1,0-0.1l0,0l0,0C-15.1-10.6-15.1-10.6-15.1-10.5C-15.1-10.6-15.1-10.6-15.1-10.5
									C-15.2-10.6-15.2-10.6-15.1-10.5C-15.2-10.5-15.2-10.5-15.1-10.5L-15.1-10.5L-15.1-10.5L-15.1-10.5z M-15.1-10.3L-15.1-10.3
									C-15-10.3-15-10.3-15.1-10.3C-15-10.3-15-10.3-15.1-10.3C-15-10.4-15-10.4-15.1-10.3C-15-10.4-15-10.4-15.1-10.3
									c0.1-0.1,0.1-0.1,0.1-0.1l0,0l0,0l0,0l0,0C-15.2-10.4-15.2-10.4-15.1-10.3C-15.2-10.4-15.2-10.4-15.1-10.3
									C-15.2-10.4-15.2-10.4-15.1-10.3C-15.2-10.3-15.2-10.3-15.1-10.3L-15.1-10.3L-15.1-10.3z"/>
							</g>
							<g transform="matrix(14.7915,0,0,14.7915,113.109,202.962)">
								<path class="st12" d="M-15.3-10.7v0.4h-0.1v-0.3h-0.1v-0.1l0,0l0,0l0,0C-15.4-10.6-15.4-10.6-15.3-10.7
									C-15.4-10.7-15.4-10.7-15.3-10.7L-15.3-10.7L-15.3-10.7z"/>
							</g>
							<g transform="matrix(14.7915,0,0,14.7915,118.569,202.962)">
								<path class="st12" d="M-15.6-10.4L-15.6-10.4C-15.5-10.3-15.5-10.3-15.6-10.4C-15.5-10.3-15.5-10.3-15.6-10.4
									C-15.5-10.3-15.5-10.3-15.6-10.4c0.1,0.1,0.1,0.1,0.1,0.1l0,0l0,0l0,0l0,0C-15.4-10.4-15.5-10.4-15.6-10.4L-15.6-10.4v-0.1
									l0,0c0,0,0,0,0.1,0l0,0l0,0l0,0l0,0l0,0l0,0l0,0l0,0l0,0h-0.1l0,0l0,0l0,0c0,0,0,0,0.1,0c0,0,0,0,0.1,0l0,0l0,0
									c0,0,0,0,0,0.1l0,0l0,0l0,0l0,0l0,0l0,0l0,0l0,0c0,0,0,0,0,0.1l0,0c0,0,0,0-0.1,0c0,0,0,0-0.1,0c0,0,0,0-0.1,0
									c0,0,0,0-0.1,0C-15.6-10.3-15.6-10.3-15.6-10.4C-15.6-10.3-15.6-10.3-15.6-10.4L-15.6-10.4z"/>
							</g>
							<g transform="matrix(14.7915,0,0,14.7915,127.727,202.962)">
								<path class="st12" d="M-15.8-10.4L-15.8-10.4C-15.8-10.3-15.8-10.3-15.8-10.4C-15.8-10.3-15.7-10.3-15.8-10.4
									C-15.7-10.3-15.7-10.3-15.8-10.4c0.1,0.1,0.1,0.1,0.1,0.1l0,0l0,0l0,0l0,0C-15.7-10.4-15.7-10.4-15.8-10.4L-15.8-10.4v-0.1
									l0,0c0,0,0,0,0.1,0l0,0l0,0l0,0l0,0l0,0l0,0l0,0l0,0l0,0h-0.1l0,0l0,0l0,0c0,0,0,0,0.1,0c0,0,0,0,0.1,0l0,0l0,0
									c0,0,0,0,0,0.1l0,0l0,0l0,0l0,0l0,0l0,0l0,0l0,0c0,0,0,0,0,0.1l0,0c0,0,0,0-0.1,0c0,0,0,0-0.1,0c0,0,0,0-0.1,0
									c0,0,0,0-0.1,0C-15.8-10.3-15.8-10.3-15.8-10.4C-15.9-10.3-15.9-10.3-15.8-10.4L-15.8-10.4z"/>
							</g>
							<g transform="matrix(14.7915,0,0,14.7915,136.885,202.962)">
								<path class="st12" d="M-16-10.4L-16-10.4C-16-10.3-16-10.3-16-10.4C-16-10.3-16-10.3-16-10.4C-16-10.3-16-10.3-16-10.4
									c0.1,0.1,0.1,0.1,0.1,0.1l0,0l0,0l0,0l0,0C-15.9-10.4-15.9-10.4-16-10.4L-16-10.4l0.1-0.1l0,0c0,0,0,0,0.1,0l0,0l0,0l0,0
									l0,0l0,0l0,0l0,0l0,0l0,0h-0.1l0,0l0,0l0,0c0,0,0,0,0.1,0c0,0,0,0,0.1,0l0,0l0,0c0,0,0,0,0,0.1l0,0l0,0l0,0l0,0l0,0l0,0l0,0
									l0,0c0,0,0,0,0,0.1l0,0c0,0,0,0-0.1,0c0,0,0,0-0.1,0c0,0,0,0-0.1,0c0,0,0,0-0.1,0C-16.1-10.3-16.1-10.3-16-10.4
									C-16.1-10.3-16.1-10.3-16-10.4L-16-10.4z"/>
							</g>
						</g>
					</g>
				</g>
			</g>
		</g>
	</g>
	<path class="st13" d="M584.5,1734.8v-137.3H356.1v137.3H584.5z M582.4,1598.6H357.2v135.1h225.2V1598.6z"/>
</g>
<g class="st14">
	<path class="st15" d="M31.1,38.4h3v11.8h7.1v2.6H31.1V38.4z"/>
	<path class="st15" d="M43.5,43.3c0.7-0.9,2-1.4,3.8-1.4c1.2,0,2.2,0.2,3.1,0.7s1.4,1.3,1.4,2.6v4.9c0,0.3,0,0.7,0,1.2
		c0,0.4,0.1,0.6,0.2,0.7s0.2,0.2,0.4,0.3v0.4h-3c-0.1-0.2-0.1-0.4-0.2-0.6s-0.1-0.4-0.1-0.6c-0.4,0.4-0.8,0.8-1.3,1.1
		c-0.6,0.3-1.3,0.5-2,0.5c-1,0-1.8-0.3-2.4-0.8S42.4,51,42.4,50c0-1.3,0.5-2.3,1.5-2.8c0.6-0.3,1.4-0.5,2.4-0.7l0.9-0.1
		c0.5-0.1,0.9-0.1,1.1-0.2c0.4-0.2,0.6-0.4,0.6-0.8c0-0.4-0.2-0.7-0.5-0.9s-0.7-0.2-1.3-0.2c-0.7,0-1.1,0.2-1.4,0.5
		c-0.2,0.2-0.3,0.6-0.4,1h-2.7C42.8,44.7,43.1,43.9,43.5,43.3z M45.6,50.8c0.3,0.2,0.6,0.3,1,0.3c0.6,0,1.2-0.2,1.7-0.5
		s0.8-1,0.8-1.9v-1c-0.2,0.1-0.4,0.2-0.5,0.3s-0.4,0.1-0.7,0.2l-0.6,0.1c-0.6,0.1-1,0.2-1.3,0.4c-0.4,0.3-0.6,0.6-0.6,1.2
		C45.2,50.3,45.3,50.6,45.6,50.8z"/>
	<path class="st15" d="M59.2,44.2c-0.9,0-1.6,0.4-1.9,1.2c-0.2,0.4-0.3,1-0.3,1.6v5.8h-2.8V42.2h2.7v1.6c0.4-0.5,0.7-0.9,1-1.2
		c0.6-0.4,1.3-0.6,2.2-0.6c1.1,0,2,0.3,2.7,0.9s1,1.5,1,2.9v7.2H61v-6.5c0-0.6-0.1-1-0.2-1.3C60.5,44.5,60,44.2,59.2,44.2z"/>
	<path class="st15" d="M76.1,38.5v14.4h-2.7v-1.5c-0.4,0.6-0.8,1.1-1.4,1.4s-1.1,0.4-1.9,0.4c-1.2,0-2.3-0.5-3.1-1.5
		s-1.3-2.3-1.3-3.9c0-1.8,0.4-3.2,1.3-4.3s2-1.6,3.4-1.6c0.6,0,1.2,0.1,1.7,0.4s0.9,0.7,1.2,1.2v-5.1H76.1z M68.6,47.6
		c0,1,0.2,1.8,0.6,2.4c0.4,0.6,1,0.9,1.8,0.9s1.4-0.3,1.8-0.9s0.6-1.3,0.6-2.3c0-1.3-0.3-2.2-1-2.8c-0.4-0.3-0.9-0.5-1.4-0.5
		c-0.8,0-1.4,0.3-1.8,0.9S68.6,46.7,68.6,47.6z"/>
	<path class="st15" d="M84.6,43.3c0.7-0.9,2-1.4,3.8-1.4c1.2,0,2.2,0.2,3.1,0.7s1.4,1.3,1.4,2.6v4.9c0,0.3,0,0.7,0,1.2
		c0,0.4,0.1,0.6,0.2,0.7s0.2,0.2,0.4,0.3v0.4h-3c-0.1-0.2-0.1-0.4-0.2-0.6s-0.1-0.4-0.1-0.6c-0.4,0.4-0.8,0.8-1.3,1.1
		c-0.6,0.3-1.3,0.5-2,0.5c-1,0-1.8-0.3-2.4-0.8S83.5,51,83.5,50c0-1.3,0.5-2.3,1.5-2.8c0.6-0.3,1.4-0.5,2.4-0.7l0.9-0.1
		c0.5-0.1,0.9-0.1,1.1-0.2c0.4-0.2,0.6-0.4,0.6-0.8c0-0.4-0.2-0.7-0.5-0.9s-0.7-0.2-1.3-0.2c-0.7,0-1.1,0.2-1.4,0.5
		c-0.2,0.2-0.3,0.6-0.4,1h-2.7C83.9,44.7,84.2,43.9,84.6,43.3z M86.7,50.8c0.3,0.2,0.6,0.3,1,0.3c0.6,0,1.2-0.2,1.7-0.5
		s0.8-1,0.8-1.9v-1c-0.2,0.1-0.4,0.2-0.5,0.3s-0.4,0.1-0.7,0.2l-0.6,0.1c-0.6,0.1-1,0.2-1.3,0.4c-0.4,0.3-0.6,0.6-0.6,1.2
		C86.3,50.3,86.4,50.6,86.7,50.8z"/>
	<path class="st15" d="M100.4,44.2c-0.9,0-1.6,0.4-1.9,1.2c-0.2,0.4-0.3,1-0.3,1.6v5.8h-2.8V42.2h2.7v1.6c0.4-0.5,0.7-0.9,1-1.2
		c0.6-0.4,1.3-0.6,2.2-0.6c1.1,0,2,0.3,2.7,0.9s1,1.5,1,2.9v7.2h-2.9v-6.5c0-0.6-0.1-1-0.2-1.3C101.6,44.5,101.1,44.2,100.4,44.2z"
		/>
	<path class="st15" d="M117.3,38.5v14.4h-2.7v-1.5c-0.4,0.6-0.8,1.1-1.4,1.4s-1.1,0.4-1.9,0.4c-1.2,0-2.3-0.5-3.1-1.5
		s-1.3-2.3-1.3-3.9c0-1.8,0.4-3.2,1.3-4.3s2-1.6,3.4-1.6c0.6,0,1.2,0.1,1.7,0.4s0.9,0.7,1.2,1.2v-5.1H117.3z M109.8,47.6
		c0,1,0.2,1.8,0.6,2.4c0.4,0.6,1,0.9,1.8,0.9s1.4-0.3,1.8-0.9s0.6-1.3,0.6-2.3c0-1.3-0.3-2.2-1-2.8c-0.4-0.3-0.9-0.5-1.4-0.5
		c-0.8,0-1.4,0.3-1.8,0.9S109.8,46.7,109.8,47.6z"/>
	<path class="st15" d="M134.3,43.3c0.9,0.9,1.3,2.3,1.3,4c0,1.9-0.4,3.3-1.3,4.3s-1.9,1.5-3.3,1.5c-0.8,0-1.5-0.2-2.1-0.6
		c-0.3-0.2-0.6-0.6-0.9-1V57h-2.8V42.2h2.7v1.6c0.3-0.5,0.6-0.8,1-1.1c0.6-0.5,1.4-0.7,2.2-0.7C132.3,42,133.4,42.4,134.3,43.3z
		 M132.7,47.5c0-0.8-0.2-1.5-0.6-2.2s-1-0.9-1.8-0.9c-1,0-1.7,0.5-2.1,1.4c-0.2,0.5-0.3,1.2-0.3,1.9c0,1.2,0.3,2.1,1,2.6
		c0.4,0.3,0.9,0.4,1.4,0.4c0.8,0,1.4-0.3,1.8-0.9S132.7,48.5,132.7,47.5z"/>
	<path class="st15" d="M142.9,44.8c-1.1,0-1.9,0.4-2.3,1.1c-0.2,0.4-0.3,1-0.3,1.9v5.1h-2.8V42.2h2.7V44c0.4-0.7,0.8-1.2,1.1-1.5
		c0.5-0.4,1.2-0.7,2-0.7c0.1,0,0.1,0,0.1,0s0.1,0,0.2,0v2.9c-0.2,0-0.3,0-0.5,0S143,44.8,142.9,44.8z"/>
	<path class="st15" d="M154.2,43.5c0.9,1.1,1.3,2.5,1.3,4c0,1.6-0.4,2.9-1.3,4s-2.3,1.7-4.1,1.7s-3.2-0.6-4.1-1.7s-1.3-2.4-1.3-4
		c0-1.5,0.4-2.9,1.3-4s2.3-1.7,4.1-1.7S153.3,42.4,154.2,43.5z M150.1,44.2c-0.8,0-1.4,0.3-1.9,0.9s-0.7,1.4-0.7,2.5
		s0.2,1.9,0.7,2.5s1.1,0.9,1.9,0.9s1.4-0.3,1.9-0.9s0.7-1.4,0.7-2.5s-0.2-1.9-0.7-2.5S150.9,44.2,150.1,44.2z"/>
	<path class="st15" d="M166.5,43.3c0.9,0.9,1.3,2.3,1.3,4c0,1.9-0.4,3.3-1.3,4.3s-1.9,1.5-3.3,1.5c-0.8,0-1.5-0.2-2.1-0.6
		c-0.3-0.2-0.6-0.6-0.9-1V57h-2.8V42.2h2.7v1.6c0.3-0.5,0.6-0.8,1-1.1c0.6-0.5,1.4-0.7,2.2-0.7C164.6,42,165.6,42.4,166.5,43.3z
		 M164.9,47.5c0-0.8-0.2-1.5-0.6-2.2s-1-0.9-1.8-0.9c-1,0-1.7,0.5-2.1,1.4c-0.2,0.5-0.3,1.2-0.3,1.9c0,1.2,0.3,2.1,1,2.6
		c0.4,0.3,0.9,0.4,1.4,0.4c0.8,0,1.4-0.3,1.8-0.9S164.9,48.5,164.9,47.5z"/>
	<path class="st15" d="M178.9,49.7c-0.1,0.6-0.4,1.3-1,1.9c-0.9,1-2.2,1.6-3.8,1.6c-1.4,0-2.5-0.4-3.6-1.3s-1.6-2.3-1.6-4.3
		c0-1.8,0.5-3.3,1.4-4.2s2.1-1.5,3.6-1.5c0.9,0,1.7,0.2,2.4,0.5s1.3,0.9,1.8,1.6c0.4,0.6,0.7,1.4,0.8,2.2c0.1,0.5,0.1,1.2,0.1,2.1
		h-7.3c0,1.1,0.4,1.8,1,2.2c0.4,0.3,0.8,0.4,1.4,0.4c0.6,0,1-0.2,1.4-0.5c0.2-0.2,0.4-0.4,0.5-0.7H178.9z M176.1,46.4
		c0-0.7-0.3-1.3-0.7-1.7s-0.9-0.6-1.5-0.6c-0.6,0-1.1,0.2-1.5,0.6s-0.6,1-0.7,1.6H176.1z"/>
	<path class="st15" d="M186.2,44.8c-1.1,0-1.9,0.4-2.3,1.1c-0.2,0.4-0.3,1-0.3,1.9v5.1h-2.8V42.2h2.7V44c0.4-0.7,0.8-1.2,1.1-1.5
		c0.5-0.4,1.2-0.7,2-0.7c0.1,0,0.1,0,0.1,0s0.1,0,0.2,0v2.9c-0.2,0-0.3,0-0.5,0S186.3,44.8,186.2,44.8z"/>
	<path class="st15" d="M193.6,50.8v2.1l-1.3,0c-1.3,0-2.2-0.2-2.7-0.7c-0.3-0.3-0.5-0.8-0.5-1.5v-6.6h-1.5v-2h1.5v-3h2.8v3h1.7v2
		h-1.7v5.6c0,0.4,0.1,0.7,0.2,0.8s0.4,0.2,1,0.2c0.1,0,0.2,0,0.3,0S193.5,50.9,193.6,50.8z"/>
	<path class="st15" d="M199.7,50l2.2-7.9h3l-3.7,10.5c-0.7,2-1.3,3.3-1.7,3.8s-1.2,0.7-2.5,0.7c-0.2,0-0.4,0-0.6,0s-0.4,0-0.7,0
		v-2.2l0.4,0c0.3,0,0.5,0,0.8,0s0.5-0.1,0.6-0.2c0.2-0.1,0.3-0.3,0.5-0.7s0.2-0.6,0.2-0.6l-3.9-11.1h3.1L199.7,50z"/>
	<path class="st15" d="M220.9,43.3c0.9,0.9,1.3,2.3,1.3,4c0,1.9-0.4,3.3-1.3,4.3s-1.9,1.5-3.3,1.5c-0.8,0-1.5-0.2-2.1-0.6
		c-0.3-0.2-0.6-0.6-0.9-1V57h-2.8V42.2h2.7v1.6c0.3-0.5,0.6-0.8,1-1.1c0.6-0.5,1.4-0.7,2.2-0.7C219,42,220.1,42.4,220.9,43.3z
		 M219.4,47.5c0-0.8-0.2-1.5-0.6-2.2s-1-0.9-1.8-0.9c-1,0-1.7,0.5-2.1,1.4c-0.2,0.5-0.3,1.2-0.3,1.9c0,1.2,0.3,2.1,1,2.6
		c0.4,0.3,0.9,0.4,1.4,0.4c0.8,0,1.4-0.3,1.8-0.9S219.4,48.5,219.4,47.5z"/>
	<path class="st15" d="M224.3,38.4h2.8v14.4h-2.8V38.4z"/>
	<path class="st15" d="M230.2,43.3c0.7-0.9,2-1.4,3.8-1.4c1.2,0,2.2,0.2,3.1,0.7s1.4,1.3,1.4,2.6v4.9c0,0.3,0,0.7,0,1.2
		c0,0.4,0.1,0.6,0.2,0.7s0.2,0.2,0.4,0.3v0.4h-3c-0.1-0.2-0.1-0.4-0.2-0.6s-0.1-0.4-0.1-0.6c-0.4,0.4-0.8,0.8-1.3,1.1
		c-0.6,0.3-1.3,0.5-2,0.5c-1,0-1.8-0.3-2.4-0.8s-0.9-1.3-0.9-2.3c0-1.3,0.5-2.3,1.5-2.8c0.6-0.3,1.4-0.5,2.4-0.7l0.9-0.1
		c0.5-0.1,0.9-0.1,1.1-0.2c0.4-0.2,0.6-0.4,0.6-0.8c0-0.4-0.2-0.7-0.5-0.9s-0.7-0.2-1.3-0.2c-0.7,0-1.1,0.2-1.4,0.5
		c-0.2,0.2-0.3,0.6-0.4,1h-2.7C229.5,44.7,229.7,43.9,230.2,43.3z M232.3,50.8c0.3,0.2,0.6,0.3,1,0.3c0.6,0,1.2-0.2,1.7-0.5
		s0.8-1,0.8-1.9v-1c-0.2,0.1-0.4,0.2-0.5,0.3s-0.4,0.1-0.7,0.2l-0.6,0.1c-0.6,0.1-1,0.2-1.3,0.4c-0.4,0.3-0.6,0.6-0.6,1.2
		C231.9,50.3,232,50.6,232.3,50.8z"/>
	<path class="st15" d="M245.8,50.8v2.1l-1.3,0c-1.3,0-2.2-0.2-2.7-0.7c-0.3-0.3-0.5-0.8-0.5-1.5v-6.6h-1.5v-2h1.5v-3h2.8v3h1.7v2
		h-1.7v5.6c0,0.4,0.1,0.7,0.2,0.8s0.4,0.2,1,0.2c0.1,0,0.2,0,0.3,0S245.7,50.9,245.8,50.8z"/>
	<path class="st15" d="M252.6,38.3v2.3c-0.2,0-0.4,0-0.8,0s-0.6,0.1-0.8,0.2s-0.2,0.4-0.2,0.6v0.9h1.8v2h-1.8v8.6H248v-8.6h-1.6v-2
		h1.5v-0.7c0-1.1,0.2-1.9,0.6-2.4c0.4-0.6,1.4-1,2.9-1c0.2,0,0.3,0,0.5,0S252.3,38.3,252.6,38.3z"/>
	<path class="st15" d="M263.1,43.5c0.9,1.1,1.3,2.5,1.3,4c0,1.6-0.4,2.9-1.3,4s-2.3,1.7-4.1,1.7s-3.2-0.6-4.1-1.7s-1.3-2.4-1.3-4
		c0-1.5,0.4-2.9,1.3-4s2.3-1.7,4.1-1.7S262.2,42.4,263.1,43.5z M259,44.2c-0.8,0-1.4,0.3-1.9,0.9s-0.7,1.4-0.7,2.5s0.2,1.9,0.7,2.5
		s1.1,0.9,1.9,0.9s1.4-0.3,1.9-0.9s0.7-1.4,0.7-2.5s-0.2-1.9-0.7-2.5S259.8,44.2,259,44.2z"/>
	<path class="st15" d="M271.8,44.8c-1.1,0-1.9,0.4-2.3,1.1c-0.2,0.4-0.3,1-0.3,1.9v5.1h-2.8V42.2h2.7V44c0.4-0.7,0.8-1.2,1.1-1.5
		c0.5-0.4,1.2-0.7,2-0.7c0.1,0,0.1,0,0.1,0s0.1,0,0.2,0v2.9c-0.2,0-0.3,0-0.5,0S271.9,44.8,271.8,44.8z"/>
	<path class="st15" d="M280.2,45.1c-0.2-0.5-0.7-0.8-1.4-0.8c-0.8,0-1.3,0.3-1.6,0.8c-0.1,0.3-0.2,0.7-0.2,1.3v6.4h-2.8V42.2h2.7
		v1.6c0.3-0.6,0.7-0.9,1-1.2c0.5-0.4,1.2-0.6,2.1-0.6c0.8,0,1.5,0.2,2,0.5c0.4,0.3,0.7,0.8,0.9,1.3c0.4-0.6,0.8-1.1,1.4-1.4
		c0.6-0.3,1.2-0.4,1.9-0.4c0.5,0,0.9,0.1,1.4,0.3s0.9,0.5,1.2,1c0.3,0.4,0.5,0.8,0.6,1.4c0.1,0.4,0.1,0.9,0.1,1.6l0,6.7h-2.9v-6.8
		c0-0.4-0.1-0.7-0.2-1c-0.2-0.5-0.7-0.7-1.4-0.7c-0.8,0-1.3,0.3-1.6,1c-0.1,0.3-0.2,0.7-0.2,1.2v6.3h-2.8v-6.3
		C280.4,45.9,280.3,45.4,280.2,45.1z"/>
</g>
<g class="st14">
	<path class="st3" d="M41.8,177.3h-5.3l-1,3h-3.1l5.1-14.4h3.4l5.1,14.4h-3.3L41.8,177.3z M41,174.8l-1.8-5.7l-1.9,5.7H41z"/>
	<path class="st3" d="M53.4,180.6c-0.9,0-1.6-0.2-2.1-0.5c-0.3-0.2-0.7-0.6-1-1.1v1.3h-2.7v-14.4h2.8v5.1c0.4-0.5,0.7-0.9,1.2-1.1
		c0.5-0.3,1.1-0.5,1.9-0.5c1.4,0,2.5,0.5,3.3,1.5s1.2,2.3,1.2,3.9c0,1.7-0.4,3-1.2,4.1S54.8,180.6,53.4,180.6z M54.9,175.1
		c0-0.8-0.1-1.4-0.3-1.9c-0.4-0.9-1.1-1.4-2.1-1.4c-1,0-1.7,0.5-2.1,1.4c-0.2,0.5-0.3,1.1-0.3,1.9c0,0.9,0.2,1.7,0.6,2.3
		s1,0.9,1.8,0.9c0.7,0,1.3-0.3,1.7-0.9S54.9,176.1,54.9,175.1z"/>
	<path class="st3" d="M68.7,171c0.9,1.1,1.3,2.5,1.3,4c0,1.6-0.4,2.9-1.3,4s-2.3,1.7-4.1,1.7s-3.2-0.6-4.1-1.7s-1.3-2.4-1.3-4
		c0-1.5,0.4-2.9,1.3-4s2.3-1.7,4.1-1.7S67.8,169.8,68.7,171z M64.6,171.6c-0.8,0-1.4,0.3-1.9,0.9s-0.7,1.4-0.7,2.5s0.2,1.9,0.7,2.5
		s1.1,0.9,1.9,0.9s1.4-0.3,1.9-0.9s0.7-1.4,0.7-2.5s-0.2-1.9-0.7-2.5S65.4,171.6,64.6,171.6z"/>
	<path class="st3" d="M78.9,178.8c0,0-0.1,0.1-0.2,0.3s-0.2,0.3-0.4,0.4c-0.4,0.4-0.9,0.7-1.3,0.8s-0.9,0.2-1.4,0.2
		c-1.6,0-2.6-0.6-3.2-1.7c-0.3-0.6-0.5-1.5-0.5-2.8v-6.4h2.9v6.4c0,0.6,0.1,1.1,0.2,1.4c0.3,0.5,0.8,0.8,1.5,0.8c1,0,1.6-0.4,2-1.2
		c0.2-0.4,0.3-1,0.3-1.7v-5.8h2.8v10.6h-2.7V178.8z"/>
	<path class="st3" d="M89.2,178.3v2.1l-1.3,0c-1.3,0-2.2-0.2-2.7-0.7c-0.3-0.3-0.5-0.8-0.5-1.5v-6.6h-1.5v-2h1.5v-3h2.8v3h1.7v2
		h-1.7v5.6c0,0.4,0.1,0.7,0.2,0.8s0.4,0.2,1,0.2c0.1,0,0.2,0,0.3,0S89.1,178.3,89.2,178.3z"/>
	<path class="st3" d="M101.4,178.3v2.1l-1.3,0c-1.3,0-2.2-0.2-2.7-0.7c-0.3-0.3-0.5-0.8-0.5-1.5v-6.6h-1.5v-2h1.5v-3h2.8v3h1.7v2
		h-1.7v5.6c0,0.4,0.1,0.7,0.2,0.8s0.4,0.2,1,0.2c0.1,0,0.2,0,0.3,0S101.3,178.3,101.4,178.3z"/>
	<path class="st3" d="M112.8,174v6.2h-2.8v-6.5c0-0.6-0.1-1-0.3-1.4c-0.3-0.5-0.7-0.7-1.4-0.7c-0.7,0-1.3,0.2-1.7,0.7
		s-0.6,1.2-0.6,2.1v5.8h-2.8v-14.3h2.8v5.1c0.4-0.6,0.9-1,1.4-1.3s1.1-0.4,1.7-0.4c0.7,0,1.3,0.1,1.8,0.3s1,0.6,1.3,1
		c0.3,0.4,0.5,0.8,0.5,1.2S112.8,173.1,112.8,174z"/>
	<path class="st3" d="M118.2,165.8v2.6h-2.8v-2.6H118.2z M118.2,169.6v10.6h-2.8v-10.6H118.2z"/>
	<path class="st3" d="M128.3,170.1c0.8,0.5,1.3,1.5,1.4,2.8h-2.8c0-0.4-0.1-0.6-0.3-0.8c-0.3-0.4-0.8-0.6-1.6-0.6
		c-0.6,0-1,0.1-1.3,0.3s-0.4,0.4-0.4,0.7c0,0.3,0.1,0.5,0.4,0.7c0.3,0.1,1.2,0.4,2.9,0.8c1.1,0.3,1.9,0.7,2.5,1.2
		c0.5,0.5,0.8,1.2,0.8,2c0,1.1-0.4,1.9-1.2,2.6s-2,1-3.6,1c-1.7,0-2.9-0.4-3.7-1.1s-1.2-1.6-1.2-2.7h2.8c0.1,0.5,0.2,0.8,0.4,1.1
		c0.3,0.4,1,0.6,1.9,0.6c0.5,0,1-0.1,1.3-0.2s0.5-0.4,0.5-0.7c0-0.3-0.1-0.5-0.4-0.7s-1.2-0.4-2.9-0.8c-1.2-0.3-2.1-0.7-2.5-1.1
		c-0.5-0.4-0.7-1.1-0.7-1.9c0-1,0.4-1.8,1.2-2.5s1.9-1.1,3.3-1.1C126.3,169.3,127.4,169.6,128.3,170.1z"/>
	<path class="st3" d="M147.3,165.9v14.4h-2.7v-1.5c-0.4,0.6-0.8,1.1-1.4,1.4s-1.1,0.4-1.9,0.4c-1.2,0-2.3-0.5-3.1-1.5
		s-1.3-2.3-1.3-3.9c0-1.8,0.4-3.2,1.3-4.3s2-1.6,3.4-1.6c0.6,0,1.2,0.1,1.7,0.4s0.9,0.7,1.2,1.2v-5.1H147.3z M139.8,175
		c0,1,0.2,1.8,0.6,2.4c0.4,0.6,1,0.9,1.8,0.9s1.4-0.3,1.8-0.9s0.6-1.3,0.6-2.3c0-1.3-0.3-2.2-1-2.8c-0.4-0.3-0.9-0.5-1.4-0.5
		c-0.8,0-1.4,0.3-1.8,0.9S139.8,174.1,139.8,175z"/>
	<path class="st3" d="M150.2,170.8c0.7-0.9,2-1.4,3.8-1.4c1.2,0,2.2,0.2,3.1,0.7s1.4,1.3,1.4,2.6v4.9c0,0.3,0,0.7,0,1.2
		c0,0.4,0.1,0.6,0.2,0.7s0.2,0.2,0.4,0.3v0.4h-3c-0.1-0.2-0.1-0.4-0.2-0.6s-0.1-0.4-0.1-0.6c-0.4,0.4-0.8,0.8-1.3,1.1
		c-0.6,0.3-1.3,0.5-2,0.5c-1,0-1.8-0.3-2.4-0.8s-0.9-1.3-0.9-2.3c0-1.3,0.5-2.3,1.5-2.8c0.6-0.3,1.4-0.5,2.4-0.7l0.9-0.1
		c0.5-0.1,0.9-0.1,1.1-0.2c0.4-0.2,0.6-0.4,0.6-0.8c0-0.4-0.2-0.7-0.5-0.9s-0.7-0.2-1.3-0.2c-0.7,0-1.1,0.2-1.4,0.5
		c-0.2,0.2-0.3,0.6-0.4,1h-2.7C149.5,172.1,149.8,171.4,150.2,170.8z M152.3,178.3c0.3,0.2,0.6,0.3,1,0.3c0.6,0,1.2-0.2,1.7-0.5
		s0.8-1,0.8-1.9v-1c-0.2,0.1-0.4,0.2-0.5,0.3s-0.4,0.1-0.7,0.2l-0.6,0.1c-0.6,0.1-1,0.2-1.3,0.4c-0.4,0.3-0.6,0.6-0.6,1.2
		C151.9,177.7,152,178.1,152.3,178.3z"/>
	<path class="st3" d="M165.8,178.3v2.1l-1.3,0c-1.3,0-2.2-0.2-2.7-0.7c-0.3-0.3-0.5-0.8-0.5-1.5v-6.6h-1.5v-2h1.5v-3h2.8v3h1.7v2
		h-1.7v5.6c0,0.4,0.1,0.7,0.2,0.8s0.4,0.2,1,0.2c0.1,0,0.2,0,0.3,0S165.7,178.3,165.8,178.3z"/>
	<path class="st3" d="M168,170.8c0.7-0.9,2-1.4,3.8-1.4c1.2,0,2.2,0.2,3.1,0.7s1.4,1.3,1.4,2.6v4.9c0,0.3,0,0.7,0,1.2
		c0,0.4,0.1,0.6,0.2,0.7s0.2,0.2,0.4,0.3v0.4h-3c-0.1-0.2-0.1-0.4-0.2-0.6s-0.1-0.4-0.1-0.6c-0.4,0.4-0.8,0.8-1.3,1.1
		c-0.6,0.3-1.3,0.5-2,0.5c-1,0-1.8-0.3-2.4-0.8s-0.9-1.3-0.9-2.3c0-1.3,0.5-2.3,1.5-2.8c0.6-0.3,1.4-0.5,2.4-0.7l0.9-0.1
		c0.5-0.1,0.9-0.1,1.1-0.2c0.4-0.2,0.6-0.4,0.6-0.8c0-0.4-0.2-0.7-0.5-0.9s-0.7-0.2-1.3-0.2c-0.7,0-1.1,0.2-1.4,0.5
		c-0.2,0.2-0.3,0.6-0.4,1h-2.7C167.3,172.1,167.5,171.4,168,170.8z M170.1,178.3c0.3,0.2,0.6,0.3,1,0.3c0.6,0,1.2-0.2,1.7-0.5
		s0.8-1,0.8-1.9v-1c-0.2,0.1-0.4,0.2-0.5,0.3s-0.4,0.1-0.7,0.2l-0.6,0.1c-0.6,0.1-1,0.2-1.3,0.4c-0.4,0.3-0.6,0.6-0.6,1.2
		C169.7,177.7,169.8,178.1,170.1,178.3z"/>
	<path class="st3" d="M186.1,170.1c0.8,0.5,1.3,1.5,1.4,2.8h-2.8c0-0.4-0.1-0.6-0.3-0.8c-0.3-0.4-0.8-0.6-1.6-0.6
		c-0.6,0-1,0.1-1.3,0.3s-0.4,0.4-0.4,0.7c0,0.3,0.1,0.5,0.4,0.7c0.3,0.1,1.2,0.4,2.9,0.8c1.1,0.3,1.9,0.7,2.5,1.2
		c0.5,0.5,0.8,1.2,0.8,2c0,1.1-0.4,1.9-1.2,2.6s-2,1-3.6,1c-1.7,0-2.9-0.4-3.7-1.1s-1.2-1.6-1.2-2.7h2.8c0.1,0.5,0.2,0.8,0.4,1.1
		c0.3,0.4,1,0.6,1.9,0.6c0.5,0,1-0.1,1.3-0.2s0.5-0.4,0.5-0.7c0-0.3-0.1-0.5-0.4-0.7s-1.2-0.4-2.9-0.8c-1.2-0.3-2.1-0.7-2.5-1.1
		c-0.5-0.4-0.7-1.1-0.7-1.9c0-1,0.4-1.8,1.2-2.5s1.9-1.1,3.3-1.1C184.1,169.3,185.2,169.6,186.1,170.1z"/>
	<path class="st3" d="M199,177.1c-0.1,0.6-0.4,1.3-1,1.9c-0.9,1-2.2,1.6-3.8,1.6c-1.4,0-2.5-0.4-3.6-1.3s-1.6-2.3-1.6-4.3
		c0-1.8,0.5-3.3,1.4-4.2s2.1-1.5,3.6-1.5c0.9,0,1.7,0.2,2.4,0.5s1.3,0.9,1.8,1.6c0.4,0.6,0.7,1.4,0.8,2.2c0.1,0.5,0.1,1.2,0.1,2.1
		h-7.3c0,1.1,0.4,1.8,1,2.2c0.4,0.3,0.8,0.4,1.4,0.4c0.6,0,1-0.2,1.4-0.5c0.2-0.2,0.4-0.4,0.5-0.7H199z M196.2,173.9
		c0-0.7-0.3-1.3-0.7-1.7s-0.9-0.6-1.5-0.6c-0.6,0-1.1,0.2-1.5,0.6s-0.6,1-0.7,1.6H196.2z"/>
	<path class="st3" d="M205.9,178.3v2.1l-1.3,0c-1.3,0-2.2-0.2-2.7-0.7c-0.3-0.3-0.5-0.8-0.5-1.5v-6.6h-1.5v-2h1.5v-3h2.8v3h1.7v2
		h-1.7v5.6c0,0.4,0.1,0.7,0.2,0.8s0.4,0.2,1,0.2c0.1,0,0.2,0,0.3,0S205.8,178.3,205.9,178.3z"/>
</g>
<g class="st14">
	<path class="st3" d="M46.8,285.3h3.1l-4.1,14.4h-2.9l-1.7-8.4l-0.5-2.8l-0.5,2.8l-1.7,8.4h-2.8l-4.1-14.4h3.2l1.9,8.2l0.4,2.3
		l0.4-2.2l1.6-8.3h3.2l1.7,8.2l0.4,2.3l0.4-2.2L46.8,285.3z"/>
	<path class="st3" d="M61,293.4v6.2h-2.8v-6.5c0-0.6-0.1-1-0.3-1.4c-0.3-0.5-0.7-0.7-1.4-0.7c-0.7,0-1.3,0.2-1.7,0.7
		s-0.6,1.2-0.6,2.1v5.8h-2.8v-14.3h2.8v5.1c0.4-0.6,0.9-1,1.4-1.3s1.1-0.4,1.7-0.4c0.7,0,1.3,0.1,1.8,0.3s1,0.6,1.3,1
		c0.3,0.4,0.5,0.8,0.5,1.2S61,292.4,61,293.4z"/>
	<path class="st3" d="M72.5,290.3c0.9,1.1,1.3,2.5,1.3,4c0,1.6-0.4,2.9-1.3,4s-2.3,1.7-4.1,1.7s-3.2-0.6-4.1-1.7s-1.3-2.4-1.3-4
		c0-1.5,0.4-2.9,1.3-4s2.3-1.7,4.1-1.7S71.6,289.2,72.5,290.3z M68.4,291c-0.8,0-1.4,0.3-1.9,0.9s-0.7,1.4-0.7,2.5s0.2,1.9,0.7,2.5
		s1.1,0.9,1.9,0.9s1.4-0.3,1.9-0.9s0.7-1.4,0.7-2.5s-0.2-1.9-0.7-2.5S69.2,291,68.4,291z"/>
	<path class="st3" d="M90.6,292.8h-2.9c-0.1-0.4-0.2-0.8-0.4-1.1c-0.3-0.4-0.8-0.6-1.5-0.6c-0.9,0-1.6,0.5-1.9,1.4
		c-0.2,0.5-0.3,1.2-0.3,2c0,0.8,0.1,1.4,0.3,1.9c0.3,0.9,1,1.3,1.9,1.3c0.7,0,1.1-0.2,1.4-0.5s0.4-0.8,0.5-1.4h2.8
		c-0.1,0.8-0.4,1.6-0.9,2.4c-0.9,1.2-2.2,1.8-3.9,1.8s-3-0.5-3.8-1.5s-1.2-2.3-1.2-4c0-1.8,0.4-3.3,1.3-4.3s2.1-1.5,3.7-1.5
		c1.3,0,2.4,0.3,3.3,0.9S90.5,291.3,90.6,292.8z"/>
	<path class="st3" d="M92.9,290.2c0.7-0.9,2-1.4,3.8-1.4c1.2,0,2.2,0.2,3.1,0.7s1.4,1.3,1.4,2.6v4.9c0,0.3,0,0.7,0,1.2
		c0,0.4,0.1,0.6,0.2,0.7s0.2,0.2,0.4,0.3v0.4h-3c-0.1-0.2-0.1-0.4-0.2-0.6s-0.1-0.4-0.1-0.6c-0.4,0.4-0.8,0.8-1.3,1.1
		c-0.6,0.3-1.3,0.5-2,0.5c-1,0-1.8-0.3-2.4-0.8s-0.9-1.3-0.9-2.3c0-1.3,0.5-2.3,1.5-2.8c0.6-0.3,1.4-0.5,2.4-0.7l0.9-0.1
		c0.5-0.1,0.9-0.1,1.1-0.2c0.4-0.2,0.6-0.4,0.6-0.8c0-0.4-0.2-0.7-0.5-0.9s-0.7-0.2-1.3-0.2c-0.7,0-1.1,0.2-1.4,0.5
		c-0.2,0.2-0.3,0.6-0.4,1h-2.7C92.2,291.5,92.5,290.8,92.9,290.2z M95,297.6c0.3,0.2,0.6,0.3,1,0.3c0.6,0,1.2-0.2,1.7-0.5
		s0.8-1,0.8-1.9v-1c-0.2,0.1-0.4,0.2-0.5,0.3s-0.4,0.1-0.7,0.2l-0.6,0.1c-0.6,0.1-1,0.2-1.3,0.4c-0.4,0.3-0.6,0.6-0.6,1.2
		C94.6,297.1,94.7,297.4,95,297.6z"/>
	<path class="st3" d="M108.7,291.1c-0.9,0-1.6,0.4-1.9,1.2c-0.2,0.4-0.3,1-0.3,1.6v5.8h-2.8V289h2.7v1.6c0.4-0.5,0.7-0.9,1-1.2
		c0.6-0.4,1.3-0.6,2.2-0.6c1.1,0,2,0.3,2.7,0.9s1,1.5,1,2.9v7.2h-2.9v-6.5c0-0.6-0.1-1-0.2-1.3C110,291.3,109.4,291.1,108.7,291.1z"
		/>
	<path class="st3" d="M121.8,290.2c0.7-0.9,2-1.4,3.8-1.4c1.2,0,2.2,0.2,3.1,0.7s1.4,1.3,1.4,2.6v4.9c0,0.3,0,0.7,0,1.2
		c0,0.4,0.1,0.6,0.2,0.7s0.2,0.2,0.4,0.3v0.4h-3c-0.1-0.2-0.1-0.4-0.2-0.6s-0.1-0.4-0.1-0.6c-0.4,0.4-0.8,0.8-1.3,1.1
		c-0.6,0.3-1.3,0.5-2,0.5c-1,0-1.8-0.3-2.4-0.8s-0.9-1.3-0.9-2.3c0-1.3,0.5-2.3,1.5-2.8c0.6-0.3,1.4-0.5,2.4-0.7l0.9-0.1
		c0.5-0.1,0.9-0.1,1.1-0.2c0.4-0.2,0.6-0.4,0.6-0.8c0-0.4-0.2-0.7-0.5-0.9s-0.7-0.2-1.3-0.2c-0.7,0-1.1,0.2-1.4,0.5
		c-0.2,0.2-0.3,0.6-0.4,1H121C121.1,291.5,121.4,290.8,121.8,290.2z M123.9,297.6c0.3,0.2,0.6,0.3,1,0.3c0.6,0,1.2-0.2,1.7-0.5
		s0.8-1,0.8-1.9v-1c-0.2,0.1-0.4,0.2-0.5,0.3s-0.4,0.1-0.7,0.2l-0.6,0.1c-0.6,0.1-1,0.2-1.3,0.4c-0.4,0.3-0.6,0.6-0.6,1.2
		C123.5,297.1,123.6,297.4,123.9,297.6z"/>
	<path class="st3" d="M141.8,292.8h-2.9c-0.1-0.4-0.2-0.8-0.4-1.1c-0.3-0.4-0.8-0.6-1.5-0.6c-0.9,0-1.6,0.5-1.9,1.4
		c-0.2,0.5-0.3,1.2-0.3,2c0,0.8,0.1,1.4,0.3,1.9c0.3,0.9,1,1.3,1.9,1.3c0.7,0,1.1-0.2,1.4-0.5s0.4-0.8,0.5-1.4h2.8
		c-0.1,0.8-0.4,1.6-0.9,2.4c-0.9,1.2-2.2,1.8-3.9,1.8s-3-0.5-3.8-1.5s-1.2-2.3-1.2-4c0-1.8,0.4-3.3,1.3-4.3s2.1-1.5,3.7-1.5
		c1.3,0,2.4,0.3,3.3,0.9S141.6,291.3,141.8,292.8z"/>
	<path class="st3" d="M152.9,292.8H150c-0.1-0.4-0.2-0.8-0.4-1.1c-0.3-0.4-0.8-0.6-1.5-0.6c-0.9,0-1.6,0.5-1.9,1.4
		c-0.2,0.5-0.3,1.2-0.3,2c0,0.8,0.1,1.4,0.3,1.9c0.3,0.9,1,1.3,1.9,1.3c0.7,0,1.1-0.2,1.4-0.5s0.4-0.8,0.5-1.4h2.8
		c-0.1,0.8-0.4,1.6-0.9,2.4c-0.9,1.2-2.2,1.8-3.9,1.8s-3-0.5-3.8-1.5s-1.2-2.3-1.2-4c0-1.8,0.4-3.3,1.3-4.3s2.1-1.5,3.7-1.5
		c1.3,0,2.4,0.3,3.3,0.9S152.7,291.3,152.9,292.8z"/>
	<path class="st3" d="M163.9,296.5c-0.1,0.6-0.4,1.3-1,1.9c-0.9,1-2.2,1.6-3.8,1.6c-1.4,0-2.5-0.4-3.6-1.3s-1.6-2.3-1.6-4.3
		c0-1.8,0.5-3.3,1.4-4.2s2.1-1.5,3.6-1.5c0.9,0,1.7,0.2,2.4,0.5s1.3,0.9,1.8,1.6c0.4,0.6,0.7,1.4,0.8,2.2c0.1,0.5,0.1,1.2,0.1,2.1
		h-7.3c0,1.1,0.4,1.8,1,2.2c0.4,0.3,0.8,0.4,1.4,0.4c0.6,0,1-0.2,1.4-0.5c0.2-0.2,0.4-0.4,0.5-0.7H163.9z M161.2,293.3
		c0-0.7-0.3-1.3-0.7-1.7s-0.9-0.6-1.5-0.6c-0.6,0-1.1,0.2-1.5,0.6s-0.6,1-0.7,1.6H161.2z"/>
	<path class="st3" d="M173.3,289.5c0.8,0.5,1.3,1.5,1.4,2.8h-2.8c0-0.4-0.1-0.6-0.3-0.8c-0.3-0.4-0.8-0.6-1.6-0.6
		c-0.6,0-1,0.1-1.3,0.3s-0.4,0.4-0.4,0.7c0,0.3,0.1,0.5,0.4,0.7c0.3,0.1,1.2,0.4,2.9,0.8c1.1,0.3,1.9,0.7,2.5,1.2
		c0.5,0.5,0.8,1.2,0.8,2c0,1.1-0.4,1.9-1.2,2.6s-2,1-3.6,1c-1.7,0-2.9-0.4-3.7-1.1s-1.2-1.6-1.2-2.7h2.8c0.1,0.5,0.2,0.8,0.4,1.1
		c0.3,0.4,1,0.6,1.9,0.6c0.5,0,1-0.1,1.3-0.2s0.5-0.4,0.5-0.7c0-0.3-0.1-0.5-0.4-0.7s-1.2-0.4-2.9-0.8c-1.2-0.3-2.1-0.7-2.5-1.1
		c-0.5-0.4-0.7-1.1-0.7-1.9c0-1,0.4-1.8,1.2-2.5s1.9-1.1,3.3-1.1C171.3,288.7,172.4,289,173.3,289.5z"/>
	<path class="st3" d="M184.4,289.5c0.8,0.5,1.3,1.5,1.4,2.8H183c0-0.4-0.1-0.6-0.3-0.8c-0.3-0.4-0.8-0.6-1.6-0.6
		c-0.6,0-1,0.1-1.3,0.3s-0.4,0.4-0.4,0.7c0,0.3,0.1,0.5,0.4,0.7c0.3,0.1,1.2,0.4,2.9,0.8c1.1,0.3,1.9,0.7,2.5,1.2
		c0.5,0.5,0.8,1.2,0.8,2c0,1.1-0.4,1.9-1.2,2.6s-2,1-3.6,1c-1.7,0-2.9-0.4-3.7-1.1s-1.2-1.6-1.2-2.7h2.8c0.1,0.5,0.2,0.8,0.4,1.1
		c0.3,0.4,1,0.6,1.9,0.6c0.5,0,1-0.1,1.3-0.2s0.5-0.4,0.5-0.7c0-0.3-0.1-0.5-0.4-0.7s-1.2-0.4-2.9-0.8c-1.2-0.3-2.1-0.7-2.5-1.1
		c-0.5-0.4-0.7-1.1-0.7-1.9c0-1,0.4-1.8,1.2-2.5s1.9-1.1,3.3-1.1C182.5,288.7,183.5,289,184.4,289.5z"/>
</g>
<g class="st14">
	<path class="st16" d="M374.4,317c-1.6,0-2.9-0.4-3.8-1.3c-1.2-1.1-1.8-2.7-1.8-4.8c0-2.1,0.6-3.7,1.8-4.8c0.9-0.9,2.1-1.3,3.8-1.3
		c1.6,0,2.9,0.4,3.8,1.3c1.2,1.1,1.7,2.6,1.7,4.8c0,2.1-0.6,3.7-1.7,4.8C377.3,316.5,376,317,374.4,317z M376.7,313.9
		c0.6-0.7,0.8-1.7,0.8-3c0-1.3-0.3-2.3-0.8-3c-0.6-0.7-1.3-1.1-2.3-1.1s-1.7,0.4-2.3,1.1c-0.6,0.7-0.9,1.7-0.9,3s0.3,2.3,0.9,3
		c0.6,0.7,1.3,1.1,2.3,1.1S376.1,314.6,376.7,313.9z"/>
	<path class="st16" d="M388.7,309.1c0.7,0.7,1,1.8,1,3.2c0,1.5-0.3,2.6-1,3.4c-0.7,0.8-1.5,1.2-2.6,1.2c-0.7,0-1.2-0.2-1.7-0.5
		c-0.2-0.2-0.5-0.5-0.7-0.8v4.4h-2.2v-11.9h2.1v1.3c0.2-0.4,0.5-0.7,0.8-0.9c0.5-0.4,1.1-0.6,1.8-0.6
		C387.2,308,388,308.3,388.7,309.1z M387.4,312.4c0-0.7-0.2-1.2-0.4-1.7c-0.3-0.5-0.8-0.8-1.5-0.8c-0.8,0-1.4,0.4-1.7,1.1
		c-0.2,0.4-0.2,0.9-0.2,1.5c0,1,0.3,1.7,0.8,2.1c0.3,0.2,0.7,0.4,1.1,0.4c0.6,0,1.1-0.2,1.4-0.7
		C387.3,313.8,387.4,313.2,387.4,312.4z"/>
	<path class="st16" d="M398.6,314.2c-0.1,0.5-0.3,1-0.8,1.5c-0.7,0.8-1.8,1.2-3.1,1.2c-1.1,0-2-0.3-2.9-1s-1.2-1.8-1.2-3.4
		c0-1.5,0.4-2.6,1.1-3.4c0.7-0.8,1.7-1.2,2.9-1.2c0.7,0,1.3,0.1,1.9,0.4c0.6,0.3,1,0.7,1.4,1.3c0.3,0.5,0.5,1.1,0.6,1.8
		c0.1,0.4,0.1,1,0.1,1.7h-5.8c0,0.9,0.3,1.5,0.8,1.8c0.3,0.2,0.7,0.3,1.1,0.3c0.5,0,0.8-0.1,1.1-0.4c0.2-0.1,0.3-0.3,0.4-0.6H398.6z
		 M396.4,311.6c0-0.6-0.2-1-0.5-1.3s-0.7-0.5-1.2-0.5c-0.5,0-0.9,0.2-1.2,0.5c-0.3,0.3-0.5,0.8-0.5,1.3H396.4z"/>
	<path class="st16" d="M404.2,309.8c-0.8,0-1.3,0.3-1.6,1c-0.1,0.3-0.2,0.8-0.2,1.3v4.6h-2.2v-8.5h2.1v1.2c0.3-0.4,0.6-0.8,0.8-0.9
		c0.5-0.3,1-0.5,1.7-0.5c0.9,0,1.6,0.2,2.2,0.7c0.6,0.5,0.8,1.2,0.8,2.3v5.7h-2.3v-5.2c0-0.4-0.1-0.8-0.2-1
		C405.3,310,404.9,309.8,404.2,309.8z"/>
</g>
<g class="st14">
	<path class="st7" d="M373.5,334.2c0.6,0,1-0.1,1.4-0.2c0.7-0.2,1-0.7,1-1.3c0-0.4-0.2-0.7-0.5-0.9c-0.3-0.2-0.9-0.4-1.6-0.5
		l-1.2-0.3c-1.2-0.3-2-0.6-2.5-0.9c-0.8-0.5-1.2-1.4-1.2-2.5c0-1,0.4-1.9,1.1-2.6s1.9-1,3.3-1c1.2,0,2.2,0.3,3.1,1
		c0.9,0.6,1.3,1.6,1.3,2.8h-2.3c0-0.7-0.3-1.2-0.9-1.5c-0.4-0.2-0.8-0.3-1.4-0.3c-0.6,0-1.1,0.1-1.5,0.4c-0.4,0.2-0.6,0.6-0.6,1
		c0,0.4,0.2,0.7,0.5,0.9c0.2,0.1,0.7,0.3,1.5,0.5l2,0.5c0.9,0.2,1.5,0.5,2,0.8c0.7,0.5,1,1.3,1,2.4c0,1.1-0.4,1.9-1.2,2.6
		s-1.9,1-3.4,1c-1.5,0-2.7-0.3-3.5-1s-1.3-1.6-1.3-2.8h2.3c0.1,0.5,0.2,0.9,0.4,1.2C371.9,334,372.5,334.2,373.5,334.2z"/>
	<path class="st7" d="M387.5,330.9v5h-2.3v-5.2c0-0.5-0.1-0.8-0.2-1.1c-0.2-0.4-0.6-0.6-1.2-0.6c-0.6,0-1,0.2-1.3,0.6
		s-0.5,1-0.5,1.7v4.6h-2.2v-11.5h2.2v4.1c0.3-0.5,0.7-0.8,1.1-1c0.4-0.2,0.9-0.3,1.3-0.3c0.5,0,1,0.1,1.4,0.3s0.8,0.5,1.1,0.8
		c0.2,0.3,0.4,0.6,0.4,1C387.5,329.6,387.5,330.1,387.5,330.9z"/>
	<path class="st7" d="M389.9,328.3c0.6-0.8,1.6-1.1,3-1.1c0.9,0,1.8,0.2,2.5,0.6c0.7,0.4,1.1,1.1,1.1,2.1v3.9c0,0.3,0,0.6,0,1
		c0,0.3,0.1,0.5,0.1,0.6c0.1,0.1,0.2,0.2,0.3,0.3v0.3h-2.4c-0.1-0.2-0.1-0.3-0.1-0.5c0-0.2,0-0.3-0.1-0.5c-0.3,0.3-0.7,0.6-1.1,0.9
		c-0.5,0.3-1,0.4-1.6,0.4c-0.8,0-1.4-0.2-1.9-0.7c-0.5-0.4-0.8-1.1-0.8-1.9c0-1,0.4-1.8,1.2-2.3c0.4-0.3,1.1-0.4,2-0.5l0.8-0.1
		c0.4-0.1,0.7-0.1,0.9-0.2c0.3-0.1,0.5-0.3,0.5-0.6c0-0.3-0.1-0.6-0.4-0.7s-0.6-0.2-1.1-0.2c-0.5,0-0.9,0.1-1.1,0.4
		c-0.2,0.2-0.3,0.5-0.3,0.8h-2.1C389.3,329.4,389.5,328.8,389.9,328.3z M391.5,334.3c0.2,0.2,0.5,0.3,0.8,0.3c0.5,0,0.9-0.1,1.3-0.4
		c0.4-0.3,0.6-0.8,0.6-1.5v-0.8c-0.1,0.1-0.3,0.2-0.4,0.2c-0.1,0.1-0.3,0.1-0.6,0.2l-0.5,0.1c-0.5,0.1-0.8,0.2-1,0.3
		c-0.3,0.2-0.5,0.5-0.5,0.9C391.2,333.8,391.3,334.1,391.5,334.3z"/>
	<path class="st7" d="M402.7,329.4c-0.9,0-1.5,0.3-1.8,0.9c-0.2,0.3-0.3,0.8-0.3,1.5v4.1h-2.2v-8.5h2.1v1.5c0.3-0.6,0.6-1,0.9-1.2
		c0.4-0.3,1-0.5,1.6-0.5c0,0,0.1,0,0.1,0c0,0,0.1,0,0.2,0v2.3c-0.1,0-0.3,0-0.4,0S402.8,329.4,402.7,329.4z"/>
	<path class="st7" d="M412,333.4c-0.1,0.5-0.3,1-0.8,1.5c-0.7,0.8-1.8,1.2-3.1,1.2c-1.1,0-2-0.3-2.9-1s-1.2-1.8-1.2-3.4
		c0-1.5,0.4-2.6,1.1-3.4c0.7-0.8,1.7-1.2,2.9-1.2c0.7,0,1.3,0.1,1.9,0.4c0.6,0.3,1,0.7,1.4,1.3c0.3,0.5,0.5,1.1,0.6,1.8
		c0.1,0.4,0.1,1,0.1,1.7h-5.8c0,0.9,0.3,1.5,0.8,1.8c0.3,0.2,0.7,0.3,1.1,0.3c0.5,0,0.8-0.1,1.1-0.4c0.2-0.1,0.3-0.3,0.4-0.6H412z
		 M409.8,330.8c0-0.6-0.2-1-0.5-1.3s-0.7-0.5-1.2-0.5c-0.5,0-0.9,0.2-1.2,0.5c-0.3,0.3-0.5,0.8-0.5,1.3H409.8z"/>
	<path class="st7" d="M421.3,324.4v11.5h-2.2v-1.2c-0.3,0.5-0.7,0.9-1.1,1.1s-0.9,0.3-1.5,0.3c-1,0-1.8-0.4-2.5-1.2s-1-1.8-1-3.1
		c0-1.5,0.3-2.6,1-3.4c0.7-0.8,1.6-1.2,2.7-1.2c0.5,0,1,0.1,1.4,0.3c0.4,0.2,0.7,0.5,1,0.9v-4.1H421.3z M415.3,331.7
		c0,0.8,0.2,1.4,0.5,1.9c0.3,0.5,0.8,0.7,1.4,0.7c0.6,0,1.1-0.2,1.4-0.7s0.5-1.1,0.5-1.8c0-1-0.3-1.8-0.8-2.2
		c-0.3-0.3-0.7-0.4-1.1-0.4c-0.7,0-1.1,0.2-1.4,0.7S415.3,330.9,415.3,331.7z"/>
</g>
<g class="st14">
	<path class="st7" d="M377.4,354.2c-0.9,0.8-2,1.2-3.3,1.2c-1.7,0-3-0.5-3.9-1.6c-0.9-1.1-1.4-2.5-1.4-4.4c0-2,0.5-3.6,1.6-4.6
		c0.9-0.9,2.1-1.4,3.6-1.4c1.9,0,3.4,0.6,4.2,1.9c0.5,0.7,0.8,1.4,0.8,2.1h-2.4c-0.2-0.6-0.4-1-0.6-1.2c-0.4-0.5-1.1-0.8-1.9-0.8
		c-0.9,0-1.6,0.4-2.1,1.1c-0.5,0.7-0.8,1.7-0.8,3s0.3,2.3,0.8,2.9c0.5,0.6,1.2,1,2,1c0.8,0,1.5-0.3,1.9-0.8c0.2-0.3,0.4-0.7,0.6-1.3
		h2.4C378.8,352.4,378.3,353.4,377.4,354.2z"/>
	<path class="st7" d="M380.7,343.6h2.2v11.5h-2.2V343.6z"/>
	<path class="st7" d="M392.2,347.6c0.7,0.9,1.1,2,1.1,3.2c0,1.2-0.4,2.3-1.1,3.2s-1.8,1.3-3.3,1.3c-1.5,0-2.6-0.4-3.3-1.3
		s-1.1-2-1.1-3.2c0-1.2,0.4-2.3,1.1-3.2s1.8-1.4,3.3-1.4C390.4,346.3,391.5,346.7,392.2,347.6z M388.9,348.2c-0.7,0-1.2,0.2-1.5,0.7
		s-0.5,1.1-0.5,2s0.2,1.5,0.5,2s0.9,0.7,1.5,0.7c0.7,0,1.2-0.2,1.5-0.7c0.3-0.5,0.5-1.1,0.5-2s-0.2-1.5-0.5-2
		C390.1,348.4,389.6,348.2,388.9,348.2z"/>
	<path class="st7" d="M400.8,346.9c0.7,0.4,1,1.2,1.1,2.2h-2.2c0-0.3-0.1-0.5-0.2-0.7c-0.2-0.3-0.7-0.5-1.2-0.5
		c-0.5,0-0.8,0.1-1,0.2c-0.2,0.2-0.3,0.3-0.3,0.5c0,0.3,0.1,0.4,0.3,0.6c0.2,0.1,1,0.3,2.3,0.6c0.9,0.2,1.5,0.5,2,0.9
		c0.4,0.4,0.7,1,0.7,1.6c0,0.8-0.3,1.5-0.9,2.1c-0.6,0.5-1.6,0.8-2.9,0.8c-1.3,0-2.3-0.3-3-0.8c-0.6-0.6-1-1.3-1-2.2h2.3
		c0,0.4,0.1,0.7,0.3,0.8c0.3,0.3,0.8,0.4,1.5,0.4c0.4,0,0.8-0.1,1-0.2s0.4-0.3,0.4-0.6c0-0.2-0.1-0.4-0.3-0.6
		c-0.2-0.1-1-0.4-2.3-0.7c-1-0.2-1.6-0.5-2-0.9c-0.4-0.4-0.6-0.9-0.6-1.5c0-0.8,0.3-1.5,0.9-2s1.5-0.8,2.6-0.8
		C399.2,346.3,400.1,346.5,400.8,346.9z"/>
	<path class="st7" d="M411.1,352.6c-0.1,0.5-0.3,1-0.8,1.5c-0.7,0.8-1.8,1.2-3.1,1.2c-1.1,0-2-0.3-2.9-1s-1.2-1.8-1.2-3.4
		c0-1.5,0.4-2.6,1.1-3.4c0.7-0.8,1.7-1.2,2.9-1.2c0.7,0,1.3,0.1,1.9,0.4c0.6,0.3,1,0.7,1.4,1.3c0.3,0.5,0.5,1.1,0.6,1.8
		c0.1,0.4,0.1,1,0.1,1.7h-5.8c0,0.9,0.3,1.5,0.8,1.8c0.3,0.2,0.7,0.3,1.1,0.3c0.5,0,0.8-0.1,1.1-0.4c0.2-0.1,0.3-0.3,0.4-0.6H411.1z
		 M408.9,350c0-0.6-0.2-1-0.5-1.3s-0.7-0.5-1.2-0.5c-0.5,0-0.9,0.2-1.2,0.5c-0.3,0.3-0.5,0.8-0.5,1.3H408.9z"/>
	<path class="st7" d="M420.4,343.6v11.5h-2.2v-1.2c-0.3,0.5-0.7,0.9-1.1,1.1s-0.9,0.3-1.5,0.3c-1,0-1.8-0.4-2.5-1.2s-1-1.8-1-3.1
		c0-1.5,0.3-2.6,1-3.4c0.7-0.8,1.6-1.2,2.7-1.2c0.5,0,1,0.1,1.4,0.3c0.4,0.2,0.7,0.5,1,0.9v-4.1H420.4z M414.4,350.9
		c0,0.8,0.2,1.4,0.5,1.9c0.3,0.5,0.8,0.7,1.4,0.7c0.6,0,1.1-0.2,1.4-0.7s0.5-1.1,0.5-1.8c0-1-0.3-1.8-0.8-2.2
		c-0.3-0.3-0.7-0.4-1.1-0.4c-0.7,0-1.1,0.2-1.4,0.7S414.4,350.1,414.4,350.9z"/>
</g>
<polygon class="st17" points="362.7,311.2 353.9,306.1 353.9,316.2 "/>
<g class="st14">
	<path class="st16" d="M49,85.4v4.3h-7.2v19.8h-5.1V89.7h-7.2v-4.3H49z"/>
	<path class="st16" d="M49.8,93.6c1.2-1.6,3.3-2.3,6.3-2.3c1.9,0,3.7,0.4,5.2,1.2c1.5,0.8,2.3,2.2,2.3,4.4v8.2c0,0.6,0,1.2,0,2.1
		c0,0.6,0.1,1,0.3,1.2c0.2,0.2,0.4,0.4,0.7,0.5v0.7h-5.1c-0.1-0.4-0.2-0.7-0.3-1c-0.1-0.3-0.1-0.7-0.1-1.1c-0.6,0.7-1.4,1.3-2.2,1.8
		c-1,0.6-2.1,0.9-3.4,0.9c-1.6,0-2.9-0.5-4-1.4c-1-0.9-1.6-2.2-1.6-3.9c0-2.2,0.8-3.8,2.5-4.7c0.9-0.5,2.3-0.9,4.1-1.1l1.6-0.2
		c0.9-0.1,1.5-0.2,1.8-0.4c0.7-0.3,1-0.7,1-1.3c0-0.7-0.3-1.2-0.8-1.5c-0.5-0.3-1.2-0.4-2.2-0.4c-1.1,0-1.9,0.3-2.3,0.8
		c-0.3,0.4-0.5,0.9-0.7,1.6h-4.5C48.6,95.9,49,94.6,49.8,93.6z M53.2,106.1c0.4,0.4,1,0.5,1.6,0.5c1,0,1.9-0.3,2.8-0.9
		c0.8-0.6,1.3-1.7,1.3-3.2v-1.7c-0.3,0.2-0.6,0.3-0.9,0.4c-0.3,0.1-0.7,0.2-1.2,0.3l-1,0.2c-1,0.2-1.7,0.4-2.1,0.6
		c-0.7,0.4-1.1,1.1-1.1,2C52.5,105.2,52.8,105.8,53.2,106.1z"/>
	<path class="st16" d="M83.5,109.5h-5.8l-3.1-5.3l-3.1,5.3h-5.6l6.1-9l-5.8-8.7h5.7l3,5.2l2.9-5.2h5.5l-5.8,8.7L83.5,109.5z"/>
	<path class="st16" d="M109.2,109.5H93.9v-3.6l9.1-10.4h-8.5v-3.8h14.4v3.9l-9,10.1h9.3V109.5z"/>
	<path class="st16" d="M127.1,94c1.5,1.9,2.3,4.1,2.3,6.7c0,2.6-0.8,4.8-2.3,6.7c-1.5,1.9-3.8,2.8-6.8,2.8c-3.1,0-5.3-0.9-6.8-2.8
		c-1.5-1.9-2.3-4.1-2.3-6.7c0-2.6,0.8-4.8,2.3-6.7c1.5-1.9,3.8-2.8,6.8-2.8C123.3,91.1,125.6,92.1,127.1,94z M120.2,95.1
		c-1.4,0-2.4,0.5-3.1,1.4c-0.7,1-1.1,2.3-1.1,4.1s0.4,3.2,1.1,4.1c0.7,1,1.8,1.5,3.1,1.5s2.4-0.5,3.1-1.5c0.7-1,1.1-2.3,1.1-4.1
		s-0.4-3.2-1.1-4.1C122.6,95.5,121.6,95.1,120.2,95.1z"/>
	<path class="st16" d="M141,95.1c-1.6,0-2.7,0.7-3.2,2c-0.3,0.7-0.5,1.6-0.5,2.7v9.6h-4.6V91.7h4.5v2.6c0.6-0.9,1.2-1.6,1.7-2
		c1-0.7,2.2-1.1,3.6-1.1c1.8,0,3.3,0.5,4.5,1.4c1.2,1,1.8,2.6,1.8,4.8v12H144V98.7c0-0.9-0.1-1.7-0.4-2.2
		C143.2,95.6,142.3,95.1,141,95.1z"/>
	<path class="st16" d="M168.3,104.3c-0.1,1.1-0.7,2.1-1.6,3.2c-1.5,1.7-3.7,2.6-6.4,2.6c-2.3,0-4.3-0.7-6-2.2s-2.6-3.8-2.6-7.1
		c0-3.1,0.8-5.4,2.3-7.1c1.6-1.6,3.6-2.5,6.1-2.5c1.5,0,2.8,0.3,4,0.8c1.2,0.6,2.2,1.4,2.9,2.6c0.7,1.1,1.1,2.3,1.4,3.7
		c0.1,0.8,0.2,2,0.1,3.5h-12.2c0.1,1.8,0.6,3,1.7,3.8c0.6,0.4,1.4,0.7,2.3,0.7c1,0,1.7-0.3,2.3-0.8c0.3-0.3,0.6-0.7,0.9-1.2H168.3z
		 M163.7,98.8c-0.1-1.2-0.4-2.2-1.1-2.8c-0.7-0.6-1.5-1-2.5-1c-1.1,0-1.9,0.3-2.5,1s-1,1.6-1.1,2.7H163.7z"/>
	<path class="st16" d="M183.9,92.5c1.4,0.9,2.2,2.4,2.4,4.6h-4.6c-0.1-0.6-0.2-1.1-0.5-1.4c-0.5-0.6-1.4-0.9-2.6-0.9
		c-1,0-1.7,0.2-2.2,0.5s-0.6,0.7-0.6,1.1c0,0.5,0.2,0.9,0.7,1.2c0.5,0.2,2.1,0.7,4.8,1.3c1.8,0.4,3.2,1.1,4.2,2
		c0.9,0.9,1.4,2,1.4,3.3c0,1.8-0.7,3.2-2,4.3c-1.3,1.1-3.3,1.7-6.1,1.7c-2.8,0-4.9-0.6-6.2-1.8c-1.3-1.2-2-2.7-2-4.5h4.7
		c0.1,0.8,0.3,1.4,0.6,1.8c0.6,0.6,1.6,0.9,3.2,0.9c0.9,0,1.6-0.1,2.2-0.4s0.8-0.7,0.8-1.2c0-0.5-0.2-0.9-0.7-1.2s-2-0.7-4.8-1.4
		c-2-0.5-3.4-1.1-4.3-1.9c-0.8-0.7-1.2-1.8-1.2-3.2c0-1.6,0.6-3.1,1.9-4.2s3.1-1.8,5.4-1.8C180.7,91.2,182.5,91.6,183.9,92.5z"/>
	<path class="st16" d="M215.7,85.5v24h-4.5V107c-0.7,1.1-1.4,1.8-2.3,2.3s-1.9,0.7-3.2,0.7c-2.1,0-3.8-0.8-5.2-2.5
		c-1.4-1.7-2.1-3.8-2.1-6.5c0-3,0.7-5.4,2.1-7.2c1.4-1.7,3.3-2.6,5.6-2.6c1.1,0,2,0.2,2.9,0.7s1.5,1.1,2,2v-8.5H215.7z M203.1,100.7
		c0,1.6,0.3,3,1,3.9c0.6,1,1.6,1.5,2.9,1.5c1.3,0,2.3-0.5,3-1.5s1-2.2,1-3.8c0-2.2-0.5-3.7-1.6-4.7c-0.7-0.6-1.5-0.8-2.3-0.8
		c-1.4,0-2.4,0.5-3,1.5C203.4,97.9,203.1,99.2,203.1,100.7z"/>
	<path class="st16" d="M220.5,93.6c1.2-1.6,3.3-2.3,6.3-2.3c1.9,0,3.7,0.4,5.2,1.2c1.5,0.8,2.3,2.2,2.3,4.4v8.2c0,0.6,0,1.2,0,2.1
		c0,0.6,0.1,1,0.3,1.2c0.2,0.2,0.4,0.4,0.7,0.5v0.7h-5.1c-0.1-0.4-0.2-0.7-0.3-1c-0.1-0.3-0.1-0.7-0.1-1.1c-0.6,0.7-1.4,1.3-2.2,1.8
		c-1,0.6-2.1,0.9-3.4,0.9c-1.6,0-2.9-0.5-4-1.4c-1-0.9-1.6-2.2-1.6-3.9c0-2.2,0.8-3.8,2.5-4.7c0.9-0.5,2.3-0.9,4.1-1.1l1.6-0.2
		c0.9-0.1,1.5-0.2,1.8-0.4c0.7-0.3,1-0.7,1-1.3c0-0.7-0.3-1.2-0.8-1.5c-0.5-0.3-1.2-0.4-2.2-0.4c-1.1,0-1.9,0.3-2.3,0.8
		c-0.3,0.4-0.5,0.9-0.7,1.6h-4.5C219.3,95.9,219.8,94.6,220.5,93.6z M224,106.1c0.4,0.4,1,0.5,1.6,0.5c1,0,1.9-0.3,2.8-0.9
		c0.8-0.6,1.3-1.7,1.3-3.2v-1.7c-0.3,0.2-0.6,0.3-0.9,0.4c-0.3,0.1-0.7,0.2-1.2,0.3l-1,0.2c-1,0.2-1.7,0.4-2.1,0.6
		c-0.7,0.4-1.1,1.1-1.1,2C223.3,105.2,223.6,105.8,224,106.1z"/>
	<path class="st16" d="M246.6,106.2v3.5l-2.2,0.1c-2.2,0.1-3.7-0.3-4.5-1.1c-0.5-0.5-0.8-1.4-0.8-2.5V95.2h-2.5v-3.3h2.5v-5h4.6v5
		h2.9v3.3h-2.9v9.4c0,0.7,0.1,1.2,0.3,1.4c0.2,0.2,0.8,0.3,1.7,0.3c0.1,0,0.3,0,0.4,0C246.3,106.2,246.4,106.2,246.6,106.2z"/>
	<path class="st16" d="M250.2,93.6c1.2-1.6,3.3-2.3,6.3-2.3c1.9,0,3.7,0.4,5.2,1.2c1.5,0.8,2.3,2.2,2.3,4.4v8.2c0,0.6,0,1.2,0,2.1
		c0,0.6,0.1,1,0.3,1.2c0.2,0.2,0.4,0.4,0.7,0.5v0.7H260c-0.1-0.4-0.2-0.7-0.3-1c-0.1-0.3-0.1-0.7-0.1-1.1c-0.6,0.7-1.4,1.3-2.2,1.8
		c-1,0.6-2.1,0.9-3.4,0.9c-1.6,0-2.9-0.5-4-1.4c-1-0.9-1.6-2.2-1.6-3.9c0-2.2,0.8-3.8,2.5-4.7c0.9-0.5,2.3-0.9,4.1-1.1l1.6-0.2
		c0.9-0.1,1.5-0.2,1.8-0.4c0.7-0.3,1-0.7,1-1.3c0-0.7-0.3-1.2-0.8-1.5c-0.5-0.3-1.2-0.4-2.2-0.4c-1.1,0-1.9,0.3-2.3,0.8
		c-0.3,0.4-0.5,0.9-0.7,1.6h-4.5C249,95.9,249.5,94.6,250.2,93.6z M253.7,106.1c0.4,0.4,1,0.5,1.6,0.5c1,0,1.9-0.3,2.8-0.9
		c0.8-0.6,1.3-1.7,1.3-3.2v-1.7c-0.3,0.2-0.6,0.3-0.9,0.4c-0.3,0.1-0.7,0.2-1.2,0.3l-1,0.2c-1,0.2-1.7,0.4-2.1,0.6
		c-0.7,0.4-1.1,1.1-1.1,2C253,105.2,253.3,105.8,253.7,106.1z"/>
	<path class="st16" d="M280.4,92.5c1.4,0.9,2.2,2.4,2.4,4.6h-4.6c-0.1-0.6-0.2-1.1-0.5-1.4c-0.5-0.6-1.4-0.9-2.6-0.9
		c-1,0-1.7,0.2-2.2,0.5s-0.6,0.7-0.6,1.1c0,0.5,0.2,0.9,0.7,1.2c0.5,0.2,2.1,0.7,4.8,1.3c1.8,0.4,3.2,1.1,4.2,2
		c0.9,0.9,1.4,2,1.4,3.3c0,1.8-0.7,3.2-2,4.3c-1.3,1.1-3.3,1.7-6.1,1.7c-2.8,0-4.9-0.6-6.2-1.8c-1.3-1.2-2-2.7-2-4.5h4.7
		c0.1,0.8,0.3,1.4,0.6,1.8c0.6,0.6,1.6,0.9,3.2,0.9c0.9,0,1.6-0.1,2.2-0.4s0.8-0.7,0.8-1.2c0-0.5-0.2-0.9-0.7-1.2s-2-0.7-4.8-1.4
		c-2-0.5-3.4-1.1-4.3-1.9c-0.8-0.7-1.2-1.8-1.2-3.2c0-1.6,0.6-3.1,1.9-4.2s3.1-1.8,5.4-1.8C277.2,91.2,279,91.6,280.4,92.5z"/>
	<path class="st16" d="M302,104.3c-0.1,1.1-0.7,2.1-1.6,3.2c-1.5,1.7-3.7,2.6-6.4,2.6c-2.3,0-4.3-0.7-6-2.2s-2.6-3.8-2.6-7.1
		c0-3.1,0.8-5.4,2.3-7.1c1.6-1.6,3.6-2.5,6.1-2.5c1.5,0,2.8,0.3,4,0.8c1.2,0.6,2.2,1.4,2.9,2.6c0.7,1.1,1.1,2.3,1.4,3.7
		c0.1,0.8,0.2,2,0.1,3.5H290c0.1,1.8,0.6,3,1.7,3.8c0.6,0.4,1.4,0.7,2.3,0.7c1,0,1.7-0.3,2.3-0.8c0.3-0.3,0.6-0.7,0.9-1.2H302z
		 M297.4,98.8c-0.1-1.2-0.4-2.2-1.1-2.8c-0.7-0.6-1.5-1-2.5-1c-1.1,0-1.9,0.3-2.5,1s-1,1.6-1.1,2.7H297.4z"/>
	<path class="st16" d="M313.5,106.2v3.5l-2.2,0.1c-2.2,0.1-3.7-0.3-4.5-1.1c-0.5-0.5-0.8-1.4-0.8-2.5V95.2h-2.5v-3.3h2.5v-5h4.6v5
		h2.9v3.3h-2.9v9.4c0,0.7,0.1,1.2,0.3,1.4c0.2,0.2,0.8,0.3,1.7,0.3c0.1,0,0.3,0,0.4,0C313.1,106.2,313.3,106.2,313.5,106.2z"/>
</g>
</svg>
