<?xml version="1.0" encoding="utf-8"?>
<!-- Generator: Adobe Illustrator 26.1.0, SVG Export Plug-In . SVG Version: 6.00 Build 0)  -->
<svg version="1.1" id="Layer_1" xmlns:serif="http://www.serif.com/"
	 xmlns="http://www.w3.org/2000/svg" xmlns:xlink="http://www.w3.org/1999/xlink" x="0px" y="0px" viewBox="0 0 595.3 396.9"
	 style="enable-background:new 0 0 595.3 396.9;" xml:space="preserve">
<style type="text/css">
	.st0{fill-rule:evenodd;clip-rule:evenodd;fill:#FFFFFF;}
	.st1{fill-rule:evenodd;clip-rule:evenodd;fill:#F1F1F1;}
	.st2{fill:#DADADA;}
	.st3{fill:#0B0B0B;}
	.st4{fill-rule:evenodd;clip-rule:evenodd;fill:#B0B0B0;}
	.st5{fill:none;}
	.st6{clip-path:url(#SVGID_00000030457259803627401330000006203696366303790500_);}
	.st7{fill:#B4B4B4;}
	.st8{fill:none;stroke:#DADADA;stroke-width:4;stroke-miterlimit:10;}
	.st9{fill:#4B4B4B;}
	.st10{fill:#C8C8C8;}
	.st11{fill:#8C8C8C;}
	.st12{fill:#5B5B5B;}
	.st13{fill-rule:evenodd;clip-rule:evenodd;fill:#BDBDBD;}
	.st14{fill:#FFFFFF;}
	.st15{fill:#AA1111;}
	.st16{fill-rule:evenodd;clip-rule:evenodd;fill:#AA1111;}
</style>
<g id="datasets" transform="matrix(1,0,0,1,0,1505.84)">
	<rect y="-1505.8" class="st0" width="595.3" height="396.9"/>
	<g transform="matrix(0.968314,0,0,1,30.4183,-1505.84)">
		<rect x="-30.1" y="65.1" class="st1" width="613.5" height="65.1"/>
	</g>
	<path class="st2" d="M0-1481v-18.6c0-3.4,2.8-6.2,6.2-6.2h582.9c3.4,0,6.2,2.8,6.2,6.2v18.6"/>
	<circle class="st0" cx="15.8" cy="-1493.4" r="5.3"/>
	<circle class="st0" cx="30.4" cy="-1493.4" r="5.3"/>
	<circle class="st0" cx="45.2" cy="-1493.4" r="5.3"/>
	<rect x="0.6" y="-1481" class="st3" width="594" height="40.3"/>
	<rect y="-1111.5" class="st2" width="595.3" height="2.5"/>
	<path class="st2" d="M2.5-1109v-372h590.3v372h2.5v-374.5H0v374.5H2.5z"/>
	<g transform="matrix(0.975935,0,0,0.836916,-209.125,112.263)">
		<g transform="matrix(0.568808,0,0,1,-493.398,0)">
			<rect x="1299" y="-1678.7" class="st4" width="339.6" height="10"/>
		</g>
		<g transform="matrix(0.660339,0,0,1,-615.372,77.0624)">
			<rect x="1303.6" y="-1708" class="st4" width="339.6" height="10"/>
		</g>
		<g transform="matrix(0.732408,0,0,1,-711.41,37.3125)">
			<rect x="1306.5" y="-1692.9" class="st4" width="339.6" height="10"/>
		</g>
	</g>
	<g transform="matrix(0.735134,0,0,0.836916,-145.411,344.065)">
		<g transform="matrix(0.862494,0,0,1,-884.762,0)">
			<rect x="1304.2" y="-1831.9" class="st4" width="339.6" height="10"/>
		</g>
		<g transform="matrix(0.693061,0,0,1,-658.977,37.3125)">
			<rect x="1297.2" y="-1846.1" class="st4" width="339.6" height="10"/>
		</g>
		<g transform="matrix(1.07019,0,0,1,-1161.54,75.1222)">
			<rect x="1309.7" y="-1860.5" class="st4" width="339.6" height="10"/>
		</g>
	</g>
	<g transform="matrix(0.910425,0,0,0.910425,25.6328,-1292.31)">
		<rect x="356.3" y="-55.3" class="st5" width="225.2" height="135.1"/>
		<g>
			<defs>
				<rect id="SVGID_1_" x="366.4" y="-49.3" width="205" height="123"/>
			</defs>
			<clipPath id="SVGID_00000132088416456431175790000011774619487556173986_">
				<use xlink:href="#SVGID_1_"  style="overflow:visible;"/>
			</clipPath>
			<g style="clip-path:url(#SVGID_00000132088416456431175790000011774619487556173986_);">
				<g transform="matrix(1,0,0,1,614.941,1581.21)">
					<g transform="matrix(0.615272,0,0,0.621662,-56.9515,-52.577)">
						<rect x="-290.3" y="-2509.1" class="st7" width="3.6" height="3.5"/>
					</g>
					<g transform="matrix(0.615272,0,0,0.621662,-56.9515,-52.577)">
						<rect x="-327.8" y="-2547.9" class="st7" width="37.5" height="213.8"/>
					</g>
					<g transform="matrix(0.615272,0,0,0.621662,-56.9515,-52.577)">
						<rect x="-326.1" y="-2547.9" class="st7" width="557" height="40.6"/>
					</g>
					<g transform="matrix(0.615272,0,0,0.621662,-56.9515,-52.577)">
						<path class="st8" d="M-326.1-2466.7h557 M-47.6-2549.7v217.3 M97-2549.7v217.3 M-326.1-2426h557 M230.9-2344.8h-557
							 M-326.1-2385.4h557"/>
					</g>
					<g transform="matrix(0.615272,0,0,0.621662,-56.9515,-52.577)">
						<path class="st9" d="M-265.5-2523.2h-5.6l-0.9,3.5h-1.9l4.4-14.1h2.5l4.4,14.1h-2L-265.5-2523.2z M-270.5-2525h4.3l-2.1-7.1
							h-0.2L-270.5-2525z M-27.8-2533.8c2.2,0,3.9,1.4,3.9,3.5c0,1.4-1,2.7-2.2,3.2c1.5,0.2,3,1.4,3,3.4c0,2.8-2.2,4-4.9,4h-5.4
							v-14.1H-27.8z M-26.5-2529.6c0-1.2-0.7-2.3-2.7-2.5h-2.3v5.3h2.3C-27.3-2527.2-26.5-2528.3-26.5-2529.6z M-27.6-2526.7h-3.8
							v5.3h3.8c1.7,0,3.2-0.8,3.2-2.7C-24.5-2526.1-25.9-2526.7-27.6-2526.7z M115.5-2533.4c2.6,0,4.3,1.4,5.2,3.6l-1.6,0.6
							c-0.4-1.2-1.6-2.7-3.5-2.7c-2.9,0-4.2,2.7-4.2,5.5v0.2c0,2.9,1.4,5.5,4.2,5.5c1.9,0,3.2-1.4,3.5-2.7l1.6,0.6
							c-0.8,2.2-2.6,3.6-5.2,3.6c-3.7,0-6.1-3.2-6.1-7.1S111.7-2533.4,115.5-2533.4z"/>
					</g>
					<g>
						<g transform="matrix(0.615272,0,0,0.621662,-56.9515,-52.577)">
							<path class="st9" d="M-308.2-2492.7v-0.5h1.8v14.1h-1.8v-10.6h-1.8v-1.8h-0.9C-309-2490.6-308.2-2492.7-308.2-2492.7z
								 M-313.6-2438.4v-1.8c1.7-0.9,4.6-3.3,5.7-4.3c1.1-1,2.1-2.2,2.1-3.8c0-1.7-1.1-2.7-2.7-2.7c-1.7,0-2.6,1.2-2.7,2.9l-1.8-0.1
								c0.1-2.7,1.9-4.3,4.5-4.3c2.7,0,4.5,1.6,4.5,4.3c0,2-1.1,3.3-4.2,6l-2.5,2h6v1.8H-313.6z M-311.8-2401.7
								c0.5,1.3,1.4,2.2,3.2,2.2c2,0,3-1.2,3-2.6c0-1.6-1.2-2.4-3.2-2.8h-1.2v-1.8h0.9c1.8,0.7,3.3,0,3.3-1.8c0-1.6-1.2-2.4-2.7-2.4
								c-1.6,0-2.5,0.9-3,2.1l-1.6-0.6c0.7-2,2.6-3,4.7-3c2.4,0,4.5,1.6,4.5,3.7c0,1.5-0.9,2.8-2.6,3.2c2,0.4,2.9,1.7,2.9,3.3
								c0,2.7-2.2,4-4.8,4c-2.2,0-4.1-1.1-4.9-3.2L-311.8-2401.7z M-306.4-2357.1v-3.6h-7.1v-1.8l6.4-8.8h2.5v8.8h1.8v1.8h-1.8v3.5
								L-306.4-2357.1L-306.4-2357.1z M-306.4-2362.4v-7.4l-5.3,7.4H-306.4z"/>
						</g>
						<g transform="matrix(0.615272,0,0,0.621662,-56.9515,-52.577)">
							<ellipse class="st0" cx="-313.3" cy="-2559.9" rx="3" ry="3"/>
						</g>
						<g transform="matrix(0.615272,0,0,0.621662,-56.9515,-52.577)">
							<ellipse class="st0" cx="-298.6" cy="-2559.9" rx="3" ry="3"/>
						</g>
						<g transform="matrix(0.615272,0,0,0.621662,-56.9515,-52.577)">
							<ellipse class="st0" cx="-283.9" cy="-2559.9" rx="3" ry="3"/>
						</g>
						<g transform="matrix(0.615272,0,0,0.621662,-56.9515,-52.577)">
							<ellipse class="st0" cx="-313.3" cy="-2559.9" rx="3" ry="3"/>
						</g>
						<g transform="matrix(0.615272,0,0,0.621662,-56.9515,-52.577)">
							<ellipse class="st0" cx="-298.6" cy="-2559.9" rx="3" ry="3"/>
						</g>
						<g transform="matrix(0.615272,0,0,0.621662,-56.9515,-52.577)">
							<ellipse class="st0" cx="-283.9" cy="-2559.9" rx="3" ry="3"/>
						</g>
						<g transform="matrix(0.615272,0,0,0.621662,-56.9515,-52.577)">
							<path class="st10" d="M-48.4-2547.9h-238.4v42.1l1.8-2.5v-37.9h234.1L-48.4-2547.9z"/>
						</g>
						<g transform="matrix(0.615272,0,0,0.621662,-56.9515,-52.577)">
							<path class="st11" d="M-51.1-2545v37.7h-233.8l-2.5,1.8h238.1v-42L-51.1-2545z"/>
						</g>
						<g transform="matrix(0.615272,0,0,0.621662,-56.9515,-52.577)">
							<path class="st10" d="M-287.4-2505.5h-40.4v38.9l1.8-2.5v-34.6h36.2L-287.4-2505.5z"/>
						</g>
						<g transform="matrix(0.615272,0,0,0.621662,-56.9515,-52.577)">
							<path class="st11" d="M-290.3-2503.4v34.9h-36.2l-2.5,1.8h40.5v-39.2L-290.3-2503.4z M-324.3-2505.5v-40.6h37.5v-1.8h-39.3
								v42.4H-324.3z"/>
						</g>
						<g transform="matrix(0.615272,0,0,0.621662,-56.9515,-52.577)">
							<path class="st10" d="M-287.4-2466.7h-40.4v40.5l1.8-2.5v-36.2h36.2L-287.4-2466.7z"/>
						</g>
						<g transform="matrix(0.615272,0,0,0.621662,-56.9515,-52.577)">
							<path class="st11" d="M-290.3-2464.2v36.4h-36.2l-2.5,1.8h40.5v-40.6L-290.3-2464.2z"/>
						</g>
						<g transform="matrix(0.615272,0,0,0.621662,-56.9515,-52.577)">
							<path class="st10" d="M-287.4-2426h-40.4v40.2l1.8-2.5v-36h36.2L-287.4-2426z"/>
						</g>
						<g transform="matrix(0.615272,0,0,0.621662,-56.9515,-52.577)">
							<path class="st11" d="M-290.3-2423.7v36.6h-36.2l-2.5,1.8h40.5v-40.8L-290.3-2423.7z"/>
						</g>
						<g transform="matrix(0.615272,0,0,0.621662,-56.9515,-52.577)">
							<path class="st10" d="M-287.4-2385.4h-40.4v40l1.8-2.5v-35.8h36.2L-287.4-2385.4z"/>
						</g>
						<g transform="matrix(0.615272,0,0,0.621662,-56.9515,-52.577)">
							<path class="st11" d="M-290.3-2383.3v35h-36.2l-2.5,1.8h40.5v-39.3L-290.3-2383.3z"/>
						</g>
						<g transform="matrix(0.615272,0,0,0.621662,-56.9515,-52.577)">
							<path class="st10" d="M-287.4-2344.8h-40.4v12.4h1.8v-10.6h36.2L-287.4-2344.8z"/>
						</g>
						<g transform="matrix(0.615272,0,0,0.621662,-56.9515,-52.577)">
							<path class="st11" d="M-290.3-2342.9v10.5h1.8v-13L-290.3-2342.9z"/>
						</g>
						<g transform="matrix(0.615272,0,0,0.621662,-56.9515,-52.577)">
							<path class="st10" d="M96.2-2547.9H-47.6v42.1l1.8-2.5v-37.9H93.7L96.2-2547.9z"/>
						</g>
						<g transform="matrix(0.615272,0,0,0.621662,-56.9515,-52.577)">
							<path class="st11" d="M93.5-2545v37.7H-45.9l-2.5,1.8H95.3v-42L93.5-2545z"/>
						</g>
						<g transform="matrix(0.615272,0,0,0.621662,-56.9515,-52.577)">
							<path class="st10" d="M233.3-2547.9H97v42.1l1.8-2.5v-37.9h132L233.3-2547.9z"/>
						</g>
						<g transform="matrix(0.615272,0,0,0.621662,-56.9515,-52.577)">
							<path class="st11" d="M232.7-2507.3H98.7l-2.5,1.8h136.5V-2507.3z"/>
						</g>
						<g transform="matrix(0.615272,0,0,0.621662,-56.9515,-52.577)">
							<path class="st2" d="M-329.6-2549.7v219.1h562.3v-219.1H-329.6z M-326.1-2334.2v-213.8h557v213.8H-326.1z"/>
						</g>
						<g transform="matrix(1.20705,0,0,1.20705,-50.0135,-50.649)">
							<g transform="matrix(14.7915,0,0,14.7915,71.9774,202.962)">
								<path class="st12" d="M-14.4-100.4l0-0.2h0.3v0.1h-0.2L-14.4-100.4c0.1-0.1,0.1-0.1,0.1-0.1c0,0,0,0,0,0c0,0,0,0,0,0
									c0,0,0,0,0,0c0,0,0,0,0.1,0c0,0,0,0,0,0c0,0,0,0,0,0c0,0,0,0,0,0.1c0,0,0,0,0,0.1c0,0,0,0,0,0.1c0,0,0,0-0.1,0
									c0,0,0,0-0.1,0c0,0,0,0-0.1,0c0,0,0,0,0,0c0,0,0,0,0,0C-14.4-100.3-14.4-100.3-14.4-100.4L-14.4-100.4
									c0.1,0.1,0.1,0.1,0.1,0.1c0,0,0,0,0.1,0c0,0,0,0,0,0s0,0,0,0s0,0,0,0c0,0,0,0,0,0s0,0,0,0c0,0,0,0,0,0c0,0,0,0,0,0
									c0,0,0,0,0,0c0,0,0,0,0,0c0,0,0,0,0,0C-14.3-100.4-14.3-100.4-14.4-100.4C-14.3-100.4-14.3-100.4-14.4-100.4L-14.4-100.4z"
									/>
							</g>
							<g transform="matrix(14.7915,0,0,14.7915,80.9982,202.962)">
								<path class="st12" d="M-14.6-100.3C-14.6-100.3-14.6-100.3-14.6-100.3C-14.6-100.3-14.6-100.3-14.6-100.3
									C-14.6-100.3-14.5-100.3-14.6-100.3C-14.5-100.3-14.5-100.3-14.6-100.3c0.1,0.1,0.1,0.1,0.1,0.1c0,0,0,0,0,0c0,0,0,0,0,0
									c0,0,0,0,0,0c0,0,0,0,0,0C-14.5-100.4-14.5-100.4-14.6-100.3L-14.6-100.3l0.1-0.1h0c0,0,0,0,0.1,0c0,0,0,0,0,0c0,0,0,0,0,0
									c0,0,0,0,0,0c0,0,0,0,0,0c0,0,0,0,0,0c0,0,0,0,0,0c0,0,0,0,0,0c0,0,0,0,0,0c0,0,0,0,0,0l-0.1,0c0,0,0,0,0,0s0,0,0,0
									c0,0,0,0,0,0c0,0,0,0,0.1,0c0,0,0,0,0.1,0c0,0,0,0,0,0c0,0,0,0,0,0c0,0,0,0,0,0.1c0,0,0,0,0,0c0,0,0,0,0,0c0,0,0,0,0,0
									c0,0,0,0,0,0c0,0,0,0,0,0c0,0,0,0,0,0c0,0,0,0,0,0c0,0,0,0,0,0c0,0,0,0,0,0.1c0,0,0,0,0,0c0,0,0,0-0.1,0c0,0,0,0-0.1,0
									c0,0,0,0-0.1,0c0,0,0,0-0.1,0C-14.6-100.3-14.6-100.3-14.6-100.3C-14.7-100.3-14.7-100.3-14.6-100.3L-14.6-100.3z"/>
							</g>
							<g transform="matrix(14.7915,0,0,14.7915,90.1562,202.962)">
								<path class="st12" d="M-14.9-100.3C-14.9-100.3-14.9-100.3-14.9-100.3C-14.9-100.3-14.9-100.3-14.9-100.3
									C-14.9-100.3-14.9-100.3-14.9-100.3C-14.9-100.3-14.9-100.3-14.9-100.3C-14.8-100.3-14.8-100.3-14.9-100.3
									C-14.8-100.3-14.8-100.3-14.9-100.3c0.1,0,0.1,0,0.1,0s0,0,0,0c0,0,0,0,0,0C-14.8-100.2-14.8-100.2-14.9-100.3
									C-14.8-100.2-14.8-100.2-14.9-100.3C-14.8-100.2-14.8-100.2-14.9-100.3C-14.9-100.2-14.9-100.2-14.9-100.3
									C-14.9-100.2-14.9-100.2-14.9-100.3C-14.9-100.2-14.9-100.2-14.9-100.3C-14.9-100.3-14.9-100.3-14.9-100.3z"/>
							</g>
							<g transform="matrix(14.7915,0,0,14.7915,94.2079,202.962)">
								<path class="st12" d="M-14.8-100.2v-0.1H-15v-0.1l0.2-0.2h0.1v0.2h0.1v0.1h-0.1L-14.8-100.2L-14.8-100.2z M-14.8-100.4v-0.2
									l-0.1,0.2H-14.8z"/>
							</g>
							<g transform="matrix(14.7915,0,0,14.7915,103.763,202.962)">
								<path class="st12" d="M-15.3-100.4C-15.3-100.4-15.3-100.5-15.3-100.4c0-0.1,0-0.1,0-0.1c0,0,0,0,0,0c0,0,0,0,0,0
									c0,0,0,0,0,0c0,0,0,0,0.1,0c0,0,0,0,0.1,0s0,0,0,0c0,0,0,0,0,0c0,0,0,0,0,0l-0.1,0c0,0,0,0,0,0c0,0,0,0,0,0c0,0,0,0,0,0
									c0,0,0,0,0,0c0,0,0,0,0,0C-15.2-100.5-15.2-100.5-15.3-100.4c0.1,0,0.1,0,0.1-0.1c0,0,0,0,0,0c0,0,0,0,0,0c0,0,0,0,0,0
									c0,0,0,0,0.1,0c0,0,0,0,0,0c0,0,0,0,0,0c0,0,0,0,0,0.1c0,0,0,0,0,0.1c0,0,0,0,0,0c0,0,0,0-0.1,0c0,0,0,0-0.1,0
									c0,0-0.1,0-0.1,0c0,0,0,0-0.1,0C-15.2-100.3-15.2-100.3-15.3-100.4C-15.3-100.4-15.3-100.4-15.3-100.4L-15.3-100.4z
									 M-15.2-100.4C-15.2-100.3-15.2-100.3-15.2-100.4C-15.2-100.3-15.1-100.3-15.2-100.4C-15.1-100.3-15.1-100.3-15.2-100.4
									C-15.1-100.3-15.1-100.3-15.2-100.4c0.1,0.1,0.1,0.1,0.1,0.1c0,0,0,0,0,0c0,0,0,0,0,0c0,0,0,0,0,0c0,0,0,0,0,0c0,0,0,0,0,0
									c0,0,0,0,0,0C-15.1-100.4-15.1-100.4-15.2-100.4C-15.1-100.4-15.1-100.4-15.2-100.4C-15.1-100.4-15.1-100.4-15.2-100.4
									C-15.1-100.4-15.2-100.4-15.2-100.4C-15.2-100.4-15.2-100.4-15.2-100.4z"/>
							</g>
							<g transform="matrix(14.7915,0,0,14.7915,113.022,202.962)">
								<path class="st12" d="M-15.3-100.6v0.4h-0.1v-0.3h-0.1v-0.1h0c0,0,0,0,0,0c0,0,0,0,0,0c0,0,0,0,0,0
									C-15.4-100.6-15.4-100.6-15.3-100.6L-15.3-100.6L-15.3-100.6z"/>
							</g>
							<g transform="matrix(14.7915,0,0,14.7915,118.482,202.962)">
								<path class="st12" d="M-15.5-100.6C-15.5-100.6-15.5-100.6-15.5-100.6C-15.5-100.6-15.5-100.6-15.5-100.6
									C-15.5-100.5-15.5-100.5-15.5-100.6C-15.6-100.5-15.6-100.5-15.5-100.6l-0.2,0.1c0,0,0,0,0-0.1c0,0,0,0,0,0
									C-15.6-100.6-15.6-100.6-15.5-100.6C-15.5-100.7-15.5-100.7-15.5-100.6C-15.5-100.7-15.4-100.7-15.5-100.6
									c0.1-0.1,0.1-0.1,0.1,0c0,0,0,0,0,0c0,0,0,0,0,0.1c0,0,0,0,0,0.1c0,0,0,0,0,0.1c0,0,0,0-0.1,0c0,0,0,0-0.1,0l0,0h0.2v0.1
									h-0.3v-0.1c0,0,0,0,0.1,0c0,0,0,0,0,0c0,0,0,0,0,0c0,0,0,0,0,0c0,0,0,0,0,0C-15.4-100.5-15.4-100.5-15.5-100.6
									C-15.4-100.5-15.4-100.5-15.5-100.6C-15.4-100.5-15.4-100.5-15.5-100.6C-15.4-100.6-15.4-100.6-15.5-100.6
									C-15.5-100.6-15.5-100.6-15.5-100.6z"/>
							</g>
							<g transform="matrix(14.7915,0,0,14.7915,127.583,202.962)">
								<path class="st12" d="M-15.7-100.6C-15.7-100.6-15.7-100.6-15.7-100.6C-15.8-100.6-15.8-100.6-15.7-100.6
									C-15.8-100.5-15.8-100.5-15.7-100.6C-15.8-100.5-15.8-100.5-15.7-100.6l-0.2,0.1c0,0,0,0,0-0.1c0,0,0,0,0,0
									C-15.8-100.6-15.8-100.6-15.7-100.6C-15.8-100.7-15.7-100.7-15.7-100.6C-15.7-100.7-15.7-100.7-15.7-100.6
									c0.1-0.1,0.1-0.1,0.1,0c0,0,0,0,0,0c0,0,0,0,0,0.1c0,0,0,0,0,0.1c0,0,0,0,0,0.1c0,0,0,0-0.1,0c0,0,0,0-0.1,0l0,0h0.2v0.1
									h-0.3v-0.1c0,0,0.1,0,0.1,0c0,0,0,0,0,0s0,0,0,0c0,0,0,0,0,0s0,0,0,0C-15.6-100.5-15.6-100.5-15.7-100.6
									C-15.6-100.5-15.6-100.5-15.7-100.6C-15.7-100.5-15.7-100.5-15.7-100.6C-15.7-100.6-15.7-100.6-15.7-100.6
									C-15.7-100.6-15.7-100.6-15.7-100.6z"/>
							</g>
							<g transform="matrix(14.7915,0,0,14.7915,136.683,202.962)">
								<path class="st12" d="M-16-100.4C-16-100.4-16-100.4-16-100.4C-16-100.4-16-100.3-16-100.4c0,0.1,0,0.1,0,0.1c0,0,0,0,0,0
									s0,0,0,0c0,0,0,0,0,0c0,0,0,0,0,0c0,0,0,0,0-0.1v0c0,0,0,0,0-0.1c0,0,0,0,0,0c0,0,0,0,0,0c0,0,0,0,0,0s0,0,0,0c0,0,0,0,0,0
									C-16-100.5-16-100.5-16-100.4C-16-100.5-16-100.5-16-100.4L-16-100.4z M-15.8-100.4C-15.8-100.4-15.8-100.4-15.8-100.4
									c0,0.1,0,0.1,0,0.1c0,0,0,0,0,0c0,0,0,0,0,0c0,0,0,0,0,0c0,0,0,0-0.1,0s0,0-0.1,0c0,0,0,0,0,0c0,0,0,0,0,0c0,0,0,0,0,0
									c0,0,0,0,0-0.1c0,0,0,0,0-0.1s0,0,0-0.1c0,0,0,0,0-0.1c0,0,0,0,0,0c0,0,0,0,0,0c0,0,0,0,0,0c0,0,0,0,0.1,0c0,0,0,0,0.1,0
									c0,0,0,0,0,0c0,0,0,0,0,0c0,0,0,0,0,0C-15.8-100.5-15.8-100.5-15.8-100.4C-15.8-100.5-15.8-100.5-15.8-100.4z"/>
							</g>
						</g>
						<g transform="matrix(1.20705,0,0,1.20705,186.508,-50.649)">
							<g transform="matrix(14.7915,0,0,14.7915,71.9774,202.962)">
								<rect x="-19.5" y="-100.5" class="st12" width="0.1" height="0.1"/>
							</g>
							<g transform="matrix(14.7915,0,0,14.7915,75.6753,202.962)">
								<path class="st12" d="M-19.4-100.6C-19.4-100.6-19.4-100.6-19.4-100.6C-19.5-100.6-19.5-100.6-19.4-100.6
									C-19.5-100.5-19.5-100.5-19.4-100.6C-19.5-100.5-19.5-100.5-19.4-100.6l-0.2,0.1c0,0,0,0,0-0.1c0,0,0,0,0,0
									C-19.5-100.6-19.5-100.6-19.4-100.6C-19.5-100.7-19.4-100.7-19.4-100.6C-19.4-100.7-19.4-100.7-19.4-100.6
									c0.1-0.1,0.1-0.1,0.1,0c0,0,0,0,0,0c0,0,0,0,0,0.1c0,0,0,0,0,0.1c0,0,0,0,0,0.1c0,0,0,0-0.1,0c0,0,0,0-0.1,0l0,0h0.2v0.1
									h-0.3v-0.1c0,0,0,0,0,0c0,0,0,0,0,0c0,0,0,0,0,0c0,0,0,0,0,0c0,0,0,0,0,0C-19.3-100.5-19.3-100.5-19.4-100.6
									C-19.3-100.5-19.3-100.5-19.4-100.6C-19.4-100.5-19.4-100.5-19.4-100.6C-19.4-100.6-19.4-100.6-19.4-100.6
									C-19.4-100.6-19.4-100.6-19.4-100.6z"/>
							</g>
							<g transform="matrix(14.7915,0,0,14.7915,84.7755,202.962)">
								<path class="st12" d="M-19.8-100.3C-19.8-100.3-19.8-100.3-19.8-100.3C-19.8-100.3-19.8-100.3-19.8-100.3
									C-19.8-100.3-19.8-100.3-19.8-100.3C-19.8-100.3-19.8-100.3-19.8-100.3C-19.7-100.3-19.7-100.3-19.8-100.3
									C-19.7-100.3-19.7-100.3-19.8-100.3c0.1,0,0.1,0,0.1,0c0,0,0,0,0,0c0,0,0,0,0,0C-19.7-100.2-19.7-100.2-19.8-100.3
									C-19.7-100.2-19.7-100.2-19.8-100.3C-19.7-100.2-19.7-100.2-19.8-100.3C-19.8-100.2-19.8-100.2-19.8-100.3
									C-19.8-100.2-19.8-100.2-19.8-100.3C-19.8-100.2-19.8-100.2-19.8-100.3C-19.8-100.3-19.8-100.3-19.8-100.3z"/>
							</g>
							<g transform="matrix(14.7915,0,0,14.7915,88.8273,202.962)">
								<path class="st12" d="M-19.8-100.6C-19.8-100.6-19.8-100.6-19.8-100.6C-19.8-100.6-19.8-100.6-19.8-100.6
									C-19.8-100.5-19.8-100.5-19.8-100.6C-19.8-100.5-19.8-100.5-19.8-100.6l-0.2,0.1c0,0,0,0,0-0.1c0,0,0,0,0,0
									C-19.9-100.6-19.8-100.6-19.8-100.6C-19.8-100.7-19.8-100.7-19.8-100.6C-19.7-100.7-19.7-100.7-19.8-100.6
									c0.1-0.1,0.1-0.1,0.1,0c0,0,0,0,0,0c0,0,0,0,0,0.1c0,0,0,0,0,0.1c0,0,0,0,0,0.1c0,0,0,0-0.1,0c0,0,0,0-0.1,0l0,0h0.1v0.1
									h-0.3v-0.1c0,0,0.1,0,0.1,0c0,0,0,0,0,0c0,0,0,0,0,0c0,0,0,0,0,0c0,0,0,0,0,0C-19.7-100.5-19.7-100.5-19.8-100.6
									C-19.7-100.5-19.7-100.5-19.8-100.6C-19.7-100.5-19.7-100.5-19.8-100.6C-19.7-100.6-19.7-100.6-19.8-100.6
									C-19.7-100.6-19.7-100.6-19.8-100.6z"/>
							</g>
							<g transform="matrix(14.7915,0,0,14.7915,97.9275,202.962)">
								<path class="st12" d="M-20.2-100.4C-20.2-100.4-20.2-100.5-20.2-100.4c0-0.1,0-0.1,0-0.1c0,0,0,0,0,0c0,0,0,0,0,0
									c0,0,0,0,0,0c0,0,0,0,0.1,0c0,0,0,0,0.1,0c0,0,0,0,0,0c0,0,0,0,0,0c0,0,0,0,0,0l-0.1,0c0,0,0,0,0,0c0,0,0,0,0,0c0,0,0,0,0,0
									c0,0,0,0,0,0c0,0,0,0,0,0S-20.1-100.5-20.2-100.4c0.1,0,0.1,0,0.1-0.1c0,0,0,0,0,0c0,0,0,0,0,0c0,0,0,0,0,0c0,0,0,0,0.1,0
									c0,0,0,0,0,0c0,0,0,0,0,0c0,0,0,0,0,0.1c0,0,0,0,0,0.1c0,0,0,0,0,0s0,0-0.1,0c0,0,0,0-0.1,0c0,0-0.1,0-0.1,0c0,0,0,0-0.1,0
									C-20.1-100.3-20.2-100.3-20.2-100.4C-20.2-100.4-20.2-100.4-20.2-100.4L-20.2-100.4z M-20-100.4
									C-20-100.3-20-100.3-20-100.4C-20-100.3-20-100.3-20-100.4C-20-100.3-20-100.3-20-100.4C-20-100.3-20-100.3-20-100.4
									c0.1,0.1,0.1,0.1,0.1,0.1c0,0,0,0,0,0c0,0,0,0,0,0c0,0,0,0,0,0c0,0,0,0,0,0c0,0,0,0,0,0c0,0,0,0,0,0
									C-19.9-100.4-20-100.4-20-100.4C-20-100.4-20-100.4-20-100.4C-20-100.4-20-100.4-20-100.4C-20-100.4-20-100.4-20-100.4
									C-20-100.4-20-100.4-20-100.4z"/>
							</g>
							<g transform="matrix(14.7915,0,0,14.7915,107.187,202.962)">
								<path class="st12" d="M-20.1-100.4C-20.1-100.4-20.1-100.4-20.1-100.4c0,0.1,0,0.1,0,0.1c0,0,0,0,0,0.1c0,0,0,0,0,0
									c0,0,0,0-0.1,0c0,0,0,0-0.1,0c0,0,0,0-0.1,0c0,0,0,0,0,0c0,0,0,0,0,0c0,0,0,0,0,0l0.1,0c0,0,0,0,0,0c0,0,0,0,0,0
									c0,0,0,0,0,0c0,0,0,0,0,0C-20.2-100.3-20.2-100.3-20.1-100.4C-20.2-100.4-20.2-100.4-20.1-100.4c-0.1,0-0.1,0-0.1,0.1
									c0,0,0,0,0,0c0,0,0,0,0,0c0,0,0,0,0,0c0,0,0,0-0.1,0c0,0,0,0,0,0c0,0,0,0,0,0c0,0,0,0,0-0.1c0,0,0,0,0-0.1c0,0,0,0,0,0
									s0,0,0.1,0c0,0,0,0,0.1,0c0,0,0.1,0,0.1,0c0,0,0,0,0.1,0C-20.1-100.6-20.1-100.6-20.1-100.4
									C-20.1-100.5-20.1-100.5-20.1-100.4L-20.1-100.4z M-20.1-100.5C-20.1-100.5-20.1-100.5-20.1-100.5
									C-20.1-100.5-20.2-100.6-20.1-100.5C-20.2-100.6-20.2-100.6-20.1-100.5C-20.2-100.6-20.2-100.6-20.1-100.5
									c-0.1-0.1-0.1-0.1-0.1-0.1c0,0,0,0,0,0c0,0,0,0,0,0c0,0,0,0,0,0c0,0,0,0,0,0c0,0,0,0,0,0c0,0,0,0,0,0
									C-20.2-100.4-20.2-100.4-20.1-100.5C-20.2-100.4-20.2-100.4-20.1-100.5C-20.2-100.4-20.2-100.5-20.1-100.5
									C-20.2-100.5-20.1-100.5-20.1-100.5C-20.1-100.5-20.1-100.5-20.1-100.5z"/>
							</g>
							<g transform="matrix(14.7915,0,0,14.7915,116.431,202.962)">
								<path class="st12" d="M-20.6-100.4l0-0.2h0.3v0.1h-0.2L-20.6-100.4c0.1-0.1,0.1-0.1,0.1-0.1c0,0,0,0,0,0c0,0,0,0,0,0
									c0,0,0,0,0,0c0,0,0,0,0.1,0c0,0,0,0,0,0c0,0,0,0,0,0c0,0,0,0,0,0.1c0,0,0,0,0,0.1c0,0,0,0,0,0.1c0,0,0,0-0.1,0
									c0,0,0,0-0.1,0c0,0,0,0-0.1,0c0,0,0,0,0,0c0,0,0,0,0,0C-20.6-100.3-20.6-100.3-20.6-100.4L-20.6-100.4
									c0.1,0.1,0.1,0.1,0.1,0.1c0,0,0,0,0.1,0c0,0,0,0,0,0s0,0,0,0s0,0,0,0c0,0,0,0,0,0s0,0,0,0c0,0,0,0,0,0c0,0,0,0,0,0
									c0,0,0,0,0,0c0,0,0,0,0,0c0,0,0,0,0,0C-20.5-100.4-20.5-100.4-20.6-100.4C-20.5-100.4-20.5-100.4-20.6-100.4L-20.6-100.4z"
									/>
							</g>
							<g transform="matrix(14.7915,0,0,14.7915,125.452,202.962)">
								<path class="st12" d="M-20.6-100.2v-0.1h-0.2v-0.1l0.2-0.2h0.1v0.2h0.1v0.1h-0.1L-20.6-100.2L-20.6-100.2z M-20.6-100.4
									v-0.2l-0.1,0.2H-20.6z"/>
							</g>
							<g transform="matrix(14.7915,0,0,14.7915,135.007,202.962)">
								<path class="st12" d="M-21-100.4C-21-100.4-21-100.4-21-100.4C-21-100.4-21-100.3-21-100.4c0,0.1,0,0.1,0.1,0.1c0,0,0,0,0,0
									c0,0,0,0,0,0c0,0,0,0,0,0c0,0,0,0,0,0c0,0,0,0,0-0.1v0c0,0,0,0,0-0.1c0,0,0,0,0,0c0,0,0,0,0,0c0,0,0,0,0,0c0,0,0,0,0,0
									c0,0,0,0,0,0C-21-100.5-21-100.5-21-100.4C-21-100.5-21-100.5-21-100.4L-21-100.4z M-20.7-100.4
									C-20.7-100.4-20.7-100.4-20.7-100.4c0,0.1,0,0.1,0,0.1c0,0,0,0,0,0c0,0,0,0,0,0c0,0,0,0,0,0c0,0,0,0-0.1,0c0,0,0,0-0.1,0
									c0,0,0,0,0,0c0,0,0,0,0,0c0,0,0,0,0,0c0,0,0,0,0-0.1c0,0,0,0,0-0.1s0,0,0-0.1c0,0,0,0,0-0.1c0,0,0,0,0,0c0,0,0,0,0,0
									c0,0,0,0,0,0c0,0,0,0,0.1,0c0,0,0,0,0.1,0c0,0,0,0,0,0c0,0,0,0,0,0c0,0,0,0,0,0C-20.8-100.5-20.8-100.5-20.7-100.4
									C-20.7-100.5-20.7-100.5-20.7-100.4z"/>
							</g>
						</g>
						<g transform="matrix(1.20705,0,0,1.20705,186.508,-11.5879)">
							<g transform="matrix(14.7915,0,0,14.7915,71.9774,202.962)">
								<rect x="-19.5" y="-101.3" class="st12" width="0.1" height="0.1"/>
							</g>
							<g transform="matrix(14.7915,0,0,14.7915,75.6753,202.962)">
								<path class="st12" d="M-19.5-101.3C-19.5-101.2-19.5-101.2-19.5-101.3C-19.5-101.2-19.5-101.2-19.5-101.3c0,0.1,0,0.1,0,0.1
									c0,0,0,0,0,0c0,0,0,0,0,0c0,0,0,0,0,0c0,0,0,0,0,0c0,0,0,0,0-0.1v0c0,0,0,0,0-0.1c0,0,0,0,0,0c0,0,0,0,0,0c0,0,0,0,0,0
									c0,0,0,0,0,0c0,0,0,0,0,0C-19.5-101.4-19.5-101.3-19.5-101.3C-19.5-101.3-19.5-101.3-19.5-101.3L-19.5-101.3z M-19.2-101.3
									C-19.2-101.2-19.2-101.2-19.2-101.3c0,0.1,0,0.1,0,0.1c0,0,0,0,0,0c0,0,0,0,0,0c0,0,0,0,0,0c0,0,0,0-0.1,0c0,0,0,0-0.1,0
									c0,0,0,0,0,0c0,0,0,0,0,0c0,0,0,0,0,0c0,0,0,0,0-0.1c0,0,0,0,0-0.1s0,0,0-0.1c0,0,0,0,0-0.1c0,0,0,0,0,0c0,0,0,0,0,0
									c0,0,0,0,0,0c0,0,0,0,0.1,0c0,0,0,0,0.1,0c0,0,0,0,0,0c0,0,0,0,0,0c0,0,0,0,0,0C-19.2-101.4-19.2-101.3-19.2-101.3
									C-19.2-101.3-19.2-101.3-19.2-101.3z"/>
							</g>
							<g transform="matrix(14.7915,0,0,14.7915,85.2016,202.962)">
								<path class="st12" d="M-19.8-101.1C-19.8-101.1-19.8-101.1-19.8-101.1C-19.8-101.1-19.8-101.1-19.8-101.1
									C-19.8-101.1-19.8-101.1-19.8-101.1C-19.8-101.2-19.8-101.2-19.8-101.1C-19.7-101.2-19.7-101.2-19.8-101.1
									C-19.7-101.1-19.7-101.1-19.8-101.1c0.1,0,0.1,0,0.1,0c0,0,0,0,0,0s0,0,0,0C-19.7-101.1-19.7-101.1-19.8-101.1
									C-19.7-101.1-19.7-101-19.8-101.1C-19.7-101-19.7-101-19.8-101.1C-19.8-101-19.8-101-19.8-101.1
									C-19.8-101-19.8-101.1-19.8-101.1C-19.8-101.1-19.8-101.1-19.8-101.1C-19.8-101.1-19.8-101.1-19.8-101.1z"/>
							</g>
							<g transform="matrix(14.7915,0,0,14.7915,88.8273,202.962)">
								<path class="st12" d="M-19.7-101.5v0.4h-0.1v-0.3h-0.1v-0.1h0c0,0,0,0,0,0c0,0,0,0,0,0C-19.8-101.4-19.8-101.4-19.7-101.5
									C-19.8-101.5-19.8-101.5-19.7-101.5L-19.7-101.5L-19.7-101.5z"/>
							</g>
							<g transform="matrix(14.7915,0,0,14.7915,94.2874,202.962)">
								<path class="st12" d="M-19.9-101.4C-19.9-101.4-19.9-101.4-19.9-101.4C-19.9-101.4-19.9-101.4-19.9-101.4
									C-20-101.4-20-101.4-19.9-101.4C-20-101.4-20-101.3-19.9-101.4l-0.2,0.1c0,0,0,0,0-0.1c0,0,0,0,0,0
									C-20-101.5-20-101.5-19.9-101.4C-19.9-101.5-19.9-101.5-19.9-101.4C-19.9-101.5-19.8-101.5-19.9-101.4
									c0.1-0.1,0.1-0.1,0.1,0c0,0,0,0,0,0c0,0,0,0,0,0.1c0,0,0,0,0,0.1c0,0,0,0,0,0.1c0,0,0,0-0.1,0c0,0,0,0-0.1,0l0,0h0.2v0.1
									H-20v-0.1c0,0,0,0,0.1,0c0,0,0,0,0,0c0,0,0,0,0,0c0,0,0,0,0,0c0,0,0,0,0,0S-19.8-101.3-19.9-101.4
									C-19.8-101.3-19.8-101.4-19.9-101.4C-19.8-101.4-19.8-101.4-19.9-101.4C-19.8-101.4-19.9-101.4-19.9-101.4
									C-19.9-101.4-19.9-101.4-19.9-101.4z"/>
							</g>
							<g transform="matrix(14.7915,0,0,14.7915,103.388,202.962)">
								<path class="st12" d="M-19.9-101.3C-19.9-101.2-19.9-101.2-19.9-101.3c0,0.1,0,0.1,0,0.1c0,0,0,0,0,0.1c0,0,0,0,0,0
									c0,0,0,0-0.1,0c0,0,0,0-0.1,0c0,0,0,0-0.1,0c0,0,0,0,0,0c0,0,0,0,0,0c0,0,0,0,0,0l0.1,0c0,0,0,0,0,0s0,0,0,0c0,0,0,0,0,0
									c0,0,0,0,0,0C-20-101.2-20-101.2-19.9-101.3C-20-101.2-20-101.2-19.9-101.3c-0.1,0-0.1,0-0.1,0.1c0,0,0,0,0,0c0,0,0,0,0,0
									c0,0,0,0,0,0c0,0,0,0-0.1,0c0,0,0,0,0,0c0,0,0,0,0,0c0,0,0,0,0-0.1c0,0,0,0,0-0.1c0,0,0,0,0,0c0,0,0,0,0.1,0c0,0,0,0,0.1,0
									c0,0,0.1,0,0.1,0c0,0,0,0,0.1,0C-20-101.4-19.9-101.4-19.9-101.3C-19.9-101.3-19.9-101.3-19.9-101.3L-19.9-101.3z
									 M-20-101.3C-20-101.4-20-101.4-20-101.3C-20.1-101.4-20.1-101.4-20-101.3C-20.1-101.4-20.1-101.4-20-101.3
									C-20.1-101.4-20.1-101.4-20-101.3c-0.1-0.1-0.1-0.1-0.1-0.1c0,0,0,0,0,0c0,0,0,0,0,0c0,0,0,0,0,0c0,0,0,0,0,0c0,0,0,0,0,0
									c0,0,0,0,0,0C-20.1-101.3-20.1-101.3-20-101.3C-20.1-101.3-20.1-101.3-20-101.3C-20.1-101.3-20.1-101.3-20-101.3
									C-20.1-101.3-20.1-101.3-20-101.3C-20-101.3-20-101.3-20-101.3z"/>
							</g>
							<g transform="matrix(14.7915,0,0,14.7915,112.632,202.962)">
								<path class="st12" d="M-20.4-101.5C-20.3-101.5-20.3-101.5-20.4-101.5C-20.3-101.5-20.3-101.5-20.4-101.5c0.1,0,0.1,0,0.1,0
									c0,0,0,0,0,0c0,0,0,0,0,0c0,0,0,0,0,0c0,0,0,0,0,0c0,0,0,0,0,0c0,0,0,0,0,0c0,0,0,0,0,0c0,0,0,0,0,0c0,0,0,0,0,0
									c0,0,0,0,0,0c0,0,0,0,0,0c0,0,0,0,0,0.1c0,0,0,0,0,0c0,0,0,0-0.1,0c0,0,0,0-0.1,0c0,0,0,0-0.1,0c0,0,0,0-0.1,0c0,0,0,0,0,0
									c0,0,0,0,0-0.1c0,0,0,0,0,0c0,0,0,0,0,0c0,0,0,0,0,0c0,0,0,0,0,0c0,0,0,0,0,0c0,0,0,0,0,0c0,0,0,0,0,0c0,0,0,0,0,0
									c0,0,0,0,0-0.1c0,0,0,0,0,0C-20.4-101.5-20.4-101.5-20.4-101.5C-20.4-101.5-20.4-101.5-20.4-101.5z M-20.4-101.3
									C-20.3-101.3-20.3-101.3-20.4-101.3C-20.3-101.3-20.3-101.3-20.4-101.3C-20.3-101.3-20.3-101.3-20.4-101.3
									C-20.3-101.3-20.3-101.4-20.4-101.3C-20.3-101.4-20.3-101.4-20.4-101.3C-20.3-101.4-20.3-101.4-20.4-101.3
									c0-0.1,0-0.1,0-0.1c0,0,0,0,0,0s0,0,0,0C-20.4-101.4-20.4-101.4-20.4-101.3C-20.4-101.4-20.4-101.4-20.4-101.3
									C-20.4-101.4-20.4-101.4-20.4-101.3C-20.4-101.4-20.4-101.3-20.4-101.3C-20.4-101.3-20.4-101.3-20.4-101.3
									C-20.4-101.3-20.4-101.3-20.4-101.3C-20.4-101.3-20.4-101.3-20.4-101.3z M-20.4-101.1C-20.3-101.1-20.3-101.1-20.4-101.1
									C-20.3-101.1-20.3-101.1-20.4-101.1C-20.3-101.1-20.3-101.1-20.4-101.1C-20.3-101.2-20.3-101.2-20.4-101.1
									C-20.3-101.2-20.3-101.2-20.4-101.1c0.1-0.1,0.1-0.1,0.1-0.1c0,0,0,0,0,0c0,0,0,0,0,0c0,0,0,0,0,0c0,0,0,0,0,0
									C-20.4-101.2-20.4-101.2-20.4-101.1C-20.4-101.2-20.4-101.2-20.4-101.1C-20.4-101.2-20.4-101.2-20.4-101.1
									C-20.4-101.1-20.4-101.1-20.4-101.1C-20.4-101.1-20.4-101.1-20.4-101.1C-20.4-101.1-20.4-101.1-20.4-101.1z"/>
							</g>
							<g transform="matrix(14.7915,0,0,14.7915,121.978,202.962)">
								<path class="st12" d="M-20.6-101.5v0.4h-0.1v-0.3h-0.1v-0.1h0C-20.8-101.4-20.7-101.4-20.6-101.5
									C-20.7-101.4-20.7-101.4-20.6-101.5C-20.7-101.4-20.7-101.4-20.6-101.5C-20.7-101.5-20.7-101.5-20.6-101.5L-20.6-101.5
									L-20.6-101.5z"/>
							</g>
						</g>
						<g transform="matrix(1.20705,0,0,1.20705,186.508,30.8557)">
							<g transform="matrix(14.7915,0,0,14.7915,71.9774,202.962)">
								<rect x="-19.5" y="-102.2" class="st12" width="0.1" height="0.1"/>
							</g>
							<g transform="matrix(14.7915,0,0,14.7915,75.6753,202.962)">
								<path class="st12" d="M-19.4-102.3C-19.4-102.3-19.4-102.3-19.4-102.3C-19.5-102.3-19.5-102.3-19.4-102.3
									C-19.5-102.3-19.5-102.3-19.4-102.3C-19.5-102.3-19.5-102.2-19.4-102.3l-0.2,0.1c0,0,0,0,0-0.1c0,0,0,0,0,0
									C-19.5-102.4-19.5-102.4-19.4-102.3C-19.5-102.4-19.4-102.4-19.4-102.3C-19.4-102.4-19.4-102.4-19.4-102.3
									c0.1-0.1,0.1-0.1,0.1,0c0,0,0,0,0,0c0,0,0,0,0,0.1c0,0,0,0,0,0.1c0,0,0,0,0,0.1c0,0,0,0-0.1,0c0,0,0,0-0.1,0l0,0h0.2v0.1
									h-0.3v-0.1c0,0,0,0,0,0c0,0,0,0,0,0c0,0,0,0,0,0c0,0,0,0,0,0c0,0,0,0,0,0S-19.3-102.2-19.4-102.3
									C-19.3-102.3-19.3-102.3-19.4-102.3C-19.4-102.3-19.4-102.3-19.4-102.3C-19.4-102.3-19.4-102.3-19.4-102.3
									C-19.4-102.3-19.4-102.3-19.4-102.3z"/>
							</g>
							<g transform="matrix(14.7915,0,0,14.7915,84.7755,202.962)">
								<path class="st12" d="M-19.8-102C-19.8-102-19.8-102-19.8-102C-19.8-102-19.8-102-19.8-102C-19.8-102-19.8-102-19.8-102
									C-19.8-102.1-19.8-102.1-19.8-102C-19.7-102.1-19.7-102.1-19.8-102C-19.7-102-19.7-102-19.8-102c0.1,0,0.1,0,0.1,0
									c0,0,0,0,0,0s0,0,0,0C-19.7-102-19.7-102-19.8-102C-19.7-102-19.7-102-19.8-102C-19.7-101.9-19.7-101.9-19.8-102
									C-19.8-101.9-19.8-101.9-19.8-102C-19.8-102-19.8-102-19.8-102C-19.8-102-19.8-102-19.8-102C-19.8-102-19.8-102-19.8-102z"
									/>
							</g>
							<g transform="matrix(14.7915,0,0,14.7915,88.8273,202.962)">
								<path class="st12" d="M-19.8-102.3C-19.8-102.3-19.8-102.3-19.8-102.3C-19.8-102.3-19.8-102.3-19.8-102.3
									C-19.8-102.3-19.8-102.3-19.8-102.3C-19.8-102.3-19.8-102.2-19.8-102.3l-0.2,0.1c0,0,0,0,0-0.1c0,0,0,0,0,0
									C-19.9-102.4-19.8-102.4-19.8-102.3C-19.8-102.4-19.8-102.4-19.8-102.3C-19.7-102.4-19.7-102.4-19.8-102.3
									c0.1-0.1,0.1-0.1,0.1,0c0,0,0,0,0,0c0,0,0,0,0,0.1c0,0,0,0,0,0.1c0,0,0,0,0,0.1c0,0,0,0-0.1,0c0,0,0,0-0.1,0l0,0h0.1v0.1
									h-0.3v-0.1c0,0,0.1,0,0.1,0c0,0,0,0,0,0c0,0,0,0,0,0c0,0,0,0,0,0c0,0,0,0,0,0S-19.7-102.2-19.8-102.3
									C-19.7-102.3-19.7-102.3-19.8-102.3C-19.7-102.3-19.7-102.3-19.8-102.3C-19.7-102.3-19.7-102.3-19.8-102.3
									C-19.7-102.3-19.7-102.3-19.8-102.3z"/>
							</g>
							<g transform="matrix(14.7915,0,0,14.7915,97.9275,202.962)">
								<path class="st12" d="M-20.2-102.2C-20.2-102.2-20.2-102.2-20.2-102.2c0-0.1,0-0.1,0-0.1c0,0,0,0,0,0c0,0,0,0,0,0
									c0,0,0,0,0,0c0,0,0,0,0.1,0c0,0,0,0,0.1,0c0,0,0,0,0,0c0,0,0,0,0,0c0,0,0,0,0,0l-0.1,0c0,0,0,0,0,0c0,0,0,0,0,0c0,0,0,0,0,0
									c0,0,0,0,0,0c0,0,0,0,0,0S-20.1-102.2-20.2-102.2c0.1,0,0.1,0,0.1-0.1c0,0,0,0,0,0c0,0,0,0,0,0c0,0,0,0,0,0c0,0,0,0,0.1,0
									c0,0,0,0,0,0c0,0,0,0,0,0c0,0,0,0,0,0.1c0,0,0,0,0,0.1c0,0,0,0,0,0s0,0-0.1,0c0,0,0,0-0.1,0c0,0-0.1,0-0.1,0c0,0,0,0-0.1,0
									C-20.1-102-20.2-102-20.2-102.2C-20.2-102.1-20.2-102.1-20.2-102.2L-20.2-102.2z M-20-102.1C-20-102.1-20-102.1-20-102.1
									C-20-102.1-20-102-20-102.1C-20-102-20-102-20-102.1C-20-102-20-102-20-102.1c0.1,0.1,0.1,0.1,0.1,0.1c0,0,0,0,0,0
									c0,0,0,0,0,0c0,0,0,0,0,0c0,0,0,0,0,0c0,0,0,0,0,0c0,0,0,0,0,0C-19.9-102.2-20-102.2-20-102.1C-20-102.2-20-102.2-20-102.1
									C-20-102.2-20-102.2-20-102.1C-20-102.1-20-102.1-20-102.1C-20-102.1-20-102.1-20-102.1z"/>
							</g>
							<g transform="matrix(14.7915,0,0,14.7915,107.187,202.962)">
								<path class="st12" d="M-20.2-102.3h-0.2v-0.1L-20.2-102.3L-20.2-102.3l-0.1,0.4h-0.1L-20.2-102.3z"/>
							</g>
							<g transform="matrix(14.7915,0,0,14.7915,115.203,202.962)">
								<path class="st12" d="M-20.4-102.3h-0.2v-0.1L-20.4-102.3L-20.4-102.3l-0.1,0.4h-0.1L-20.4-102.3z"/>
							</g>
							<g transform="matrix(14.7915,0,0,14.7915,123.22,202.962)">
								<path class="st12" d="M-20.6-102.3h-0.2v-0.1L-20.6-102.3L-20.6-102.3l-0.1,0.4h-0.1L-20.6-102.3z"/>
							</g>
							<g transform="matrix(14.7915,0,0,14.7915,131.237,202.962)">
								<path class="st12" d="M-20.9-102.1C-20.9-102.1-20.9-102.1-20.9-102.1C-20.9-102-20.9-102-20.9-102.1
									C-20.9-102-20.9-102-20.9-102.1C-20.9-102-20.8-102-20.9-102.1c0.1,0.1,0.1,0.1,0.1,0.1c0,0,0,0,0,0c0,0,0,0,0,0
									c0,0,0,0,0,0c0,0,0,0,0,0C-20.8-102.1-20.8-102.1-20.9-102.1L-20.9-102.1l0-0.1h0c0,0,0,0,0.1,0c0,0,0,0,0,0c0,0,0,0,0,0
									c0,0,0,0,0,0c0,0,0,0,0,0c0,0,0,0,0,0c0,0,0,0,0,0c0,0,0,0,0,0c0,0,0,0,0,0c0,0,0,0,0,0l-0.1,0c0,0,0,0,0,0c0,0,0,0,0,0
									c0,0,0,0,0,0c0,0,0,0,0.1,0c0,0,0,0,0.1,0c0,0,0,0,0,0c0,0,0,0,0,0c0,0,0,0,0,0.1c0,0,0,0,0,0c0,0,0,0,0,0c0,0,0,0,0,0
									c0,0,0,0,0,0c0,0,0,0,0,0c0,0,0,0,0,0c0,0,0,0,0,0s0,0,0,0c0,0,0,0,0,0.1c0,0,0,0,0,0c0,0,0,0-0.1,0c0,0,0,0-0.1,0
									c0,0,0,0-0.1,0c0,0,0,0-0.1,0C-21-102-21-102-20.9-102.1C-21-102-21-102-20.9-102.1L-20.9-102.1z"/>
							</g>
						</g>
						<g transform="matrix(1.20705,0,0,1.20705,186.508,72.175)">
							<g transform="matrix(14.7915,0,0,14.7915,71.9774,202.962)">
								<rect x="-19.5" y="-103" class="st12" width="0.1" height="0.1"/>
							</g>
							<g transform="matrix(14.7915,0,0,14.7915,75.6753,202.962)">
								<path class="st12" d="M-19.4-103.2C-19.4-103.2-19.4-103.2-19.4-103.2C-19.5-103.2-19.5-103.2-19.4-103.2
									C-19.5-103.2-19.5-103.2-19.4-103.2C-19.5-103.1-19.5-103.1-19.4-103.2l-0.2,0.1c0,0,0,0,0-0.1c0,0,0,0,0,0
									C-19.5-103.2-19.5-103.3-19.4-103.2C-19.5-103.3-19.4-103.3-19.4-103.2C-19.4-103.3-19.4-103.3-19.4-103.2
									c0.1-0.1,0.1-0.1,0.1,0c0,0,0,0,0,0c0,0,0,0,0,0.1c0,0,0,0,0,0.1c0,0,0,0,0,0.1c0,0,0,0-0.1,0c0,0,0,0-0.1,0l0,0h0.2v0.1
									h-0.3v-0.1c0,0,0,0,0,0c0,0,0,0,0,0c0,0,0,0,0,0c0,0,0,0,0,0c0,0,0,0,0,0S-19.3-103.1-19.4-103.2
									C-19.3-103.1-19.3-103.1-19.4-103.2C-19.4-103.2-19.4-103.2-19.4-103.2C-19.4-103.2-19.4-103.2-19.4-103.2
									C-19.4-103.2-19.4-103.2-19.4-103.2z"/>
							</g>
							<g transform="matrix(14.7915,0,0,14.7915,84.7755,202.962)">
								<path class="st12" d="M-19.8-102.9C-19.8-102.9-19.8-102.9-19.8-102.9C-19.8-102.9-19.8-102.9-19.8-102.9
									C-19.8-102.9-19.8-102.9-19.8-102.9C-19.8-102.9-19.8-102.9-19.8-102.9C-19.7-102.9-19.7-102.9-19.8-102.9
									C-19.7-102.9-19.7-102.9-19.8-102.9c0.1,0,0.1,0,0.1,0c0,0,0,0,0,0c0,0,0,0,0,0C-19.7-102.9-19.7-102.8-19.8-102.9
									C-19.7-102.8-19.7-102.8-19.8-102.9C-19.7-102.8-19.7-102.8-19.8-102.9C-19.8-102.8-19.8-102.8-19.8-102.9
									C-19.8-102.8-19.8-102.8-19.8-102.9C-19.8-102.8-19.8-102.9-19.8-102.9C-19.8-102.9-19.8-102.9-19.8-102.9z"/>
							</g>
							<g transform="matrix(14.7915,0,0,14.7915,88.8273,202.962)">
								<path class="st12" d="M-19.8-103.2C-19.8-103.2-19.8-103.2-19.8-103.2C-19.8-103.2-19.8-103.2-19.8-103.2
									C-19.8-103.2-19.8-103.2-19.8-103.2C-19.8-103.1-19.8-103.1-19.8-103.2l-0.2,0.1c0,0,0,0,0-0.1c0,0,0,0,0,0
									C-19.9-103.2-19.8-103.3-19.8-103.2C-19.8-103.3-19.8-103.3-19.8-103.2C-19.7-103.3-19.7-103.3-19.8-103.2
									c0.1-0.1,0.1-0.1,0.1,0c0,0,0,0,0,0c0,0,0,0,0,0.1c0,0,0,0,0,0.1c0,0,0,0,0,0.1c0,0,0,0-0.1,0c0,0,0,0-0.1,0l0,0h0.1v0.1
									h-0.3v-0.1c0,0,0.1,0,0.1,0c0,0,0,0,0,0c0,0,0,0,0,0c0,0,0,0,0,0c0,0,0,0,0,0S-19.7-103.1-19.8-103.2
									C-19.7-103.1-19.7-103.1-19.8-103.2C-19.7-103.2-19.7-103.2-19.8-103.2C-19.7-103.2-19.7-103.2-19.8-103.2
									C-19.7-103.2-19.7-103.2-19.8-103.2z"/>
							</g>
							<g transform="matrix(14.7915,0,0,14.7915,97.9275,202.962)">
								<path class="st12" d="M-20-103.2C-20-103.2-20-103.2-20-103.2C-20-103.2-20-103.2-20-103.2C-20-103.2-20-103.2-20-103.2
									C-20.1-103.1-20.1-103.1-20-103.2l-0.2,0.1c0,0,0,0,0-0.1c0,0,0,0,0,0C-20.1-103.2-20.1-103.3-20-103.2
									C-20-103.3-20-103.3-20-103.2C-20-103.3-19.9-103.3-20-103.2c0.1-0.1,0.1-0.1,0.1,0c0,0,0,0,0,0c0,0,0,0,0,0.1
									c0,0,0,0,0,0.1c0,0,0,0,0,0.1c0,0,0,0-0.1,0c0,0,0,0-0.1,0l0,0h0.2v0.1h-0.3v-0.1c0,0,0,0,0,0c0,0,0,0,0,0c0,0,0,0,0,0
									c0,0,0,0,0,0s0,0,0,0S-19.9-103.1-20-103.2C-19.9-103.1-19.9-103.1-20-103.2C-19.9-103.2-19.9-103.2-20-103.2
									C-19.9-103.2-19.9-103.2-20-103.2C-20-103.2-20-103.2-20-103.2z"/>
							</g>
							<g transform="matrix(14.7915,0,0,14.7915,107.028,202.962)">
								<path class="st12" d="M-20.4-103C-20.4-103.1-20.4-103.1-20.4-103c0-0.1,0-0.1,0-0.1c0,0,0,0,0,0c0,0,0,0,0,0c0,0,0,0,0,0
									c0,0,0,0,0.1,0c0,0,0,0,0.1,0s0,0,0,0c0,0,0,0,0,0c0,0,0,0,0,0l-0.1,0c0,0,0,0,0,0c0,0,0,0,0,0c0,0,0,0,0,0c0,0,0,0,0,0
									c0,0,0,0,0,0S-20.3-103.1-20.4-103c0.1,0,0.1,0,0.1-0.1c0,0,0,0,0,0c0,0,0,0,0,0c0,0,0,0,0,0c0,0,0,0,0.1,0c0,0,0,0,0,0
									c0,0,0,0,0,0c0,0,0,0,0,0.1c0,0,0,0,0,0.1c0,0,0,0,0,0s0,0-0.1,0c0,0,0,0-0.1,0c0,0-0.1,0-0.1,0c0,0,0,0-0.1,0
									C-20.3-102.9-20.3-102.9-20.4-103C-20.4-103-20.4-103-20.4-103L-20.4-103z M-20.3-103C-20.3-103-20.3-103-20.3-103
									C-20.3-102.9-20.3-102.9-20.3-103C-20.3-102.9-20.2-102.9-20.3-103C-20.2-102.9-20.2-102.9-20.3-103
									c0.1,0.1,0.1,0.1,0.1,0.1c0,0,0,0,0,0c0,0,0,0,0,0c0,0,0,0,0,0c0,0,0,0,0,0c0,0,0,0,0,0c0,0,0,0,0,0
									C-20.2-103-20.2-103-20.3-103C-20.2-103-20.2-103-20.3-103C-20.2-103-20.3-103-20.3-103C-20.3-103-20.3-103-20.3-103
									C-20.3-103-20.3-103-20.3-103z"/>
							</g>
							<g transform="matrix(14.7915,0,0,14.7915,116.287,202.962)">
								<path class="st12" d="M-20.2-103.1C-20.2-103-20.2-103-20.2-103.1c0,0.1,0,0.1,0,0.1c0,0,0,0,0,0.1c0,0,0,0,0,0
									c0,0,0,0-0.1,0c0,0,0,0-0.1,0c0,0,0,0-0.1,0c0,0,0,0,0,0c0,0,0,0,0,0c0,0,0,0,0,0l0.1,0c0,0,0,0,0,0s0,0,0,0c0,0,0,0,0,0
									c0,0,0,0,0,0C-20.4-102.9-20.3-103-20.2-103.1C-20.3-103-20.3-103-20.2-103.1c-0.1,0-0.1,0-0.1,0.1c0,0,0,0,0,0c0,0,0,0,0,0
									c0,0,0,0,0,0c0,0,0,0-0.1,0c0,0,0,0,0,0c0,0,0,0,0,0c0,0,0,0,0-0.1c0,0,0,0,0-0.1c0,0,0,0,0,0s0,0,0.1,0c0,0,0,0,0.1,0
									c0,0,0.1,0,0.1,0c0,0,0,0,0.1,0C-20.3-103.2-20.3-103.2-20.2-103.1C-20.2-103.1-20.2-103.1-20.2-103.1L-20.2-103.1z
									 M-20.4-103.1C-20.4-103.1-20.4-103.1-20.4-103.1C-20.4-103.2-20.4-103.2-20.4-103.1C-20.4-103.2-20.4-103.2-20.4-103.1
									C-20.4-103.2-20.4-103.2-20.4-103.1c-0.1-0.1-0.1-0.1-0.1-0.1c0,0,0,0,0,0c0,0,0,0,0,0c0,0,0,0,0,0c0,0,0,0,0,0c0,0,0,0,0,0
									c0,0,0,0,0,0C-20.5-103.1-20.5-103.1-20.4-103.1C-20.4-103.1-20.4-103.1-20.4-103.1C-20.4-103.1-20.4-103.1-20.4-103.1
									C-20.4-103.1-20.4-103.1-20.4-103.1C-20.4-103.1-20.4-103.1-20.4-103.1z"/>
							</g>
							<g transform="matrix(14.7915,0,0,14.7915,125.531,202.962)">
								<path class="st12" d="M-20.7-103C-20.8-103-20.8-103-20.7-103C-20.8-103-20.7-103-20.7-103c0,0.1,0,0.1,0,0.1c0,0,0,0,0,0
									c0,0,0,0,0,0c0,0,0,0,0,0c0,0,0,0,0,0c0,0,0,0,0-0.1v0c0,0,0,0,0-0.1c0,0,0,0,0,0c0,0,0,0,0,0c0,0,0,0,0,0c0,0,0,0,0,0
									c0,0,0,0,0,0C-20.7-103.1-20.8-103.1-20.7-103C-20.8-103.1-20.8-103.1-20.7-103L-20.7-103z M-20.5-103
									C-20.5-103-20.5-103-20.5-103c0,0.1,0,0.1,0,0.1c0,0,0,0,0,0c0,0,0,0,0,0c0,0,0,0,0,0c0,0,0,0-0.1,0c0,0,0,0-0.1,0
									c0,0,0,0,0,0c0,0,0,0,0,0c0,0,0,0,0,0c0,0,0,0,0-0.1c0,0,0,0,0-0.1s0,0,0-0.1c0,0,0,0,0-0.1c0,0,0,0,0,0c0,0,0,0,0,0
									c0,0,0,0,0,0c0,0,0,0,0.1,0c0,0,0,0,0.1,0c0,0,0,0,0,0c0,0,0,0,0,0c0,0,0,0,0,0C-20.5-103.1-20.5-103.1-20.5-103
									C-20.5-103.1-20.5-103.1-20.5-103z"/>
							</g>
							<g transform="matrix(14.7915,0,0,14.7915,135.058,202.962)">
								<path class="st12" d="M-20.8-103.1C-20.8-103-20.8-103-20.8-103.1c0,0.1,0,0.1,0,0.1c0,0,0,0,0,0.1c0,0,0,0,0,0
									c0,0,0,0-0.1,0c0,0,0,0-0.1,0c0,0,0,0-0.1,0c0,0,0,0,0,0c0,0,0,0,0,0c0,0,0,0,0,0l0.1,0c0,0,0,0,0,0s0,0,0,0c0,0,0,0,0,0
									c0,0,0,0,0,0C-20.9-102.9-20.9-103-20.8-103.1C-20.9-103-20.9-103-20.8-103.1c-0.1,0-0.1,0-0.1,0.1c0,0,0,0,0,0c0,0,0,0,0,0
									c0,0,0,0,0,0c0,0,0,0-0.1,0c0,0,0,0,0,0c0,0,0,0,0,0c0,0,0,0,0-0.1c0,0,0,0,0-0.1c0,0,0,0,0,0s0,0,0.1,0c0,0,0,0,0.1,0
									c0,0,0.1,0,0.1,0c0,0,0,0,0.1,0C-20.8-103.2-20.8-103.2-20.8-103.1C-20.8-103.1-20.8-103.1-20.8-103.1L-20.8-103.1z
									 M-20.9-103.1C-20.9-103.1-20.9-103.1-20.9-103.1C-20.9-103.2-20.9-103.2-20.9-103.1C-20.9-103.2-20.9-103.2-20.9-103.1
									C-20.9-103.2-20.9-103.2-20.9-103.1c-0.1-0.1-0.1-0.1-0.1-0.1c0,0,0,0,0,0c0,0,0,0,0,0c0,0,0,0,0,0c0,0,0,0,0,0c0,0,0,0,0,0
									c0,0,0,0,0,0C-21-103.1-20.9-103.1-20.9-103.1C-20.9-103.1-20.9-103.1-20.9-103.1C-20.9-103.1-20.9-103.1-20.9-103.1
									C-20.9-103.1-20.9-103.1-20.9-103.1C-20.9-103.1-20.9-103.1-20.9-103.1z"/>
							</g>
						</g>
						<g transform="matrix(1.20705,0,0,1.20705,-50.4764,-9.24095)">
							<g transform="matrix(14.7915,0,0,14.7915,71.9774,202.962)">
								<path class="st12" d="M-14.4-101.3l0-0.2h0.3v0.1h-0.2L-14.4-101.3c0.1-0.1,0.1-0.1,0.1-0.1c0,0,0,0,0,0c0,0,0,0,0,0
									c0,0,0,0,0,0c0,0,0,0,0.1,0c0,0,0,0,0,0c0,0,0,0,0,0c0,0,0,0,0,0.1c0,0,0,0,0,0.1c0,0,0,0,0,0.1c0,0,0,0-0.1,0
									c0,0,0,0-0.1,0c0,0,0,0-0.1,0c0,0,0,0,0,0c0,0,0,0,0,0C-14.4-101.2-14.4-101.2-14.4-101.3L-14.4-101.3
									c0.1,0.1,0.1,0.1,0.1,0.1c0,0,0,0,0.1,0c0,0,0,0,0,0c0,0,0,0,0,0c0,0,0,0,0,0c0,0,0,0,0,0s0,0,0,0c0,0,0,0,0,0c0,0,0,0,0,0
									c0,0,0,0,0,0c0,0,0,0,0,0c0,0,0,0,0,0C-14.3-101.3-14.3-101.3-14.4-101.3C-14.3-101.3-14.3-101.3-14.4-101.3L-14.4-101.3z"
									/>
							</g>
							<g transform="matrix(14.7915,0,0,14.7915,80.9982,202.962)">
								<path class="st12" d="M-14.5-101.5v0.4h-0.1v-0.3h-0.1v-0.1h0c0,0,0,0,0,0c0,0,0,0,0,0c0,0,0,0,0,0
									C-14.6-101.5-14.6-101.5-14.5-101.5L-14.5-101.5L-14.5-101.5z"/>
							</g>
							<g transform="matrix(14.7915,0,0,14.7915,86.4583,202.962)">
								<path class="st12" d="M-14.8-101.1C-14.8-101.2-14.8-101.2-14.8-101.1C-14.8-101.2-14.8-101.2-14.8-101.1
									C-14.8-101.2-14.8-101.2-14.8-101.1C-14.8-101.2-14.8-101.2-14.8-101.1C-14.7-101.2-14.7-101.2-14.8-101.1
									C-14.7-101.2-14.7-101.2-14.8-101.1c0.1,0,0.1,0,0.1,0s0,0,0,0s0,0,0,0C-14.7-101.1-14.7-101.1-14.8-101.1
									C-14.7-101.1-14.7-101.1-14.8-101.1C-14.7-101.1-14.7-101.1-14.8-101.1C-14.8-101.1-14.8-101.1-14.8-101.1
									C-14.8-101.1-14.8-101.1-14.8-101.1C-14.8-101.1-14.8-101.1-14.8-101.1C-14.8-101.1-14.8-101.1-14.8-101.1z"/>
							</g>
							<g transform="matrix(14.7915,0,0,14.7915,90.5101,202.962)">
								<path class="st12" d="M-14.7-101.1v-0.1h-0.2v-0.1l0.2-0.2h0.1v0.3h0.1v0.1l-0.1-0.1L-14.7-101.1L-14.7-101.1z M-14.7-101.3
									v-0.2l-0.1,0.2H-14.7z"/>
							</g>
							<g transform="matrix(14.7915,0,0,14.7915,100.065,202.962)">
								<path class="st12" d="M-14.8-101.3C-14.8-101.3-14.8-101.3-14.8-101.3c0,0.1,0,0.1,0,0.1c0,0,0,0,0,0.1c0,0,0,0,0,0
									c0,0,0,0-0.1,0c0,0,0,0-0.1,0c0,0,0,0-0.1,0c0,0,0,0,0,0c0,0,0,0,0,0c0,0,0,0,0,0l0.1,0c0,0,0,0,0,0s0,0,0,0c0,0,0,0,0,0
									c0,0,0,0,0,0C-14.9-101.2-14.9-101.2-14.8-101.3C-14.9-101.3-14.9-101.3-14.8-101.3c-0.1,0-0.1,0-0.1,0.1c0,0,0,0,0,0
									c0,0,0,0,0,0c0,0,0,0,0,0c0,0,0,0-0.1,0c0,0,0,0,0,0c0,0,0,0,0,0c0,0,0,0,0-0.1c0,0,0,0,0-0.1c0,0,0,0,0,0c0,0,0,0,0.1,0
									c0,0,0,0,0.1,0c0,0,0.1,0,0.1,0c0,0,0,0,0.1,0C-14.8-101.5-14.8-101.4-14.8-101.3C-14.8-101.4-14.8-101.4-14.8-101.3
									L-14.8-101.3z M-14.9-101.4C-14.9-101.4-14.9-101.4-14.9-101.4C-14.9-101.4-14.9-101.4-14.9-101.4
									C-14.9-101.4-14.9-101.5-14.9-101.4C-15-101.5-15-101.5-14.9-101.4c-0.1-0.1-0.1-0.1-0.1-0.1c0,0,0,0,0,0c0,0,0,0,0,0
									c0,0,0,0,0,0c0,0,0,0,0,0c0,0,0,0,0,0c0,0,0,0,0,0C-15-101.3-15-101.3-14.9-101.4C-15-101.3-15-101.3-14.9-101.4
									C-14.9-101.3-14.9-101.3-14.9-101.4C-14.9-101.3-14.9-101.4-14.9-101.4C-14.9-101.4-14.9-101.4-14.9-101.4z"/>
							</g>
							<g transform="matrix(14.7915,0,0,14.7915,109.31,202.962)">
								<path class="st12" d="M-15.4-101.3l0-0.2h0.2v0.1h-0.2L-15.4-101.3c0.1-0.1,0.1-0.1,0.1-0.1c0,0,0,0,0,0c0,0,0,0,0,0
									c0,0,0,0,0,0c0,0,0,0,0.1,0c0,0,0,0,0,0c0,0,0,0,0,0c0,0,0,0,0,0.1c0,0,0,0,0,0.1c0,0,0,0,0,0.1c0,0,0,0-0.1,0
									c0,0,0,0-0.1,0c0,0,0,0-0.1,0c0,0,0,0,0,0c0,0,0,0,0,0C-15.4-101.2-15.4-101.2-15.4-101.3L-15.4-101.3
									c0.1,0.1,0.1,0.1,0.1,0.1c0,0,0,0,0.1,0c0,0,0,0,0,0c0,0,0,0,0,0c0,0,0,0,0,0c0,0,0,0,0,0s0,0,0,0c0,0,0,0,0,0c0,0,0,0,0,0
									c0,0,0,0,0,0c0,0,0,0,0,0c0,0,0,0,0,0C-15.3-101.3-15.3-101.3-15.4-101.3C-15.3-101.3-15.3-101.3-15.4-101.3L-15.4-101.3z"
									/>
							</g>
							<g transform="matrix(14.7915,0,0,14.7915,118.331,202.962)">
								<path class="st12" d="M-15.5-101.5C-15.4-101.5-15.4-101.5-15.5-101.5C-15.4-101.5-15.4-101.5-15.5-101.5c0.1,0,0.1,0,0.1,0
									c0,0,0,0,0,0c0,0,0,0,0,0c0,0,0,0,0,0c0,0,0,0,0,0c0,0,0,0,0,0c0,0,0,0,0,0c0,0,0,0,0,0c0,0,0,0,0,0c0,0,0,0,0,0
									c0,0,0,0,0,0c0,0,0,0,0,0c0,0,0,0,0,0.1c0,0,0,0,0,0c0,0,0,0-0.1,0c0,0,0,0-0.1,0s0,0-0.1,0c0,0,0,0-0.1,0c0,0,0,0,0,0
									c0,0,0,0,0-0.1c0,0,0,0,0,0c0,0,0,0,0,0c0,0,0,0,0,0c0,0,0,0,0,0c0,0,0,0,0,0c0,0,0,0,0,0c0,0,0,0,0,0c0,0,0,0,0,0
									c0,0,0,0,0-0.1c0,0,0,0,0,0C-15.5-101.5-15.5-101.5-15.5-101.5C-15.5-101.5-15.5-101.5-15.5-101.5z M-15.5-101.4
									C-15.4-101.4-15.4-101.4-15.5-101.4C-15.4-101.4-15.4-101.4-15.5-101.4C-15.4-101.4-15.4-101.4-15.5-101.4
									C-15.4-101.4-15.4-101.4-15.5-101.4C-15.4-101.4-15.4-101.4-15.5-101.4C-15.4-101.4-15.4-101.4-15.5-101.4
									c0-0.1,0-0.1,0-0.1c0,0,0,0,0,0s0,0,0,0C-15.5-101.5-15.5-101.5-15.5-101.4C-15.5-101.4-15.5-101.4-15.5-101.4
									C-15.5-101.4-15.5-101.4-15.5-101.4C-15.5-101.4-15.5-101.4-15.5-101.4C-15.5-101.4-15.5-101.4-15.5-101.4
									C-15.5-101.4-15.5-101.4-15.5-101.4C-15.5-101.4-15.5-101.4-15.5-101.4z M-15.5-101.2C-15.4-101.2-15.4-101.2-15.5-101.2
									C-15.4-101.2-15.4-101.2-15.5-101.2C-15.4-101.2-15.4-101.2-15.5-101.2C-15.4-101.2-15.4-101.2-15.5-101.2
									C-15.4-101.2-15.4-101.2-15.5-101.2c0.1-0.1,0.1-0.1,0.1-0.1c0,0,0,0,0,0c0,0,0,0,0,0c0,0,0,0,0,0c0,0,0,0,0,0
									C-15.5-101.3-15.5-101.3-15.5-101.2C-15.5-101.2-15.5-101.2-15.5-101.2C-15.5-101.2-15.5-101.2-15.5-101.2
									C-15.5-101.2-15.5-101.2-15.5-101.2C-15.5-101.2-15.5-101.2-15.5-101.2C-15.5-101.2-15.5-101.2-15.5-101.2z"/>
							</g>
							<g transform="matrix(14.7915,0,0,14.7915,127.677,202.962)">
								<path class="st12" d="M-15.9-101.3C-15.9-101.3-15.9-101.3-15.9-101.3c0-0.1,0-0.1,0-0.1c0,0,0,0,0,0c0,0,0,0,0,0
									c0,0,0,0,0,0c0,0,0,0,0.1,0c0,0,0,0,0.1,0c0,0,0,0,0,0c0,0,0,0,0,0c0,0,0,0,0,0l-0.1,0c0,0,0,0,0,0c0,0,0,0,0,0c0,0,0,0,0,0
									c0,0,0,0,0,0c0,0,0,0,0,0C-15.8-101.4-15.8-101.4-15.9-101.3c0.1,0,0.1,0,0.1-0.1c0,0,0,0,0,0c0,0,0,0,0,0c0,0,0,0,0,0
									c0,0,0,0,0.1,0c0,0,0,0,0,0c0,0,0,0,0,0c0,0,0,0,0,0.1c0,0,0,0,0,0.1c0,0,0,0,0,0s0,0-0.1,0c0,0,0,0-0.1,0c0,0-0.1,0-0.1,0
									c0,0,0,0-0.1,0C-15.8-101.2-15.8-101.2-15.9-101.3C-15.9-101.2-15.9-101.3-15.9-101.3L-15.9-101.3z M-15.8-101.2
									C-15.8-101.2-15.8-101.2-15.8-101.2C-15.8-101.2-15.8-101.2-15.8-101.2C-15.7-101.2-15.7-101.2-15.8-101.2
									C-15.7-101.2-15.7-101.2-15.8-101.2c0.1,0.1,0.1,0.1,0.1,0.1c0,0,0,0,0,0c0,0,0,0,0,0c0,0,0,0,0,0c0,0,0,0,0,0c0,0,0,0,0,0
									c0,0,0,0,0,0C-15.7-101.3-15.7-101.3-15.8-101.2C-15.7-101.3-15.7-101.3-15.8-101.2C-15.7-101.3-15.7-101.3-15.8-101.2
									C-15.8-101.3-15.8-101.3-15.8-101.2C-15.8-101.3-15.8-101.3-15.8-101.2z"/>
							</g>
							<g transform="matrix(14.7915,0,0,14.7915,136.936,202.962)">
								<path class="st12" d="M-15.9-101.5h-0.2v-0.1L-15.9-101.5L-15.9-101.5l-0.1,0.4h-0.1L-15.9-101.5z"/>
							</g>
						</g>
						<g transform="matrix(1.20705,0,0,1.20705,-50.0135,32.1671)">
							<g transform="matrix(14.7915,0,0,14.7915,71.9774,202.962)">
								<path class="st12" d="M-14.4-102.2l0-0.2h0.3v0.1h-0.2L-14.4-102.2c0.1-0.1,0.1-0.1,0.1-0.1c0,0,0,0,0,0c0,0,0,0,0,0
									c0,0,0,0,0,0c0,0,0,0,0.1,0c0,0,0,0,0,0c0,0,0,0,0,0c0,0,0,0,0,0.1c0,0,0,0,0,0.1c0,0,0,0,0,0.1c0,0,0,0-0.1,0
									c0,0,0,0-0.1,0c0,0,0,0-0.1,0c0,0,0,0,0,0c0,0,0,0,0,0C-14.4-102.1-14.4-102.1-14.4-102.2L-14.4-102.2
									c0.1,0.1,0.1,0.1,0.1,0.1c0,0,0,0,0.1,0c0,0,0,0,0,0c0,0,0,0,0,0c0,0,0,0,0,0c0,0,0,0,0,0c0,0,0,0,0,0c0,0,0,0,0,0
									c0,0,0,0,0,0c0,0,0,0,0,0c0,0,0,0,0,0c0,0,0,0,0,0C-14.3-102.2-14.3-102.2-14.4-102.2C-14.3-102.2-14.3-102.2-14.4-102.2
									L-14.4-102.2z"/>
							</g>
							<g transform="matrix(14.7915,0,0,14.7915,80.9982,202.962)">
								<path class="st12" d="M-14.6-102.1C-14.6-102.1-14.6-102.1-14.6-102.1C-14.6-102.1-14.6-102.1-14.6-102.1
									C-14.6-102.1-14.5-102.1-14.6-102.1C-14.5-102.1-14.5-102.1-14.6-102.1c0.1,0.1,0.1,0.1,0.1,0.1c0,0,0,0,0,0c0,0,0,0,0,0
									c0,0,0,0,0,0c0,0,0,0,0,0C-14.5-102.2-14.5-102.2-14.6-102.1L-14.6-102.1L-14.6-102.1L-14.6-102.1c0.1-0.1,0.1-0.1,0.1-0.1
									c0,0,0,0,0,0c0,0,0,0,0,0c0,0,0,0,0,0c0,0,0,0,0,0c0,0,0,0,0,0c0,0,0,0,0,0c0,0,0,0,0,0c0,0,0,0,0,0c0,0,0,0,0,0l-0.1,0
									c0,0,0,0,0,0c0,0,0,0,0,0c0,0,0,0,0,0c0,0,0,0,0.1,0c0,0,0,0,0.1,0c0,0,0,0,0,0c0,0,0,0,0,0c0,0,0,0,0,0.1c0,0,0,0,0,0
									c0,0,0,0,0,0c0,0,0,0,0,0c0,0,0,0,0,0c0,0,0,0,0,0c0,0,0,0,0,0c0,0,0,0,0,0c0,0,0,0,0,0c0,0,0,0,0,0.1c0,0,0,0,0,0
									c0,0,0,0-0.1,0c0,0,0,0-0.1,0c0,0,0,0-0.1,0c0,0,0,0-0.1,0S-14.6-102-14.6-102.1C-14.7-102.1-14.7-102.1-14.6-102.1
									L-14.6-102.1z"/>
							</g>
							<g transform="matrix(14.7915,0,0,14.7915,90.1562,202.962)">
								<path class="st12" d="M-14.9-102C-14.9-102-14.9-102-14.9-102C-14.9-102.1-14.9-102.1-14.9-102
									C-14.9-102.1-14.9-102.1-14.9-102C-14.9-102.1-14.9-102.1-14.9-102C-14.8-102.1-14.8-102.1-14.9-102
									C-14.8-102.1-14.8-102.1-14.9-102c0.1,0,0.1,0,0.1,0s0,0,0,0c0,0,0,0,0,0C-14.8-102-14.8-102-14.9-102
									C-14.8-102-14.8-102-14.9-102C-14.8-102-14.8-102-14.9-102C-14.9-102-14.9-102-14.9-102C-14.9-102-14.9-102-14.9-102
									C-14.9-102-14.9-102-14.9-102C-14.9-102-14.9-102-14.9-102z"/>
							</g>
							<g transform="matrix(14.7915,0,0,14.7915,94.2079,202.962)">
								<path class="st12" d="M-15-102.2l0-0.2h0.3v0.1h-0.2L-15-102.2c0.1-0.1,0.1-0.1,0.1-0.1c0,0,0,0,0,0c0,0,0,0,0,0
									c0,0,0,0,0,0c0,0,0,0,0.1,0c0,0,0,0,0,0c0,0,0,0,0,0c0,0,0,0,0,0.1c0,0,0,0,0,0.1c0,0,0,0,0,0.1c0,0,0,0-0.1,0
									c0,0,0,0-0.1,0c0,0,0,0-0.1,0c0,0,0,0,0,0c0,0,0,0,0,0C-15-102.1-15-102.1-15-102.2L-15-102.2c0.1,0.1,0.1,0.1,0.1,0.1
									c0,0,0,0,0.1,0c0,0,0,0,0,0c0,0,0,0,0,0c0,0,0,0,0,0c0,0,0,0,0,0c0,0,0,0,0,0c0,0,0,0,0,0c0,0,0,0,0,0c0,0,0,0,0,0
									c0,0,0,0,0,0c0,0,0,0,0,0C-14.9-102.2-14.9-102.2-15-102.2C-14.9-102.2-14.9-102.2-15-102.2L-15-102.2z"/>
							</g>
							<g transform="matrix(14.7915,0,0,14.7915,103.229,202.962)">
								<path class="st12" d="M-15.2-102.1C-15.2-102.1-15.2-102.1-15.2-102.1C-15.1-102.1-15.1-102.1-15.2-102.1
									C-15.1-102.1-15.1-102.1-15.2-102.1C-15.1-102.1-15.1-102.1-15.2-102.1c0.1,0.1,0.1,0.1,0.1,0.1c0,0,0,0,0,0c0,0,0,0,0,0
									c0,0,0,0,0,0c0,0,0,0,0,0C-15-102.2-15.1-102.2-15.2-102.1L-15.2-102.1L-15.2-102.1L-15.2-102.1c0.1-0.1,0.1-0.1,0.1-0.1
									c0,0,0,0,0,0c0,0,0,0,0,0c0,0,0,0,0,0c0,0,0,0,0,0c0,0,0,0,0,0c0,0,0,0,0,0c0,0,0,0,0,0c0,0,0,0,0,0c0,0,0,0,0,0l-0.1,0
									c0,0,0,0,0,0c0,0,0,0,0,0c0,0,0,0,0,0c0,0,0,0,0.1,0c0,0,0,0,0.1,0c0,0,0,0,0,0c0,0,0,0,0,0c0,0,0,0,0,0.1c0,0,0,0,0,0
									c0,0,0,0,0,0c0,0,0,0,0,0c0,0,0,0,0,0c0,0,0,0,0,0c0,0,0,0,0,0c0,0,0,0,0,0s0,0,0,0c0,0,0,0,0,0.1c0,0,0,0,0,0
									c0,0,0,0-0.1,0c0,0,0,0-0.1,0c0,0,0,0-0.1,0c0,0,0,0-0.1,0S-15.2-102-15.2-102.1C-15.2-102.1-15.2-102.1-15.2-102.1
									L-15.2-102.1z"/>
							</g>
							<g transform="matrix(14.7915,0,0,14.7915,112.387,202.962)">
								<path class="st12" d="M-15.3-102.4C-15.3-102.4-15.3-102.4-15.3-102.4C-15.3-102.4-15.2-102.4-15.3-102.4c0.1,0,0.1,0,0.1,0
									c0,0,0,0,0,0c0,0,0,0,0,0c0,0,0,0,0,0c0,0,0,0,0,0c0,0,0,0,0,0c0,0,0,0,0,0c0,0,0,0,0,0c0,0,0,0,0,0c0,0,0,0,0,0
									c0,0,0,0,0,0c0,0,0,0,0,0c0,0,0,0,0,0.1c0,0,0,0,0,0c0,0,0,0-0.1,0c0,0,0,0-0.1,0s0,0-0.1,0c0,0,0,0-0.1,0c0,0,0,0,0,0
									c0,0,0,0,0-0.1c0,0,0,0,0,0c0,0,0,0,0,0c0,0,0,0,0,0c0,0,0,0,0,0c0,0,0,0,0,0c0,0,0,0,0,0c0,0,0,0,0,0c0,0,0,0,0,0
									c0,0,0,0,0-0.1c0,0,0,0,0,0C-15.4-102.4-15.4-102.4-15.3-102.4C-15.4-102.4-15.3-102.4-15.3-102.4z M-15.3-102.2
									C-15.3-102.2-15.3-102.2-15.3-102.2C-15.3-102.2-15.3-102.2-15.3-102.2C-15.3-102.3-15.3-102.3-15.3-102.2
									C-15.2-102.3-15.2-102.3-15.3-102.2C-15.2-102.3-15.2-102.3-15.3-102.2C-15.3-102.3-15.3-102.3-15.3-102.2
									c0-0.1,0-0.1,0-0.1c0,0,0,0,0,0s0,0,0,0C-15.3-102.3-15.4-102.3-15.3-102.2C-15.4-102.3-15.4-102.3-15.3-102.2
									C-15.4-102.3-15.4-102.3-15.3-102.2C-15.4-102.3-15.4-102.3-15.3-102.2C-15.4-102.3-15.4-102.3-15.3-102.2
									C-15.4-102.2-15.3-102.2-15.3-102.2C-15.3-102.2-15.3-102.2-15.3-102.2z M-15.3-102C-15.3-102-15.3-102-15.3-102
									C-15.3-102.1-15.3-102.1-15.3-102C-15.2-102.1-15.2-102.1-15.3-102C-15.2-102.1-15.2-102.1-15.3-102
									C-15.2-102.1-15.2-102.1-15.3-102c0.1-0.1,0.1-0.1,0.1-0.1c0,0,0,0,0,0c0,0,0,0,0,0c0,0,0,0,0,0c0,0,0,0,0,0
									C-15.4-102.1-15.4-102.1-15.3-102C-15.4-102.1-15.4-102.1-15.3-102C-15.4-102.1-15.4-102.1-15.3-102
									C-15.4-102.1-15.4-102.1-15.3-102C-15.4-102.1-15.4-102.1-15.3-102C-15.3-102-15.3-102-15.3-102z"/>
							</g>
							<g transform="matrix(14.7915,0,0,14.7915,121.733,202.962)">
								<path class="st12" d="M-15.7-102.2l0-0.2h0.3v0.1h-0.2L-15.7-102.2c0.1-0.1,0.1-0.1,0.1-0.1c0,0,0,0,0,0c0,0,0,0,0,0
									c0,0,0,0,0,0c0,0,0,0,0.1,0c0,0,0,0,0,0c0,0,0,0,0,0c0,0,0,0,0,0.1c0,0,0,0,0,0.1c0,0,0,0,0,0.1c0,0,0,0-0.1,0
									c0,0,0,0-0.1,0c0,0,0,0-0.1,0c0,0,0,0,0,0c0,0,0,0,0,0C-15.7-102.1-15.7-102.1-15.7-102.2L-15.7-102.2
									c0.1,0.1,0.1,0.1,0.1,0.1c0,0,0,0,0.1,0c0,0,0,0,0,0c0,0,0,0,0,0c0,0,0,0,0,0c0,0,0,0,0,0c0,0,0,0,0,0c0,0,0,0,0,0
									c0,0,0,0,0,0c0,0,0,0,0,0c0,0,0,0,0,0c0,0,0,0,0,0C-15.6-102.2-15.6-102.2-15.7-102.2C-15.6-102.2-15.6-102.2-15.7-102.2
									L-15.7-102.2z"/>
							</g>
							<g transform="matrix(14.7915,0,0,14.7915,130.753,202.962)">
								<path class="st12" d="M-15.8-102.3C-15.8-102.3-15.8-102.3-15.8-102.3C-15.8-102.3-15.8-102.3-15.8-102.3
									C-15.9-102.3-15.9-102.3-15.8-102.3C-15.9-102.3-15.9-102.3-15.8-102.3l-0.2,0.1c0,0,0,0,0-0.1c0,0,0,0,0,0
									C-15.9-102.4-15.9-102.4-15.8-102.3C-15.8-102.4-15.8-102.4-15.8-102.3C-15.8-102.4-15.7-102.4-15.8-102.3
									c0.1-0.1,0.1-0.1,0.1,0c0,0,0,0,0,0c0,0,0,0,0,0.1c0,0,0,0,0,0.1c0,0,0,0,0,0.1c0,0,0,0-0.1,0c0,0,0,0-0.1,0l0,0h0.2v0.1
									h-0.3v0c0,0,0,0,0,0c0,0,0,0,0,0s0,0,0,0c0,0,0,0,0,0c0,0,0,0,0,0S-15.7-102.3-15.8-102.3
									C-15.7-102.3-15.7-102.3-15.8-102.3C-15.7-102.3-15.7-102.3-15.8-102.3C-15.7-102.3-15.8-102.3-15.8-102.3
									C-15.8-102.3-15.8-102.3-15.8-102.3z"/>
							</g>
							<g transform="matrix(14.7915,0,0,14.7915,139.854,202.962)">
								<path class="st12" d="M-16-102.4v0.4h-0.1v-0.3h-0.1v-0.1h0c0,0,0,0,0,0C-16.1-102.4-16.1-102.4-16-102.4
									C-16.1-102.4-16.1-102.4-16-102.4C-16.1-102.4-16.1-102.4-16-102.4L-16-102.4L-16-102.4z"/>
							</g>
						</g>
						<g transform="matrix(1.20705,0,0,1.20705,-50.0135,72.2202)">
							<g transform="matrix(14.7915,0,0,14.7915,71.9774,202.962)">
								<path class="st12" d="M-14.4-103l0-0.2h0.3v0.1h-0.2L-14.4-103c0.1-0.1,0.1-0.1,0.1-0.1c0,0,0,0,0,0c0,0,0,0,0,0
									c0,0,0,0,0,0c0,0,0,0,0.1,0c0,0,0,0,0,0c0,0,0,0,0,0c0,0,0,0,0,0.1c0,0,0,0,0,0.1c0,0,0,0,0,0.1c0,0,0,0-0.1,0
									c0,0,0,0-0.1,0c0,0,0,0-0.1,0c0,0,0,0,0,0c0,0,0,0,0,0C-14.4-102.9-14.4-102.9-14.4-103L-14.4-103c0.1,0.1,0.1,0.1,0.1,0.1
									c0,0,0,0,0.1,0c0,0,0,0,0,0s0,0,0,0s0,0,0,0c0,0,0,0,0,0s0,0,0,0c0,0,0,0,0,0c0,0,0,0,0,0c0,0,0,0,0,0c0,0,0,0,0,0
									c0,0,0,0,0,0C-14.3-103-14.3-103-14.4-103C-14.3-103-14.3-103-14.4-103L-14.4-103z"/>
							</g>
							<g transform="matrix(14.7915,0,0,14.7915,80.9982,202.962)">
								<path class="st12" d="M-14.6-103C-14.6-103-14.6-102.9-14.6-103C-14.6-102.9-14.6-102.9-14.6-103
									C-14.6-102.9-14.5-102.9-14.6-103C-14.5-102.9-14.5-102.9-14.6-103c0.1,0.1,0.1,0.1,0.1,0.1c0,0,0,0,0,0c0,0,0,0,0,0
									c0,0,0,0,0,0c0,0,0,0,0,0C-14.5-103-14.5-103-14.6-103L-14.6-103l0.1-0.1h0c0,0,0,0,0.1,0c0,0,0,0,0,0c0,0,0,0,0,0
									c0,0,0,0,0,0c0,0,0,0,0,0c0,0,0,0,0,0c0,0,0,0,0,0c0,0,0,0,0,0c0,0,0,0,0,0c0,0,0,0,0,0l-0.1,0c0,0,0,0,0,0s0,0,0,0
									c0,0,0,0,0,0c0,0,0,0,0.1,0c0,0,0,0,0.1,0c0,0,0,0,0,0c0,0,0,0,0,0c0,0,0,0,0,0.1c0,0,0,0,0,0c0,0,0,0,0,0c0,0,0,0,0,0
									c0,0,0,0,0,0c0,0,0,0,0,0c0,0,0,0,0,0c0,0,0,0,0,0c0,0,0,0,0,0c0,0,0,0,0,0.1c0,0,0,0,0,0c0,0,0,0-0.1,0c0,0,0,0-0.1,0
									c0,0,0,0-0.1,0c0,0,0,0-0.1,0C-14.6-102.9-14.6-102.9-14.6-103C-14.7-102.9-14.7-102.9-14.6-103L-14.6-103z"/>
							</g>
							<g transform="matrix(14.7915,0,0,14.7915,90.1562,202.962)">
								<path class="st12" d="M-14.9-102.9C-14.9-102.9-14.9-102.9-14.9-102.9C-14.9-102.9-14.9-102.9-14.9-102.9
									C-14.9-102.9-14.9-102.9-14.9-102.9C-14.9-102.9-14.9-102.9-14.9-102.9C-14.8-102.9-14.8-102.9-14.9-102.9
									C-14.8-102.9-14.8-102.9-14.9-102.9c0.1,0,0.1,0,0.1,0s0,0,0,0c0,0,0,0,0,0C-14.8-102.9-14.8-102.8-14.9-102.9
									C-14.8-102.8-14.8-102.8-14.9-102.9C-14.8-102.8-14.8-102.8-14.9-102.9C-14.9-102.8-14.9-102.8-14.9-102.9
									C-14.9-102.8-14.9-102.8-14.9-102.9C-14.9-102.8-14.9-102.9-14.9-102.9C-14.9-102.9-14.9-102.9-14.9-102.9z"/>
							</g>
							<g transform="matrix(14.7915,0,0,14.7915,94.2079,202.962)">
								<path class="st12" d="M-14.8-102.8v-0.1H-15v-0.1l0.2-0.2h0.1v0.2h0.1v0.1h-0.1L-14.8-102.8L-14.8-102.8z M-14.8-103v-0.2
									l-0.1,0.2H-14.8z"/>
							</g>
							<g transform="matrix(14.7915,0,0,14.7915,103.763,202.962)">
								<path class="st12" d="M-15.1-103.3C-15.1-103.3-15.1-103.3-15.1-103.3C-15-103.3-15-103.3-15.1-103.3c0.1,0,0.1,0,0.1,0
									s0,0,0,0c0,0,0,0,0,0c0,0,0,0,0,0c0,0,0,0,0,0c0,0,0,0,0,0c0,0,0,0,0,0c0,0,0,0,0,0c0,0,0,0,0,0c0,0,0,0,0,0c0,0,0,0,0,0
									c0,0,0,0,0,0c0,0,0,0,0,0.1c0,0,0,0,0,0c0,0,0,0-0.1,0c0,0,0,0-0.1,0s0,0-0.1,0c0,0,0,0-0.1,0c0,0,0,0,0,0c0,0,0,0,0-0.1
									c0,0,0,0,0,0c0,0,0,0,0,0c0,0,0,0,0,0c0,0,0,0,0,0c0,0,0,0,0,0c0,0,0,0,0,0c0,0,0,0,0,0c0,0,0,0,0,0c0,0,0,0,0-0.1
									c0,0,0,0,0,0C-15.2-103.3-15.2-103.3-15.1-103.3C-15.1-103.3-15.1-103.3-15.1-103.3z M-15.1-103.1
									C-15.1-103.1-15.1-103.1-15.1-103.1C-15.1-103.1-15-103.1-15.1-103.1C-15-103.1-15-103.1-15.1-103.1
									C-15-103.1-15-103.1-15.1-103.1C-15-103.2-15-103.2-15.1-103.1C-15-103.2-15-103.2-15.1-103.1c0-0.1,0-0.1,0-0.1
									c0,0,0,0,0,0c0,0,0,0,0,0C-15.1-103.2-15.1-103.2-15.1-103.1C-15.1-103.2-15.1-103.2-15.1-103.1
									C-15.2-103.2-15.2-103.2-15.1-103.1C-15.2-103.1-15.2-103.1-15.1-103.1C-15.1-103.1-15.1-103.1-15.1-103.1
									C-15.1-103.1-15.1-103.1-15.1-103.1C-15.1-103.1-15.1-103.1-15.1-103.1z M-15.1-102.9C-15.1-102.9-15.1-102.9-15.1-102.9
									C-15-102.9-15-102.9-15.1-102.9C-15-102.9-15-102.9-15.1-102.9C-15-102.9-15-102.9-15.1-102.9C-15-103-15-103-15.1-102.9
									C-15-103-15-103-15-103c0,0,0,0,0,0c0,0,0,0,0,0c0,0,0,0,0,0s0,0,0,0C-15.2-103-15.2-103-15.1-102.9
									C-15.2-103-15.2-103-15.1-102.9C-15.2-102.9-15.2-102.9-15.1-102.9C-15.2-102.9-15.2-102.9-15.1-102.9
									C-15.1-102.9-15.1-102.9-15.1-102.9C-15.1-102.9-15.1-102.9-15.1-102.9z"/>
							</g>
							<g transform="matrix(14.7915,0,0,14.7915,113.109,202.962)">
								<path class="st12" d="M-15.3-103.3v0.4h-0.1v-0.3h-0.1v-0.1h0c0,0,0,0,0,0c0,0,0,0,0,0C-15.4-103.2-15.4-103.2-15.3-103.3
									C-15.4-103.2-15.4-103.2-15.3-103.3L-15.3-103.3L-15.3-103.3z"/>
							</g>
							<g transform="matrix(14.7915,0,0,14.7915,118.569,202.962)">
								<path class="st12" d="M-15.6-103C-15.6-103-15.6-102.9-15.6-103C-15.5-102.9-15.5-102.9-15.6-103
									C-15.5-102.9-15.5-102.9-15.6-103C-15.5-102.9-15.5-102.9-15.6-103c0.1,0.1,0.1,0.1,0.1,0.1c0,0,0,0,0,0c0,0,0,0,0,0
									c0,0,0,0,0,0c0,0,0,0,0,0C-15.4-103-15.5-103-15.6-103L-15.6-103l0-0.1h0c0,0,0,0,0.1,0c0,0,0,0,0,0c0,0,0,0,0,0
									c0,0,0,0,0,0c0,0,0,0,0,0c0,0,0,0,0,0c0,0,0,0,0,0c0,0,0,0,0,0c0,0,0,0,0,0c0,0,0,0,0,0l-0.1,0c0,0,0,0,0,0c0,0,0,0,0,0
									c0,0,0,0,0,0c0,0,0,0,0.1,0c0,0,0,0,0.1,0c0,0,0,0,0,0c0,0,0,0,0,0c0,0,0,0,0,0.1c0,0,0,0,0,0c0,0,0,0,0,0c0,0,0,0,0,0
									c0,0,0,0,0,0c0,0,0,0,0,0c0,0,0,0,0,0c0,0,0,0,0,0c0,0,0,0,0,0c0,0,0,0,0,0.1c0,0,0,0,0,0c0,0,0,0-0.1,0c0,0,0,0-0.1,0
									c0,0,0,0-0.1,0c0,0,0,0-0.1,0C-15.6-102.9-15.6-102.9-15.6-103C-15.6-102.9-15.6-102.9-15.6-103L-15.6-103z"/>
							</g>
							<g transform="matrix(14.7915,0,0,14.7915,127.727,202.962)">
								<path class="st12" d="M-15.8-103C-15.8-103-15.8-102.9-15.8-103C-15.8-102.9-15.8-102.9-15.8-103
									C-15.8-102.9-15.7-102.9-15.8-103C-15.7-102.9-15.7-102.9-15.8-103c0.1,0.1,0.1,0.1,0.1,0.1c0,0,0,0,0,0c0,0,0,0,0,0
									c0,0,0,0,0,0c0,0,0,0,0,0C-15.7-103-15.7-103-15.8-103L-15.8-103l0-0.1h0c0,0,0,0,0.1,0c0,0,0,0,0,0c0,0,0,0,0,0
									c0,0,0,0,0,0c0,0,0,0,0,0c0,0,0,0,0,0c0,0,0,0,0,0c0,0,0,0,0,0c0,0,0,0,0,0c0,0,0,0,0,0l-0.1,0c0,0,0,0,0,0c0,0,0,0,0,0
									c0,0,0,0,0,0c0,0,0,0,0.1,0c0,0,0,0,0.1,0c0,0,0,0,0,0c0,0,0,0,0,0c0,0,0,0,0,0.1c0,0,0,0,0,0c0,0,0,0,0,0c0,0,0,0,0,0
									c0,0,0,0,0,0c0,0,0,0,0,0c0,0,0,0,0,0c0,0,0,0,0,0c0,0,0,0,0,0c0,0,0,0,0,0.1c0,0,0,0,0,0c0,0,0,0-0.1,0c0,0,0,0-0.1,0
									c0,0,0,0-0.1,0c0,0,0,0-0.1,0C-15.8-102.9-15.8-102.9-15.8-103C-15.9-102.9-15.9-102.9-15.8-103L-15.8-103z"/>
							</g>
							<g transform="matrix(14.7915,0,0,14.7915,136.885,202.962)">
								<path class="st12" d="M-16-103C-16-103-16-102.9-16-103C-16-102.9-16-102.9-16-103C-16-102.9-16-102.9-16-103
									C-16-102.9-16-102.9-16-103c0.1,0.1,0.1,0.1,0.1,0.1c0,0,0,0,0,0c0,0,0,0,0,0c0,0,0,0,0,0c0,0,0,0,0,0
									C-15.9-103-15.9-103-16-103L-16-103l0.1-0.1h0c0,0,0,0,0.1,0c0,0,0,0,0,0c0,0,0,0,0,0c0,0,0,0,0,0c0,0,0,0,0,0c0,0,0,0,0,0
									c0,0,0,0,0,0c0,0,0,0,0,0c0,0,0,0,0,0c0,0,0,0,0,0l-0.1,0c0,0,0,0,0,0s0,0,0,0c0,0,0,0,0,0c0,0,0,0,0.1,0c0,0,0,0,0.1,0
									c0,0,0,0,0,0c0,0,0,0,0,0c0,0,0,0,0,0.1c0,0,0,0,0,0c0,0,0,0,0,0c0,0,0,0,0,0c0,0,0,0,0,0c0,0,0,0,0,0c0,0,0,0,0,0
									c0,0,0,0,0,0s0,0,0,0c0,0,0,0,0,0.1c0,0,0,0,0,0c0,0,0,0-0.1,0c0,0,0,0-0.1,0c0,0,0,0-0.1,0c0,0,0,0-0.1,0
									C-16.1-102.9-16.1-102.9-16-103C-16.1-102.9-16.1-102.9-16-103L-16-103z"/>
							</g>
						</g>
					</g>
				</g>
			</g>
		</g>
		<path class="st13" d="M583.6,80.9V-56.4H355.2V80.9H583.6z M581.5-55.3H356.3V79.8h225.2V-55.3z"/>
	</g>
	<g>
		<path class="st14" d="M30.3-1467.3h3v11.8h7.1v2.6H30.3V-1467.3z"/>
		<path class="st14" d="M42.7-1462.4c0.7-0.9,2-1.4,3.8-1.4c1.2,0,2.2,0.2,3.1,0.7s1.4,1.3,1.4,2.6v4.9c0,0.3,0,0.7,0,1.2
			c0,0.4,0.1,0.6,0.2,0.7s0.2,0.2,0.4,0.3v0.4h-3c-0.1-0.2-0.1-0.4-0.2-0.6s-0.1-0.4-0.1-0.6c-0.4,0.4-0.8,0.8-1.3,1.1
			c-0.6,0.3-1.3,0.5-2,0.5c-1,0-1.8-0.3-2.4-0.8s-0.9-1.3-0.9-2.3c0-1.3,0.5-2.3,1.5-2.8c0.6-0.3,1.4-0.5,2.4-0.7l0.9-0.1
			c0.5-0.1,0.9-0.1,1.1-0.2c0.4-0.2,0.6-0.4,0.6-0.8c0-0.4-0.2-0.7-0.5-0.9s-0.7-0.2-1.3-0.2c-0.7,0-1.1,0.2-1.4,0.5
			c-0.2,0.2-0.3,0.6-0.4,1h-2.7C42-1461.1,42.2-1461.8,42.7-1462.4z M44.8-1455c0.3,0.2,0.6,0.3,1,0.3c0.6,0,1.2-0.2,1.7-0.5
			s0.8-1,0.8-1.9v-1c-0.2,0.1-0.4,0.2-0.5,0.3s-0.4,0.1-0.7,0.2l-0.6,0.1c-0.6,0.1-1,0.2-1.3,0.4c-0.4,0.3-0.6,0.6-0.6,1.2
			C44.4-1455.5,44.5-1455.2,44.8-1455z"/>
		<path class="st14" d="M58.4-1461.5c-0.9,0-1.6,0.4-1.9,1.2c-0.2,0.4-0.3,1-0.3,1.6v5.8h-2.8v-10.6h2.7v1.6c0.4-0.5,0.7-0.9,1-1.2
			c0.6-0.4,1.3-0.6,2.2-0.6c1.1,0,2,0.3,2.7,0.9s1,1.5,1,2.9v7.2h-2.9v-6.5c0-0.6-0.1-1-0.2-1.3
			C59.7-1461.3,59.2-1461.5,58.4-1461.5z"/>
		<path class="st14" d="M75.3-1467.3v14.4h-2.7v-1.5c-0.4,0.6-0.8,1.1-1.4,1.4s-1.1,0.4-1.9,0.4c-1.2,0-2.3-0.5-3.1-1.5
			s-1.3-2.3-1.3-3.9c0-1.8,0.4-3.2,1.3-4.3s2-1.6,3.4-1.6c0.6,0,1.2,0.1,1.7,0.4s0.9,0.7,1.2,1.2v-5.1H75.3z M67.8-1458.2
			c0,1,0.2,1.8,0.6,2.4c0.4,0.6,1,0.9,1.8,0.9s1.4-0.3,1.8-0.9s0.6-1.3,0.6-2.3c0-1.3-0.3-2.2-1-2.8c-0.4-0.3-0.9-0.5-1.4-0.5
			c-0.8,0-1.4,0.3-1.8,0.9S67.8-1459.1,67.8-1458.2z"/>
		<path class="st14" d="M83.8-1462.4c0.7-0.9,2-1.4,3.8-1.4c1.2,0,2.2,0.2,3.1,0.7s1.4,1.3,1.4,2.6v4.9c0,0.3,0,0.7,0,1.2
			c0,0.4,0.1,0.6,0.2,0.7s0.2,0.2,0.4,0.3v0.4h-3c-0.1-0.2-0.1-0.4-0.2-0.6s-0.1-0.4-0.1-0.6c-0.4,0.4-0.8,0.8-1.3,1.1
			c-0.6,0.3-1.3,0.5-2,0.5c-1,0-1.8-0.3-2.4-0.8s-0.9-1.3-0.9-2.3c0-1.3,0.5-2.3,1.5-2.8c0.6-0.3,1.4-0.5,2.4-0.7l0.9-0.1
			c0.5-0.1,0.9-0.1,1.1-0.2c0.4-0.2,0.6-0.4,0.6-0.8c0-0.4-0.2-0.7-0.5-0.9s-0.7-0.2-1.3-0.2c-0.7,0-1.1,0.2-1.4,0.5
			c-0.2,0.2-0.3,0.6-0.4,1H83C83.1-1461.1,83.4-1461.8,83.8-1462.4z M85.9-1455c0.3,0.2,0.6,0.3,1,0.3c0.6,0,1.2-0.2,1.7-0.5
			s0.8-1,0.8-1.9v-1c-0.2,0.1-0.4,0.2-0.5,0.3s-0.4,0.1-0.7,0.2l-0.6,0.1c-0.6,0.1-1,0.2-1.3,0.4c-0.4,0.3-0.6,0.6-0.6,1.2
			C85.5-1455.5,85.6-1455.2,85.9-1455z"/>
		<path class="st14" d="M99.6-1461.5c-0.9,0-1.6,0.4-1.9,1.2c-0.2,0.4-0.3,1-0.3,1.6v5.8h-2.8v-10.6h2.7v1.6c0.4-0.5,0.7-0.9,1-1.2
			c0.6-0.4,1.3-0.6,2.2-0.6c1.1,0,2,0.3,2.7,0.9s1,1.5,1,2.9v7.2h-2.9v-6.5c0-0.6-0.1-1-0.2-1.3
			C100.8-1461.3,100.3-1461.5,99.6-1461.5z"/>
		<path class="st14" d="M116.5-1467.3v14.4h-2.7v-1.5c-0.4,0.6-0.8,1.1-1.4,1.4s-1.1,0.4-1.9,0.4c-1.2,0-2.3-0.5-3.1-1.5
			s-1.3-2.3-1.3-3.9c0-1.8,0.4-3.2,1.3-4.3s2-1.6,3.4-1.6c0.6,0,1.2,0.1,1.7,0.4s0.9,0.7,1.2,1.2v-5.1H116.5z M109-1458.2
			c0,1,0.2,1.8,0.6,2.4c0.4,0.6,1,0.9,1.8,0.9s1.4-0.3,1.8-0.9s0.6-1.3,0.6-2.3c0-1.3-0.3-2.2-1-2.8c-0.4-0.3-0.9-0.5-1.4-0.5
			c-0.8,0-1.4,0.3-1.8,0.9S109-1459.1,109-1458.2z"/>
		<path class="st14" d="M133.5-1462.4c0.9,0.9,1.3,2.3,1.3,4c0,1.9-0.4,3.3-1.3,4.3s-1.9,1.5-3.3,1.5c-0.8,0-1.5-0.2-2.1-0.6
			c-0.3-0.2-0.6-0.6-0.9-1v5.5h-2.8v-14.8h2.7v1.6c0.3-0.5,0.6-0.8,1-1.1c0.6-0.5,1.4-0.7,2.2-0.7
			C131.5-1463.8,132.6-1463.4,133.5-1462.4z M131.9-1458.3c0-0.8-0.2-1.5-0.6-2.2s-1-0.9-1.8-0.9c-1,0-1.7,0.5-2.1,1.4
			c-0.2,0.5-0.3,1.2-0.3,1.9c0,1.2,0.3,2.1,1,2.6c0.4,0.3,0.9,0.4,1.4,0.4c0.8,0,1.4-0.3,1.8-0.9S131.9-1457.3,131.9-1458.3z"/>
		<path class="st14" d="M142.1-1461c-1.1,0-1.9,0.4-2.3,1.1c-0.2,0.4-0.3,1-0.3,1.9v5.1h-2.8v-10.6h2.7v1.9c0.4-0.7,0.8-1.2,1.1-1.5
			c0.5-0.4,1.2-0.7,2-0.7c0.1,0,0.1,0,0.1,0s0.1,0,0.2,0v2.9c-0.2,0-0.3,0-0.5,0S142.2-1461,142.1-1461z"/>
		<path class="st14" d="M153.4-1462.2c0.9,1.1,1.3,2.5,1.3,4c0,1.6-0.4,2.9-1.3,4s-2.3,1.7-4.1,1.7s-3.2-0.6-4.1-1.7s-1.3-2.4-1.3-4
			c0-1.5,0.4-2.9,1.3-4s2.3-1.7,4.1-1.7S152.5-1463.4,153.4-1462.2z M149.3-1461.6c-0.8,0-1.4,0.3-1.9,0.9s-0.7,1.4-0.7,2.5
			s0.2,1.9,0.7,2.5s1.1,0.9,1.9,0.9s1.4-0.3,1.9-0.9s0.7-1.4,0.7-2.5s-0.2-1.9-0.7-2.5S150.1-1461.6,149.3-1461.6z"/>
		<path class="st14" d="M165.7-1462.4c0.9,0.9,1.3,2.3,1.3,4c0,1.9-0.4,3.3-1.3,4.3s-1.9,1.5-3.3,1.5c-0.8,0-1.5-0.2-2.1-0.6
			c-0.3-0.2-0.6-0.6-0.9-1v5.5h-2.8v-14.8h2.7v1.6c0.3-0.5,0.6-0.8,1-1.1c0.6-0.5,1.4-0.7,2.2-0.7
			C163.8-1463.8,164.8-1463.4,165.7-1462.4z M164.1-1458.3c0-0.8-0.2-1.5-0.6-2.2s-1-0.9-1.8-0.9c-1,0-1.7,0.5-2.1,1.4
			c-0.2,0.5-0.3,1.2-0.3,1.9c0,1.2,0.3,2.1,1,2.6c0.4,0.3,0.9,0.4,1.4,0.4c0.8,0,1.4-0.3,1.8-0.9S164.1-1457.3,164.1-1458.3z"/>
		<path class="st14" d="M178.1-1456.1c-0.1,0.6-0.4,1.3-1,1.9c-0.9,1-2.2,1.6-3.8,1.6c-1.4,0-2.5-0.4-3.6-1.3s-1.6-2.3-1.6-4.3
			c0-1.8,0.5-3.3,1.4-4.2s2.1-1.5,3.6-1.5c0.9,0,1.7,0.2,2.4,0.5s1.3,0.9,1.8,1.6c0.4,0.6,0.7,1.4,0.8,2.2c0.1,0.5,0.1,1.2,0.1,2.1
			h-7.3c0,1.1,0.4,1.8,1,2.2c0.4,0.3,0.8,0.4,1.4,0.4c0.6,0,1-0.2,1.4-0.5c0.2-0.2,0.4-0.4,0.5-0.7H178.1z M175.3-1459.3
			c0-0.7-0.3-1.3-0.7-1.7s-0.9-0.6-1.5-0.6c-0.6,0-1.1,0.2-1.5,0.6s-0.6,1-0.7,1.6H175.3z"/>
		<path class="st14" d="M185.4-1461c-1.1,0-1.9,0.4-2.3,1.1c-0.2,0.4-0.3,1-0.3,1.9v5.1h-2.8v-10.6h2.7v1.9c0.4-0.7,0.8-1.2,1.1-1.5
			c0.5-0.4,1.2-0.7,2-0.7c0.1,0,0.1,0,0.1,0s0.1,0,0.2,0v2.9c-0.2,0-0.3,0-0.5,0S185.5-1461,185.4-1461z"/>
		<path class="st14" d="M192.8-1454.9v2.1l-1.3,0c-1.3,0-2.2-0.2-2.7-0.7c-0.3-0.3-0.5-0.8-0.5-1.5v-6.6h-1.5v-2h1.5v-3h2.8v3h1.7v2
			H191v5.6c0,0.4,0.1,0.7,0.2,0.8s0.4,0.2,1,0.2c0.1,0,0.2,0,0.3,0S192.7-1454.9,192.8-1454.9z"/>
		<path class="st14" d="M198.9-1455.7l2.2-7.9h3l-3.7,10.5c-0.7,2-1.3,3.3-1.7,3.8s-1.2,0.7-2.5,0.7c-0.2,0-0.4,0-0.6,0
			s-0.4,0-0.7,0v-2.2l0.4,0c0.3,0,0.5,0,0.8,0s0.5-0.1,0.6-0.2c0.2-0.1,0.3-0.3,0.5-0.7s0.2-0.6,0.2-0.6l-3.9-11.1h3.1L198.9-1455.7
			z"/>
		<path class="st14" d="M220.1-1462.4c0.9,0.9,1.3,2.3,1.3,4c0,1.9-0.4,3.3-1.3,4.3s-1.9,1.5-3.3,1.5c-0.8,0-1.5-0.2-2.1-0.6
			c-0.3-0.2-0.6-0.6-0.9-1v5.5h-2.8v-14.8h2.7v1.6c0.3-0.5,0.6-0.8,1-1.1c0.6-0.5,1.4-0.7,2.2-0.7
			C218.2-1463.8,219.3-1463.4,220.1-1462.4z M218.6-1458.3c0-0.8-0.2-1.5-0.6-2.2s-1-0.9-1.8-0.9c-1,0-1.7,0.5-2.1,1.4
			c-0.2,0.5-0.3,1.2-0.3,1.9c0,1.2,0.3,2.1,1,2.6c0.4,0.3,0.9,0.4,1.4,0.4c0.8,0,1.4-0.3,1.8-0.9S218.6-1457.3,218.6-1458.3z"/>
		<path class="st14" d="M223.5-1467.3h2.8v14.4h-2.8V-1467.3z"/>
		<path class="st14" d="M229.4-1462.4c0.7-0.9,2-1.4,3.8-1.4c1.2,0,2.2,0.2,3.1,0.7s1.4,1.3,1.4,2.6v4.9c0,0.3,0,0.7,0,1.2
			c0,0.4,0.1,0.6,0.2,0.7s0.2,0.2,0.4,0.3v0.4h-3c-0.1-0.2-0.1-0.4-0.2-0.6s-0.1-0.4-0.1-0.6c-0.4,0.4-0.8,0.8-1.3,1.1
			c-0.6,0.3-1.3,0.5-2,0.5c-1,0-1.8-0.3-2.4-0.8s-0.9-1.3-0.9-2.3c0-1.3,0.5-2.3,1.5-2.8c0.6-0.3,1.4-0.5,2.4-0.7l0.9-0.1
			c0.5-0.1,0.9-0.1,1.1-0.2c0.4-0.2,0.6-0.4,0.6-0.8c0-0.4-0.2-0.7-0.5-0.9s-0.7-0.2-1.3-0.2c-0.7,0-1.1,0.2-1.4,0.5
			c-0.2,0.2-0.3,0.6-0.4,1h-2.7C228.7-1461.1,228.9-1461.8,229.4-1462.4z M231.5-1455c0.3,0.2,0.6,0.3,1,0.3c0.6,0,1.2-0.2,1.7-0.5
			s0.8-1,0.8-1.9v-1c-0.2,0.1-0.4,0.2-0.5,0.3s-0.4,0.1-0.7,0.2l-0.6,0.1c-0.6,0.1-1,0.2-1.3,0.4c-0.4,0.3-0.6,0.6-0.6,1.2
			C231.1-1455.5,231.2-1455.2,231.5-1455z"/>
		<path class="st14" d="M245-1454.9v2.1l-1.3,0c-1.3,0-2.2-0.2-2.7-0.7c-0.3-0.3-0.5-0.8-0.5-1.5v-6.6H239v-2h1.5v-3h2.8v3h1.7v2
			h-1.7v5.6c0,0.4,0.1,0.7,0.2,0.8s0.4,0.2,1,0.2c0.1,0,0.2,0,0.3,0S244.9-1454.9,245-1454.9z"/>
		<path class="st14" d="M251.8-1467.4v2.3c-0.2,0-0.4,0-0.8,0s-0.6,0.1-0.8,0.2s-0.2,0.4-0.2,0.6v0.9h1.8v2H250v8.6h-2.8v-8.6h-1.6
			v-2h1.5v-0.7c0-1.1,0.2-1.9,0.6-2.4c0.4-0.6,1.4-1,2.9-1c0.2,0,0.3,0,0.5,0S251.5-1467.4,251.8-1467.4z"/>
		<path class="st14" d="M262.3-1462.2c0.9,1.1,1.3,2.5,1.3,4c0,1.6-0.4,2.9-1.3,4s-2.3,1.7-4.1,1.7s-3.2-0.6-4.1-1.7s-1.3-2.4-1.3-4
			c0-1.5,0.4-2.9,1.3-4s2.3-1.7,4.1-1.7S261.4-1463.4,262.3-1462.2z M258.2-1461.6c-0.8,0-1.4,0.3-1.9,0.9s-0.7,1.4-0.7,2.5
			s0.2,1.9,0.7,2.5s1.1,0.9,1.9,0.9s1.4-0.3,1.9-0.9s0.7-1.4,0.7-2.5s-0.2-1.9-0.7-2.5S259-1461.6,258.2-1461.6z"/>
		<path class="st14" d="M271-1461c-1.1,0-1.9,0.4-2.3,1.1c-0.2,0.4-0.3,1-0.3,1.9v5.1h-2.8v-10.6h2.7v1.9c0.4-0.7,0.8-1.2,1.1-1.5
			c0.5-0.4,1.2-0.7,2-0.7c0.1,0,0.1,0,0.1,0s0.1,0,0.2,0v2.9c-0.2,0-0.3,0-0.5,0S271.1-1461,271-1461z"/>
		<path class="st14" d="M279.4-1460.7c-0.2-0.5-0.7-0.8-1.4-0.8c-0.8,0-1.3,0.3-1.6,0.8c-0.1,0.3-0.2,0.7-0.2,1.3v6.4h-2.8v-10.6
			h2.7v1.6c0.3-0.6,0.7-0.9,1-1.2c0.5-0.4,1.2-0.6,2.1-0.6c0.8,0,1.5,0.2,2,0.5c0.4,0.3,0.7,0.8,0.9,1.3c0.4-0.6,0.8-1.1,1.4-1.4
			c0.6-0.3,1.2-0.4,1.9-0.4c0.5,0,0.9,0.1,1.4,0.3s0.9,0.5,1.2,1c0.3,0.4,0.5,0.8,0.6,1.4c0.1,0.4,0.1,0.9,0.1,1.6l0,6.7h-2.9v-6.8
			c0-0.4-0.1-0.7-0.2-1c-0.2-0.5-0.7-0.7-1.4-0.7c-0.8,0-1.3,0.3-1.6,1c-0.1,0.3-0.2,0.7-0.2,1.2v6.3h-2.8v-6.3
			C279.6-1459.9,279.5-1460.4,279.4-1460.7z"/>
	</g>
	<g>
		<path class="st3" d="M41-1328.5h-5.3l-1,3h-3.1l5.1-14.4h3.4l5.1,14.4H42L41-1328.5z M40.2-1330.9l-1.8-5.7l-1.9,5.7H40.2z"/>
		<path class="st3" d="M52.6-1325.2c-0.9,0-1.6-0.2-2.1-0.5c-0.3-0.2-0.7-0.6-1-1.1v1.3h-2.7v-14.4h2.8v5.1c0.4-0.5,0.7-0.9,1.2-1.1
			c0.5-0.3,1.1-0.5,1.9-0.5c1.4,0,2.5,0.5,3.3,1.5s1.2,2.3,1.2,3.9c0,1.7-0.4,3-1.2,4.1S54-1325.2,52.6-1325.2z M54.1-1330.7
			c0-0.8-0.1-1.4-0.3-1.9c-0.4-0.9-1.1-1.4-2.1-1.4c-1,0-1.7,0.5-2.1,1.4c-0.2,0.5-0.3,1.1-0.3,1.9c0,0.9,0.2,1.7,0.6,2.3
			s1,0.9,1.8,0.9c0.7,0,1.3-0.3,1.7-0.9S54.1-1329.7,54.1-1330.7z"/>
		<path class="st3" d="M67.9-1334.8c0.9,1.1,1.3,2.5,1.3,4c0,1.6-0.4,2.9-1.3,4s-2.3,1.7-4.1,1.7s-3.2-0.6-4.1-1.7s-1.3-2.4-1.3-4
			c0-1.5,0.4-2.9,1.3-4s2.3-1.7,4.1-1.7S67-1335.9,67.9-1334.8z M63.8-1334.1c-0.8,0-1.4,0.3-1.9,0.9s-0.7,1.4-0.7,2.5
			s0.2,1.9,0.7,2.5s1.1,0.9,1.9,0.9s1.4-0.3,1.9-0.9s0.7-1.4,0.7-2.5s-0.2-1.9-0.7-2.5S64.6-1334.1,63.8-1334.1z"/>
		<path class="st3" d="M78.1-1327c0,0-0.1,0.1-0.2,0.3s-0.2,0.3-0.4,0.4c-0.4,0.4-0.9,0.7-1.3,0.8s-0.9,0.2-1.4,0.2
			c-1.6,0-2.6-0.6-3.2-1.7c-0.3-0.6-0.5-1.5-0.5-2.8v-6.4H74v6.4c0,0.6,0.1,1.1,0.2,1.4c0.3,0.5,0.8,0.8,1.5,0.8c1,0,1.6-0.4,2-1.2
			c0.2-0.4,0.3-1,0.3-1.7v-5.8h2.8v10.6h-2.7V-1327z"/>
		<path class="st3" d="M88.4-1327.5v2.1l-1.3,0c-1.3,0-2.2-0.2-2.7-0.7c-0.3-0.3-0.5-0.8-0.5-1.5v-6.6h-1.5v-2h1.5v-3h2.8v3h1.7v2
			h-1.7v5.6c0,0.4,0.1,0.7,0.2,0.8s0.4,0.2,1,0.2c0.1,0,0.2,0,0.3,0S88.3-1327.5,88.4-1327.5z"/>
		<path class="st3" d="M100.6-1327.5v2.1l-1.3,0c-1.3,0-2.2-0.2-2.7-0.7c-0.3-0.3-0.5-0.8-0.5-1.5v-6.6h-1.5v-2h1.5v-3h2.8v3h1.7v2
			h-1.7v5.6c0,0.4,0.1,0.7,0.2,0.8s0.4,0.2,1,0.2c0.1,0,0.2,0,0.3,0S100.5-1327.5,100.6-1327.5z"/>
		<path class="st3" d="M112-1331.8v6.2h-2.8v-6.5c0-0.6-0.1-1-0.3-1.4c-0.3-0.5-0.7-0.7-1.4-0.7c-0.7,0-1.3,0.2-1.7,0.7
			s-0.6,1.2-0.6,2.1v5.8h-2.8v-14.3h2.8v5.1c0.4-0.6,0.9-1,1.4-1.3s1.1-0.4,1.7-0.4c0.7,0,1.3,0.1,1.8,0.3s1,0.6,1.3,1
			c0.3,0.4,0.5,0.8,0.5,1.2S112-1332.7,112-1331.8z"/>
		<path class="st3" d="M117.4-1340v2.6h-2.8v-2.6H117.4z M117.4-1336.1v10.6h-2.8v-10.6H117.4z"/>
		<path class="st3" d="M127.5-1335.7c0.8,0.5,1.3,1.5,1.4,2.8h-2.8c0-0.4-0.1-0.6-0.3-0.8c-0.3-0.4-0.8-0.6-1.6-0.6
			c-0.6,0-1,0.1-1.3,0.3s-0.4,0.4-0.4,0.7c0,0.3,0.1,0.6,0.4,0.7c0.3,0.1,1.2,0.4,2.9,0.8c1.1,0.3,1.9,0.7,2.5,1.2
			c0.5,0.5,0.8,1.2,0.8,2c0,1.1-0.4,1.9-1.2,2.6s-2,1-3.6,1c-1.7,0-2.9-0.4-3.7-1.1s-1.2-1.6-1.2-2.7h2.8c0.1,0.5,0.2,0.8,0.4,1.1
			c0.3,0.4,1,0.6,1.9,0.6c0.5,0,1-0.1,1.3-0.2s0.5-0.4,0.5-0.7c0-0.3-0.1-0.6-0.4-0.7s-1.2-0.4-2.9-0.8c-1.2-0.3-2.1-0.7-2.5-1.1
			c-0.5-0.4-0.7-1.1-0.7-1.9c0-1,0.4-1.8,1.2-2.5s1.9-1.1,3.3-1.1C125.5-1336.5,126.6-1336.2,127.5-1335.7z"/>
		<path class="st3" d="M146.5-1339.9v14.4h-2.7v-1.5c-0.4,0.6-0.8,1.1-1.4,1.4s-1.1,0.4-1.9,0.4c-1.2,0-2.3-0.5-3.1-1.5
			s-1.3-2.3-1.3-3.9c0-1.8,0.4-3.2,1.3-4.3s2-1.6,3.4-1.6c0.6,0,1.2,0.1,1.7,0.4s0.9,0.7,1.2,1.2v-5.1H146.5z M139-1330.8
			c0,1,0.2,1.8,0.6,2.4c0.4,0.6,1,0.9,1.8,0.9s1.4-0.3,1.8-0.9s0.6-1.3,0.6-2.3c0-1.3-0.3-2.2-1-2.8c-0.4-0.3-0.9-0.5-1.4-0.5
			c-0.8,0-1.4,0.3-1.8,0.9S139-1331.7,139-1330.8z"/>
		<path class="st3" d="M149.4-1335c0.7-0.9,2-1.4,3.8-1.4c1.2,0,2.2,0.2,3.1,0.7s1.4,1.3,1.4,2.6v4.9c0,0.3,0,0.7,0,1.2
			c0,0.4,0.1,0.6,0.2,0.7s0.2,0.2,0.4,0.3v0.4h-3c-0.1-0.2-0.1-0.4-0.2-0.6s-0.1-0.4-0.1-0.6c-0.4,0.4-0.8,0.8-1.3,1.1
			c-0.6,0.3-1.3,0.5-2,0.5c-1,0-1.8-0.3-2.4-0.8s-0.9-1.3-0.9-2.3c0-1.3,0.5-2.3,1.5-2.8c0.6-0.3,1.4-0.5,2.4-0.7l0.9-0.1
			c0.5-0.1,0.9-0.1,1.1-0.2c0.4-0.2,0.6-0.4,0.6-0.8c0-0.4-0.2-0.7-0.5-0.9s-0.7-0.2-1.3-0.2c-0.7,0-1.1,0.2-1.4,0.5
			c-0.2,0.2-0.3,0.6-0.4,1h-2.7C148.7-1333.6,149-1334.4,149.4-1335z M151.5-1327.5c0.3,0.2,0.6,0.3,1,0.3c0.6,0,1.2-0.2,1.7-0.5
			s0.8-1,0.8-1.9v-1c-0.2,0.1-0.4,0.2-0.5,0.3s-0.4,0.1-0.7,0.2l-0.6,0.1c-0.6,0.1-1,0.2-1.3,0.4c-0.4,0.3-0.6,0.6-0.6,1.2
			C151.1-1328.1,151.2-1327.7,151.5-1327.5z"/>
		<path class="st3" d="M165-1327.5v2.1l-1.3,0c-1.3,0-2.2-0.2-2.7-0.7c-0.3-0.3-0.5-0.8-0.5-1.5v-6.6h-1.5v-2h1.5v-3h2.8v3h1.7v2
			h-1.7v5.6c0,0.4,0.1,0.7,0.2,0.8s0.4,0.2,1,0.2c0.1,0,0.2,0,0.3,0S164.9-1327.5,165-1327.5z"/>
		<path class="st3" d="M167.2-1335c0.7-0.9,2-1.4,3.8-1.4c1.2,0,2.2,0.2,3.1,0.7s1.4,1.3,1.4,2.6v4.9c0,0.3,0,0.7,0,1.2
			c0,0.4,0.1,0.6,0.2,0.7s0.2,0.2,0.4,0.3v0.4h-3c-0.1-0.2-0.1-0.4-0.2-0.6s-0.1-0.4-0.1-0.6c-0.4,0.4-0.8,0.8-1.3,1.1
			c-0.6,0.3-1.3,0.5-2,0.5c-1,0-1.8-0.3-2.4-0.8s-0.9-1.3-0.9-2.3c0-1.3,0.5-2.3,1.5-2.8c0.6-0.3,1.4-0.5,2.4-0.7l0.9-0.1
			c0.5-0.1,0.9-0.1,1.1-0.2c0.4-0.2,0.6-0.4,0.6-0.8c0-0.4-0.2-0.7-0.5-0.9s-0.7-0.2-1.3-0.2c-0.7,0-1.1,0.2-1.4,0.5
			c-0.2,0.2-0.3,0.6-0.4,1h-2.7C166.5-1333.6,166.7-1334.4,167.2-1335z M169.3-1327.5c0.3,0.2,0.6,0.3,1,0.3c0.6,0,1.2-0.2,1.7-0.5
			s0.8-1,0.8-1.9v-1c-0.2,0.1-0.4,0.2-0.5,0.3s-0.4,0.1-0.7,0.2l-0.6,0.1c-0.6,0.1-1,0.2-1.3,0.4c-0.4,0.3-0.6,0.6-0.6,1.2
			C168.9-1328.1,169-1327.7,169.3-1327.5z"/>
		<path class="st3" d="M185.3-1335.7c0.8,0.5,1.3,1.5,1.4,2.8h-2.8c0-0.4-0.1-0.6-0.3-0.8c-0.3-0.4-0.8-0.6-1.6-0.6
			c-0.6,0-1,0.1-1.3,0.3s-0.4,0.4-0.4,0.7c0,0.3,0.1,0.6,0.4,0.7c0.3,0.1,1.2,0.4,2.9,0.8c1.1,0.3,1.9,0.7,2.5,1.2
			c0.5,0.5,0.8,1.2,0.8,2c0,1.1-0.4,1.9-1.2,2.6s-2,1-3.6,1c-1.7,0-2.9-0.4-3.7-1.1s-1.2-1.6-1.2-2.7h2.8c0.1,0.5,0.2,0.8,0.4,1.1
			c0.3,0.4,1,0.6,1.9,0.6c0.5,0,1-0.1,1.3-0.2s0.5-0.4,0.5-0.7c0-0.3-0.1-0.6-0.4-0.7s-1.2-0.4-2.9-0.8c-1.2-0.3-2.1-0.7-2.5-1.1
			c-0.5-0.4-0.7-1.1-0.7-1.9c0-1,0.4-1.8,1.2-2.5s1.9-1.1,3.3-1.1C183.3-1336.5,184.4-1336.2,185.3-1335.7z"/>
		<path class="st3" d="M198.2-1328.6c-0.1,0.6-0.4,1.3-1,1.9c-0.9,1-2.2,1.6-3.8,1.6c-1.4,0-2.5-0.4-3.6-1.3s-1.6-2.3-1.6-4.3
			c0-1.8,0.5-3.3,1.4-4.2s2.1-1.5,3.6-1.5c0.9,0,1.7,0.2,2.4,0.5s1.3,0.9,1.8,1.6c0.4,0.6,0.7,1.4,0.8,2.2c0.1,0.5,0.1,1.2,0.1,2.1
			H191c0,1.1,0.4,1.8,1,2.2c0.4,0.3,0.8,0.4,1.4,0.4c0.6,0,1-0.2,1.4-0.5c0.2-0.2,0.4-0.4,0.5-0.7H198.2z M195.4-1331.9
			c0-0.7-0.3-1.3-0.7-1.7s-0.9-0.6-1.5-0.6c-0.6,0-1.1,0.2-1.5,0.6s-0.6,1-0.7,1.6H195.4z"/>
		<path class="st3" d="M205.1-1327.5v2.1l-1.3,0c-1.3,0-2.2-0.2-2.7-0.7c-0.3-0.3-0.5-0.8-0.5-1.5v-6.6h-1.5v-2h1.5v-3h2.8v3h1.7v2
			h-1.7v5.6c0,0.4,0.1,0.7,0.2,0.8s0.4,0.2,1,0.2c0.1,0,0.2,0,0.3,0S205-1327.5,205.1-1327.5z"/>
	</g>
	<g>
		<path class="st3" d="M46-1220.5H49l-4.1,14.4h-2.9l-1.7-8.4l-0.5-2.8l-0.5,2.8l-1.7,8.4h-2.8l-4.1-14.4h3.2l1.9,8.2l0.4,2.3
			l0.4-2.2l1.6-8.3h3.2l1.7,8.2l0.4,2.3l0.4-2.2L46-1220.5z"/>
		<path class="st3" d="M60.2-1212.4v6.2h-2.8v-6.5c0-0.6-0.1-1-0.3-1.4c-0.3-0.5-0.7-0.7-1.4-0.7c-0.7,0-1.3,0.2-1.7,0.7
			c-0.4,0.5-0.6,1.2-0.6,2.1v5.8h-2.8v-14.3h2.8v5.1c0.4-0.6,0.9-1,1.4-1.3s1.1-0.4,1.7-0.4c0.7,0,1.3,0.1,1.8,0.3
			c0.5,0.2,1,0.6,1.3,1c0.3,0.4,0.5,0.8,0.5,1.2S60.2-1213.3,60.2-1212.4z"/>
		<path class="st3" d="M71.7-1215.4c0.9,1.1,1.3,2.5,1.3,4c0,1.6-0.4,2.9-1.3,4c-0.9,1.1-2.3,1.7-4.1,1.7s-3.2-0.6-4.1-1.7
			c-0.9-1.1-1.3-2.4-1.3-4c0-1.5,0.4-2.9,1.3-4c0.9-1.1,2.3-1.7,4.1-1.7S70.8-1216.6,71.7-1215.4z M67.6-1214.8
			c-0.8,0-1.4,0.3-1.9,0.9s-0.7,1.4-0.7,2.5c0,1.1,0.2,1.9,0.7,2.5c0.4,0.6,1.1,0.9,1.9,0.9s1.4-0.3,1.9-0.9
			c0.4-0.6,0.7-1.4,0.7-2.5c0-1.1-0.2-1.9-0.7-2.5S68.4-1214.8,67.6-1214.8z"/>
		<path class="st3" d="M89.8-1213H87c-0.1-0.4-0.2-0.8-0.4-1.1c-0.3-0.4-0.8-0.6-1.5-0.6c-0.9,0-1.6,0.5-1.9,1.4
			c-0.2,0.5-0.3,1.2-0.3,2c0,0.8,0.1,1.4,0.3,1.9c0.3,0.9,1,1.3,1.9,1.3c0.7,0,1.1-0.2,1.4-0.5s0.4-0.8,0.5-1.4h2.8
			c-0.1,0.8-0.4,1.6-0.9,2.4c-0.9,1.2-2.2,1.8-3.9,1.8s-3-0.5-3.8-1.5s-1.2-2.3-1.2-4c0-1.8,0.4-3.3,1.3-4.3s2.1-1.5,3.7-1.5
			c1.3,0,2.4,0.3,3.3,0.9C89.2-1215.5,89.7-1214.5,89.8-1213z"/>
		<path class="st3" d="M92.1-1215.6c0.7-0.9,2-1.4,3.8-1.4c1.2,0,2.2,0.2,3.1,0.7c0.9,0.5,1.4,1.3,1.4,2.6v4.9c0,0.3,0,0.7,0,1.2
			c0,0.4,0.1,0.6,0.2,0.7c0.1,0.1,0.2,0.2,0.4,0.3v0.4h-3c-0.1-0.2-0.1-0.4-0.2-0.6c0-0.2-0.1-0.4-0.1-0.6c-0.4,0.4-0.8,0.8-1.3,1.1
			c-0.6,0.3-1.3,0.5-2,0.5c-1,0-1.8-0.3-2.4-0.8c-0.6-0.6-0.9-1.3-0.9-2.3c0-1.3,0.5-2.3,1.5-2.8c0.6-0.3,1.4-0.5,2.4-0.7l0.9-0.1
			c0.5-0.1,0.9-0.1,1.1-0.2c0.4-0.2,0.6-0.4,0.6-0.8c0-0.4-0.2-0.7-0.5-0.9s-0.7-0.2-1.3-0.2c-0.7,0-1.1,0.2-1.4,0.5
			c-0.2,0.2-0.3,0.6-0.4,1h-2.7C91.4-1214.3,91.7-1215,92.1-1215.6z M94.2-1208.1c0.3,0.2,0.6,0.3,1,0.3c0.6,0,1.2-0.2,1.7-0.5
			s0.8-1,0.8-1.9v-1c-0.2,0.1-0.4,0.2-0.5,0.3s-0.4,0.1-0.7,0.2l-0.6,0.1c-0.6,0.1-1,0.2-1.3,0.4c-0.4,0.3-0.6,0.6-0.6,1.2
			C93.8-1208.7,93.9-1208.3,94.2-1208.1z"/>
		<path class="st3" d="M107.9-1214.7c-0.9,0-1.6,0.4-1.9,1.2c-0.2,0.4-0.3,1-0.3,1.6v5.8h-2.8v-10.6h2.7v1.6c0.4-0.5,0.7-0.9,1-1.2
			c0.6-0.4,1.3-0.6,2.2-0.6c1.1,0,2,0.3,2.7,0.9s1,1.5,1,2.9v7.2h-2.9v-6.5c0-0.6-0.1-1-0.2-1.3
			C109.2-1214.4,108.6-1214.7,107.9-1214.7z"/>
		<path class="st3" d="M121-1215.6c0.7-0.9,2-1.4,3.8-1.4c1.2,0,2.2,0.2,3.1,0.7c0.9,0.5,1.4,1.3,1.4,2.6v4.9c0,0.3,0,0.7,0,1.2
			c0,0.4,0.1,0.6,0.2,0.7c0.1,0.1,0.2,0.2,0.4,0.3v0.4h-3c-0.1-0.2-0.1-0.4-0.2-0.6c0-0.2-0.1-0.4-0.1-0.6c-0.4,0.4-0.8,0.8-1.3,1.1
			c-0.6,0.3-1.3,0.5-2,0.5c-1,0-1.8-0.3-2.4-0.8c-0.6-0.6-0.9-1.3-0.9-2.3c0-1.3,0.5-2.3,1.5-2.8c0.6-0.3,1.4-0.5,2.4-0.7l0.9-0.1
			c0.5-0.1,0.9-0.1,1.1-0.2c0.4-0.2,0.6-0.4,0.6-0.8c0-0.4-0.2-0.7-0.5-0.9s-0.7-0.2-1.3-0.2c-0.7,0-1.1,0.2-1.4,0.5
			c-0.2,0.2-0.3,0.6-0.4,1h-2.7C120.3-1214.3,120.6-1215,121-1215.6z M123.1-1208.1c0.3,0.2,0.6,0.3,1,0.3c0.6,0,1.2-0.2,1.7-0.5
			s0.8-1,0.8-1.9v-1c-0.2,0.1-0.4,0.2-0.5,0.3s-0.4,0.1-0.7,0.2l-0.6,0.1c-0.6,0.1-1,0.2-1.3,0.4c-0.4,0.3-0.6,0.6-0.6,1.2
			C122.7-1208.7,122.8-1208.3,123.1-1208.1z"/>
		<path class="st3" d="M141-1213h-2.9c-0.1-0.4-0.2-0.8-0.4-1.1c-0.3-0.4-0.8-0.6-1.5-0.6c-0.9,0-1.6,0.5-1.9,1.4
			c-0.2,0.5-0.3,1.2-0.3,2c0,0.8,0.1,1.4,0.3,1.9c0.3,0.9,1,1.3,1.9,1.3c0.7,0,1.1-0.2,1.4-0.5s0.4-0.8,0.5-1.4h2.8
			c-0.1,0.8-0.4,1.6-0.9,2.4c-0.9,1.2-2.2,1.8-3.9,1.8s-3-0.5-3.8-1.5s-1.2-2.3-1.2-4c0-1.8,0.4-3.3,1.3-4.3s2.1-1.5,3.7-1.5
			c1.3,0,2.4,0.3,3.3,0.9C140.3-1215.5,140.8-1214.5,141-1213z"/>
		<path class="st3" d="M152.1-1213h-2.9c-0.1-0.4-0.2-0.8-0.4-1.1c-0.3-0.4-0.8-0.6-1.5-0.6c-0.9,0-1.6,0.5-1.9,1.4
			c-0.2,0.5-0.3,1.2-0.3,2c0,0.8,0.1,1.4,0.3,1.9c0.3,0.9,1,1.3,1.9,1.3c0.7,0,1.1-0.2,1.4-0.5s0.4-0.8,0.5-1.4h2.8
			c-0.1,0.8-0.4,1.6-0.9,2.4c-0.9,1.2-2.2,1.8-3.9,1.8s-3-0.5-3.8-1.5s-1.2-2.3-1.2-4c0-1.8,0.4-3.3,1.3-4.3s2.1-1.5,3.7-1.5
			c1.3,0,2.4,0.3,3.3,0.9C151.4-1215.5,151.9-1214.5,152.1-1213z"/>
		<path class="st3" d="M163.1-1209.3c-0.1,0.6-0.4,1.3-1,1.9c-0.9,1-2.2,1.6-3.8,1.6c-1.4,0-2.5-0.4-3.6-1.3c-1-0.9-1.6-2.3-1.6-4.3
			c0-1.8,0.5-3.3,1.4-4.2c0.9-1,2.1-1.5,3.6-1.5c0.9,0,1.7,0.2,2.4,0.5s1.3,0.9,1.8,1.6c0.4,0.6,0.7,1.4,0.8,2.2
			c0.1,0.5,0.1,1.2,0.1,2.1H156c0,1.1,0.4,1.8,1,2.2c0.4,0.3,0.8,0.4,1.4,0.4c0.6,0,1-0.2,1.4-0.5c0.2-0.2,0.4-0.4,0.5-0.7H163.1z
			 M160.4-1212.5c0-0.7-0.3-1.3-0.7-1.7s-0.9-0.6-1.5-0.6c-0.6,0-1.1,0.2-1.5,0.6c-0.4,0.4-0.6,1-0.7,1.6H160.4z"/>
		<path class="st3" d="M172.5-1216.3c0.8,0.5,1.3,1.5,1.4,2.8h-2.8c0-0.4-0.1-0.6-0.3-0.8c-0.3-0.4-0.8-0.6-1.6-0.6
			c-0.6,0-1,0.1-1.3,0.3c-0.3,0.2-0.4,0.4-0.4,0.7c0,0.3,0.1,0.5,0.4,0.7c0.3,0.1,1.2,0.4,2.9,0.8c1.1,0.3,1.9,0.7,2.5,1.2
			c0.5,0.5,0.8,1.2,0.8,2c0,1.1-0.4,1.9-1.2,2.6c-0.8,0.7-2,1-3.6,1c-1.7,0-2.9-0.4-3.7-1.1c-0.8-0.7-1.2-1.6-1.2-2.7h2.8
			c0.1,0.5,0.2,0.8,0.4,1.1c0.3,0.4,1,0.6,1.9,0.6c0.5,0,1-0.1,1.3-0.2c0.3-0.2,0.5-0.4,0.5-0.7c0-0.3-0.1-0.6-0.4-0.7
			c-0.3-0.2-1.2-0.4-2.9-0.8c-1.2-0.3-2.1-0.7-2.5-1.1c-0.5-0.4-0.7-1.1-0.7-1.9c0-1,0.4-1.8,1.2-2.5c0.8-0.7,1.9-1.1,3.3-1.1
			C170.5-1217.1,171.6-1216.8,172.5-1216.3z"/>
		<path class="st3" d="M183.6-1216.3c0.8,0.5,1.3,1.5,1.4,2.8h-2.8c0-0.4-0.1-0.6-0.3-0.8c-0.3-0.4-0.8-0.6-1.6-0.6
			c-0.6,0-1,0.1-1.3,0.3c-0.3,0.2-0.4,0.4-0.4,0.7c0,0.3,0.1,0.5,0.4,0.7c0.3,0.1,1.2,0.4,2.9,0.8c1.1,0.3,1.9,0.7,2.5,1.2
			c0.5,0.5,0.8,1.2,0.8,2c0,1.1-0.4,1.9-1.2,2.6c-0.8,0.7-2,1-3.6,1c-1.7,0-2.9-0.4-3.7-1.1c-0.8-0.7-1.2-1.6-1.2-2.7h2.8
			c0.1,0.5,0.2,0.8,0.4,1.1c0.3,0.4,1,0.6,1.9,0.6c0.5,0,1-0.1,1.3-0.2c0.3-0.2,0.5-0.4,0.5-0.7c0-0.3-0.1-0.6-0.4-0.7
			c-0.3-0.2-1.2-0.4-2.9-0.8c-1.2-0.3-2.1-0.7-2.5-1.1c-0.5-0.4-0.7-1.1-0.7-1.9c0-1,0.4-1.8,1.2-2.5c0.8-0.7,1.9-1.1,3.3-1.1
			C181.7-1217.1,182.7-1216.8,183.6-1216.3z"/>
		<path class="st3" d="M197.8-1208.1v2.1l-1.3,0c-1.3,0-2.2-0.2-2.7-0.7c-0.3-0.3-0.5-0.8-0.5-1.5v-6.6h-1.5v-2h1.5v-3h2.8v3h1.7v2
			h-1.7v5.6c0,0.4,0.1,0.7,0.2,0.8s0.4,0.2,1,0.2c0.1,0,0.2,0,0.3,0C197.6-1208.1,197.7-1208.1,197.8-1208.1z"/>
		<path class="st3" d="M209.2-1212.4v6.2h-2.8v-6.5c0-0.6-0.1-1-0.3-1.4c-0.3-0.5-0.7-0.7-1.4-0.7c-0.7,0-1.3,0.2-1.7,0.7
			c-0.4,0.5-0.6,1.2-0.6,2.1v5.8h-2.8v-14.3h2.8v5.1c0.4-0.6,0.9-1,1.4-1.3s1.1-0.4,1.7-0.4c0.7,0,1.3,0.1,1.8,0.3
			c0.5,0.2,1,0.6,1.3,1c0.3,0.4,0.5,0.8,0.5,1.2S209.2-1213.3,209.2-1212.4z"/>
		<path class="st3" d="M214.7-1220.6v2.6h-2.8v-2.6H214.7z M214.7-1216.8v10.6h-2.8v-10.6H214.7z"/>
		<path class="st3" d="M224.7-1216.3c0.8,0.5,1.3,1.5,1.4,2.8h-2.8c0-0.4-0.1-0.6-0.3-0.8c-0.3-0.4-0.8-0.6-1.6-0.6
			c-0.6,0-1,0.1-1.3,0.3c-0.3,0.2-0.4,0.4-0.4,0.7c0,0.3,0.1,0.5,0.4,0.7c0.3,0.1,1.2,0.4,2.9,0.8c1.1,0.3,1.9,0.7,2.5,1.2
			c0.5,0.5,0.8,1.2,0.8,2c0,1.1-0.4,1.9-1.2,2.6c-0.8,0.7-2,1-3.6,1c-1.7,0-2.9-0.4-3.7-1.1c-0.8-0.7-1.2-1.6-1.2-2.7h2.8
			c0.1,0.5,0.2,0.8,0.4,1.1c0.3,0.4,1,0.6,1.9,0.6c0.5,0,1-0.1,1.3-0.2c0.3-0.2,0.5-0.4,0.5-0.7c0-0.3-0.1-0.6-0.4-0.7
			c-0.3-0.2-1.2-0.4-2.9-0.8c-1.2-0.3-2.1-0.7-2.5-1.1c-0.5-0.4-0.7-1.1-0.7-1.9c0-1,0.4-1.8,1.2-2.5c0.8-0.7,1.9-1.1,3.3-1.1
			C222.8-1217.1,223.8-1216.8,224.7-1216.3z"/>
		<path class="st3" d="M243.7-1220.5v14.4H241v-1.5c-0.4,0.6-0.8,1.1-1.4,1.4c-0.5,0.3-1.1,0.4-1.9,0.4c-1.2,0-2.3-0.5-3.1-1.5
			s-1.3-2.3-1.3-3.9c0-1.8,0.4-3.2,1.3-4.3c0.8-1,2-1.6,3.4-1.6c0.6,0,1.2,0.1,1.7,0.4s0.9,0.7,1.2,1.2v-5.1H243.7z M236.2-1211.4
			c0,1,0.2,1.8,0.6,2.4c0.4,0.6,1,0.9,1.8,0.9s1.4-0.3,1.8-0.9s0.6-1.3,0.6-2.3c0-1.3-0.3-2.2-1-2.8c-0.4-0.3-0.9-0.5-1.4-0.5
			c-0.8,0-1.4,0.3-1.8,0.9S236.2-1212.3,236.2-1211.4z"/>
		<path class="st3" d="M246.7-1215.6c0.7-0.9,2-1.4,3.8-1.4c1.2,0,2.2,0.2,3.1,0.7c0.9,0.5,1.4,1.3,1.4,2.6v4.9c0,0.3,0,0.7,0,1.2
			c0,0.4,0.1,0.6,0.2,0.7c0.1,0.1,0.2,0.2,0.4,0.3v0.4h-3c-0.1-0.2-0.1-0.4-0.2-0.6c0-0.2-0.1-0.4-0.1-0.6c-0.4,0.4-0.8,0.8-1.3,1.1
			c-0.6,0.3-1.3,0.5-2,0.5c-1,0-1.8-0.3-2.4-0.8c-0.6-0.6-0.9-1.3-0.9-2.3c0-1.3,0.5-2.3,1.5-2.8c0.6-0.3,1.4-0.5,2.4-0.7l0.9-0.1
			c0.5-0.1,0.9-0.1,1.1-0.2c0.4-0.2,0.6-0.4,0.6-0.8c0-0.4-0.2-0.7-0.5-0.9s-0.7-0.2-1.3-0.2c-0.7,0-1.1,0.2-1.4,0.5
			c-0.2,0.2-0.3,0.6-0.4,1h-2.7C245.9-1214.3,246.2-1215,246.7-1215.6z M248.7-1208.1c0.3,0.2,0.6,0.3,1,0.3c0.6,0,1.2-0.2,1.7-0.5
			s0.8-1,0.8-1.9v-1c-0.2,0.1-0.4,0.2-0.5,0.3s-0.4,0.1-0.7,0.2l-0.6,0.1c-0.6,0.1-1,0.2-1.3,0.4c-0.4,0.3-0.6,0.6-0.6,1.2
			C248.3-1208.7,248.5-1208.3,248.7-1208.1z"/>
		<path class="st3" d="M262.2-1208.1v2.1l-1.3,0c-1.3,0-2.2-0.2-2.7-0.7c-0.3-0.3-0.5-0.8-0.5-1.5v-6.6h-1.5v-2h1.5v-3h2.8v3h1.7v2
			h-1.7v5.6c0,0.4,0.1,0.7,0.2,0.8s0.4,0.2,1,0.2c0.1,0,0.2,0,0.3,0C262.1-1208.1,262.2-1208.1,262.2-1208.1z"/>
		<path class="st3" d="M264.4-1215.6c0.7-0.9,2-1.4,3.8-1.4c1.2,0,2.2,0.2,3.1,0.7c0.9,0.5,1.4,1.3,1.4,2.6v4.9c0,0.3,0,0.7,0,1.2
			c0,0.4,0.1,0.6,0.2,0.7c0.1,0.1,0.2,0.2,0.4,0.3v0.4h-3c-0.1-0.2-0.1-0.4-0.2-0.6c0-0.2-0.1-0.4-0.1-0.6c-0.4,0.4-0.8,0.8-1.3,1.1
			c-0.6,0.3-1.3,0.5-2,0.5c-1,0-1.8-0.3-2.4-0.8c-0.6-0.6-0.9-1.3-0.9-2.3c0-1.3,0.5-2.3,1.5-2.8c0.6-0.3,1.4-0.5,2.4-0.7l0.9-0.1
			c0.5-0.1,0.9-0.1,1.1-0.2c0.4-0.2,0.6-0.4,0.6-0.8c0-0.4-0.2-0.7-0.5-0.9s-0.7-0.2-1.3-0.2c-0.7,0-1.1,0.2-1.4,0.5
			c-0.2,0.2-0.3,0.6-0.4,1h-2.7C263.7-1214.3,264-1215,264.4-1215.6z M266.5-1208.1c0.3,0.2,0.6,0.3,1,0.3c0.6,0,1.2-0.2,1.7-0.5
			s0.8-1,0.8-1.9v-1c-0.2,0.1-0.4,0.2-0.5,0.3s-0.4,0.1-0.7,0.2l-0.6,0.1c-0.6,0.1-1,0.2-1.3,0.4c-0.4,0.3-0.6,0.6-0.6,1.2
			C266.1-1208.7,266.2-1208.3,266.5-1208.1z"/>
	</g>
	<g>
		<path class="st7" d="M373.6-1188.8c-1.6,0-2.9-0.4-3.8-1.3c-1.2-1.1-1.8-2.7-1.8-4.8c0-2.1,0.6-3.7,1.8-4.8
			c0.9-0.9,2.1-1.3,3.8-1.3c1.6,0,2.9,0.4,3.8,1.3c1.2,1.1,1.7,2.6,1.7,4.8c0,2.1-0.6,3.7-1.7,4.8
			C376.5-1189.2,375.2-1188.8,373.6-1188.8z M375.9-1191.9c0.6-0.7,0.8-1.7,0.8-3c0-1.3-0.3-2.3-0.8-3c-0.6-0.7-1.3-1.1-2.3-1.1
			s-1.7,0.4-2.3,1.1c-0.6,0.7-0.9,1.7-0.9,3s0.3,2.3,0.9,3c0.6,0.7,1.3,1.1,2.3,1.1S375.3-1191.2,375.9-1191.9z"/>
		<path class="st7" d="M387.9-1196.7c0.7,0.7,1,1.8,1,3.2c0,1.5-0.3,2.6-1,3.4c-0.7,0.8-1.5,1.2-2.6,1.2c-0.7,0-1.2-0.2-1.7-0.5
			c-0.2-0.2-0.5-0.5-0.7-0.8v4.4h-2.2v-11.9h2.1v1.3c0.2-0.4,0.5-0.7,0.8-0.9c0.5-0.4,1.1-0.6,1.8-0.6
			C386.4-1197.8,387.2-1197.4,387.9-1196.7z M386.6-1193.4c0-0.7-0.2-1.2-0.4-1.7c-0.3-0.5-0.8-0.8-1.5-0.8c-0.8,0-1.4,0.4-1.7,1.1
			c-0.2,0.4-0.2,0.9-0.2,1.5c0,1,0.3,1.7,0.8,2.1c0.3,0.2,0.7,0.4,1.1,0.4c0.6,0,1.1-0.2,1.4-0.7
			C386.5-1191.9,386.6-1192.6,386.6-1193.4z"/>
		<path class="st7" d="M397.8-1191.6c-0.1,0.5-0.3,1-0.8,1.5c-0.7,0.8-1.8,1.2-3.1,1.2c-1.1,0-2-0.3-2.9-1s-1.2-1.8-1.2-3.4
			c0-1.5,0.4-2.6,1.1-3.4c0.7-0.8,1.7-1.2,2.9-1.2c0.7,0,1.3,0.1,1.9,0.4c0.6,0.3,1,0.7,1.4,1.3c0.3,0.5,0.5,1.1,0.6,1.8
			c0.1,0.4,0.1,1,0.1,1.7h-5.8c0,0.9,0.3,1.5,0.8,1.8c0.3,0.2,0.7,0.3,1.1,0.3c0.5,0,0.8-0.1,1.1-0.4c0.2-0.1,0.3-0.3,0.4-0.6H397.8
			z M395.6-1194.2c0-0.6-0.2-1-0.5-1.3s-0.7-0.5-1.2-0.5c-0.5,0-0.9,0.2-1.2,0.5c-0.3,0.3-0.5,0.8-0.5,1.3H395.6z"/>
		<path class="st7" d="M403.4-1196c-0.8,0-1.3,0.3-1.6,1c-0.1,0.3-0.2,0.8-0.2,1.3v4.6h-2.2v-8.5h2.1v1.2c0.3-0.4,0.6-0.8,0.8-0.9
			c0.5-0.3,1-0.5,1.7-0.5c0.9,0,1.6,0.2,2.2,0.7c0.6,0.5,0.8,1.2,0.8,2.3v5.7h-2.3v-5.2c0-0.4-0.1-0.8-0.2-1
			C404.5-1195.8,404.1-1196,403.4-1196z"/>
		<path class="st15" d="M372.7-1171.6c0.6,0,1-0.1,1.4-0.2c0.7-0.2,1-0.7,1-1.3c0-0.4-0.2-0.7-0.5-0.9c-0.3-0.2-0.9-0.4-1.6-0.5
			l-1.2-0.3c-1.2-0.3-2-0.6-2.5-0.9c-0.8-0.5-1.2-1.4-1.2-2.5c0-1,0.4-1.9,1.1-2.6c0.8-0.7,1.9-1,3.3-1c1.2,0,2.2,0.3,3.1,1
			c0.9,0.6,1.3,1.6,1.3,2.8h-2.3c0-0.7-0.3-1.2-0.9-1.5c-0.4-0.2-0.8-0.3-1.4-0.3c-0.6,0-1.1,0.1-1.5,0.4c-0.4,0.2-0.6,0.6-0.6,1
			c0,0.4,0.2,0.7,0.5,0.9c0.2,0.1,0.7,0.3,1.5,0.5l2,0.5c0.9,0.2,1.5,0.5,2,0.8c0.7,0.5,1,1.3,1,2.4c0,1.1-0.4,1.9-1.2,2.6
			s-1.9,1-3.4,1c-1.5,0-2.7-0.3-3.5-1c-0.9-0.7-1.3-1.6-1.3-2.8h2.3c0.1,0.5,0.2,0.9,0.4,1.2
			C371.1-1171.8,371.7-1171.6,372.7-1171.6z"/>
		<path class="st15" d="M386.7-1174.9v5h-2.3v-5.2c0-0.5-0.1-0.8-0.2-1.1c-0.2-0.4-0.6-0.6-1.2-0.6c-0.6,0-1,0.2-1.3,0.6
			c-0.3,0.4-0.5,1-0.5,1.7v4.6H379v-11.5h2.2v4.1c0.3-0.5,0.7-0.8,1.1-1c0.4-0.2,0.9-0.3,1.3-0.3c0.5,0,1,0.1,1.4,0.3
			c0.4,0.2,0.8,0.5,1.1,0.8c0.2,0.3,0.4,0.6,0.4,1C386.7-1176.2,386.7-1175.7,386.7-1174.9z"/>
		<path class="st15" d="M389.1-1177.5c0.6-0.8,1.6-1.1,3-1.1c0.9,0,1.8,0.2,2.5,0.6c0.7,0.4,1.1,1.1,1.1,2.1v3.9c0,0.3,0,0.6,0,1
			c0,0.3,0.1,0.5,0.1,0.6c0.1,0.1,0.2,0.2,0.3,0.3v0.3h-2.4c-0.1-0.2-0.1-0.3-0.1-0.5c0-0.2,0-0.3-0.1-0.5c-0.3,0.3-0.7,0.6-1.1,0.9
			c-0.5,0.3-1,0.4-1.6,0.4c-0.8,0-1.4-0.2-1.9-0.7c-0.5-0.4-0.8-1.1-0.8-1.9c0-1,0.4-1.8,1.2-2.3c0.4-0.3,1.1-0.4,2-0.5l0.8-0.1
			c0.4-0.1,0.7-0.1,0.9-0.2c0.3-0.1,0.5-0.3,0.5-0.6c0-0.3-0.1-0.6-0.4-0.7s-0.6-0.2-1.1-0.2c-0.5,0-0.9,0.1-1.1,0.4
			c-0.2,0.2-0.3,0.5-0.3,0.8h-2.1C388.5-1176.4,388.7-1177,389.1-1177.5z M390.7-1171.5c0.2,0.2,0.5,0.3,0.8,0.3
			c0.5,0,0.9-0.1,1.3-0.4c0.4-0.3,0.6-0.8,0.6-1.5v-0.8c-0.1,0.1-0.3,0.2-0.4,0.2c-0.1,0.1-0.3,0.1-0.6,0.2l-0.5,0.1
			c-0.5,0.1-0.8,0.2-1,0.3c-0.3,0.2-0.5,0.5-0.5,0.9C390.4-1172,390.5-1171.7,390.7-1171.5z"/>
		<path class="st15" d="M401.9-1176.4c-0.9,0-1.5,0.3-1.8,0.9c-0.2,0.3-0.3,0.8-0.3,1.5v4.1h-2.2v-8.5h2.1v1.5
			c0.3-0.6,0.6-1,0.9-1.2c0.4-0.3,1-0.5,1.6-0.5c0,0,0.1,0,0.1,0c0,0,0.1,0,0.2,0v2.3c-0.1,0-0.3,0-0.4,0
			C402.1-1176.4,402-1176.4,401.9-1176.4z"/>
		<path class="st15" d="M411.2-1172.4c-0.1,0.5-0.3,1-0.8,1.5c-0.7,0.8-1.8,1.2-3.1,1.2c-1.1,0-2-0.3-2.9-1
			c-0.8-0.7-1.2-1.8-1.2-3.4c0-1.5,0.4-2.6,1.1-3.4c0.7-0.8,1.7-1.2,2.9-1.2c0.7,0,1.3,0.1,1.9,0.4c0.6,0.3,1,0.7,1.4,1.3
			c0.3,0.5,0.5,1.1,0.6,1.8c0.1,0.4,0.1,1,0.1,1.7h-5.8c0,0.9,0.3,1.5,0.8,1.8c0.3,0.2,0.7,0.3,1.1,0.3c0.5,0,0.8-0.1,1.1-0.4
			c0.2-0.1,0.3-0.3,0.4-0.6H411.2z M409-1175c0-0.6-0.2-1-0.5-1.3s-0.7-0.5-1.2-0.5c-0.5,0-0.9,0.2-1.2,0.5
			c-0.3,0.3-0.5,0.8-0.5,1.3H409z"/>
		<path class="st15" d="M420.5-1181.4v11.5h-2.2v-1.2c-0.3,0.5-0.7,0.9-1.1,1.1s-0.9,0.3-1.5,0.3c-1,0-1.8-0.4-2.5-1.2s-1-1.8-1-3.1
			c0-1.5,0.3-2.6,1-3.4c0.7-0.8,1.6-1.2,2.7-1.2c0.5,0,1,0.1,1.4,0.3c0.4,0.2,0.7,0.5,1,0.9v-4.1H420.5z M414.5-1174.1
			c0,0.8,0.2,1.4,0.5,1.9c0.3,0.5,0.8,0.7,1.4,0.7c0.6,0,1.1-0.2,1.4-0.7s0.5-1.1,0.5-1.8c0-1-0.3-1.8-0.8-2.2
			c-0.3-0.3-0.7-0.4-1.1-0.4c-0.7,0-1.1,0.2-1.4,0.7S414.5-1174.8,414.5-1174.1z"/>
		<path class="st7" d="M376.6-1151.6c-0.9,0.8-2,1.2-3.3,1.2c-1.7,0-3-0.5-3.9-1.6c-0.9-1.1-1.4-2.5-1.4-4.4c0-2,0.5-3.6,1.6-4.6
			c0.9-0.9,2.1-1.4,3.6-1.4c1.9,0,3.4,0.6,4.2,1.9c0.5,0.7,0.8,1.4,0.8,2.1h-2.4c-0.2-0.6-0.4-1-0.6-1.2c-0.4-0.5-1.1-0.8-1.9-0.8
			c-0.9,0-1.6,0.4-2.1,1.1c-0.5,0.7-0.8,1.7-0.8,3c0,1.3,0.3,2.3,0.8,2.9c0.5,0.6,1.2,1,2,1c0.8,0,1.5-0.3,1.9-0.8
			c0.2-0.3,0.4-0.7,0.6-1.3h2.4C378-1153.4,377.5-1152.4,376.6-1151.6z"/>
		<path class="st7" d="M379.9-1162.2h2.2v11.5h-2.2V-1162.2z"/>
		<path class="st7" d="M391.4-1158.1c0.7,0.9,1.1,2,1.1,3.2c0,1.2-0.4,2.3-1.1,3.2c-0.7,0.9-1.8,1.3-3.3,1.3c-1.5,0-2.6-0.4-3.3-1.3
			c-0.7-0.9-1.1-2-1.1-3.2c0-1.2,0.4-2.3,1.1-3.2c0.7-0.9,1.8-1.4,3.3-1.4C389.6-1159.5,390.7-1159,391.4-1158.1z M388.1-1157.6
			c-0.7,0-1.2,0.2-1.5,0.7s-0.5,1.1-0.5,2c0,0.9,0.2,1.5,0.5,2c0.4,0.5,0.9,0.7,1.5,0.7c0.7,0,1.2-0.2,1.5-0.7
			c0.3-0.5,0.5-1.1,0.5-2c0-0.9-0.2-1.5-0.5-2C389.3-1157.4,388.8-1157.6,388.1-1157.6z"/>
		<path class="st7" d="M400-1158.8c0.7,0.4,1,1.2,1.1,2.2h-2.2c0-0.3-0.1-0.5-0.2-0.7c-0.2-0.3-0.7-0.5-1.2-0.5
			c-0.5,0-0.8,0.1-1,0.2c-0.2,0.2-0.3,0.3-0.3,0.5c0,0.3,0.1,0.4,0.3,0.6c0.2,0.1,1,0.3,2.3,0.6c0.9,0.2,1.5,0.5,2,0.9
			c0.4,0.4,0.7,1,0.7,1.6c0,0.8-0.3,1.5-0.9,2.1c-0.6,0.5-1.6,0.8-2.9,0.8c-1.3,0-2.3-0.3-3-0.8c-0.6-0.6-1-1.3-1-2.2h2.3
			c0,0.4,0.1,0.7,0.3,0.8c0.3,0.3,0.8,0.4,1.5,0.4c0.4,0,0.8-0.1,1-0.2c0.3-0.1,0.4-0.3,0.4-0.6c0-0.2-0.1-0.4-0.3-0.6
			c-0.2-0.1-1-0.4-2.3-0.7c-1-0.2-1.6-0.5-2-0.9c-0.4-0.4-0.6-0.9-0.6-1.5c0-0.8,0.3-1.5,0.9-2c0.6-0.6,1.5-0.8,2.6-0.8
			C398.4-1159.5,399.3-1159.3,400-1158.8z"/>
		<path class="st7" d="M410.3-1153.2c-0.1,0.5-0.3,1-0.8,1.5c-0.7,0.8-1.8,1.2-3.1,1.2c-1.1,0-2-0.3-2.9-1c-0.8-0.7-1.2-1.8-1.2-3.4
			c0-1.5,0.4-2.6,1.1-3.4c0.7-0.8,1.7-1.2,2.9-1.2c0.7,0,1.3,0.1,1.9,0.4c0.6,0.3,1,0.7,1.4,1.3c0.3,0.5,0.5,1.1,0.6,1.8
			c0.1,0.4,0.1,1,0.1,1.7h-5.8c0,0.9,0.3,1.5,0.8,1.8c0.3,0.2,0.7,0.3,1.1,0.3c0.5,0,0.8-0.1,1.1-0.4c0.2-0.1,0.3-0.3,0.4-0.6H410.3
			z M408.1-1155.8c0-0.6-0.2-1-0.5-1.3s-0.7-0.5-1.2-0.5c-0.5,0-0.9,0.2-1.2,0.5c-0.3,0.3-0.5,0.8-0.5,1.3H408.1z"/>
		<path class="st7" d="M419.6-1162.2v11.5h-2.2v-1.2c-0.3,0.5-0.7,0.9-1.1,1.1c-0.4,0.2-0.9,0.3-1.5,0.3c-1,0-1.8-0.4-2.5-1.2
			s-1-1.8-1-3.1c0-1.5,0.3-2.6,1-3.4c0.7-0.8,1.6-1.2,2.7-1.2c0.5,0,1,0.1,1.4,0.3c0.4,0.2,0.7,0.5,1,0.9v-4.1H419.6z M413.6-1154.9
			c0,0.8,0.2,1.4,0.5,1.9c0.3,0.5,0.8,0.7,1.4,0.7c0.6,0,1.1-0.2,1.4-0.7s0.5-1.1,0.5-1.8c0-1-0.3-1.8-0.8-2.2
			c-0.3-0.3-0.7-0.4-1.1-0.4c-0.7,0-1.1,0.2-1.4,0.7S413.6-1155.6,413.6-1154.9z"/>
	</g>
	<polygon class="st16" points="361.9,-1174.6 353.1,-1179.7 353.1,-1169.6 	"/>
	<g>
		<path class="st15" d="M41.1-1396.3H30.7v-24h10.4c1.5,0,2.7,0.2,3.7,0.5c1.7,0.6,3.1,1.6,4.1,3.1c0.8,1.2,1.4,2.5,1.7,3.9
			c0.3,1.4,0.5,2.7,0.5,4c0,3.2-0.6,5.9-1.9,8.1C47.4-1397.8,44.7-1396.3,41.1-1396.3z M44.8-1414.2c-0.8-1.3-2.3-2-4.6-2h-4.6v15.7
			h4.6c2.4,0,4-1.2,5-3.5c0.5-1.3,0.8-2.8,0.8-4.6C46-1411,45.6-1412.9,44.8-1414.2z"/>
		<path class="st15" d="M55.1-1412.2c1.2-1.6,3.3-2.3,6.3-2.3c1.9,0,3.7,0.4,5.2,1.2c1.5,0.8,2.3,2.2,2.3,4.4v8.2c0,0.6,0,1.3,0,2.1
			c0,0.6,0.1,1,0.3,1.2c0.2,0.2,0.4,0.4,0.7,0.5v0.7h-5.1c-0.1-0.4-0.2-0.7-0.3-1c-0.1-0.3-0.1-0.7-0.1-1.1
			c-0.6,0.7-1.4,1.3-2.2,1.8c-1,0.6-2.1,0.9-3.4,0.9c-1.6,0-2.9-0.5-4-1.4s-1.6-2.2-1.6-3.9c0-2.2,0.8-3.8,2.5-4.7
			c0.9-0.5,2.3-0.9,4.1-1.1l1.6-0.2c0.9-0.1,1.5-0.2,1.8-0.4c0.7-0.3,1-0.7,1-1.3c0-0.7-0.3-1.2-0.8-1.5c-0.5-0.3-1.2-0.4-2.2-0.4
			c-1.1,0-1.9,0.3-2.3,0.8c-0.3,0.4-0.5,0.9-0.7,1.6h-4.5C53.9-1409.9,54.4-1411.2,55.1-1412.2z M58.6-1399.7c0.4,0.4,1,0.5,1.6,0.5
			c1,0,1.9-0.3,2.8-0.9c0.8-0.6,1.3-1.7,1.3-3.2v-1.7c-0.3,0.2-0.6,0.3-0.9,0.4c-0.3,0.1-0.7,0.2-1.2,0.3l-1,0.2
			c-1,0.2-1.7,0.4-2.1,0.6c-0.7,0.4-1.1,1.1-1.1,2C57.9-1400.6,58.1-1400,58.6-1399.7z"/>
		<path class="st15" d="M81.2-1399.6v3.5l-2.2,0.1c-2.2,0.1-3.7-0.3-4.5-1.1c-0.5-0.5-0.8-1.4-0.8-2.5v-10.9h-2.5v-3.3h2.5v-5h4.6v5
			h2.9v3.3h-2.9v9.4c0,0.7,0.1,1.2,0.3,1.4c0.2,0.2,0.8,0.3,1.7,0.3c0.1,0,0.3,0,0.4,0C80.9-1399.6,81-1399.6,81.2-1399.6z"/>
		<path class="st15" d="M84.8-1412.2c1.2-1.6,3.3-2.3,6.3-2.3c1.9,0,3.7,0.4,5.2,1.2c1.5,0.8,2.3,2.2,2.3,4.4v8.2c0,0.6,0,1.3,0,2.1
			c0,0.6,0.1,1,0.3,1.2c0.2,0.2,0.4,0.4,0.7,0.5v0.7h-5.1c-0.1-0.4-0.2-0.7-0.3-1c-0.1-0.3-0.1-0.7-0.1-1.1
			c-0.6,0.7-1.4,1.3-2.2,1.8c-1,0.6-2.1,0.9-3.4,0.9c-1.6,0-2.9-0.5-4-1.4s-1.6-2.2-1.6-3.9c0-2.2,0.8-3.8,2.5-4.7
			c0.9-0.5,2.3-0.9,4.1-1.1l1.6-0.2c0.9-0.1,1.5-0.2,1.8-0.4c0.7-0.3,1-0.7,1-1.3c0-0.7-0.3-1.2-0.8-1.5c-0.5-0.3-1.2-0.4-2.2-0.4
			c-1.1,0-1.9,0.3-2.3,0.8c-0.3,0.4-0.5,0.9-0.7,1.6h-4.5C83.6-1409.9,84.1-1411.2,84.8-1412.2z M88.3-1399.7c0.4,0.4,1,0.5,1.6,0.5
			c1,0,1.9-0.3,2.8-0.9c0.8-0.6,1.3-1.7,1.3-3.2v-1.7c-0.3,0.2-0.6,0.3-0.9,0.4c-0.3,0.1-0.7,0.2-1.2,0.3l-1,0.2
			c-1,0.2-1.7,0.4-2.1,0.6c-0.7,0.4-1.1,1.1-1.1,2C87.6-1400.6,87.9-1400,88.3-1399.7z"/>
		<path class="st15" d="M115-1413.3c1.4,0.9,2.2,2.4,2.4,4.6h-4.6c-0.1-0.6-0.2-1.1-0.5-1.4c-0.5-0.6-1.4-0.9-2.6-0.9
			c-1,0-1.7,0.2-2.2,0.5s-0.6,0.7-0.6,1.1c0,0.5,0.2,0.9,0.7,1.2c0.5,0.2,2.1,0.7,4.8,1.3c1.8,0.4,3.2,1.1,4.2,2
			c0.9,0.9,1.4,2,1.4,3.3c0,1.8-0.7,3.2-2,4.3c-1.3,1.1-3.3,1.7-6.1,1.7c-2.8,0-4.9-0.6-6.2-1.8c-1.3-1.2-2-2.7-2-4.5h4.7
			c0.1,0.8,0.3,1.4,0.6,1.8c0.6,0.6,1.6,0.9,3.2,0.9c0.9,0,1.6-0.1,2.2-0.4c0.5-0.3,0.8-0.7,0.8-1.2c0-0.5-0.2-0.9-0.7-1.2
			c-0.4-0.3-2-0.7-4.8-1.4c-2-0.5-3.4-1.1-4.3-1.9c-0.8-0.7-1.2-1.8-1.2-3.2c0-1.6,0.6-3.1,1.9-4.2c1.3-1.2,3.1-1.8,5.4-1.8
			C111.8-1414.6,113.6-1414.1,115-1413.3z"/>
		<path class="st15" d="M136.5-1401.5c-0.1,1.1-0.7,2.1-1.6,3.2c-1.5,1.7-3.7,2.6-6.4,2.6c-2.3,0-4.3-0.7-6-2.2
			c-1.7-1.5-2.6-3.8-2.6-7.1c0-3.1,0.8-5.4,2.3-7.1c1.6-1.6,3.6-2.5,6.1-2.5c1.5,0,2.8,0.3,4,0.8c1.2,0.6,2.2,1.4,2.9,2.6
			c0.7,1.1,1.1,2.3,1.4,3.7c0.1,0.8,0.2,2,0.1,3.5h-12.2c0.1,1.8,0.6,3,1.7,3.8c0.6,0.4,1.4,0.7,2.3,0.7c1,0,1.7-0.3,2.3-0.8
			c0.3-0.3,0.6-0.7,0.9-1.2H136.5z M131.9-1407c-0.1-1.2-0.4-2.2-1.1-2.8c-0.7-0.6-1.5-1-2.5-1c-1.1,0-1.9,0.3-2.5,1s-1,1.6-1.1,2.7
			H131.9z"/>
		<path class="st15" d="M148-1399.6v3.5l-2.2,0.1c-2.2,0.1-3.7-0.3-4.5-1.1c-0.5-0.5-0.8-1.4-0.8-2.5v-10.9h-2.5v-3.3h2.5v-5h4.6v5
			h2.9v3.3h-2.9v9.4c0,0.7,0.1,1.2,0.3,1.4c0.2,0.2,0.8,0.3,1.7,0.3c0.1,0,0.3,0,0.4,0C147.7-1399.6,147.9-1399.6,148-1399.6z"/>
	</g>
</g>
</svg>
